<svg id="Component_8_2" data-name="Component 8 – 2" xmlns="http://www.w3.org/2000/svg" width="36.508" height="20.609" viewBox="0 0 36.508 20.609">
  <path id="Path_788" data-name="Path 788" d="M37.284,23.143H25.254a10.02,10.02,0,0,1-7.238,3.091A10.221,10.221,0,0,1,7.875,15.93a10.221,10.221,0,0,1,10.141-10.3,10.02,10.02,0,0,1,7.238,3.091h12.03a7.214,7.214,0,0,1,0,14.427Zm2.142-9.39a2.991,2.991,0,0,0-2.142-.915h-9.6a10.422,10.422,0,0,1,0,6.183h9.6a2.969,2.969,0,0,0,2.142-.915,3.083,3.083,0,0,0,0-4.354Z" transform="translate(-7.875 -5.625)" fill="#a7a7a7"/>
</svg>
