<svg id="Component_8_14" data-name="Component 8 – 14" xmlns="http://www.w3.org/2000/svg" width="36.508" height="20.609" viewBox="0 0 36.508 20.609">
  <path id="Path_788" data-name="Path 788" d="M14.974,23.143H27a10.02,10.02,0,0,0,7.238,3.091,10.221,10.221,0,0,0,10.141-10.3,10.221,10.221,0,0,0-10.141-10.3A10.02,10.02,0,0,0,27,8.716H14.974a7.214,7.214,0,0,0,0,14.427Zm-2.142-9.39a2.991,2.991,0,0,1,2.142-.915h9.6a10.422,10.422,0,0,0,0,6.183h-9.6a2.969,2.969,0,0,1-2.142-.915,3.083,3.083,0,0,1,0-4.354Z" transform="translate(-7.875 -5.625)" fill="#fd6920"/>
</svg>
