<svg xmlns="http://www.w3.org/2000/svg" width="218.35" height="117.229" viewBox="0 0 218.35 117.229">
  <g id="Group_86" data-name="Group 86" transform="translate(1.258 1.477)">
    <path id="Path_518" data-name="Path 518" d="M495.8,452.858c2.24-3.443,15.455-42.763,22.107-45.061s36.412,30.049,41.62,28.908,31.268-54.485,35.007-55.822c3.524-.962,36.115,33.859,42.039,32.886s26.946-52.363,32.672-53.928,30.663,30.329,36.788,36.836" transform="translate(-490.038 -337.924)" fill="none" stroke="#101010" stroke-miterlimit="10" stroke-width="3"/>
    <path id="Path_519" data-name="Path 519" d="M491.874,438.218c2.24-3.443,15.455-42.762,22.108-45.06s36.412,30.049,41.62,28.908,31.267-54.486,35.007-55.822c3.524-.962,36.114,33.858,42.038,32.885s26.946-52.362,32.673-53.927,30.663,30.328,36.788,36.836" transform="translate(-488.991 -334.215)" fill="none" stroke="#101010" stroke-miterlimit="10" stroke-width="3"/>
    <path id="Path_520" data-name="Path 520" d="M487.944,423.579c2.24-3.445,15.455-42.763,22.108-45.061s36.411,30.047,41.62,28.908,31.267-54.487,35.007-55.823c3.524-.962,36.115,33.857,42.039,32.884s26.946-52.362,32.673-53.926,30.662,30.328,36.788,36.837" transform="translate(-487.944 -330.505)" fill="none" stroke="#101010" stroke-miterlimit="10" stroke-width="3"/>
  </g>
</svg>
