<svg xmlns="http://www.w3.org/2000/svg" width="53.121" height="53.121" viewBox="0 0 53.121 53.121">
  <g id="Group_806" data-name="Group 806" transform="translate(-22.121 -694.5)">
    <g id="Switch_theme_group_2" data-name="Switch theme group 2" transform="translate(23.055 695.432)">
      <g id="Switch_theme_group_2-2" data-name="Switch theme group 2-2">
        <path id="Path_970" data-name="Path 970" d="M33.127,7.5A25.627,25.627,0,1,0,58.755,33.127,25.627,25.627,0,0,0,33.127,7.5ZM31.194,42.409a9.282,9.282,0,1,1,4.641-17.321,9.282,9.282,0,1,1,0,16.079A9.239,9.239,0,0,1,31.194,42.409Z" transform="translate(-7.5 -7.5)" fill="#ffbb57" fill-rule="evenodd"/>
        <path id="Path_971" data-name="Path 971" d="M158.447,166a11.2,11.2,0,1,0,5.6,20.9,11.2,11.2,0,0,1,0-19.4A11.146,11.146,0,0,0,158.447,166Z" transform="translate(-133.947 -151.569)" fill="#fdee84" fill-rule="evenodd"/>
        <path id="Path_972" data-name="Path 972" d="M220,190.022a11.124,11.124,0,0,0,3.145-1.229,11.2,11.2,0,0,1,0-19.4A11.124,11.124,0,0,0,220,168.168a13.992,13.992,0,0,0,0,21.854Z" transform="translate(-194.07 -153.468)" fill="#fce200" fill-rule="evenodd"/>
        <path id="Path_973" data-name="Path 973" d="M38.415,7.5C21.341,7.5,7.5,18.974,7.5,33.127S21.341,58.755,38.415,58.755c.268,0-28.116-3.123-28.116-25.627C10.3,10.287,38.933,7.5,38.415,7.5Z" transform="translate(-7.5 -7.5)" fill="#006dee" fill-rule="evenodd"/>
        <path id="Path_974" data-name="Path 974" d="M237.25,177.191a11.2,11.2,0,0,0,12.6,11.11,11.2,11.2,0,0,1,0-22.219A11.2,11.2,0,0,0,237.25,177.191Z" transform="translate(-214.807 -151.563)" fill="#7a797f" fill-rule="evenodd"/>
      </g>
      <g id="Switch_theme_group_2-1" data-name="Switch theme group 2-1" transform="translate(33.434 5.598)">
        <path id="Path_975" data-name="Path 975" d="M344.1,56.232h-1.866V54.366H344.1Zm-3.732-1.866H338.5V52.5h1.866Z" transform="translate(-338.499 -52.5)" fill="#fff"/>
      </g>
    </g>
    <g id="Switch_theme_group_1" data-name="Switch theme group 1" transform="translate(22.121 694.5)">
      <path id="Path_976" data-name="Path 976" d="M45.342,7.779A26.561,26.561,0,0,0,7.779,45.342a26.56,26.56,0,0,0,35.779,1.627l-1-1.2a25.007,25.007,0,1,1,3.206-3.2l1.2,1A26.559,26.559,0,0,0,45.342,7.779Z" transform="translate(0 0)"/>
      <path id="Path_977" data-name="Path 977" d="M0,0H1.866V1.866H0Z" transform="translate(41.803 43.153) rotate(-44.676)"/>
      <path id="Path_978" data-name="Path 978" d="M163.077,182.76a12.13,12.13,0,1,0-5.6-22.892,12.135,12.135,0,0,0-13.39,1.467l1.2,1.429a10.271,10.271,0,0,1,10.327-1.7,12.128,12.128,0,0,0,0,19.124A10.264,10.264,0,0,1,144.043,164l-1.424-1.206a12.131,12.131,0,0,0,14.859,18.6A12.136,12.136,0,0,0,163.077,182.76Zm-10.264-12.13a10.26,10.26,0,1,1,5.133,8.891A10.3,10.3,0,0,1,152.813,170.63Z" transform="translate(-128.875 -144.069)"/>
      <path id="Path_979" data-name="Path 979" d="M0,0H3.732V1.866H0Z" transform="matrix(0.5, -0.866, 0.866, 0.5, 16.358, 39.007)"/>
      <path id="Path_980" data-name="Path 980" d="M229.75,368.5h1.866v3.732H229.75Z" transform="translate(-206.056 -330.741)"/>
      <path id="Path_981" data-name="Path 981" d="M0,0H1.866V3.732H0Z" transform="matrix(0.866, -0.5, 0.5, 0.866, 16.358, 14.114)"/>
      <path id="Path_982" data-name="Path 982" d="M229.75,113.5h1.866v3.732H229.75Z" transform="translate(-206.056 -101.87)"/>
      <path id="Path_983" data-name="Path 983" d="M0,0H1.866V3.732H0Z" transform="matrix(0.5, -0.866, 0.866, 0.5, 11.263, 19.898)"/>
      <path id="Path_984" data-name="Path 984" d="M0,0H3.732V1.866H0Z" transform="matrix(0.866, -0.5, 0.5, 0.866, 11.263, 33.223)"/>
      <path id="Path_985" data-name="Path 985" d="M94.75,248.5h3.732v1.866H94.75Z" transform="translate(-85.041 -222.873)"/>
    </g>
  </g>
</svg>
