<svg xmlns="http://www.w3.org/2000/svg" width="361.058" height="195.127" viewBox="0 0 361.058 195.127">
  <g id="Group_736" data-name="Group 736" transform="translate(0.841 0.983)">
    <path id="Path_518" data-name="Path 518" d="M495.8,516.564c3.728-5.8,25.722-72.033,36.792-75.9s60.6,50.617,69.268,48.694,52.039-91.778,58.262-94.03c5.865-1.621,60.105,57.034,69.965,55.4s44.846-88.2,54.375-90.84,51.031,51.088,61.225,62.049" transform="translate(-486.207 -322.961)" fill="none" stroke="#10151a" stroke-miterlimit="10" stroke-width="2"/>
    <path id="Path_519" data-name="Path 519" d="M491.874,501.923c3.728-5.8,25.722-72.031,36.794-75.9s60.6,50.617,69.267,48.694,52.037-91.779,58.262-94.03c5.864-1.621,60.1,57.032,69.963,55.394s44.846-88.2,54.377-90.839,51.031,51.086,61.225,62.049" transform="translate(-487.076 -326.733)" fill="none" stroke="#10151a" stroke-miterlimit="10" stroke-width="2"/>
    <path id="Path_520" data-name="Path 520" d="M487.944,487.285c3.728-5.8,25.722-72.033,36.794-75.9s60.6,50.613,69.268,48.7,52.037-91.782,58.26-94.033c5.865-1.621,60.105,57.031,69.965,55.393s44.846-88.2,54.377-90.837,51.03,51.086,61.225,62.051" transform="translate(-487.944 -330.505)" fill="none" stroke="#10151a" stroke-miterlimit="10" stroke-width="2"/>
  </g>
</svg>
