<svg xmlns="http://www.w3.org/2000/svg" width="26.98" height="30.096" viewBox="0 0 26.98 30.096">
  <g id="Invoicing_Icon" data-name="Invoicing  Icon" transform="translate(0.85 0.85)">
    <path id="Path_3845" data-name="Path 3845" d="M24.038,29.045H8.173A2.967,2.967,0,0,1,5,26.34V2L8.966,4.7,12.139,2l3.966,2.7L20.072,2l3.173,2.7L27.211,2V26.34A2.967,2.967,0,0,1,24.038,29.045Z" transform="translate(-1.081 0.202)" fill="#2f4960"/>
    <path id="Path_629" data-name="Path 629" d="M24.038,29.045H8.173A2.967,2.967,0,0,1,5,26.34V2L8.966,4.7,12.139,2l3.966,2.7L20.072,2l3.173,2.7L27.211,2V26.34A2.967,2.967,0,0,1,24.038,29.045Z" transform="translate(-5 -2)" fill="none" stroke="#e7f1ff" stroke-linecap="round" stroke-linejoin="round" stroke-width="1.7"/>
    <path id="Path_630" data-name="Path 630" d="M9,6h6.663" transform="translate(-1.226 15.637)" fill="none" stroke="#e7f1ff" stroke-linecap="round" stroke-linejoin="round" stroke-width="1.7"/>
    <path id="Path_631" data-name="Path 631" d="M9,10h6.663" transform="translate(-1.226 6.227)" fill="none" stroke="#e7f1ff" stroke-linecap="round" stroke-linejoin="round" stroke-width="1.7"/>
    <path id="Path_632" data-name="Path 632" d="M9,14h1.111" transform="translate(-2.507 -3.183)" fill="none" stroke="#e7f1ff" stroke-linecap="round" stroke-linejoin="round" stroke-width="1.7"/>
  </g>
</svg>
