<svg id="logo-bg" xmlns="http://www.w3.org/2000/svg" width="219.604" height="294.046" viewBox="0 0 219.604 294.046">
  <path id="Path_886" data-name="Path 886" d="M159.667,132.777V85.132c0-20.491-17-37.254-37.776-37.254h-1.684c-20.776,0-37.776,16.763-37.776,37.254V239.115C82.432,189.738,114.758,147.831,159.667,132.777Z" transform="translate(-82.432 -47.878)" fill="rgba(31,31,31,0.26)"/>
  <path id="Path_887" data-name="Path 887" d="M82.432,125.231V183.78c0,20.488,17,37.251,37.776,37.251h1.684a37.851,37.851,0,0,0,11.906-1.938C102.865,199.01,82.432,164.481,82.432,125.231Z" transform="translate(-82.432 69.728)" fill="rgba(31,31,31,0.26)"/>
  <path id="Path_888" data-name="Path 888" d="M190.241,85.078A100.144,100.144,0,1,0,290.383,185.22,100.144,100.144,0,0,0,190.241,85.078Zm0,145.673a45.529,45.529,0,1,1,45.528-45.531A45.531,45.531,0,0,1,190.241,230.751Z" transform="translate(-70.78 8.68)" fill="rgba(31,31,31,0.26)"/>
</svg>
