<svg xmlns="http://www.w3.org/2000/svg" width="21.727" height="32.492" viewBox="0 0 21.727 32.492">
  <g id="Point_of_Sale_Icon" data-name="Point of Sale Icon" transform="translate(0.25 0.26)">
    <rect id="Rectangle_482" data-name="Rectangle 482" width="19" height="28" rx="3" transform="translate(2.477 4.232)" fill="#2f4960"/>
    <path id="Path_653" data-name="Path 653" d="M134.391,5.868h-.52V.458a.457.457,0,0,0-.781-.323l-.654.654-.655-.654a.457.457,0,0,0-.647,0l-.654.654-.655-.654a.457.457,0,0,0-.647,0l-.654.654-.654-.654a.457.457,0,0,0-.647,0l-.654.654-.655-.654a.457.457,0,0,0-.647,0l-.654.654-.654-.654a.457.457,0,0,0-.781.323V4.37a.457.457,0,1,0,.915,0V1.562l.2.2a.457.457,0,0,0,.647,0l.654-.654.654.654a.457.457,0,0,0,.647,0l.654-.654.654.654a.457.457,0,0,0,.647,0L129.5,1.1l.654.654a.457.457,0,0,0,.647,0l.654-.654.654.654a.457.457,0,0,0,.647,0l.2-.2V5.868h-10.3a2.416,2.416,0,0,0-2.413,2.413V28.819a2.416,2.416,0,0,0,2.413,2.413h11.736a2.416,2.416,0,0,0,2.413-2.413V8.281a2.416,2.416,0,0,0-2.414-2.413Zm0,24.449H122.655a1.5,1.5,0,0,1-1.5-1.5V17.541h10.789a.457.457,0,0,0,0-.915H121.157V8.281a1.5,1.5,0,0,1,1.5-1.5h11.736a1.5,1.5,0,0,1,1.5,1.5v8.344H133.9a.457.457,0,0,0,0,.915h1.987V28.819A1.5,1.5,0,0,1,134.391,30.317Z" transform="translate(-120.242 0)" fill="#e7f1ff" stroke="#e7f1ff" stroke-width="0.5"/>
    <path id="Path_654" data-name="Path 654" d="M179.034,149.637v-4.89a.458.458,0,0,0-.458-.458H168.8a.458.458,0,0,0-.457.458v4.89a.458.458,0,0,0,.457.458h9.78A.457.457,0,0,0,179.034,149.637Zm-.915-.457h-8.865v-3.975h8.865Z" transform="translate(-165.405 -135.489)" fill="#e7f1ff" stroke="#e7f1ff" stroke-width="0.5"/>
    <path id="Path_664" data-name="Path 664" d="M213.766,65.044a.458.458,0,0,0,0-.915h-4.89a.458.458,0,0,0,0,.915Z" transform="translate(-203.04 -60.217)" fill="#e7f1ff" stroke="#e7f1ff" stroke-width="0.5"/>
    <path id="Path_665" data-name="Path 665" d="M208.877,185.286h4.89a.458.458,0,1,0,0-.915h-4.89a.458.458,0,1,0,0,.915Z" transform="translate(-203.04 -173.125)" fill="#e7f1ff" stroke="#e7f1ff" stroke-width="0.5"/>
  </g>
</svg>
