<svg id="tax" xmlns="http://www.w3.org/2000/svg" width="29.164" height="29.944" viewBox="0 0 29.164 29.944">
  <circle id="Ellipse_145" data-name="Ellipse 145" cx="13" cy="13" r="13" transform="translate(3.164 3.15)" fill="#2f4960"/>
  <path id="Path_808" data-name="Path 808" d="M15.689,8.353a1.489,1.489,0,0,0,.192-.376,1.456,1.456,0,0,1,.574.23,2.2,2.2,0,0,0,1.173.376,2.275,2.275,0,0,0,.394-.036A2.1,2.1,0,0,0,19.38,7.69,1.142,1.142,0,0,1,21.042,7.4a2.1,2.1,0,0,0,1.569.339l-.174-.983a1.142,1.142,0,0,1-.9-.22,2.124,2.124,0,0,0-2.926.516,1.143,1.143,0,0,1-.767.513.989.989,0,0,1-.436-.01,1.985,1.985,0,0,0,.8-.424,2.1,2.1,0,0,0,.749-1.419,1.141,1.141,0,0,1,.408-.827,1.124,1.124,0,0,1,.885-.258,2.053,2.053,0,0,0,1.528-.491l-.643-.764a1.192,1.192,0,0,1-.886.257,2.125,2.125,0,0,0-2.276,1.91A1.142,1.142,0,0,1,16.685,6.62a2.218,2.218,0,0,0-.919.123,1.5,1.5,0,0,0-.579-.566l2.231-4.457A.5.5,0,0,0,16.969,1a1.288,1.288,0,0,1-.934-.389,2.3,2.3,0,0,0-3.118,0,1.318,1.318,0,0,1-.936.39,1.318,1.318,0,0,1-.936-.39,2.3,2.3,0,0,0-3.12,0A1.292,1.292,0,0,1,6.988,1a.5.5,0,0,0-.447.722L8.77,6.177a1.481,1.481,0,0,0-.5,2.176A10.489,10.489,0,0,0,.5,18.464v8.983a2.5,2.5,0,0,0,2.5,2.5H20.962a2.5,2.5,0,0,0,2.5-2.5V18.464A10.489,10.489,0,0,0,15.689,8.353ZM8.548,1.387a1.32,1.32,0,0,1,1.873,0,2.3,2.3,0,0,0,3.119,0,1.317,1.317,0,0,1,1.871,0,2.652,2.652,0,0,0,.81.49L14.165,5.988H9.791L7.736,1.877A2.666,2.666,0,0,0,8.548,1.387Zm.935,6.6a.5.5,0,1,1,0-1h4.991a.5.5,0,0,1,0,1ZM22.459,27.447a1.5,1.5,0,0,1-1.5,1.5H3a1.5,1.5,0,0,1-1.5-1.5V18.464A9.493,9.493,0,0,1,10.98,8.982h2a9.493,9.493,0,0,1,9.482,9.482Zm0,0" transform="translate(-0.5 0.001)" fill="#e8f1ff"/>
  <text id="_" data-name="$" transform="translate(6.979 23.95)" fill="#e8f1ff" font-size="15" font-family="Avenir-Heavy, Avenir" font-weight="800"><tspan x="0" y="0">$</tspan></text>
</svg>
