<svg id="Layer_1" data-name="Layer 1" xmlns="http://www.w3.org/2000/svg" viewBox="0 0 216 216"><defs><style>.cls-1{fill:#ff6900;}</style></defs><title>brand drive logo mark-main</title><path class="cls-1" d="M95.08,80.36V61.45a14.94,14.94,0,0,0-15-14.78h-.67a14.94,14.94,0,0,0-15,14.78v61.1A44.63,44.63,0,0,1,95.08,80.36Z"/><path class="cls-1" d="M64.43,124v23.23a14.93,14.93,0,0,0,15,14.78h.67a15,15,0,0,0,4.72-.77A44.38,44.38,0,0,1,64.43,124Z"/><path class="cls-1" d="M111.83,83.87a39.74,39.74,0,1,0,39.74,39.74A39.74,39.74,0,0,0,111.83,83.87Zm0,57.8a18.07,18.07,0,1,1,18.07-18.06A18.07,18.07,0,0,1,111.83,141.67Z"/></svg>