<svg id="innovative-oppurtunity-01" xmlns="http://www.w3.org/2000/svg" xmlns:xlink="http://www.w3.org/1999/xlink" width="303.795" height="302.18" viewBox="0 0 303.795 302.18">
  <defs>
    <clipPath id="clip-path">
      <circle id="_1c1c8477-432b-479a-aac9-e76a931e16e1" data-name="1c1c8477-432b-479a-aac9-e76a931e16e1" cx="150.947" cy="150.947" r="150.947" fill="none"/>
    </clipPath>
    <clipPath id="clip-path-2">
      <rect id="Rectangle_290" data-name="Rectangle 290" width="471.123" height="471.123" transform="translate(0 471.123) rotate(-90)" fill="none"/>
    </clipPath>
  </defs>
  <g id="Customers" transform="translate(1.901 0.285)" clip-path="url(#clip-path)">
    <circle id="_1c1c8477-432b-479a-aac9-e76a931e16e1-2" data-name="1c1c8477-432b-479a-aac9-e76a931e16e1" cx="151.033" cy="151.033" r="151.033" transform="translate(-1.901 -0.285)" fill="#dcf6ff"/>
    <rect id="Rectangle_289" data-name="Rectangle 289" width="471.123" height="471.123" transform="translate(-84.586 409.849) rotate(-90)" fill="#d4e1dd"/>
    <g id="Group_404" data-name="Group 404" transform="translate(-84.586 -61.273)" clip-path="url(#clip-path-2)">
      <g id="Group_403" data-name="Group 403" transform="translate(-51.825 -112.54)" opacity="0.75">
        <path id="Path_514" data-name="Path 514" d="M-19.12-26.15V171.759C-15.374,210,4.249,263.109,31.2,274.291c28.624,11.852,67.759,10.231,84.53,33.488a38.575,38.575,0,0,1,5.591,12.355c11.181,39.47,34.606,95.6,117.795,104.88,47.576,5.591,87.158-41.762,95.656-49.757a55.235,55.235,0,0,1,29.463-16.772c15.6-3.131,34.55.335,45.676-9.672,9.113-8.218,7.771-21.188,7.547-32.593.168-31.252,20.35-67.591,56.074-69.1a230.378,230.378,0,0,1,32.705,3.578c27.059,2.572,29.519-10.846,40.141-47.3V-26.15Z" transform="translate(19.12 26.15)" fill="#fffaf8"/>
      </g>
    </g>
    <g id="Group_405" data-name="Group 405" transform="translate(-61.609 238.321)" opacity="0.42">
      <path id="Path_515" data-name="Path 515" d="M138.946,64.4c-9,.335-21.077,2.963-18.785,7.771,1.342,2.851,7.715,3.075,12.635,4.864l1.621.559c-34.55-.391-68.933.335-103.594,2.236-9,.447-21.077,3.913-18.84,10.231,1.4,3.746,7.715,4.081,12.691,6.429,27.394,12.8-7.939,6.932-25.829,20.574a9.9,9.9,0,0,0-4.584,7.38c0,7.715,14.144,10.51,24.878,11.181,62.5,2.124,90.512,7.715,152.96,3.8,46.4-2.8,87.605-39.526,83.245-32.817,19.9-.447,60.323-11.8,80.17-10.51,47.017,3.019,64.628-31.923,50.931-38.24C331.487,32.705,216.432,61.162,138.946,64.4Z" transform="translate(5.74 -47.569)" fill="#aec4bd"/>
    </g>
    <path id="Path_516" data-name="Path 516" d="M60.261,24.458A7.38,7.38,0,0,1,69.989,17.3,9.56,9.56,0,0,0,81.17,9.084,11.852,11.852,0,0,1,94.923,2.543" transform="translate(247.112 -17.694)" fill="none" stroke="#e0164d" stroke-miterlimit="10" stroke-width="1.5"/>
    <path id="Path_517" data-name="Path 517" d="M48.692,2.366A3.466,3.466,0,1,1,45.226-1.1a3.466,3.466,0,0,1,3.466,3.466Z" transform="translate(162.186 -32.667)" fill="none" stroke="#fda09b" stroke-miterlimit="10" stroke-width="1.5"/>
    <path id="Path_518" data-name="Path 518" d="M61.7,29.706a2.573,2.573,0,1,1-2.684-2.572A2.4,2.4,0,0,1,61.7,29.706Z" transform="translate(230.128 96.866)" fill="none" stroke="#353e99" stroke-miterlimit="10" stroke-width="1.5"/>
    <path id="Path_519" data-name="Path 519" d="M33.308,44.757A8.442,8.442,0,0,1,27.774,32.57,10.846,10.846,0,0,0,21.4,18.2,13.529,13.529,0,0,1,17.71,1.43" transform="translate(45.016 -21.053)" fill="none" stroke="#353e99" stroke-miterlimit="10" stroke-width="1.5"/>
    <path id="Path_520" data-name="Path 520" d="M34.618,7.9a19.623,19.623,0,0,1,3.69,6.485,22.361,22.361,0,0,1,1.286,6.6,21.411,21.411,0,0,1-.5,6.765,17.331,17.331,0,0,1-2.851,6.821,17.219,17.219,0,0,1-3.69-6.429,25.6,25.6,0,0,1-1.509-6.653,22.7,22.7,0,0,1,.559-6.709A18.393,18.393,0,0,1,34.618,7.9Z" transform="translate(112.751 8.648)" fill="#fd6920"/>
    <path id="Path_521" data-name="Path 521" d="M56.067,14.51a18.225,18.225,0,0,1-6.876,2.907,23.816,23.816,0,0,1-13.306-.783A18.058,18.058,0,0,1,29.4,13a18.337,18.337,0,0,1,6.821-2.907,23.2,23.2,0,0,1,6.765-.5,22.362,22.362,0,0,1,6.541,1.286,19.456,19.456,0,0,1,6.541,3.634Z" transform="translate(105.446 16.127)" fill="#fd6920"/>
    <path id="Path_522" data-name="Path 522" d="M46.5,9.273a12.523,12.523,0,0,1-2.069,5.591,12.858,12.858,0,0,1-3.41,3.913,13.082,13.082,0,0,1-4.64,2.4,12.8,12.8,0,0,1-6.038.559,13.194,13.194,0,0,1,2.013-5.591,14.648,14.648,0,0,1,3.466-3.913,15.207,15.207,0,0,1,4.64-2.4A12.8,12.8,0,0,1,46.5,9.273Z" transform="translate(109.761 14.319)" fill="#fd6920"/>
    <path id="Path_523" data-name="Path 523" d="M30.613,8.93A12.076,12.076,0,0,1,36.2,10.607a11.8,11.8,0,0,1,3.969,3.187,12.188,12.188,0,0,1,2.572,4.361,12.467,12.467,0,0,1,1.23,5.982,13.753,13.753,0,0,1-5.591-1.677,14.871,14.871,0,0,1-3.969-3.187A13.753,13.753,0,0,1,31.9,14.856,12.914,12.914,0,0,1,30.613,8.93Z" transform="translate(110.998 13.377)" fill="#fd6920"/>
    <path id="Path_524" data-name="Path 524" d="M1.306,21.735H1.7L1.25,20.84h0l.895-1.006,1.509-.895c1.006-.615,2.069-1.118,3.075-1.621a44.724,44.724,0,0,1,6.6-2.572,45.675,45.675,0,0,1,14.088-2.013,41.2,41.2,0,0,1,14.312,2.8,27.953,27.953,0,0,1,6.765,3.8,16.157,16.157,0,0,1,3.131,3.075,8.833,8.833,0,0,1,1.845,6.038h0v.28a17.5,17.5,0,0,1-3.858,8.61,10.88,10.88,0,0,1-10.734,3.075,10.622,10.622,0,0,1-2.851-1.174,7.044,7.044,0,0,1-2.8-3.243,7.547,7.547,0,0,1,.95-6.821,16.772,16.772,0,0,1,7.044-6.038,15.039,15.039,0,0,1,4.528-1.23,12.076,12.076,0,0,1,4.864.671,26.052,26.052,0,0,1,7.1,4.137A27.618,27.618,0,0,1,66.94,39.4l-3.466,1.118a24.04,24.04,0,0,0-8.721-9.5,20.126,20.126,0,0,0-5.591-2.684,4.584,4.584,0,0,0-2.4,0,13.865,13.865,0,0,0-2.4,1.006,9.224,9.224,0,0,0-3.578,3.8c-.391.671,0,1.006,0,0s-.5-.559,0-.5a2.907,2.907,0,0,0,2.739-.839,11.684,11.684,0,0,0,2.069-4.64v.335c0,.671,0,.28-.28,0a8.442,8.442,0,0,0-1.565-1.677,21.524,21.524,0,0,0-4.752-3.522,37.681,37.681,0,0,0-11.74-3.522,40.309,40.309,0,0,0-12.691,0,42.49,42.49,0,0,0-6.262,1.509L5.219,21.4,3.71,22.07l-.727.335h0l-.559-.895h0Z" transform="translate(-23.78 30.817)" fill="#fd6920"/>
    <path id="Path_525" data-name="Path 525" d="M25.432,34.256a3.466,3.466,0,1,1-3.466-3.466A3.466,3.466,0,0,1,25.432,34.256Z" transform="translate(55.408 113.728)" fill="none" stroke="#fda09b" stroke-miterlimit="10" stroke-width="1.5"/>
    <circle id="Ellipse_43" data-name="Ellipse 43" cx="3.466" cy="3.466" r="3.466" transform="translate(-20.797 -24.431)" fill="none" stroke="#fda09b" stroke-miterlimit="10" stroke-width="1.5"/>
    <path id="Path_526" data-name="Path 526" d="M52.133,48.19,34.97,49.252l2.069,20.909,16.94-1.4Z" transform="translate(131.016 193.605)" fill="#faa09a"/>
    <path id="Path_527" data-name="Path 527" d="M42.979,48.26a17.275,17.275,0,0,1-1.174,12.3c-1.957,2.8-.391,10.566-.391,10.566s-2.628,11.181-5.591,10.343c-.615,0-1.733-32.929-1.733-32.929Z" transform="translate(126.976 193.926)" fill="#ebe1db"/>
    <path id="Path_528" data-name="Path 528" d="M37.477,48.31l-4.137.224,2.4,33.264,3.466-.559Z" transform="translate(123.533 194.156)" fill="#ebe1db"/>
    <line id="Line_132" data-name="Line 132" x2="1.733" y2="32.929" transform="translate(161.01 242.466)" fill="none" stroke="#535e5e" stroke-linecap="round" stroke-miterlimit="10" stroke-width="0.3"/>
    <path id="Path_529" data-name="Path 529" d="M39.433,56.764s0-1.509-2.46-1.677S34.29,52.18,34.29,52.18" transform="translate(127.894 211.922)" fill="none" stroke="#535e5e" stroke-linecap="round" stroke-miterlimit="10" stroke-width="0.3"/>
    <path id="Path_530" data-name="Path 530" d="M41.112,48.28s.5,8.051-6.932,8.442" transform="translate(127.389 194.018)" fill="none" stroke="#535e5e" stroke-linecap="round" stroke-miterlimit="10" stroke-width="0.3"/>
    <path id="Path_531" data-name="Path 531" d="M35.366,53.1s3.187-2.46,4.3-.727c1.789,2.684-2.739,1.677-4.025,1.342h0c.895.559,3.354,2.236,2.46,3.354s-2.8-3.019-2.8-3.019" transform="translate(132.577 209.991)" fill="none" stroke="#535e5e" stroke-miterlimit="10" stroke-width="0.3"/>
    <path id="Path_532" data-name="Path 532" d="M96.932,28.44l46.29,107.452c3.243,7.6,3.746,21.971-3.466,24.375-10.51,3.522-100.631,3.075-100.631,3.075L37,138.072l65.41-4.808S67.525,57.959,77.812,30.453Z" transform="translate(140.335 102.94)" fill="#4c2222"/>
    <path id="Path_533" data-name="Path 533" d="M48.73,47.19a67.08,67.08,0,0,1,8.442,3.243" transform="translate(194.183 189.014)" fill="none" stroke="#202123" stroke-linecap="round" stroke-miterlimit="10" stroke-width="0.48"/>
    <path id="Path_534" data-name="Path 534" d="M47.119,50.494,29.9,50.27l.559,21.021,17.051-.168Z" transform="translate(107.741 203.154)" fill="#faa09a"/>
    <path id="Path_535" data-name="Path 535" d="M38.555,50.531a17.387,17.387,0,0,1-2.013,12.188c-2.18,2.572-1.118,10.454-1.118,10.454s-3.41,11.181-6.373,9.951c-.615,0,.615-32.985.615-32.985Z" transform="translate(103.055 202.557)" fill="#ebe1db"/>
    <path id="Path_536" data-name="Path 536" d="M32.417,50.232,28.28,50.12V83.5l3.522-.28Z" transform="translate(100.305 202.465)" fill="#ebe1db"/>
    <line id="Line_133" data-name="Line 133" x1="0.615" y2="32.985" transform="translate(132.107 252.697)" fill="none" stroke="#535e5e" stroke-linecap="round" stroke-miterlimit="10" stroke-width="0.3"/>
    <path id="Path_537" data-name="Path 537" d="M33.531,59.2s0-1.565-2.348-1.845S29,54,29,54" transform="translate(103.608 220.277)" fill="none" stroke="#535e5e" stroke-linecap="round" stroke-miterlimit="10" stroke-width="0.3"/>
    <path id="Path_538" data-name="Path 538" d="M36.557,50.21s0,8.051-7.547,7.883" transform="translate(103.656 202.878)" fill="none" stroke="#535e5e" stroke-linecap="round" stroke-miterlimit="10" stroke-width="0.3"/>
    <path id="Path_539" data-name="Path 539" d="M30.092,54.937s3.354-2.236,4.361-.447C36.018,57.341,31.6,56,30.315,55.552h0s3.187,2.46,2.18,3.522-2.516-3.243-2.516-3.243" transform="translate(108.109 219.34)" fill="none" stroke="#535e5e" stroke-miterlimit="10" stroke-width="0.3"/>
    <path id="Path_540" data-name="Path 540" d="M107.857,28.75c12.97,103.091,10.287,102.309,11.181,114.888.783,14.144-3.466,26.947-12.97,27.338-14.032.615-50.316,1.4-72.678,1.4l-1.23-24.822L83.2,146.1s-6.541-50.316-9.56-62.447C69.394,66.878,78,31.434,78,31.434Z" transform="translate(118.116 104.363)" fill="#663332"/>
    <path id="Path_541" data-name="Path 541" d="M53.671,9.192A16.045,16.045,0,0,0,41.6,22.61c-.447,6.876,22.363,8.5,22.363,8.5,1.9,3.69,6.261,1.957,7.436-1.845a14.032,14.032,0,0,0,.447-8.33,14.871,14.871,0,0,0-18.17-11.74Z" transform="translate(161.401 12.611)" fill="#2f2f2f"/>
    <path id="Path_542" data-name="Path 542" d="M42.46,15.243A14.536,14.536,0,0,1,59.232,9.653l1.174.447a18.114,18.114,0,0,1,5.255,29.351,7.212,7.212,0,0,1,4.193,6.541,7.044,7.044,0,0,1-14.088,0,5.593,5.593,0,0,1,0-1.4h-.391Z" transform="translate(165.4 13.045)" fill="#2f2f2f"/>
    <path id="Path_543" data-name="Path 543" d="M41.816,22.183A13.809,13.809,0,0,1,54.172,9.939,11.181,11.181,0,0,1,60.209,11c4.752,2.292,6.429,9.448,6.988,14.871l-.391,7.044.671,27.953c-4.193,17.443-17.946,16.772-18.058-4.64V42.2C41.2,39.793,40.922,29.451,41.816,22.183Z" transform="translate(160.844 17.734)" fill="#e5a27e"/>
    <path id="Path_544" data-name="Path 544" d="M42.956,17.44a11.181,11.181,0,0,0,9.336-2.18A18.561,18.561,0,0,1,42.9,23.7Z" transform="translate(167.42 42.435)" fill="#e5a27e"/>
    <path id="Path_545" data-name="Path 545" d="M45.889,14.476a2.292,2.292,0,0,0,1.845,2.572,2.319,2.319,0,0,0,2.013-2.46A2.292,2.292,0,0,0,47.9,11.96,2.323,2.323,0,0,0,45.889,14.476Z" transform="translate(181.035 27.286)" fill="#d09a93"/>
    <path id="Path_546" data-name="Path 546" d="M46.2,12.7a.335.335,0,1,0,.335-.335A.335.335,0,0,0,46.2,12.7Z" transform="translate(182.569 29.123)" fill="#b77b77"/>
    <path id="Path_547" data-name="Path 547" d="M42.91,17.52l2.348-1.006a18.452,18.452,0,0,1,2.069-.727,11.181,11.181,0,0,1,4.92-.447,5.591,5.591,0,0,1-1.621,2.348,6.374,6.374,0,0,1-2.4,1.342,5.87,5.87,0,0,1-2.8,0A3.858,3.858,0,0,1,42.91,17.52Z" transform="translate(167.466 42.355)" fill="#32354a"/>
    <path id="Path_548" data-name="Path 548" d="M45.889,14.476a2.292,2.292,0,0,0,1.845,2.572,2.319,2.319,0,0,0,2.013-2.46A2.292,2.292,0,0,0,47.9,11.96,2.323,2.323,0,0,0,45.889,14.476Z" transform="translate(181.035 27.286)" fill="#e5a27e"/>
    <path id="Path_549" data-name="Path 549" d="M46.1,12.29s1.118,0,1.23.727-1.006.727-1.006.727" transform="translate(182.11 28.801)" fill="none" stroke="#ce7c77" stroke-linecap="round" stroke-miterlimit="10" stroke-width="0.48"/>
    <path id="Path_550" data-name="Path 550" d="M51.616,13.48a5.143,5.143,0,0,1-4.472,4.864,4.64,4.64,0,0,1-3.69-1.23,4.137,4.137,0,0,1-1.342-3.187,10.007,10.007,0,0,0,4.584.839C47.814,14.654,49.324,14.039,51.616,13.48Z" transform="translate(163.791 34.264)" fill="#2f3249"/>
    <path id="Path_551" data-name="Path 551" d="M45.2,11.8a11.516,11.516,0,0,1-2.348,3.075h0a30.643,30.643,0,0,1,1.733,2.907c-.727-.839-1.4-1.733-2.069-2.684h0A13.809,13.809,0,0,1,45.2,11.8Z" transform="translate(165.675 26.552)" fill="#2f3249"/>
    <path id="Path_552" data-name="Path 552" d="M44.01,11.9s-1.006,3.522.5,4.3,3.522-2.46,3.522-2.46" transform="translate(171.006 27.011)" fill="none" stroke="#000" stroke-miterlimit="10" stroke-width="0.1"/>
    <path id="Path_553" data-name="Path 553" d="M42.388,11.5s-1.062,3.466,0,4.025,3.019-2.739,3.019-2.739" transform="translate(162.901 25.175)" fill="none" stroke="#000" stroke-miterlimit="10" stroke-width="0.1"/>
    <path id="Path_554" data-name="Path 554" d="M66.2,11.984V24.339c-.5.28-6.485.671-8.889-11.629a72.008,72.008,0,0,1-15.71,7.38A14.927,14.927,0,0,1,53.843,9.357C63.124,8.909,66.2,11.984,66.2,11.984Z" transform="translate(161.452 15.13)" fill="#2f2f2f"/>
    <path id="Path_555" data-name="Path 555" d="M78.944,17.3c4.249-6.038,4.3-5.591,4.249-6.038S77.155,16.3,77.155,16.3s3.41-4.361,3.019-5.311S72.291,17.7,72.291,17.7a5.591,5.591,0,0,0-1.4-4.081,1.286,1.286,0,0,0-1.51,0,16.772,16.772,0,0,1-.894,8.777l-6.15,9.225,1.23,2.069c1.006,1.677,2.013,3.41,2.963,5.143l7.38-10.622s9.56-9.5,9.951-10.454-3.8,2.069-3.8,2.069a24.71,24.71,0,0,0,3.8-5.143C84.255,13.335,78.944,17.3,78.944,17.3Z" transform="translate(256.662 22.445)" fill="#fca29c"/>
    <path id="Path_556" data-name="Path 556" d="M39.423,27.134S33.5,23.053,33.217,20.09c-.447,0-1.174.28-1.286.839a5.591,5.591,0,0,0,.894,4.249s-10.287-2.739-10.175-1.733,5.311,3.019,5.311,3.019-8.162-2.18-7.771-1.23,0,0,6.765,3.019c0,0-6.653-.727-5.591,0a25.158,25.158,0,0,0,5.926,2.46s-5.143-.5-4.3,0,13.865,3.913,13.865,3.913L59.214,44.8l3.634-8.442Z" transform="translate(63.109 64.608)" fill="#fca29c"/>
    <path id="Path_557" data-name="Path 557" d="M247.662,12.94s-15.486,26.052-42.1,28.289a365.789,365.789,0,0,1-40.029,0h0L134,39.1h0a26,26,0,0,0-16.772,3.466,315.648,315.648,0,0,1-38.184,21.8C55.9,73.822,24.372,60.125,24.372,60.125L23.31,67.5C42.262,79.077,54.841,84.277,77.986,81.2,89.894,79.58,116.73,65.548,119.078,64.43l-1.845,46.458,43.048,1.118,1.677-45.955c5.591-1.677,33.544-4.92,43.327-6.765,22.363-4.193,39.973-27.17,48.806-43.607Z" transform="translate(77.489 31.785)" fill="#e5a27e"/>
    <path id="Path_558" data-name="Path 558" d="M98.856,19.329a9.225,9.225,0,0,1-9.28,4.808c-11.181-1.062-8.945-6.262-8.945-6.262s-8.386-2.4-20.07,6.15A168.785,168.785,0,0,1,34.62,39.4l4.752,20.014,23.7-8.386-2.516,53.279a220.053,220.053,0,0,1,34.326-3.187,74.579,74.579,0,0,0,21.58-2.236l-3.746-53.67,27.953-1.454,1.454-23.369S110.876,15.639,98.856,19.329Z" transform="translate(129.409 53.014)" fill="#fd6920"/>
    <path id="Path_560" data-name="Path 560" d="M52.437,17.821a4.92,4.92,0,0,1-6.094,3.466,5.143,5.143,0,0,1-2.683-6.6,4.752,4.752,0,0,1,6.206-3.075,4.584,4.584,0,0,1,2.572,6.206Z" transform="translate(169.232 24.333)" fill="none" stroke="#000" stroke-miterlimit="10" stroke-width="0.1"/>
    <path id="Path_561" data-name="Path 561" d="M48.821,16.663c-.727,2.739-2.907,4.528-4.864,3.969a4.752,4.752,0,0,1-2.292-6.038c.783-2.739,2.851-4.249,4.864-3.69a4.417,4.417,0,0,1,2.292,5.758Z" transform="translate(160.157 21.912)" fill="none" stroke="#000" stroke-miterlimit="10" stroke-width="0.1"/>
    <path id="Path_562" data-name="Path 562" d="M42.74,11.95s2.684-1.454,3.69,1.006" transform="translate(166.685 25.283)" fill="none" stroke="#000" stroke-miterlimit="10" stroke-width="0.1"/>
    <line id="Line_134" data-name="Line 134" y1="1.565" x2="5.535" transform="translate(222.116 39.246)" fill="none" stroke="#000" stroke-miterlimit="10" stroke-width="0.1"/>
    <path id="Path_563" data-name="Path 563" d="M43.46,53.59l16.828,3.522L55.144,77.518,38.54,73.6Z" transform="translate(147.405 218.394)" fill="#faa09a"/>
    <path id="Path_564" data-name="Path 564" d="M44.708,54a39.134,39.134,0,0,1-.559,12.355C43.2,71.163,41.41,76.81,41.41,76.81S43.59,89.5,47,89.221c.615,0,5.591-33.544,5.591-33.544Z" transform="translate(160.58 220.277)" fill="#09243e"/>
    <path id="Path_565" data-name="Path 565" d="M47.671,54.29l3.354.671-4.3,33.823L42.36,87.89Z" transform="translate(164.941 221.608)" fill="#09243e"/>
    <line id="Line_135" data-name="Line 135" x1="5.311" y2="33.656" transform="translate(207.301 275.898)" fill="none" stroke="#535e5e" stroke-linecap="round" stroke-miterlimit="10" stroke-width="0.3"/>
    <path id="Path_566" data-name="Path 566" d="M45.437,59.322s-2.8-2.963-4.193-1.4c-2.124,2.4,2.46,2.069,3.858,1.9h0c-.95.447-3.69,1.733-2.907,2.963s3.187-2.572,3.187-2.572" transform="translate(157.279 236.199)" fill="none" stroke="#535e5e" stroke-miterlimit="10" stroke-width="0.3"/>
    <path id="Path_567" data-name="Path 567" d="M39.9,25.188C27.6,23.119,50.637,23.9,54.718,35.362,57.01,41.9,34.144,46.544,34.144,46.544c-1.454,3.913-5.982,2.739-7.715-.839a14.312,14.312,0,0,1-1.454-8.218A12.3,12.3,0,0,1,39.9,25.188Z" transform="translate(84.657 83.886)" fill="#4a2b27"/>
    <path id="Path_568" data-name="Path 568" d="M46.174,59.783,47.628,72.7a162.134,162.134,0,0,1-18.84,1.286L27.054,51.621,25.88,44.465c0-5.591.95-13.473,5.591-16.381A35.277,35.277,0,0,1,42.149,24.73c6.932,0,8.386,6.429,9.9,13.138S54.5,56.149,46.174,59.783Z" transform="translate(89.287 85.909)" fill="#8d5c56"/>
    <path id="Path_569" data-name="Path 569" d="M41.4,33.617A36.507,36.507,0,0,1,26.92,30.43a30.357,30.357,0,0,0,15.207,9.728Z" transform="translate(94.061 112.075)" fill="#8d5c56" opacity="0.62"/>
    <path id="Path_570" data-name="Path 570" d="M29.417,29.848c0,1.454-.559,2.8-1.677,2.907s-2.18-.894-2.348-2.4a2.4,2.4,0,0,1,1.677-2.907C28.187,27.276,29.137,28.394,29.417,29.848Z" transform="translate(86.701 98.29)" fill="#cf9c94"/>
    <path id="Path_571" data-name="Path 571" d="M29.417,29.848c0,1.454-.559,2.8-1.677,2.907s-2.18-.894-2.348-2.4a2.4,2.4,0,0,1,1.677-2.907C28.187,27.276,29.137,28.394,29.417,29.848Z" transform="translate(86.701 98.29)" fill="#8d5c56"/>
    <path id="Path_572" data-name="Path 572" d="M29.365,27.868S28.527,42.739,33.446,40.5a40.756,40.756,0,0,1,20.014-4.417s1.174,14.48-4.081,15.71a15.262,15.262,0,0,1-20.35-8.554A30.86,30.86,0,0,1,26.011,26.47Z" transform="translate(89.156 93.896)" fill="#4a2b27"/>
    <path id="Path_573" data-name="Path 573" d="M29.912,40.744s27.953-2.628,21.636-11.908-17.834-4.025-22.866,0a9.56,9.56,0,0,0-2.124,10.79Z" transform="translate(88.61 81.02)" fill="#4a2b27"/>
    <path id="Path_574" data-name="Path 574" d="M26.7,27.76s-1.174,0-1.118.895,1.118.615,1.118.615" transform="translate(87.908 99.818)" fill="none" stroke="#cf7c76" stroke-linecap="round" stroke-miterlimit="10" stroke-width="0.49"/>
    <path id="Path_575" data-name="Path 575" d="M28.22,29.367a10.622,10.622,0,0,0,4.64.783c1.174,0,2.628-.671,4.976-1.23a5.2,5.2,0,0,1-4.584,4.864,4.92,4.92,0,0,1-3.634-1.23,4.193,4.193,0,0,1-1.4-3.187Z" transform="translate(100.029 105.143)" fill="#ececf5"/>
    <path id="Path_576" data-name="Path 576" d="M29.08,27a11.181,11.181,0,0,1,2.739,2.069h0a20.013,20.013,0,0,1-1.9,2.907c.5-1.062,1.006-2.069,1.565-3.075h0a10.007,10.007,0,0,1-2.4-1.9Z" transform="translate(103.977 96.329)" fill="#2f3249"/>
    <path id="Path_577" data-name="Path 577" d="M31.587,27a7.939,7.939,0,0,1,.671,2.236,2.4,2.4,0,0,1-.783,2.348,2.236,2.236,0,0,1-2.4-.5A11.515,11.515,0,0,1,27.45,29.4s0,0,0-.28h0a14.2,14.2,0,0,0,1.621,1.565c.615.391,1.342.727,1.845.391a1.9,1.9,0,0,0,.615-1.845,7.268,7.268,0,0,0-.5-2.18Z" transform="translate(96.494 96.329)" fill="#2f3249"/>
    <path id="Path_578" data-name="Path 578" d="M32.8,26.425a13.418,13.418,0,0,1,.671,2.124c0,.671.335,1.565-.5,2.236s-1.677-.391-2.18-.839a21.026,21.026,0,0,1-1.4-1.733h0a12.693,12.693,0,0,0,1.454,1.565c.447.447,1.174.895,1.565.727s.447-1.118.335-1.733a12.412,12.412,0,0,0-.5-2.069h0A.626.626,0,0,1,32.8,26.425Z" transform="translate(105.4 93.662)" fill="#2f3249"/>
    <path id="Path_579" data-name="Path 579" d="M14.225,52.654h0a167.721,167.721,0,0,0,.95,18.673A9.057,9.057,0,0,0,27.419,72.78c-1.733-11.852-3.522-26-3.522-26s1.565-7.995,4.528-9.616a1.454,1.454,0,0,0-1.454-.95,6.6,6.6,0,0,0-4.025,2.851s-1.789-11.964-2.8-11.181-.727,6.876-.727,6.876S17.971,25.2,17.188,26.1s0,0,0,8.386c0,0-2.236-7.212-2.684-5.87a29.8,29.8,0,0,0,0,7.324s-1.789-5.591-2.124-4.472a93.919,93.919,0,0,0,1.342,11.181,49.533,49.533,0,0,1,.5,9.951Z" transform="translate(27.314 91.92)" fill="#fca29c"/>
    <path id="Path_580" data-name="Path 580" d="M47.531,64.786A73.07,73.07,0,0,0,59.1,66.463h1.454c-3.578-10.79-6.932-19.455-6.932-19.455s-.447-8.442,2.069-10.846a1.565,1.565,0,0,0-1.677-.559,6.821,6.821,0,0,0-3.3,3.858s-4.864-11.517-5.591-10.678,1.006,7.1,1.006,7.1-3.858-9.225-4.417-8.162,0,0,2.013,8.442c0,0-4.081-6.653-4.193-5.2a28.681,28.681,0,0,0,1.957,7.268s-3.187-5.087-3.243-3.913,6.261,15.766,6.261,15.766S46.3,60.481,47.531,64.786Z" transform="translate(146.073 99.243)" fill="#fca29c"/>
    <path id="Path_581" data-name="Path 581" d="M178.553,41.948l-14.424,1.789c0,.5,3.913,27.953,5.591,33.823,0,0-39.134-36.563-58.869-34.55a14.48,14.48,0,0,1-9,4.081,16.772,16.772,0,0,1-10.51-2.348,27.282,27.282,0,0,0-14.927,6.429c-10.622,9.5-24.878,24.767-37.96,31.643a207.525,207.525,0,0,1-11.573-52.5c-2.851.894-10.622,1.286-13.418,2.236l-1.342,15.6c.391,44.725,16.157,56.354,18,56.857,3.913,2.572,27.115-1.342,50.316-28.68-2.8,17.051-4.864,39.582-8.5,58.31l66.473-1.509a139.757,139.757,0,0,1-5.591-19.344,128.582,128.582,0,0,0-5.255-33.544s41.762,29.91,57.3,28.456S180.9,46.812,178.553,41.948Z" transform="translate(26.12 111.57)" fill="#d2dbe4"/>
    <path id="Path_582" data-name="Path 582" d="M140.913,77.98,24.125,110.909,16.41,85.024S116.259,45.89,142.535,45.89A13.362,13.362,0,0,1,155.17,62.662,19.735,19.735,0,0,1,140.913,77.98Z" transform="translate(45.814 183.047)" fill="#0735b7"/>
    <path id="Path_583" data-name="Path 583" d="M33.56,46.184,156.554,87.443l-7.827,23.033S22.267,81.964,18.857,76.541,9.688,45.792,33.56,46.184Z" transform="translate(42.472 184.374)" fill="#105ffb"/>
    <path id="Path_584" data-name="Path 584" d="M18.09,52.36,57.9,69.523l12.02-3.354Z" transform="translate(53.526 212.748)" fill="#022a50"/>
    <path id="Path_585" data-name="Path 585" d="M81.362,28.5A15.6,15.6,0,0,0,64.031,24.75a53.95,53.95,0,0,1-27.338,1.23A27.506,27.506,0,0,0,8.124,36.826a27.506,27.506,0,0,0,1.4,38.184c12.467,12.858,39.134,22.922,57.528-15.6C67.049,59.524,94.947,43.591,81.362,28.5Z" transform="translate(-24.505 80.577)" fill="#1c141e"/>
    <path id="Path_586" data-name="Path 586" d="M30.992,80.128V59.051c8.945-2.516,9.28-13.641,8.33-21.412A15.039,15.039,0,0,0,26.016,24.445a12.188,12.188,0,0,0-6.485,1.174c-5.087,2.46-6.876,10.175-7.491,15.989l.447,7.324-.671,30.189C11.369,79.4,30.992,80.128,30.992,80.128Z" transform="translate(24.691 84.349)" fill="#faa09a"/>
    <path id="Path_587" data-name="Path 587" d="M23.437,32.518A11.908,11.908,0,0,1,13.43,30.17a19.9,19.9,0,0,0,10.119,9.113Z" transform="translate(32.134 110.882)" fill="#e87d7a"/>
    <path id="Path_588" data-name="Path 588" d="M15.487,29.405a2.46,2.46,0,0,1-1.957,2.8,2.851,2.851,0,0,1,0-5.591,2.46,2.46,0,0,1,1.957,2.8Z" transform="translate(22.082 94.539)" fill="#ce9891"/>
    <path id="Path_589" data-name="Path 589" d="M12.287,27.4a.364.364,0,1,1-.391-.335S12.287,27.172,12.287,27.4Z" transform="translate(23.549 96.605)" fill="#b57b77"/>
    <path id="Path_590" data-name="Path 590" d="M23.345,32.608a5.032,5.032,0,0,1-5.591,1.621,6.317,6.317,0,0,1-4.3-3.969,12.8,12.8,0,0,1,5.591.5,46.737,46.737,0,0,1,4.3,1.845Z" transform="translate(32.225 110.791)" fill="#32354a"/>
    <path id="Path_591" data-name="Path 591" d="M15.487,29.405a2.46,2.46,0,0,1-1.957,2.8,2.851,2.851,0,0,1,0-5.591,2.46,2.46,0,0,1,1.957,2.8Z" transform="translate(22.082 94.539)" fill="#faa09a"/>
    <path id="Path_592" data-name="Path 592" d="M12.908,27s-1.23,0-1.342.783,1.118.839,1.118.839" transform="translate(23.543 96.329)" fill="none" stroke="#cc7c77" stroke-linecap="round" stroke-miterlimit="10" stroke-width="0.51"/>
    <path id="Path_593" data-name="Path 593" d="M14.274,28.26A10.734,10.734,0,0,0,19.138,29.6c1.174,0,2.8-.5,5.591-.839a5.551,5.551,0,0,1-5.311,4.7,5.032,5.032,0,0,1-3.8-1.677,4.3,4.3,0,0,1-1.342-3.522Z" transform="translate(35.93 102.114)" fill="#2f3249"/>
    <path id="Path_594" data-name="Path 594" d="M15.33,26.72a15.934,15.934,0,0,1,2.963,3.187h0a25.882,25.882,0,0,1-2.572,1.733,27.959,27.959,0,0,1,2.348-2.069h0A16.044,16.044,0,0,1,15.33,26.72Z" transform="translate(40.856 95.044)" fill="#2f3249"/>
    <path id="Path_595" data-name="Path 595" d="M18.17,26.56a11.964,11.964,0,0,1,.447,2.46,2.572,2.572,0,0,1-1.006,2.4,2.292,2.292,0,0,1-2.516-.783,8.945,8.945,0,0,1-1.565-1.957h.28a9.728,9.728,0,0,0,1.565,1.789c.615.5,1.4.95,1.957.671a2.241,2.241,0,0,0,.839-1.957,10.79,10.79,0,0,0,0-2.348h0Z" transform="translate(32.593 94.31)" fill="#2f3249"/>
    <path id="Path_596" data-name="Path 596" d="M19.356,26.125a8.442,8.442,0,0,1,.5,2.292,2.846,2.846,0,0,1-.727,2.348c-.727.559-1.733-.559-2.236-1.118a11.853,11.853,0,0,1-1.286-1.957h.28a11.182,11.182,0,0,0,1.342,1.845c.447.5,1.118,1.118,1.621.895s.559-1.062.559-1.789A10.455,10.455,0,0,0,19.02,26.4h0S19.356,26.069,19.356,26.125Z" transform="translate(42.141 92.285)" fill="#2f3249"/>
    <path id="Path_597" data-name="Path 597" d="M24.482,25.472s-3.41,11.573-11.74,12.691a12.3,12.3,0,0,1,1.006-11.684C17.885,22.229,24.482,25.472,24.482,25.472Z" transform="translate(24.269 83.881)" fill="#1c141e"/>
    <path id="Path_598" data-name="Path 598" d="M27.707,29.75s-2.236-7.38-14.256-5.087C13.339,24.663,22.787,30.533,27.707,29.75Z" transform="translate(32.225 83.572)" fill="#1c141e"/>
    <path id="Path_599" data-name="Path 599" d="M96.622,52.15c.28-1.062-3.746,2.683-3.746,2.683a25.549,25.549,0,0,0,3.41-5.926c.28-1.286-4.92,3.578-4.92,3.578,3.8-6.932,3.913-6.485,3.8-6.932s-5.591,6.094-5.591,6.094,3.131-5.087,2.572-5.982S84.6,53.659,84.6,53.659a6.094,6.094,0,0,0-1.957-4.193,1.454,1.454,0,0,0-1.621,0C82.7,52.15,80.3,59.474,80.3,59.474A101.918,101.918,0,0,1,50.611,86.588,107.956,107.956,0,0,1,42.9,71.661a180.078,180.078,0,0,1-8.5-24.207C30.373,33.31,24.671,33.7,24.671,33.7,16.9,33.7,13.49,38.341,13.21,47.23a59.2,59.2,0,0,0,6.15,26.22c12.132,24.934,22.363,33.544,26.723,33.544,2.069.5,19.232-2.46,39.134-38.3h0l2.124-4.3S96.4,52.933,96.622,52.15Z" transform="translate(31.124 127.086)" fill="#faa09a"/>
    <path id="Path_600" data-name="Path 600" d="M7.268,61.662a1.772,1.772,0,0,0-.615-1.118,5.59,5.59,0,0,1-.5-1.174,4.055,4.055,0,0,1,.727,1.062,2.683,2.683,0,0,1,.391,1.23Z" transform="translate(-1.286 244.928)" fill="#415569"/>
    <path id="Path_601" data-name="Path 601" d="M7.236,61.574a7.715,7.715,0,0,1-.5-1.174,6.429,6.429,0,0,1-.5-1.23,2.907,2.907,0,0,1,.727,1.118,2.628,2.628,0,0,1,.28,1.286Z" transform="translate(-0.919 244.01)" fill="#415569"/>
    <path id="Path_602" data-name="Path 602" d="M5.89,59.629a1.454,1.454,0,0,1,1.4.447A1.509,1.509,0,0,1,7.9,61.418a1.521,1.521,0,0,0-.783-1.174,3.633,3.633,0,0,0-1.23-.615Z" transform="translate(-2.48 245.955)" fill="#415569"/>
    <path id="Path_603" data-name="Path 603" d="M21.459,55.658,4.24,55.49l.615,21.021,17-.224Z" transform="translate(-10.054 227.117)" fill="#faa09a"/>
    <path id="Path_604" data-name="Path 604" d="M12.987,55.7a17.219,17.219,0,0,1-2.069,12.188C8.794,70.511,9.8,78.393,9.8,78.393s-3.41,11.181-6.373,9.9c-.615,0,.671-32.929.671-32.929Z" transform="translate(-14.552 226.52)" fill="#fffbf9"/>
    <path id="Path_605" data-name="Path 605" d="M6.813,55.452,2.62,55.34l.056,33.32,3.466-.28Z" transform="translate(-17.491 226.428)" fill="#fffbf9"/>
    <line id="Line_136" data-name="Line 136" x1="0.671" y2="32.929" transform="translate(-11.349 281.88)" fill="none" stroke="#535e5e" stroke-linecap="round" stroke-miterlimit="10" stroke-width="0.3"/>
    <path id="Path_606" data-name="Path 606" d="M8.154,64.18s0-1.509-2.348-1.789S3.29,59.26,3.29,59.26" transform="translate(-14.415 244.423)" fill="none" stroke="#535e5e" stroke-linecap="round" stroke-miterlimit="10" stroke-width="0.3"/>
    <path id="Path_607" data-name="Path 607" d="M10.953,55.42s0,8.106-7.6,7.883" transform="translate(-14.14 226.795)" fill="none" stroke="#535e5e" stroke-linecap="round" stroke-miterlimit="10" stroke-width="0.3"/>
    <path id="Path_608" data-name="Path 608" d="M4.478,60.127s3.354-2.292,4.3-.447c1.565,2.8-2.851,1.454-4.081,1.062h0s3.187,2.516,2.18,3.522S4.31,61.077,4.31,61.077" transform="translate(-9.733 243.053)" fill="none" stroke="#535e5e" stroke-miterlimit="10" stroke-width="0.3"/>
    <path id="Path_609" data-name="Path 609" d="M6.772,65.629,6.66,55.51l21.58-.28,11.349,6.206Z" transform="translate(1.055 225.923)" fill="#7f8ead"/>
    <path id="Path_610" data-name="Path 610" d="M62.346,51.18s65.355,8.833,67.088,28.4-17.107,25.493-36.675,25.773c-6.932,0-84.419.671-84.419.671V79.58H75.931S20.024,73.6,25.615,51.236Z" transform="translate(8.767 207.331)" fill="#7f8ead"/>
    <path id="Path_611" data-name="Path 611" d="M20.359,56.834,3.14,56.61l.615,21.021,17-.168Z" transform="translate(-15.104 232.258)" fill="#faa09a"/>
    <path id="Path_612" data-name="Path 612" d="M11.847,56.871A17.219,17.219,0,0,1,9.778,69.059C7.654,71.631,8.66,79.513,8.66,79.513s-3.41,10.9-6.373,9.951c-.615,0,.671-32.985.671-32.985Z" transform="translate(-19.785 231.661)" fill="#fffbf9"/>
    <path id="Path_613" data-name="Path 613" d="M5.713,56.572,1.52,56.46l.056,33.376,3.466-.28Z" transform="translate(-22.541 231.57)" fill="#fffbf9"/>
    <line id="Line_137" data-name="Line 137" x1="0.671" y2="32.985" transform="translate(-17.499 288.141)" fill="none" stroke="#535e5e" stroke-linecap="round" stroke-miterlimit="10" stroke-width="0.3"/>
    <path id="Path_614" data-name="Path 614" d="M7.054,65.356s0-1.565-2.4-1.845S2.19,60.38,2.19,60.38" transform="translate(-19.465 249.565)" fill="none" stroke="#535e5e" stroke-linecap="round" stroke-miterlimit="10" stroke-width="0.3"/>
    <path id="Path_615" data-name="Path 615" d="M9.853,56.55s-.112,8.106-7.6,8.106" transform="translate(-19.19 231.983)" fill="none" stroke="#535e5e" stroke-linecap="round" stroke-miterlimit="10" stroke-width="0.3"/>
    <path id="Path_616" data-name="Path 616" d="M3.424,61.227s3.3-2.236,4.3-.447c1.565,2.851-2.851,1.509-4.137,1.062h0s3.187,2.46,2.18,3.522S3.2,62.121,3.2,62.121" transform="translate(-14.829 248.215)" fill="none" stroke="#535e5e" stroke-miterlimit="10" stroke-width="0.3"/>
    <path id="Path_617" data-name="Path 617" d="M60.837,51.19S124.85,59.967,126.3,79.535,109.2,105.028,89.629,105.307c-6.932,0-84.419.671-84.419.671V79.535H56.141S17.006,87.25,22.6,51.19Z" transform="translate(-5.601 207.377)" fill="#9daed8"/>
    <line id="Line_138" data-name="Line 138" x2="84.363" transform="translate(-0.391 286.911)" fill="none" stroke="#7984a3" stroke-linecap="round" stroke-miterlimit="10" stroke-width="0.48"/>
    <path id="Path_618" data-name="Path 618" d="M107.082,71.17a89,89,0,0,1-22.81,18.785,107.956,107.956,0,0,1-7.715-14.927,180.072,180.072,0,0,1-8.274-24.04c-4.025-14.144-9.672-13.977-9.672-13.977L39.548,32.93c-7.324,0-14.256,7.883-19.9,19.735C11.706,69.437,2.873,95.489,6.786,98.564A27.954,27.954,0,0,0,21.21,102.31l-1.062,33.544c5.591.447,11.181,1.845,16.772,2.124a218.42,218.42,0,0,0,25.661.447,28.793,28.793,0,0,0,11.181-2.516c-.28-8.777-1.23-19.008-1.845-26.891a11.792,11.792,0,0,0,0-1.4c3.858,3.8,6.932,5.591,8.61,5.591s17.387-2.572,35.165-30.357Z" transform="translate(-2.761 123.552)" fill="#f9dbde"/>
    <path id="Path_619" data-name="Path 619" d="M107.082,71.17a89,89,0,0,1-22.81,18.785,107.956,107.956,0,0,1-7.715-14.927,180.072,180.072,0,0,1-8.274-24.04c-4.025-14.144-9.672-13.977-9.672-13.977L39.548,32.93c-7.324,0-14.256,7.883-19.9,19.735C11.706,69.437,2.873,95.489,6.786,98.564A27.954,27.954,0,0,0,21.21,102.31l-1.062,33.544c5.591.447,11.181,1.845,16.772,2.124a218.42,218.42,0,0,0,25.661.447,28.793,28.793,0,0,0,11.181-2.516c-.28-8.777-1.23-19.008-1.845-26.891a11.792,11.792,0,0,0,0-1.4c3.858,3.8,6.932,5.591,8.61,5.591s17.387-2.572,35.165-30.357Z" transform="translate(-2.761 123.552)" fill="#fd9b27" opacity="0.52"/>
    <line id="Line_139" data-name="Line 139" y1="53.446" x2="1.733" transform="translate(17.107 205.12)" fill="none" stroke="#cb7f7f" stroke-linecap="round" stroke-miterlimit="10" stroke-width="0.4"/>
    <path id="Path_620" data-name="Path 620" d="M15,42.56A65.746,65.746,0,0,0,36.915,68.612" transform="translate(39.341 167.76)" fill="none" stroke="#cb7f7f" stroke-linecap="round" stroke-miterlimit="10" stroke-width="0.4"/>
  </g>
  <circle id="cc77b3ac-6943-41ce-a86c-cfe7abfbe0e4" cx="151.033" cy="151.033" r="151.033" transform="translate(0 0)" fill="none"/>
  <path id="Path_621" data-name="Path 621" d="M179.772,6.487C114.655-1.931,50.32,24.815,20.88,72.542S3.712,177.929,51.187,214.947v57.7H81.88l-.335,34.141h22.81l-.335-34.141H260.556v-57.7c41.181-32.074,56.426-80.212,39.381-124.35S236.481,13.9,180.051,6.487Z" transform="translate(-4.673 -4.608)" fill="none"/>
</svg>
