<svg xmlns="http://www.w3.org/2000/svg" width="81.277" height="90.327" viewBox="0 0 81.277 90.327"><path d="M71.4,14.155a2.1,2.1,0,0,1-1.039-.271C61.686,9.413,54.189,7.516,45.2,7.516a51.669,51.669,0,0,0-25.156,6.368A2.264,2.264,0,1,1,17.878,9.91a57.465,57.465,0,0,1,54.557-.045A2.286,2.286,0,0,1,71.4,14.155ZM6.768,37.866a2.353,2.353,0,0,1-1.31-.406A2.252,2.252,0,0,1,4.916,34.3,46.694,46.694,0,0,1,21.852,19.53a52.133,52.133,0,0,1,46.563-.045A46.872,46.872,0,0,1,85.352,34.163a2.268,2.268,0,0,1-3.7,2.619A42.4,42.4,0,0,0,66.338,23.5a47.59,47.59,0,0,0-42.454.045A42.845,42.845,0,0,0,8.529,36.918a1.969,1.969,0,0,1-1.761.948ZM34.995,92.378a2.119,2.119,0,0,1-1.581-.677,45.656,45.656,0,0,1-9.078-11.923,40.091,40.091,0,0,1-4.742-19.6c0-13.414,11.471-24.343,25.562-24.343s25.562,10.93,25.562,24.343a2.258,2.258,0,0,1-4.516,0c0-10.93-9.439-19.827-21.046-19.827S24.11,49.247,24.11,60.177a35.382,35.382,0,0,0,4.2,17.388,42.749,42.749,0,0,0,8.355,10.93,2.319,2.319,0,0,1,0,3.207A2.477,2.477,0,0,1,34.995,92.378Zm32.382-8.355a24.322,24.322,0,0,1-14-4.02A24.046,24.046,0,0,1,42.627,60.177a2.258,2.258,0,1,1,4.516,0,19.425,19.425,0,0,0,8.762,16.078,19.8,19.8,0,0,0,11.471,3.207,29.847,29.847,0,0,0,4.7-.452,2.268,2.268,0,1,1,.768,4.471,30.841,30.841,0,0,1-5.465.542Zm-9.078,9.3a2.643,2.643,0,0,1-.587-.09c-7.181-1.987-11.878-4.652-16.8-9.484a32.954,32.954,0,0,1-9.8-23.575c0-7.316,6.233-13.278,13.91-13.278s13.91,5.962,13.91,13.278c0,4.832,4.2,8.762,9.394,8.762s9.394-3.929,9.394-8.762c0-17.027-14.678-30.847-32.743-30.847-12.826,0-24.569,7.136-29.853,18.2a29.054,29.054,0,0,0-2.665,12.646,44.881,44.881,0,0,0,3.026,16.3,2.2,2.2,0,0,1-1.31,2.89,2.24,2.24,0,0,1-2.89-1.31,50.315,50.315,0,0,1-3.3-17.885,33.93,33.93,0,0,1,3.071-14.633c6.007-12.6,19.33-20.775,33.918-20.775,20.549,0,37.26,15.852,37.26,35.363,0,7.316-6.233,13.278-13.91,13.278s-13.91-5.962-13.91-13.278c0-4.832-4.2-8.762-9.394-8.762s-9.394,3.929-9.394,8.762A28.441,28.441,0,0,0,44.073,80.5a30.711,30.711,0,0,0,14.768,8.355,2.242,2.242,0,0,1,1.581,2.755A2.2,2.2,0,0,1,58.3,93.327Z" transform="translate(-4.495 -3)" fill="#105ffb"/></svg>