<?xml version="1.0" encoding="utf-8"?>
<!-- Generator: Adobe Illustrator 25.0.0, SVG Export Plug-In . SVG Version: 6.00 Build 0)  -->
<svg version="1.1" id="Layer_1" xmlns="http://www.w3.org/2000/svg" xmlns:xlink="http://www.w3.org/1999/xlink" x="0px" y="0px"
	 viewBox="0 0 810 216" style="enable-background:new 0 0 810 216;" xml:space="preserve">
<style type="text/css">
	.st0{fill:#FFFFFF;}
	.st1{fill:#FF6900;}
</style>
<path class="st0" d="M255.1,122.2c0,7.4-2.4,13.1-7.3,16.9c-4.5,3.5-10.7,5.3-18.5,5.3h-30.9V76.1h29.9c5.2-0.1,10.2,1.7,14.2,5
	c4.3,3.5,6.8,8.8,6.7,14.4c0.1,3.9-1.2,7.7-3.6,10.8C251.9,110.2,255.1,115.5,255.1,122.2z M236.1,95.6c0-1.7-0.8-3.4-2.2-4.5
	c-1.6-1.3-3.6-2-5.7-1.9h-16.7v13.6h16.7c2,0,3.9-0.8,5.4-2.2C235.2,99.4,236.1,97.5,236.1,95.6z M242,122.2c0-1.3-0.8-2.7-2.3-4
	c-2.4-2-6.2-3.1-11.3-3.1h-16.7v16.1h17.5c4.1,0,7.2-0.5,9.1-1.5C240.7,128.3,242,125.8,242,122.2L242,122.2z"/>
<path class="st0" d="M300.5,95.8c0.1,1.6-0.4,3.2-1.4,4.5c-1,1.4-2.6,2.2-4.3,2.1c-0.6,0-1.2-0.1-1.8-0.2c-0.6-0.1-1.2-0.2-1.8-0.2
	c-3.5,0-7,1.2-9.7,3.4c-2.9,2.1-4.6,5.5-4.6,9v23.3c0.1,1.8-0.6,3.6-1.9,4.9c-1.3,1.1-2.9,1.7-4.6,1.7c-1.6,0.1-3.2-0.5-4.5-1.6
	c-1.4-1.2-2.2-3-2.1-4.9V96.6c0-1.8,0.7-3.5,2-4.7c1.3-1.2,3.1-1.9,4.9-1.9c1.7,0,3.4,0.8,4.4,2.2c1.3,1.8,2,4.1,1.8,6.3v0.2
	c1.1-4,4.2-7.2,8.2-8.6c2.2-0.9,4.6-1.4,7-1.4c1.1,0,2.1,0.1,3.2,0.4C298.7,90.1,300.5,92.3,300.5,95.8z"/>
<path class="st0" d="M346.1,144.5h-29.6c-6.1,0-11-1.7-14.6-5.1c-3.6-3.4-5.5-8.2-5.5-14.4c0-6.7,2.4-11.8,7.1-15.2
	c4-3.1,9.4-4.6,16.1-4.6c2.5,0.1,4.9,0.8,7.1,2c3,1.5,5,3.3,5.9,5.5c0.2-0.7,0.2-1.5,0.2-2.2c0-4.7-2.4-7.6-7.1-8.8
	c-0.4-0.1-2-0.2-5-0.5c-1.6-0.1-3.2-0.7-4.6-1.5c-1.7-1.3-2.7-3.4-2.7-5.5c0-4.1,2.8-6.1,8.4-6.1c6.7,0,12.3,1.6,16.7,4.9
	c4.9,3.7,7.4,8.8,7.4,15.3L346.1,144.5z M333,131.3v-5.2c0-2.7-1.6-4.9-4.7-6.5c-2.6-1.3-5.5-2-8.4-2c-6.8,0-10.2,2.4-10.2,7.3
	c0,4.2,2.9,6.3,8.6,6.3L333,131.3L333,131.3z"/>
<path class="st0" d="M407.4,137.8c0.1,1.8-0.6,3.6-2,4.9c-1.3,1.1-2.9,1.7-4.6,1.7c-1.7,0-3.4-0.6-4.6-1.7c-1.3-1.3-2.1-3-1.9-4.9
	v-28.1c0-4.8-2.5-7.2-7.5-7.2h-16.3v35.3c0.1,1.8-0.6,3.6-1.9,4.9c-1.3,1.1-2.9,1.7-4.6,1.7c-1.6,0.1-3.2-0.5-4.5-1.6
	c-1.4-1.2-2.2-3-2.1-4.9V89.3h29.4c6,0,11,1.9,14.8,5.6c3.9,3.8,5.8,8.7,5.8,14.8L407.4,137.8z"/>
<path class="st0" d="M461.7,137.7c0.1,1.8-0.6,3.6-2,4.9c-1.3,1.1-2.9,1.7-4.6,1.7c-0.7,0-1.4-0.1-2.1-0.2c-1.3-0.4-2.3-1.9-3.2-4.5
	c-1.1,2.1-2.3,3.3-3.8,3.7c-2,0.7-4.1,1-6.2,1c-10,0-17.2-4-21.6-12c-2.5-4.3-3.8-9.2-3.8-14.1c-0.1-7.6,2.6-15,7.6-20.8
	c4.2-5.1,10.5-8,17.1-7.8c1.9,0,3.8,0.3,5.6,1c1.7,0.7,2.9,2.2,3.7,4.8V84.5c-0.1-1.8,0.6-3.6,1.9-4.9c1.3-1.1,2.9-1.7,4.6-1.7
	c1.7,0,3.3,0.6,4.6,1.7c1.4,1.2,2.1,3,2,4.9V137.7z M448.5,123v-13.4c0-4.5-2.7-6.7-8.2-6.7c-3.8,0-6.5,1-8.1,3
	c-2.9,3.5-4.5,8-4.3,12.6c0,3.6,0.9,6.6,2.7,8.7c2.1,2.6,5.2,4,9.3,4c1.8-0.2,3.4-0.9,4.8-2C447.2,127.5,448.5,125.4,448.5,123
	L448.5,123z"/>
<path class="st0" d="M535.7,109.7c0.1,6.9-2,13.7-6,19.4c-4,5.6-9.6,9.9-16.1,12.3c-5.5,2-11.3,3-17.1,2.9h-24V76.1h24.6
	c10.6,0,19.6,2.9,26.9,8.7C531.8,91,535.7,99.3,535.7,109.7z M522.6,109.7c0.2-6.2-2.8-12.1-8-15.6c-4.7-3.3-10.5-4.9-17.5-4.9
	h-11.5v42h10.9c4.2,0.1,8.4-0.6,12.4-2C518,125.8,522.6,119.3,522.6,109.7z"/>
<path class="st0" d="M581.2,95.8c0.1,1.6-0.4,3.2-1.4,4.5c-1,1.4-2.6,2.2-4.3,2.1c-0.6,0-1.2-0.1-1.8-0.2c-0.6-0.1-1.2-0.2-1.8-0.2
	c-3.5,0-7,1.2-9.7,3.4c-2.9,2.1-4.6,5.5-4.6,9v23.3c0.1,1.8-0.6,3.6-1.9,4.9c-1.3,1.1-2.9,1.7-4.6,1.7c-1.6,0.1-3.2-0.5-4.5-1.6
	c-1.4-1.2-2.2-3-2.1-4.9V96.6c0-1.8,0.7-3.5,2-4.7c1.3-1.2,3.1-1.9,4.9-1.9c1.7,0,3.4,0.8,4.4,2.2c1.3,1.8,2,4.1,1.8,6.3v0.2
	c1.1-4,4.2-7.2,8.2-8.6c2.2-0.9,4.6-1.4,7-1.4c1.1,0,2.1,0.1,3.2,0.4C579.5,90.1,581.2,92.3,581.2,95.8z"/>
<path class="st0" d="M601.6,79.5c0.1,3.6-2.8,6.6-6.5,6.7s-6.6-2.8-6.7-6.5c0-0.1,0-0.1,0-0.2c0-1.7,0.7-3.4,1.9-4.6
	c2.6-2.6,6.7-2.6,9.3,0c0,0,0,0,0,0C600.9,76.1,601.6,77.8,601.6,79.5z M601.6,137.8c0.1,1.8-0.6,3.6-1.9,4.9
	c-1.3,1.1-2.9,1.7-4.6,1.7c-1.6,0.1-3.2-0.5-4.5-1.6c-1.4-1.2-2.2-3-2.1-4.9V96.8c-0.1-1.9,0.7-3.7,2.1-4.9c1.2-1.1,2.8-1.7,4.5-1.6
	c1.7,0,3.4,0.6,4.6,1.7c1.3,1.3,2,3,1.9,4.9V137.8z"/>
<path class="st0" d="M659.9,96.3c0,0.9-0.2,1.7-0.5,2.5l-12.3,34.5c-2.9,7.9-7.4,11.9-13.5,12c-6.2,0-10.5-4-13-12l-10.8-34.6
	c-0.2-0.7-0.3-1.5-0.4-2.2c0-1.8,0.7-3.5,2.1-4.7c1.3-1.2,3-1.9,4.8-1.9c3,0,5,1.5,6,4.6l7,21.4c1,3,2,6.1,3,9.1
	c0.9,2.8,1.6,5.6,2.1,8.4c0.4-2.7,2.1-8.4,5-17l7.6-22.1c1-3,3-4.4,5.9-4.4c1.8,0,3.5,0.6,4.8,1.8C659.2,92.8,660,94.6,659.9,96.3z"
	/>
<path class="st0" d="M716,126.1h-38.2c2.3,4,6.5,6,12.4,6c2-0.1,4,0.7,5.4,2.2c1.2,1.2,1.8,2.9,1.8,4.6c0,1.7-0.6,3.3-1.8,4.5
	c-1.5,1.3-3.4,2-5.3,1.8c-8.2,0-14.9-2.5-19.9-7.6c-5.1-5-7.6-11.8-7.6-20.1c0-8.8,2.5-15.8,7.4-21c5-5.2,11.7-7.7,20.4-7.7
	c8.3,0,14.7,3.1,19.4,9.3c4.1,5.6,6.2,12.6,6.2,21.2L716,126.1z M702.2,112.9c-0.5-2.7-1.6-5.3-3.3-7.5c-2.1-2.4-5.2-3.7-8.4-3.5
	c-8.2,0-13,3.7-14.3,11L702.2,112.9L702.2,112.9z"/>
<path class="st1" d="M89.9,80.3V61.4c-0.1-8.2-6.8-14.8-15-14.8h-0.7c-8.2,0-14.9,6.6-15,14.8v61.1C59.3,103.3,71.7,86.3,89.9,80.3z
	"/>
<path class="st1" d="M59.2,123.9v23.2c0.1,8.2,6.8,14.8,15,14.8h0.7c1.6,0,3.2-0.3,4.7-0.8C66.9,153,59.3,139,59.2,123.9z"/>
<path class="st1" d="M106.6,83.8c-21.9,0-39.7,17.8-39.7,39.7s17.8,39.7,39.7,39.7s39.7-17.8,39.7-39.7l0,0
	C146.4,101.6,128.6,83.8,106.6,83.8z M106.6,141.6c-10,0-18.1-8.1-18.1-18.1c0-10,8.1-18.1,18.1-18.1c10,0,18.1,8.1,18.1,18.1
	c0,0,0,0,0,0C124.7,133.5,116.6,141.6,106.6,141.6z"/>
</svg>
