<svg xmlns="http://www.w3.org/2000/svg" width="42.058" height="46.38" viewBox="0 0 42.058 46.38">
  <path id="Icon_simple-email" data-name="Icon simple-email" d="M43.7,21.406a23.919,23.919,0,0,1-.771,5.188,15.013,15.013,0,0,1-2.017,4.556,10.644,10.644,0,0,1-3.42,3.237A9.652,9.652,0,0,1,32.5,35.619a7.239,7.239,0,0,1-3.611-.884,6.184,6.184,0,0,1-2.44-2.5A7.735,7.735,0,0,1,19.9,35.52a6.654,6.654,0,0,1-5.712-3.072,10.057,10.057,0,0,1-1.42-3.559,15.349,15.349,0,0,1-.185-4.643A21.568,21.568,0,0,1,14,18.56,15.456,15.456,0,0,1,16.613,14.2a11.059,11.059,0,0,1,3.594-2.776,10.028,10.028,0,0,1,4.37-.971,13.59,13.59,0,0,1,2.614.223,10.7,10.7,0,0,1,2.029.609,10.97,10.97,0,0,1,1.681.887c.513.33,1.029.672,1.542,1.02L31.173,27.8a4.855,4.855,0,0,0,.038,1.71,2.392,2.392,0,0,0,.522,1.055,1.878,1.878,0,0,0,.846.551,3.142,3.142,0,0,0,2.974-.585A6.337,6.337,0,0,0,37.146,28.5a13.066,13.066,0,0,0,1.072-3.049,20.92,20.92,0,0,0,.47-3.8,24.264,24.264,0,0,0-.6-7.095,14.1,14.1,0,0,0-2.626-5.489,12.193,12.193,0,0,0-4.707-3.536A17.083,17.083,0,0,0,23.9,4.284,15.14,15.14,0,0,0,17.12,5.762a15.56,15.56,0,0,0-5.153,4.1,19.667,19.667,0,0,0-3.374,6.164,27.78,27.78,0,0,0-1.42,7.68A25.539,25.539,0,0,0,7.9,31.541a14.154,14.154,0,0,0,2.863,5.617,11.949,11.949,0,0,0,4.852,3.374,18.61,18.61,0,0,0,6.695,1.119,22.931,22.931,0,0,0,4.394-.472c.725-.145,1.411-.319,2.066-.51a15.552,15.552,0,0,0,1.779-.638l.919,4.133a10.2,10.2,0,0,1-1.991.985,19.166,19.166,0,0,1-2.353.681,22.963,22.963,0,0,1-4.915.551,25.777,25.777,0,0,1-8.961-1.443,16.493,16.493,0,0,1-6.533-4.3A18.039,18.039,0,0,1,2.791,33.55,30.251,30.251,0,0,1,1.7,23.7a30.025,30.025,0,0,1,1.884-9.448A23.383,23.383,0,0,1,8.118,6.75,20.682,20.682,0,0,1,15.042,1.8,21.678,21.678,0,0,1,24.009,0,22.632,22.632,0,0,1,32.7,1.556a16.9,16.9,0,0,1,6.272,4.376,17.96,17.96,0,0,1,3.721,6.762A25.854,25.854,0,0,1,43.7,21.406Zm-24.89,2.84a9.859,9.859,0,0,0,.51,4.889,2.621,2.621,0,0,0,2.521,1.652,2.785,2.785,0,0,0,.864-.159,3.08,3.08,0,0,0,.994-.6,5.305,5.305,0,0,0,1.009-1.217,9.341,9.341,0,0,0,.927-2.058l.991-11.349a5.922,5.922,0,0,0-1.542-.2,5.331,5.331,0,0,0-2.565.588A5.078,5.078,0,0,0,20.7,17.52,10.144,10.144,0,0,0,19.5,20.36a24.094,24.094,0,0,0-.684,3.884Z" transform="translate(-1.67)" fill="#011b60"/>
</svg>
