<svg xmlns="http://www.w3.org/2000/svg" width="43.527" height="43.527" viewBox="0 0 43.527 43.527">
  <g id="money-cash-currency" transform="translate(-1 -1)">
    <path id="Path_796" data-name="Path 796" d="M2,4.076A2.076,2.076,0,0,1,4.076,2H41.451a2.076,2.076,0,0,1,2.076,2.076V24.84a2.076,2.076,0,0,1-2.076,2.076H4.076A2.076,2.076,0,0,1,2,24.84Z" fill="none" stroke="#000" stroke-linecap="round" stroke-linejoin="round" stroke-width="2"/>
    <path id="Path_797" data-name="Path 797" d="M43.527,18H2" transform="translate(0 17.222)" fill="none" stroke="#000" stroke-linecap="round" stroke-linejoin="round" stroke-width="2"/>
    <path id="Path_798" data-name="Path 798" d="M43.527,22H2" transform="translate(0 21.527)" fill="none" stroke="#000" stroke-linecap="round" stroke-linejoin="round" stroke-width="2"/>
    <circle id="Ellipse_64" data-name="Ellipse 64" cx="4" cy="4" r="4" transform="translate(19 10.527)" fill="none" stroke="#000" stroke-linecap="round" stroke-linejoin="round" stroke-width="2"/>
    <path id="Path_799" data-name="Path 799" d="M6.033,8.033,6,8" transform="translate(4.305 6.458)" fill="none" stroke="#000" stroke-linecap="round" stroke-linejoin="round" stroke-width="2"/>
    <path id="Path_800" data-name="Path 800" d="M18.033,8.033,18,8" transform="translate(17.222 6.458)" fill="none" stroke="#000" stroke-linecap="round" stroke-linejoin="round" stroke-width="2"/>
  </g>
</svg>
