<svg xmlns="http://www.w3.org/2000/svg" width="41.427" height="41.427" viewBox="0 0 41.427 41.427">
  <g id="Chat" transform="translate(0)">
    <path id="Path_3664" data-name="Path 3664" d="M11.82,31.963A5.2,5.2,0,0,1,7.358,27.5V11.25H6.4a3.039,3.039,0,0,0-3.027,3.027V41.523L9.2,35.748h21.42a3.075,3.075,0,0,0,3.027-3.077v-.707Z" transform="translate(-3.375 -0.097)" fill="#105efb"/>
    <path id="Path_3665" data-name="Path 3665" d="M39.365,3.375h-27.8A3.485,3.485,0,0,0,8.086,6.85V29.366a3.494,3.494,0,0,0,3.475,3.485H35.282l7.558,5.278V6.85A3.485,3.485,0,0,0,39.365,3.375Z" transform="translate(-1.413 -3.375)" fill="#0a4ac0"/>
  </g>
</svg>
