<svg xmlns="http://www.w3.org/2000/svg" width="39.673" height="40.304" viewBox="0 0 39.673 40.304">
  <g id="chatbot" transform="translate(-1.5 -1.5)">
    <path id="Path_12164" data-name="Path 12164" d="M3,7.075V39.251a1.019,1.019,0,0,0,1.739.72L12.59,32.12a2.038,2.038,0,0,1,1.441-.6H35.6a4.075,4.075,0,0,0,4.075-4.075V7.075A4.075,4.075,0,0,0,35.6,3H7.075A4.075,4.075,0,0,0,3,7.075Z" transform="translate(0 0)" fill="none" stroke="#fff" stroke-linecap="round" stroke-linejoin="round" stroke-width="3"/>
    <path id="Path_12165" data-name="Path 12165" d="M21.224,12a9.941,9.941,0,0,1-6.112,2.037A9.941,9.941,0,0,1,9,12" transform="translate(6.224 9.336)" fill="none" stroke="#fff" stroke-linecap="round" stroke-linejoin="round" stroke-width="3"/>
    <path id="Path_12166" data-name="Path 12166" d="M9,8.04V8" transform="translate(6.224 5.187)" fill="none" stroke="#fff" stroke-linecap="round" stroke-linejoin="round" stroke-width="3"/>
    <path id="Path_12167" data-name="Path 12167" d="M15,8.04V8" transform="translate(12.449 5.187)" fill="none" stroke="#fff" stroke-linecap="round" stroke-linejoin="round" stroke-width="3"/>
  </g>
</svg>
