<svg id="create_email_sent" data-name="create email sent" xmlns="http://www.w3.org/2000/svg" width="186.481" height="186.481" viewBox="0 0 186.481 186.481">
  <path id="Path_7" data-name="Path 7" d="M359.195,19,287.01,123.2l-7.524,10.862v36.473l27.429-26.807-14.009-26.15" transform="translate(-177.692 -12.08)" fill="#303c47"/>
  <path id="Path_8" data-name="Path 8" d="M117,120.546,64,104.333,223.529,10V153.139l-79.764-24.4" transform="translate(-40.69 -6.358)" fill="#303c47"/>
  <path id="Path_9" data-name="Path 9" d="M237.44,170.539,213.353,126.7,317.149,19l-77.47,111.835Z" transform="translate(-135.646 -12.08)" fill="#303c47"/>
  <path id="Path_10" data-name="Path 10" d="M218.975.478a3.642,3.642,0,0,0-3.659.028L148.572,39.975a3.642,3.642,0,0,0,3.707,6.27l47.888-28.318-89.2,92.553L66.6,96.908l57.9-34.237a3.642,3.642,0,0,0-3.707-6.27L55.788,94.84a3.642,3.642,0,0,0,.788,6.618l52.983,16.209,23.375,42.546a.864.864,0,0,0,.075.114,3.632,3.632,0,0,0,5.663.736L165.549,134.8,216.1,150.263a3.642,3.642,0,0,0,4.708-3.483V3.642A3.642,3.642,0,0,0,218.975.478Zm-31.822,41.45-54.021,77.983a3.644,3.644,0,0,0-.648,2.074v22.28l-15.961-29.052ZM139.769,149.807v-22.9l17.843,5.459Zm2.191-29.845L213.528,16.646V141.858Z" transform="translate(-34.332 0)" fill="#fff"/>
  <path id="Path_11" data-name="Path 11" d="M94.218,345.715a3.643,3.643,0,0,0-5.151,0l-34,34a3.642,3.642,0,0,0,5.151,5.151l34-34A3.642,3.642,0,0,0,94.218,345.715Z" transform="translate(-34.332 -219.12)" fill="#fff"/>
  <path id="Path_12" data-name="Path 12" d="M9.444,470.067l-8.377,8.377A3.642,3.642,0,1,0,6.218,483.6l8.377-8.377a3.642,3.642,0,1,0-5.151-5.151Z" transform="translate(0 -298.181)" fill="#fff"/>
  <path id="Path_13" data-name="Path 13" d="M129.222,491.41a3.644,3.644,0,1,0,2.575,1.067A3.663,3.663,0,0,0,129.222,491.41Z" transform="translate(-79.841 -312.428)" fill="#fff"/>
  <path id="Path_14" data-name="Path 14" d="M169.61,418.073,151.6,436.082a3.642,3.642,0,1,0,5.151,5.151l18.009-18.009a3.642,3.642,0,0,0-5.151-5.151Z" transform="translate(-95.707 -265.124)" fill="#fff"/>
  <path id="Path_15" data-name="Path 15" d="M340.178,414.277,322.12,432.336a3.642,3.642,0,1,0,5.151,5.151l18.058-18.058a3.642,3.642,0,1,0-5.151-5.151Z" transform="translate(-204.119 -262.711)" fill="#fff"/>
  <path id="Path_16" data-name="Path 16" d="M270.072,140.664A3.644,3.644,0,1,0,267.5,139.6,3.654,3.654,0,0,0,270.072,140.664Z" transform="translate(-169.391 -84.8)" fill="#fff"/>
</svg>
