<svg id="humaaans_sitting-8" data-name="humaaans/sitting-8" xmlns="http://www.w3.org/2000/svg" width="291.839" height="332.537" viewBox="0 0 291.839 332.537">
  <g id="A-Human_Sitting" data-name="A-Human/Sitting" transform="translate(291.839 332.537) rotate(180)">
    <g id="Head_Front_Short-2" data-name="Head/Front/Short-2" transform="translate(78.419 253.125)">
      <g id="Head" transform="translate(3.971 0)">
        <path id="Path_508" data-name="Path 508" d="M8.2,38.227C3.627,43.6.532,50.175,1.049,57.548,2.54,78.791,32.111,74.118,37.863,63.4S42.932,25.478,35.5,23.562c-2.965-.764-9.281,1.108-15.709,4.982L23.824,0H0Z" fill="#915b3c" fill-rule="evenodd"/>
      </g>
      <path id="Hair" d="M10.342,0C7.351,13.3-1.167,22.37.134,28.316a9.018,9.018,0,0,0,6.935,7.395Q9.983,47.5,25.864,45.738c15.881-1.76,25.574-8.356,21.388-22.868-3.848,0-8.493,1.392-14.916-.993q-3.057-1.135-4.373-7.038h-2.9q-4.226,7.006-8.333,5.149t-1.867-9.021L13.43,0Z" transform="translate(0 33.445)" fill="#191847" fill-rule="evenodd"/>
    </g>
    <g id="Bottom_Sitting_Baggy-Pants" data-name="Bottom/Sitting/Baggy-Pants" transform="translate(0 0)">
      <g id="Objects_Seat_Cube-2" data-name="Objects/Seat/Cube-2" transform="translate(0 5.956)">
        <path id="Seat" d="M15.882,123.088H130.037a15.882,15.882,0,0,0,15.882-15.882V15.882A15.882,15.882,0,0,0,130.037,0H15.882A15.882,15.882,0,0,0,0,15.882v91.324A15.882,15.882,0,0,0,15.882,123.088ZM31.765,95.294a3.971,3.971,0,0,1-3.971-3.971V31.765a3.971,3.971,0,0,1,3.971-3.971h82.39a3.971,3.971,0,0,1,3.971,3.971V91.324a3.971,3.971,0,0,1-3.971,3.971Z" fill="#c5cfd6" fill-rule="evenodd"/>
      </g>
      <path id="LegLower" d="M65.673,0Q36.316,35.848,25.946,53.153C14.109,72.905,4.42,90.482,1.363,97.2-5.928,113.206,18.147,120.7,23.6,113.236q12.37-16.954,52.838-106.7Z" transform="translate(178.677 10.919)" fill="#b28b67" fill-rule="evenodd"/>
      <path id="LegLower-2" data-name="LegLower" d="M37.48,0,1.057,91.684c-7.79,16.713,29.83,27.7,35.555,19.921,13-17.659,43.89-87.32,47.763-92.581Z" transform="translate(166.765 17.868)" fill="#2f3676" fill-rule="evenodd"/>
      <g id="Lower-Leg" transform="matrix(0.777, -0.629, 0.629, 0.777, 102.515, 33.267)">
        <path id="LegLower-3" data-name="LegLower" d="M1.791,5.294c-1,12.508-2.856,55.808-1,75.85C1.327,86.9,1.889,92.472,2.456,97.7c1.684,15.526,30.473,15.035,28.187.285C24.949,61.245,14.928,9.763,14.21,5.314,13.2-.92,2.419-2.567,1.791,5.294Z" transform="translate(0 0)" fill="#915b3c" fill-rule="evenodd"/>
      </g>
      <g id="Accessories_Shoe_Flat-Sneaker" data-name="Accessories/Shoe/Flat-Sneaker" transform="matrix(0.866, -0.5, 0.5, 0.866, 100.21, 29.213)">
        <path id="shoe" d="M1.666,14.491A21.314,21.314,0,0,1,0,7.836,49.809,49.809,0,0,1,.895,0H56.882q2.182,7.215-2.52,7.79T46.55,8.829L20.528,20.43a.993.993,0,0,1-1.311-.5l-.011-.026-1.673-4.058a17.852,17.852,0,0,0-7.074-2.031A16.02,16.02,0,0,0,4.352,15.6h0a1.985,1.985,0,0,1-2.632-.977Q1.691,14.557,1.666,14.491Z" transform="translate(0 0)" fill="#e4e4e4" fill-rule="evenodd"/>
      </g>
      <g id="Accessories_Shoe_Flat-Sneaker-2" data-name="Accessories/Shoe/Flat-Sneaker" transform="translate(234.265)">
        <path id="shoe-2" data-name="shoe" d="M1.666,14.491A21.314,21.314,0,0,1,0,7.836,49.808,49.808,0,0,1,.895,0H56.882q2.182,7.215-2.52,7.79T46.55,8.829L20.528,20.43a.993.993,0,0,1-1.311-.5l-.011-.026-1.673-4.058a17.852,17.852,0,0,0-7.074-2.031A16.02,16.02,0,0,0,4.352,15.6h0a1.985,1.985,0,0,1-2.632-.977Q1.691,14.557,1.666,14.491Z" transform="translate(0)" fill="#e4e4e4" fill-rule="evenodd"/>
      </g>
      <path id="Leg-and-Butt" d="M95,77.886Q49.586,85.284,34.164,88C4.858,93.17-3.688,108.941,1.365,143.349h54q10.718-3.1,89.57-38.286c9.458-4.7,7.7-18.539,5.968-23.1Q150.793,81.685,103.066,0L58.895,28.139,95.078,74.57Q96.512,77.457,95,77.886Z" transform="translate(59.721 27.087)" fill="#5c63ab" fill-rule="evenodd"/>
    </g>
    <g id="Body_Hoodie" data-name="Body/Hoodie" transform="translate(3.14 95.139)">
      <path id="Skin" d="M155.467,88.291,187.131,65.04a85.232,85.232,0,0,0,21.525-8.649c1.361-1.24,3.006-3.752-2.639-3.318s-11.6.637-12.38-1.289,2.637-4.228,1.063-6.825q-1.574-2.6-14.876,13.027l-31.355,13Zm-121.573-.8,20.744-.082Q35.425,25.386,33.894,21.591C31.6,15.9,36.458,7.229,38.536,2.571c-6.77-3.029-6.049,8.19-14.589,4.216C16.153,3.161,10.223-3.41,1.217,2.146.11,2.83-1.1,5.4,1.828,7.412c7.3,5.008,17.829,13.773,19.251,16.658Q23.988,29.972,33.894,87.489Z" transform="translate(0 0)" fill="#915b3c" fill-rule="evenodd"/>
      <path id="Coat-Back" d="M0,110.839l8.423,2.215c34.124-24.631,51.761-76.143,93.09-100.632L93.168,0C24.972,2.451,2.632,65.21,0,110.839Z" transform="translate(83.183 64.115) rotate(-5)" fill="#e87613" fill-rule="evenodd"/>
      <path id="Shirt" d="M0,0H75.949c3.47,0,2.817,5.011,2.315,7.54-5.79,29.184-28.392,60.644-28.392,102.187l-21.907,3.435C9.845,84.019,3.578,48.139,0,0Z" transform="translate(55.427 66.663)" fill="#dde3e9" fill-rule="evenodd"/>
      <path id="Coat-Front" d="M35.485,126.207a12.529,12.529,0,0,0-7.559,6.4c-8.007,14.448-5.115,22.4,3.442,25.018s16.188-2.771,29.822-2.771a13.718,13.718,0,0,0,2.038-.139l6.858-.391Q99.6,54.292,86.366,20.846H26.588A203.9,203.9,0,0,0,16.421,0H.132Q-2.167,74.349,35.485,126.207Z" transform="translate(20.552 24.972)" fill="#ff9b21" fill-rule="evenodd"/>
      <path id="Shade" d="M13.017,34.249Q15.837,10.654,22.184,0H0Q6.2,14.45,13.017,34.249Z" transform="translate(47.14 45.817)" fill="rgba(0,0,0,0.1)" fill-rule="evenodd"/>
    </g>
  </g>
</svg>
