<svg xmlns="http://www.w3.org/2000/svg" width="58.343" height="34.018" viewBox="0 0 58.343 34.018">
  <g id="dinning-table" transform="translate(-51.805 375.149)">
    <path id="Path_12149" data-name="Path 12149" d="M52.247-374.795a1.2,1.2,0,0,0-.4.542c-.157.357.071,1.7,1.613,9.978.985,5.253,1.8,9.75,1.8,9.978s-.514,2.984-1.142,6.124-1.142,5.867-1.142,6.081a1.132,1.132,0,0,0,1.085,1.128c.657,0,.985-.186,1.171-.671.086-.214.657-2.884,1.256-5.939l1.1-5.525h5.039c4.525,0,5.053.029,5.053.228,0,.128.257,2.712.571,5.739.528,5,.614,5.553.885,5.839a1.217,1.217,0,0,0,1.9-.243c.171-.343.128-1.071-.428-6.51-.357-3.369-.642-6.238-.642-6.381a1.4,1.4,0,0,0-.414-.685l-.414-.414H57.6l-1.7-9.036c-.928-4.954-1.742-9.222-1.813-9.479a1.469,1.469,0,0,0-.443-.685A1.56,1.56,0,0,0,52.247-374.795Z" transform="translate(0 -0.19)"/>
    <path id="Path_12150" data-name="Path 12150" d="M342.236-374.87a2.237,2.237,0,0,0-.371.685c-.071.228-.9,4.482-1.813,9.436l-1.684,9.036H326.833l-.414.414a1.4,1.4,0,0,0-.414.685c0,.143-.285,3.012-.642,6.381-.571,5.539-.614,6.167-.414,6.524a1.2,1.2,0,0,0,1.941.128c.214-.3.357-1.3.828-5.782.314-2.984.571-5.539.571-5.682,0-.228.343-.243,5.053-.243h5.039l1.1,5.525c.6,3.055,1.171,5.724,1.256,5.939.186.485.514.671,1.171.671a1.132,1.132,0,0,0,1.085-1.128c0-.214-.528-3.041-1.185-6.31l-1.185-5.924,1.827-9.707c1-5.325,1.784-9.836,1.756-10.021A1.26,1.26,0,0,0,342.236-374.87Z" transform="translate(-234.058 0)"/>
    <path id="Path_12151" data-name="Path 12151" d="M145.688-306.857a1.141,1.141,0,0,0-.143,1.827l.414.414h13.733v14.532l-.885.157a6.171,6.171,0,0,0-5.068,5.41c-.057.828-.029,1.014.243,1.342l.3.4h13.39l.3-.385c.271-.343.3-.528.243-1.356a6.172,6.172,0,0,0-5.053-5.41l-.9-.157v-14.532H176l.414-.414a1.141,1.141,0,0,0-.143-1.827C175.938-307.114,146.017-307.114,145.688-306.857Zm17.287,19.386a4.007,4.007,0,0,1,1.328.614,3.917,3.917,0,0,1,1.242,1.527,40.758,40.758,0,0,1-4.568.128,40.759,40.759,0,0,1-4.568-.128,4.046,4.046,0,0,1,1.171-1.485,4.224,4.224,0,0,1,1.213-.614A13.222,13.222,0,0,1,162.976-287.471Z" transform="translate(-80.023 -58.377)"/>
  </g>
</svg>
