<svg xmlns="http://www.w3.org/2000/svg" width="185.227" height="185.227" viewBox="0 0 185.227 185.227">
  <g id="donation" transform="translate(0 0)">
    <path id="Path_763" data-name="Path 763" d="M92.614,0A92.619,92.619,0,0,1,166,149.12c-.561.727-4.827.8-5.409,1.507-8.248,10.066-14.88,15.834-26.631,21.706-.9.449-1.806,4.059-2.721,4.479A92.627,92.627,0,0,1,23.225,31.272c.721-.815,5.637.037,6.386-.753,9.88-10.409,18.974-17.291,32.76-22.23.764-.274.533-3.426,1.306-3.68A92.543,92.543,0,0,1,92.614,0Z" transform="translate(0 0)" fill="#2476ed"/>
    <path id="Path_764" data-name="Path 764" d="M158.034,79A64.034,64.034,0,1,1,94,143.034,64.034,64.034,0,0,1,158.034,79Z" transform="translate(-59.993 -50.42)" fill="#3493f8"/>
    <path id="Path_765" data-name="Path 765" d="M138.675,226.966a1.809,1.809,0,0,1-1.809,1.809h-3.015v3.015a1.809,1.809,0,0,1-3.618,0v-3.015h-3.015a1.809,1.809,0,0,1,0-3.618h3.015v-3.015a1.809,1.809,0,0,1,3.618,0v3.015h3.015a1.809,1.809,0,0,1,1.809,1.809Z" transform="translate(-80.04 -140.623)" fill="#a7d0fc"/>
    <path id="Path_766" data-name="Path 766" d="M95.386,294.424a1.809,1.809,0,0,1-1.809,1.809H90.562v3.015a1.809,1.809,0,1,1-3.618,0v-3.015H83.93a1.809,1.809,0,1,1,0-3.618h3.015V289.6a1.809,1.809,0,1,1,3.618,0v3.015h3.015A1.809,1.809,0,0,1,95.386,294.424Z" transform="translate(-52.412 -183.677)" fill="#fff"/>
    <path id="Path_767" data-name="Path 767" d="M176.205,173.278c-2.076,4.076-6.076,8.057-8.777,8.283q-.114.01-.232.01t-.232-.01c-2.7-.226-6.7-4.206-8.777-8.283-2.309-4.535-1.363-7.472,1.273-8.211,2.177-.61,4.825.469,6.982,3.418a.958.958,0,0,0,1.51,0c2.157-2.949,4.805-4.029,6.982-3.418C177.568,165.806,178.514,168.743,176.205,173.278Zm-133.319,5.9c-2.177-.61-4.825.469-6.982,3.418a.958.958,0,0,1-1.51,0c-2.157-2.949-4.805-4.029-6.982-3.418-2.636.739-3.582,3.676-1.273,8.211,2.076,4.076,6.076,8.057,8.777,8.283q.114.01.232.01t.232-.01c2.7-.226,6.7-4.206,8.777-8.283C46.468,182.852,45.522,179.915,42.886,179.176Z" transform="translate(-15.847 -105.246)" fill="#ff94d2"/>
    <path id="Path_768" data-name="Path 768" d="M170.7,180.218a6.775,6.775,0,0,1-3.277,1.536q-.114.01-.232.01t-.232-.01c-2.7-.226-6.7-4.206-8.777-8.283-2.309-4.535-1.363-7.472,1.273-8.211.072-.02.144-.038.216-.055a12.44,12.44,0,0,0,1.559,5.348C163.464,174.935,167.56,179.223,170.7,180.218ZM29.187,184.663a12.445,12.445,0,0,1-1.559-5.348c-.073.016-.145.035-.216.055-2.636.739-3.582,3.676-1.273,8.211,2.076,4.076,6.076,8.057,8.777,8.283q.114.01.232.01t.232-.01a6.778,6.778,0,0,0,3.277-1.536c-3.143-.995-7.239-5.283-9.47-9.664Z" transform="translate(-15.847 -105.439)" fill="#ff72c3"/>
    <path id="Path_769" data-name="Path 769" d="M253.852,91.3c-.693,10.306-5.013,24.056-9.8,27.465q-.362.358-.784.728c-4.522,3.952-12.726,7.472-14.958,4.918s2.355-10.212,6.877-14.164c.071-.062.14-.122.21-.181a62.253,62.253,0,0,1-1.848-10.924,24.083,24.083,0,0,1-6.916-2.4c-7.326-3.824-11.488-10.33-9.295-14.532s23.272-6.331,27.271-6.062c5.639.379,10.043,3.169,9.237,15.154Z" transform="translate(-138.341 -48.584)" fill="#ffbeaa"/>
    <path id="Path_770" data-name="Path 770" d="M292,112.595c-2.386,10.05-8.918,22.9-14.2,25.47q-.416.293-.894.588c-5.113,3.151-13.786,5.267-15.564,2.38s4.009-9.683,9.122-12.834l.237-.144a65.8,65.8,0,0,1,1.384-20.188c2.775-11.688,7.807-13.05,13.306-11.745,3.517.835,6.579,2.285,7.455,6.477C293.345,104.963,293,108.382,292,112.595Z" transform="translate(-166.59 -61.091)" fill="#ffdecf"/>
    <path id="Path_771" data-name="Path 771" d="M247.724,203.16c-4.8,9.433-14.058,18.643-20.31,19.166q-.264.024-.537.024t-.537-.024c-6.252-.523-15.507-9.733-20.31-19.166-5.343-10.493-3.154-17.289,2.945-19,5.037-1.412,11.164,1.086,16.155,7.909a2.216,2.216,0,0,0,3.495,0c4.991-6.824,11.119-9.322,16.156-7.909C250.878,185.871,253.068,192.667,247.724,203.16Z" transform="translate(-129.56 -117.294)" fill="#fb5858"/>
    <path id="Path_772" data-name="Path 772" d="M235,219.217c-2.685,2.049-5.329,3.367-7.582,3.555q-.264.024-.537.024t-.537-.024c-6.252-.523-15.507-9.733-20.31-19.166-5.343-10.493-3.154-17.289,2.945-19q.249-.069.5-.127c.039,3.411,1.159,7.567,3.608,12.375C218.244,206.994,227.722,216.915,235,219.217Z" transform="translate(-129.56 -117.741)" fill="#f44545"/>
    <path id="Path_773" data-name="Path 773" d="M166.685,53.363c-3.472,6.651-20.464,4.642-37.954-4.488q-2.24-1.169-4.341-2.413L118.7,57.37c4.831,14.4,6.279,33.64,3.473,39.912a4.538,4.538,0,0,1-1.108,1.738c-2.426,2.357-5.77,3.595-9.1.172a3.225,3.225,0,0,1-.834-2.265A35.882,35.882,0,0,0,107.4,82.085C104.194,75.4,101,67.79,98.31,61.221l-.028-.068A17.812,17.812,0,0,0,89.643,51.9L64.2,39.406A92.706,92.706,0,0,1,104.65,12.744l1.239.7A24.586,24.586,0,0,0,115.9,16.508c7.045.618,16.156,3.454,25.406,8.282,17.49,9.13,28.854,21.922,25.382,28.573Z" transform="translate(-40.974 -8.134)" fill="#ffdecf"/>
    <path id="Path_774" data-name="Path 774" d="M119.476,134.341c-2.2,1.4-4.86,1.629-7.51-1.1a3.225,3.225,0,0,1-.834-2.265,35.887,35.887,0,0,0-3.73-14.843c-3.209-6.685-6.407-14.294-9.092-20.863l-.028-.068a17.707,17.707,0,0,0-8.577-9.223L64.2,73.459a93.153,93.153,0,0,1,7.279-7.36L92.324,76.334A22.248,22.248,0,0,1,103.1,87.923l.035.085c3.375,8.254,7.392,17.814,11.424,26.213a45.084,45.084,0,0,1,4.686,18.649A5.006,5.006,0,0,0,119.476,134.341Z" transform="translate(-40.974 -42.186)" fill="#ffbeaa"/>
    <path id="Path_775" data-name="Path 775" d="M240.618,354.113a92.961,92.961,0,0,1-34.76,27.694l-11.547-8.257c-13.28,3.153-30.8,3.389-46.442-1.718-17.612-5.75-24.319-15.365-26.058-18.515-3.8-6.889-6.563-16.575-3.723-18.515,2.36-1.612,7.44,2.889,11.522,5.494,11.734,7.487,28.73,5.582,43.476,2.872a2.765,2.765,0,0,0-.048-5.448c-3.712-.613-7.326-1.159-11.572-1.867-9.907-1.653-17.434-1.386-18.247-4.491a7.015,7.015,0,0,1,1.193-4.868,4.064,4.064,0,0,1,1.355-1.248c5.554-3.779,25.553-5.518,39.331-2.561a48.04,48.04,0,0,1,11.539,3.709c1.309.669,12.89,8.184,12.89,8.184Z" transform="translate(-74.621 -204.993)" fill="#ffdecf"/>
    <path id="Path_776" data-name="Path 776" d="M215.87,400.052a92.345,92.345,0,0,1-10.012,5.37l-6-4.288a15.816,15.816,0,0,0-11.634-2.779c-12.284,1.919-27,1.453-40.358-2.908-17.613-5.75-24.319-15.365-26.058-18.515-3.8-6.889-6.563-16.575-3.723-18.515a1.845,1.845,0,0,1,.452-.225c1.051,3.248,6.9,12.468,8.3,13.762,22.18,20.489,49.869,20.628,66.382,17.964a16.239,16.239,0,0,1,11.83,2.657Z" transform="translate(-74.621 -228.608)" fill="#ffbeaa"/>
    <path id="Path_777" data-name="Path 777" d="M189.4,334.925a7.782,7.782,0,0,1,1.272-3.743,4.062,4.062,0,0,1,1.355-1.248,13.021,13.021,0,0,1,2.941-1.4c2.113.085,3.787,1.017,4.085,2.451.391,1.881-1.735,3.914-4.749,4.54A6.864,6.864,0,0,1,189.4,334.925Z" transform="translate(-120.88 -209.682)" fill="#fff"/>
    <path id="Path_778" data-name="Path 778" d="M377.8,271c-2.726,5.353-7.978,10.58-11.526,10.877q-.15.014-.3.013c-.1,0-.205,0-.3-.013-3.548-.3-8.8-5.524-11.526-10.877-3.032-5.955-1.79-9.811,1.671-10.782,2.858-.8,6.336.616,9.168,4.489a1.258,1.258,0,0,0,1.983,0c2.832-3.872,6.31-5.29,9.168-4.489C379.593,261.186,380.835,265.042,377.8,271Z" transform="translate(-224.926 -165.939)" fill="#f44545"/>
    <path id="Path_779" data-name="Path 779" d="M370.58,280.111a8.9,8.9,0,0,1-4.3,2.018q-.15.014-.3.013c-.1,0-.205,0-.3-.013-3.548-.3-8.8-5.523-11.526-10.877-3.032-5.955-1.79-9.811,1.671-10.782.094-.026.188-.05.284-.072a16.341,16.341,0,0,0,2.047,7.023C361.073,273.174,366.452,278.8,370.58,280.111Z" transform="translate(-224.926 -166.193)" fill="#c42d2d"/>
  </g>
</svg>
