<svg xmlns="http://www.w3.org/2000/svg" xmlns:xlink="http://www.w3.org/1999/xlink" width="492" height="342" viewBox="0 0 492 342">
  <defs>
    <clipPath id="clip-path">
      <rect id="Rectangle_443" data-name="Rectangle 443" width="492" height="342" transform="translate(0 -0.563)" fill="#fff"/>
    </clipPath>
  </defs>
  <g id="expenses_illustration_" data-name="expenses illustration " transform="translate(0 0.563)" clip-path="url(#clip-path)">
    <path id="Path_1025" data-name="Path 1025" d="M255.693,217.945A74.266,74.266,0,0,1,239.3,190.7c-.119.241-.275.482-.393.723.9-.2,1.766-.362,2.667-.562a.6.6,0,0,0,.158-1.085c-3.374-1.849-3.765-7.8-4.511-11.212-.981-4.46-1.882-8.921-2.667-13.382q-2.47-13.743-3.8-27.688c-.313.161-.588.362-.9.523a139.933,139.933,0,0,1,18.627,13.461c5.256,4.542,10.51,9.4,14.237,15.351,4,6.31,5.922,13.943,7.1,21.258a61.874,61.874,0,0,1-.549,24.311.591.591,0,1,0,1.137.321c2.942-12.176,1.45-25.155-2.313-36.969-3.648-11.291-11.883-19.45-20.708-26.763a142.531,142.531,0,0,0-16.9-12.015.606.606,0,0,0-.9.521q1.41,14.889,4.117,29.536c.9,4.863,1.883,9.726,3.019,14.507.746,3.255,1.256,7.515,4.431,9.283a10.4,10.4,0,0,1,.158-1.085c-.9.2-1.766.362-2.667.562a.564.564,0,0,0-.391.723,75.7,75.7,0,0,0,16.705,27.768C255.419,219.35,256.242,218.507,255.693,217.945Z" transform="translate(190.476 84.744)" fill="#dfe6e9"/>
    <path id="Path_1026" data-name="Path 1026" d="M230.32,138.175A187.334,187.334,0,0,1,259.027,208.3c.158.764,1.295.443,1.137-.321A188.169,188.169,0,0,0,231.3,137.532C230.91,136.929,229.89,137.532,230.32,138.175Z" transform="translate(191.024 85.07)" fill="#dfe6e9"/>
    <path id="Path_1027" data-name="Path 1027" d="M233.007,156.983c5.922,1.326,12.157,2.814,16.275,7.756.471.6,1.334-.282.823-.844-4.236-5.1-10.666-6.71-16.785-8.077C232.574,155.657,232.261,156.823,233.007,156.983Z" transform="translate(193.046 100.899)" fill="#dfe6e9"/>
    <path id="Path_1028" data-name="Path 1028" d="M241.82,164.467a35.007,35.007,0,0,1,2.628-16.4c.313-.723-.707-1.326-1.02-.6a36.006,36.006,0,0,0-2.784,17C240.722,165.229,241.9,165.229,241.82,164.467Z" transform="translate(199.837 93.496)" fill="#dfe6e9"/>
    <path id="Path_1029" data-name="Path 1029" d="M246.849,171.734c2.823-18,14.863-31.988,26.392-45.048-.313-.2-.666-.4-.981-.6-2.706,9.926,3.648,19.129,5.961,28.451a73.4,73.4,0,0,1,1.962,15.754c.078,2.611.039,5.264-.041,7.875a21,21,0,0,1-.314,3.858c-.391,1.729-2.274,4.422-4.273,2.613q-.353.481-.707.964c3.452,1.847,2.2,7.152,1.647,10.247-.707,4.179-1.883,8.157-4.51,11.532-3.8,4.822-9.255,8.4-11.058,14.587-.236.764.9,1.044,1.137.321,2.235-7.554,10.117-11.171,13.372-18.163a36.061,36.061,0,0,0,2.784-11.814c.275-2.852,0-6.269-2.784-7.715-.549-.282-1.254.482-.7.964a3.352,3.352,0,0,0,4.273.2c1.53-1.044,2-2.973,2.157-4.781a85.543,85.543,0,0,0-.352-18.486,68.588,68.588,0,0,0-4.472-17.278c-2.313-5.948-4.705-12.258-2.94-18.727.156-.562-.59-1.044-.981-.6-11.647,13.22-23.844,27.407-26.706,45.569C245.593,172.175,246.73,172.5,246.849,171.734Z" transform="translate(204.26 75.179)" fill="#dfe6e9"/>
    <path id="Path_1030" data-name="Path 1030" d="M266.228,128.3a225.21,225.21,0,0,0-15.021,64.578c-.078.762,1.1.762,1.178,0a224.551,224.551,0,0,1,14.98-64.255C267.639,127.935,266.5,127.614,266.228,128.3Z" transform="translate(208.961 77.066)" fill="#dfe6e9"/>
    <path id="Path_1031" data-name="Path 1031" d="M199.068,165.5c9.607,2.129,18.981-2.611,28.236-4.5a81.749,81.749,0,0,1,30.942-.16c.746.121,1.059-1.005.313-1.167a83.8,83.8,0,0,0-28.668-.362,123.762,123.762,0,0,0-14.274,3.537c-5.3,1.487-10.746,2.693-16.2,1.487C198.636,164.175,198.323,165.3,199.068,165.5Z" transform="translate(164.042 102.992)" fill="#dfe6e9"/>
    <path id="Path_1032" data-name="Path 1032" d="M263.945,160.885c5.57-1.085,11.059.282,16.432,1.649,5.254,1.285,10.549,2.45,15.922,3.414a234.548,234.548,0,0,0,31.372,3.376c.746.041.746-1.165,0-1.206a231.936,231.936,0,0,1-33.3-3.737c-5.332-1-10.588-2.25-15.843-3.535-4.9-1.206-9.882-2.09-14.9-1.085C262.926,159.882,263.24,161.047,263.945,160.885Z" transform="translate(219.244 103.909)" fill="#dfe6e9"/>
    <path id="Path_1033" data-name="Path 1033" d="M24.962,147.619c13.883-3.3,27.765-7.113,41.844-9.2a182.724,182.724,0,0,1,42.432-1.044c27.216,2.411,53.648,9.724,80.315,15.39a321.124,321.124,0,0,0,44.588,6.751c.746.041.746-1.165,0-1.206-27.529-1.929-54.275-9.121-81.177-14.99-26.745-5.787-53.962-9.965-81.334-6.751-15.883,1.89-31.412,6.189-46.981,9.885C23.9,146.613,24.217,147.778,24.962,147.619Z" transform="translate(14.967 83.504)" fill="#dfe6e9"/>
    <path id="Path_1034" data-name="Path 1034" d="M84.929,165.049c23.02-2.049,45.57-7.595,67.884-13.543q34.235-9.161,68.471-18.484c22.785-6.148,45.53-12.458,68.393-18.445,11.373-2.975,22.863-5.666,34.549-6.792a176.77,176.77,0,0,1,33.883.161c26.275,2.491,51.844,9.683,77.216,16.837a.6.6,0,0,0,.313-1.165c-22.314-6.31-44.744-12.619-67.764-15.754a195.678,195.678,0,0,0-34.629-1.888,180.138,180.138,0,0,0-33.686,4.863c-11.293,2.652-22.471,5.826-33.687,8.88L231.52,129q-34.709,9.342-69.452,18.727c-25.374,6.831-50.9,13.743-77.139,16.073C84.184,163.923,84.184,165.128,84.929,165.049Z" transform="translate(66.375 58.195)" fill="#dfe6e9"/>
    <path id="Path_1035" data-name="Path 1035" d="M50.863,179.894l28.745,1.085c9.333.362,18.706.924,28.04,1,9.1.082,17.883-1.727,26.824-3.375a257.348,257.348,0,0,1,28.236-3.656,268.471,268.471,0,0,1,31.687-.482c.744.039.744-1.167,0-1.206a265.638,265.638,0,0,0-55.335,3.335c-9.334,1.567-18.589,3.978-28.04,4.179-9.255.241-18.628-.482-27.883-.844q-16.118-.6-32.236-1.206C50.118,178.647,50.118,179.853,50.863,179.894Z" transform="translate(37.261 115.603)" fill="#dfe6e9"/>
    <path id="Path_1036" data-name="Path 1036" d="M47.635,228.28c.588.441,1.176.844,1.765,1.285.549.4,1.176-.482.706-.964l-5.373-5.746a22.638,22.638,0,0,1-2.471-2.693c-1.02-1.526.039-2.25.274-3.5.274-1.285-.98-2.009-1.686-2.812a17.821,17.821,0,0,1-3.373-6.109c-3.255-9.121-4.392-19.409-4.706-29.053q-.294.3-.588.6c9.882-.924,15.608,8.641,18.9,16.718,3.686,8.96,7.059,18.324,7.49,28.169.039.764,1.216.764,1.177,0-.471-10.529-4.157-20.735-8.314-30.3-3.451-8-9.686-16.716-19.294-15.832a.61.61,0,0,0-.588.6,126.8,126.8,0,0,0,1.49,15.431,76.3,76.3,0,0,0,3.569,14.828,19.576,19.576,0,0,0,2.588,4.822c.784,1,2.118,1.888,1.647,3.375-.2.6-.588.924-.549,1.647.078,1.767,1.961,3.214,3.02,4.34,1.961,2.09,3.961,4.219,5.922,6.31q.353-.484.706-.964c-.588-.443-1.176-.844-1.765-1.287C47.6,226.792,47.008,227.838,47.635,228.28Z" transform="translate(21.236 119.859)" fill="#dfe6e9"/>
    <path id="Path_1037" data-name="Path 1037" d="M44.726,201.374A49.6,49.6,0,0,1,61.942,178.55a6.046,6.046,0,0,0-.824-.2,63.506,63.506,0,0,1,4.471,16.074c.118-.241.275-.482.392-.723-.941.282-1.883.562-2.863.844a.617.617,0,0,0-.353.885c1.1,2.691,2.314,5.746,1.1,8.6-1.02,2.372-3.216,4.14-4.745,6.109a45.956,45.956,0,0,0-6.588,11.653c-.274.723.863,1.044,1.137.321,2.2-5.666,5.49-10.165,9.373-14.708a9.169,9.169,0,0,0,2.549-5.705c.078-2.411-.9-4.7-1.8-6.872-.118.28-.235.6-.353.883.941-.28,1.882-.562,2.863-.844a.576.576,0,0,0,.392-.723,66.122,66.122,0,0,0-4.588-16.4.569.569,0,0,0-.824-.2,51.212,51.212,0,0,0-17.765,23.549C43.354,201.776,44.452,202.1,44.726,201.374Z" transform="translate(31.438 119.396)" fill="#dfe6e9"/>
    <path id="Path_1038" data-name="Path 1038" d="M34.168,182.369a81.072,81.072,0,0,1,18.51,41.912c.118.764,1.294.764,1.176,0a82.808,82.808,0,0,0-18.863-42.795C34.482,180.923,33.658,181.767,34.168,182.369Z" transform="translate(23.33 122.691)" fill="#dfe6e9"/>
    <path id="Path_1039" data-name="Path 1039" d="M47.573,206.426A88.629,88.629,0,0,1,55.338,187.3c.353-.684-.627-1.287-1.02-.6a91.3,91.3,0,0,0-7.883,19.409A.591.591,0,1,0,47.573,206.426Z" transform="translate(33.926 127.045)" fill="#dfe6e9"/>
    <path id="Path_1040" data-name="Path 1040" d="M34.646,171.858c13.726-2.732,27.765-3.778,41.569-1.085,6.431,1.246,12.784,2.693,19.294,3.455,6.863.8,13.8,1.126,20.706,1.406.745.041.745-1.165,0-1.2-6.9-.323-13.843-.6-20.706-1.408-7.137-.844-14.118-2.571-21.216-3.817-13.255-2.331-26.863-1.085-39.961,1.526C33.588,170.853,33.9,172.02,34.646,171.858Z" transform="translate(23.243 111.302)" fill="#dfe6e9"/>
    <path id="Path_1041" data-name="Path 1041" d="M62.536,197.892A234.448,234.448,0,0,1,86.144,194.8a95.5,95.5,0,0,1,23.687,1.688,102.106,102.106,0,0,0,21.569,1.847c7.647-.2,15.374-.562,22.824,1.487a.6.6,0,0,0,.313-1.165c-7.215-2.01-14.628-1.769-22.039-1.567a105.316,105.316,0,0,1-11.8-.161,120.128,120.128,0,0,1-12-1.888,93.251,93.251,0,0,0-22.941-1.447c-7.883.521-15.726,1.808-23.53,3.094C61.477,196.848,61.791,198.013,62.536,197.892Z" transform="translate(47.079 133.047)" fill="#dfe6e9"/>
    <path id="Path_1042" data-name="Path 1042" d="M178.767,203.337a356.273,356.273,0,0,1,44.355-3.778c14.47-.321,28.94.282,43.411.6a.6.6,0,0,0,0-1.206c-14.706-.321-29.451-.924-44.2-.562a364.761,364.761,0,0,0-43.883,3.776C177.708,202.291,178.021,203.417,178.767,203.337Z" transform="translate(146.42 137.206)" fill="#dfe6e9"/>
    <path id="Path_1043" data-name="Path 1043" d="M213.98,207.111c5.609-2.452,11.647.523,17.412.241a14.139,14.139,0,0,0,3.648-.644c1.608-.562,3.1-1.447,4.824-1.526,2.98-.161,5.764,1.005,8.745.523.746-.121.43-1.287-.313-1.167-3.335.564-6.59-1.124-9.884-.362-1.489.323-2.823,1.126-4.273,1.567a15.808,15.808,0,0,1-4.549.443c-5.451-.241-10.9-2.372-16.236-.041C212.726,206.347,213.314,207.393,213.98,207.111Z" transform="translate(176.384 142.071)" fill="#dfe6e9"/>
    <path id="Path_1044" data-name="Path 1044" d="M256.68,183.435c9.884-3.014,19.765-2.934,29.883-1.688,9.531,1.165,19.138,2.693,28.707.964.746-.121.432-1.285-.313-1.165-9.961,1.808-19.962-.041-29.883-1.167-9.765-1.124-19.294-1-28.746,1.929C255.661,182.512,255.936,183.677,256.68,183.435Z" transform="translate(213.018 121.344)" fill="#dfe6e9"/>
    <path id="Path_1045" data-name="Path 1045" d="M240.737,75.676C233.443,71.658,228.7,63.862,229.8,55.222a20.024,20.024,0,0,1,14.745-16.6,19.449,19.449,0,0,1,20.55,8.76,20.431,20.431,0,0,1-2,23.588c-6.274,7.394-17.254,8.519-25.175,3.3-.629-.442-1.217.6-.588,1.045a20.521,20.521,0,0,0,24.391-1.246,21.743,21.743,0,0,0,5.922-24.231,20.818,20.818,0,0,0-19.882-12.859c-8.315.4-15.843,6.55-18.354,14.627-3.136,10.006,2.118,20.293,10.785,25.075C240.815,77.083,241.405,76.038,240.737,75.676Z" transform="translate(189.548 -0.672)" fill="#dfe6e9"/>
    <path id="Path_1046" data-name="Path 1046" d="M53.059,106.609c4-3.657,9.608-1.165,12.588,2.532a41.426,41.426,0,0,1,3.608,6.107,5.462,5.462,0,0,0,3.49,3.134,3.311,3.311,0,0,0,3.216-1.206c.549-.642.9-1.486,1.451-2.129,1.176-1.406,2.706-1.246,3.961-.121,2.745,2.452,2.863,8.519,7.686,8.077.745-.08.745-1.285,0-1.206-5.02.482-4.431-8.157-9.255-9a3.439,3.439,0,0,0-3.412,1.526,13.577,13.577,0,0,1-1.608,2.331c-2.039,1.727-3.843-.684-4.667-2.331-2-3.778-3.961-7.715-7.922-9.685a8.809,8.809,0,0,0-9.961,1.085C51.686,106.247,52.51,107.132,53.059,106.609Z" transform="translate(38.753 56.279)" fill="#dfe6e9"/>
    <path id="Path_1047" data-name="Path 1047" d="M195.907,87.67c-.785-2.17-1.725-4.742-.313-6.871,1.295-1.889,3.491-.924,5.332-1.527,2.431-.8,3.923-3.255,4.588-5.626.785-2.773-.156-6.389,1.452-8.841,1.96-3.014,6.195.683,8.862-1.165.629-.442.039-1.487-.588-1.045-2.706,1.889-6.391-1.969-8.941,1.125-2.038,2.451-1.1,6.188-1.764,9.082-.471,2.009-1.53,4.139-3.374,5.1-1.608.844-3.45,0-5.058.844-3.452,1.808-2.354,6.309-1.295,9.242C195.005,88.675,196.142,88.394,195.907,87.67Z" transform="translate(159.869 21.128)" fill="#dfe6e9"/>
    <path id="Path_1048" data-name="Path 1048" d="M197.912,68.716a5.823,5.823,0,0,1,1.139-5.907c1.8-2.009,3.882-1.206,6.117-2.009a4.713,4.713,0,0,0,2.628-2.933c.313-.8.51-1.648.784-2.451a5.229,5.229,0,0,1,.979-1.849c.707-.683,2.393-1.246,2.825.281a.591.591,0,0,0,1.137-.321,2.693,2.693,0,0,0-3.923-1.487c-2.823,1.487-1.8,5.907-4.431,7.394-1.45.8-3.255.321-4.783.964a6.86,6.86,0,0,0-2.511,2.009,6.971,6.971,0,0,0-1.1,6.63C197.011,69.76,198.147,69.439,197.912,68.716Z" transform="translate(162.098 11.913)" fill="#dfe6e9"/>
    <path id="Path_1049" data-name="Path 1049" d="M215.881,87.6a4.45,4.45,0,0,1,.707-5.626c1.764-1.688,4.312-.924,5.529,1,2.784,4.3-3.374,8.077-6.313,4.5-.51-.6-1.334.281-.823.844a5.332,5.332,0,0,0,6.979.844,4.941,4.941,0,0,0,.942-7.153c-1.647-2.25-4.707-3.014-6.9-1.165a5.641,5.641,0,0,0-1.137,7.314C215.293,88.843,216.313,88.24,215.881,87.6Z" transform="translate(177.149 35.948)" fill="#dfe6e9"/>
    <path id="Path_1050" data-name="Path 1050" d="M218.907,91.644c-1.1-1.567-2.47-3.456-2-5.465.707-2.974,4.156-2.21,5.725-.442,1.295,1.487,1.766,3.817.119,5.224a3.06,3.06,0,0,1-4.314,0c-.51-.563-1.333.281-.823.844a4.236,4.236,0,0,0,5.92.08c2-1.768,1.766-4.7.2-6.671-1.569-2.009-5.137-3.456-7.1-1.165-2.2,2.572-.352,5.907,1.256,8.2C218.319,92.889,219.339,92.287,218.907,91.644Z" transform="translate(178.554 38.573)" fill="#dfe6e9"/>
    <path id="Path_1051" data-name="Path 1051" d="M75.4,133.31a51.084,51.084,0,0,0,13.412,2.331c.745.041.745-1.165,0-1.206a48.223,48.223,0,0,1-13.1-2.291C74.964,131.9,74.65,133.069,75.4,133.31Z" transform="translate(58.338 80.652)" fill="#dfe6e9"/>
    <path id="Path_1052" data-name="Path 1052" d="M234.039,115.984c26.667-.2,51.766,10.006,76.943,17.56,7.215,2.17,14.509,4.14,21.882,5.625.746.161,1.059-1,.313-1.165-26.156-5.3-50.824-16.677-77.138-21.3a118.589,118.589,0,0,0-22-1.929A.6.6,0,0,0,234.039,115.984Z" transform="translate(193.816 65.831)" fill="#dfe6e9"/>
    <path id="Path_1053" data-name="Path 1053" d="M92.457,21.805c1.373,3.376,3.059,10.85,8,7.515,1.647-1.085,4.078-4.26,5.843-1.688,1.059,1.527,1.137,3.536,3.137,4.219.707.241,1.02-.924.313-1.165-1.842-.643-1.842-3.536-3.333-4.7a2.914,2.914,0,0,0-3.255-.161c-1.569.763-2.706,2.491-4.353,3.054-2.941,1-4.431-5.465-5.216-7.394C93.28,20.8,92.143,21.082,92.457,21.805Z" transform="translate(81.116 71.115)" fill="#dfe6e9"/>
    <path id="Path_1054" data-name="Path 1054" d="M99.4,22.834a4.208,4.208,0,0,1,6.511,1.688c.666,1.648,1.176,2.612,3.058,2.733a21.479,21.479,0,0,1,2.784-.121c1.882.321,1.882,2.009,2.2,3.576s1.02,2.934,2.667,3.134c.746.08.746-1.125,0-1.206-2.157-.241-1.256-4.782-2.942-6.068-1.8-1.366-4.511.442-5.922-1.246-.666-.8-.862-1.889-1.567-2.692a5.018,5.018,0,0,0-2.118-1.487,5.191,5.191,0,0,0-5.216.683C98.18,22.272,98.769,23.316,99.4,22.834Z" transform="translate(86.372 70.811)" fill="#dfe6e9"/>
    <path id="Path_1055" data-name="Path 1055" d="M119.555,46.633a5.01,5.01,0,0,0,5.764-3.657,4.627,4.627,0,0,0-3.138-5.465c-5.215-1.808-8.118,5.545-3.882,8.559.627.442,1.217-.6.588-1.045-2.98-2.13-1.137-7.474,2.667-6.47a3.46,3.46,0,0,1,2.706,3.777,3.782,3.782,0,0,1-4.392,3.094C119.122,45.307,118.809,46.472,119.555,46.633Z" transform="translate(93.631 -0.444)" fill="#dfe6e9"/>
    <path id="Path_1056" data-name="Path 1056" d="M121.824,46.783a6.621,6.621,0,0,1-2.47-2.853,2.517,2.517,0,0,1,2.862-3.215A2.842,2.842,0,0,1,124.1,43.97a2.872,2.872,0,0,1-3.491,1.929.6.6,0,0,0-.313,1.165,4.113,4.113,0,0,0,4.824-2.371,4.026,4.026,0,0,0-2.079-4.983,3.665,3.665,0,0,0-4.666,2.009c-1.1,2.451.9,4.5,2.667,5.907C121.55,48.109,122.412,47.265,121.824,46.783Z" transform="translate(95.166 1.457)" fill="#dfe6e9"/>
    <path id="Path_1057" data-name="Path 1057" d="M79.16,90.047a4.028,4.028,0,0,1-.392-5.987,3.467,3.467,0,0,1,5.255.121c3.02,3.456-1.333,7.957-4.9,5.586-.627-.442-1.216.6-.588,1.045a4.939,4.939,0,0,0,6.039-7.8,4.62,4.62,0,0,0-6.627.161,5.253,5.253,0,0,0,.392,7.715C78.885,91.413,79.709,90.569,79.16,90.047Z" transform="translate(59.593 37.557)" fill="#dfe6e9"/>
    <path id="Path_1058" data-name="Path 1058" d="M168.541,31.658a44.7,44.7,0,0,1,9.374-13.542c.549-.522-.275-1.406-.823-.844A46.017,46.017,0,0,0,167.523,31.1C167.207,31.738,168.227,32.381,168.541,31.658Z" transform="translate(266.788 28.449)" fill="#dfe6e9"/>
    <path id="Path_1059" data-name="Path 1059" d="M171.133,28.79a66.888,66.888,0,0,1,7.8-8.278c.588-.522-.274-1.366-.823-.844a70.117,70.117,0,0,0-7.8,8.278C169.838,28.549,170.662,29.393,171.133,28.79Z" transform="translate(269.098 30.51)" fill="#dfe6e9"/>
    <path id="Path_1060" data-name="Path 1060" d="M172.767,28.184c1.059-.924,2.118-1.808,3.177-2.732.588-.482-.275-1.366-.823-.844-1.059.924-2.118,1.808-3.177,2.732C171.355,27.822,172.179,28.666,172.767,28.184Z" transform="translate(270.443 34.735)" fill="#dfe6e9"/>
    <path id="Path_1061" data-name="Path 1061" d="M204.851,33.776a5.869,5.869,0,1,0-5.725-5.867A5.8,5.8,0,0,0,204.851,33.776Z" transform="translate(197.322 163.75)" fill="#fd6920"/>
    <path id="Path_1063" data-name="Path 1063" d="M105.275,121.3a4.3,4.3,0,1,0-4.2-4.3A4.248,4.248,0,0,0,105.275,121.3Z" transform="translate(80.656 64.056)" fill="#fd6920"/>
    <path id="Path_1065" data-name="Path 1065" d="M129.056,88.955c.352,3.5,1.45,6.59,5.332,6.51,1.334,0,2.472-.4,3.491.643.942.964.668,1.929,1.059,3.134a2.954,2.954,0,0,0,1.02,1.567c.707.522,3.372.522,3.138,1.728-.158.763.979,1.085,1.137.321.274-1.366-.629-2.17-1.883-2.532-1.8-.522-2.235-1.246-2.509-2.893a4.416,4.416,0,0,0-.785-2.17c-1.02-1.246-2.667-1.085-4.078-1.045-1.53.08-2.98-.04-3.8-1.567a9.5,9.5,0,0,1-.9-3.737C130.154,88.191,128.976,88.191,129.056,88.955Z" transform="translate(104.562 43.271)" fill="#0010f7"/>
    <path id="Path_1066" data-name="Path 1066" d="M131.673,97.625c2.04-2.21,4.472.04,5.1,2.25a5.615,5.615,0,0,0,.942,2.411c1.411,1.607,4,.723,5.293,2.412.471.6,1.295-.241.823-.844-.862-1.126-2.079-1.286-3.372-1.568a2.8,2.8,0,0,1-2.354-1.969,17.933,17.933,0,0,0-.784-2.331c-1.334-2.451-4.47-3.416-6.471-1.246C130.3,97.343,131.124,98.187,131.673,97.625Z" transform="translate(105.943 49.389)" fill="#0010f7"/>
    <path id="Path_1067" data-name="Path 1067" d="M206.916,96.966a1.308,1.308,0,0,1,2-1.648.615.615,0,0,0,.9-.522,1.832,1.832,0,0,1,2.47-1.889c.707.281,1.02-.884.313-1.165a3,3,0,0,0-3.96,3.054c.313-.161.588-.362.9-.522a2.49,2.49,0,0,0-3.607,3.3C206.25,98.252,207.271,97.65,206.916,96.966Z" transform="translate(169.995 45.989)" fill="#0010f7"/>
    <path id="Path_1068" data-name="Path 1068" d="M210.448,95.06c-.274-.683,1.608-.8,1.921-.8.981.04,1.921.2,2.9.281.746.08.746-1.125,0-1.206-1.53-.161-3.255-.6-4.746.04a1.691,1.691,0,0,0-1.1,2.29C209.7,96.386,210.723,95.743,210.448,95.06Z" transform="translate(173.131 47.252)" fill="#0010f7"/>
    <path id="Path_1069" data-name="Path 1069" d="M101.859,124.5a4.743,4.743,0,1,0-4.627-4.742A4.686,4.686,0,0,0,101.859,124.5Z" transform="translate(77.364 66.038)" fill="#f7fafc"/>
    <path id="Path_1070" data-name="Path 1070" d="M126.217,30.184a6.391,6.391,0,1,0-6.235-6.389A6.314,6.314,0,0,0,126.217,30.184Z" transform="translate(104.687 67.963)" fill="#f7fafc"/>
    <path id="Path_1071" data-name="Path 1071" d="M66.039,164.925a8.08,8.08,0,1,0-7.883-8.077A7.982,7.982,0,0,0,66.039,164.925Z" transform="translate(43.969 94.889)" fill="#f7fafc"/>
    <path id="Path_1072" data-name="Path 1072" d="M209.339,145.934a4.141,4.141,0,1,0-4.038-4.14A4.091,4.091,0,0,0,209.339,145.934Z" transform="translate(169.73 85.389)" fill="#f7fafc"/>
    <path id="Path_1073" data-name="Path 1073" d="M186.265,207.494c8.315-2.049,16.666-4.14,24.981-6.189a93.217,93.217,0,0,0,22.666-1.085c8.941-1.526,26.081-5.826,25.962-10.568-.078-3.134-7.725-5.384-20.353-9.121a193.543,193.543,0,0,0-20.04-4.742c-5.176,2.611-10.744,5.184-16.744,7.636a218.539,218.539,0,0,1-23.02,8C181.873,196.805,184.069,202.149,186.265,207.494Z" transform="translate(147.864 117.979)" fill="#111314" stroke="#111314" stroke-miterlimit="10" stroke-width="3"/>
    <path id="Path_1074" data-name="Path 1074" d="M175.185,203.1c8.314-2.049,16.668-4.14,24.981-6.189a93.233,93.233,0,0,0,22.668-1.085c8.941-1.526,26.079-5.827,25.96-10.568-.078-3.134-7.725-5.386-20.351-9.123a193.946,193.946,0,0,0-20.04-4.741c-5.176,2.611-10.746,5.184-16.746,7.634a218.016,218.016,0,0,1-23.02,8C170.793,192.446,172.989,197.791,175.185,203.1Z" transform="translate(138.394 114.221)" fill="#111314" stroke="#111314" stroke-miterlimit="10" stroke-width="3"/>
    <path id="Path_1075" data-name="Path 1075" d="M176.3,155.966a171.893,171.893,0,0,0-14.9,9.4,144.525,144.525,0,0,0-21.255,18.2c-12.862,13.584-23.686,25-22.981,39.462.629,13.02,10.236,22.061,11.295,23.026,17.137,15.672,53.765,9.965,90.746-14.185-1.334-7.194-2.626-14.346-3.96-21.54a35.855,35.855,0,0,0,17.529-9.283A37.507,37.507,0,0,0,243.559,179.8a52.29,52.29,0,0,0-1.686-12.619,55.6,55.6,0,0,0-17.295-27.486C212.381,141.861,194.029,146.242,176.3,155.966Z" transform="translate(94.373 87.128)" fill="#f7fafc" stroke="#111314" stroke-miterlimit="10" stroke-width="1"/>
    <path id="Path_1076" data-name="Path 1076" d="M193.3,160.535a157.06,157.06,0,0,0-36.157,27.607c-16.668,16.4-28.512,27.527-26.943,41.029,1.53,12.979,14.2,20.815,15.255,21.418,7.413,4.422,14.941,4.542,20.982,4.219,27.138-1.447,57.569-13.3,69.766-18.4-1.333-7.192-2.628-14.346-3.962-21.538A36.024,36.024,0,0,0,251.021,200a37.183,37.183,0,0,0,5.137-15.11c.275-2.291.588-7.113-1.882-17.119a109.825,109.825,0,0,0-9.411-24.632C234.042,145.1,212.9,149.685,193.3,160.535Z" transform="translate(105.421 90.073)" fill="#f7fafc" stroke="#111314" stroke-miterlimit="10" stroke-width="1"/>
    <path id="Path_1077" data-name="Path 1077" d="M162.488,189.576A121.321,121.321,0,0,0,205.31,182.9c.707-.241.393-1.406-.313-1.165a118.71,118.71,0,0,1-42.509,6.63C161.742,188.33,161.742,189.535,162.488,189.576Z" transform="translate(132.66 123.039)" fill="#111314"/>
    <path id="Path_1078" data-name="Path 1078" d="M160.218,184.092a8.974,8.974,0,0,0,4.275,3.858c.707.28,1.295-.723.588-1.046a8.042,8.042,0,0,1-3.843-3.414A.592.592,0,0,0,160.218,184.092Z" transform="translate(131.123 124.304)" fill="#111314"/>
    <path id="Path_1079" data-name="Path 1079" d="M199.321,185.453c-13.647,7.836-20.706,6.551-34.274,17.4-3.529,2.852-24.157,19.368-21.529,36.125.236,1.406,1.45,9.283,7.176,12.376,2.432,1.326,4.824,1.246,8.157,1.005a129.949,129.949,0,0,0,20.863-3.335c13.726-3.5,11.412-2.049,20.863-4.663a191.7,191.7,0,0,0,24.471-8.68c-1.295-7.031-2.626-14.023-3.921-21.056a43.773,43.773,0,0,0,10.785-7.354c2.9-2.693,11.176-10.327,13.059-22.382,1.018-6.471-.236-11.414-2.276-19.409a86.844,86.844,0,0,0-7.176-18.727C223.283,168.737,209.557,179.625,199.321,185.453Z" transform="translate(116.728 93.166)" fill="#fd6920" opacity="0.12"/>
    <path id="Path_1080" data-name="Path 1080" d="M200.638,148.958c-.549-.964-17.8,7.072-37.529,21.74-24.393,18.122-37.921,28.851-38.511,44.123-.666,17.8,23.139,32.67,24.157,31.745.549-.521-13.8-10.688-14.038-25.4-.158-9.6,5.8-17.2,16.314-28.089C177.894,165.233,201.306,150.123,200.638,148.958Z" transform="translate(100.744 94.982)" fill="#2d3436" opacity="0.11"/>
    <path id="Path_1081" data-name="Path 1081" d="M224.5,153.623a78.029,78.029,0,0,1-13.688,28.772c-17.373,22.625-42.038,27.848-49.255,29.094,1.215,1.206,2.393,2.572,3.607,4.019A60.037,60.037,0,0,1,176.572,238.9c10.668-3.778,21.334-7.595,31.962-11.373-1.647-6.671-3.255-13.381-4.9-20.053a41.74,41.74,0,0,0,14.04-9.683,39.285,39.285,0,0,0,9.8-16.718C231.005,167.969,226.064,156.8,224.5,153.623Z" transform="translate(132.338 99.037)" fill="#21650b" opacity="0.12"/>
    <path id="Path_1082" data-name="Path 1082" d="M181.029,90.755c3.294.482,4.705,10.569,5.176,13.9,1.921,13.542-2.157,19.61-2.786,36.206-.51,13.181,1.844,13.784.785,20.214-1.569,9.4-8.823,21.459-34.588,32.388a30.055,30.055,0,0,1-10.275,7.595c-10.392,4.5-24.04,2.17-25.882-4.3-.629-2.17-.039-5.184,1.411-6.592,2.354-2.329,5.961,1.005,11.922-1.206.313-.121,2.98-1.124,2.9-1.847-.039-.443-1.057-.6-2.274-.764-5.529-.8-7.176-.644-7.294-1.126-.2-.8,4.04-3.576,9.529-5.184a50.673,50.673,0,0,1,17.02-1.968c6.158-7.113,12.354-14.225,18.51-21.338a130.058,130.058,0,0,1,2.9-37.051C170.557,108.918,176.4,90.072,181.029,90.755Z" transform="translate(91.022 45.289)" fill="#f7fafc" stroke="#111314" stroke-miterlimit="10" stroke-width="1"/>
    <path id="Path_1083" data-name="Path 1083" d="M181.28,90.639c-4.824.08-9.177,19.73-10.078,33.676-1.137,17.64,3.372,23.146,0,33.955-2.235,7.154-7.882,16.355-23.059,24.714-11.961,10.247-19.921,11.332-25.177,10.047-3.216-.764-7.215-2.893-9.019-1.085-1.53,1.526-.824,5.3.785,7.875,3.843,5.989,15.412,4.542,22,2.17a30.6,30.6,0,0,0,12.471-8.68,57.877,57.877,0,0,0,28.352-17.922C187.712,163.574,190.1,151,191.32,144.165,195.986,118.166,187.163,90.519,181.28,90.639Z" transform="translate(90.924 45.204)" fill="#2d3436" opacity="0.12"/>
    <path id="Path_1084" data-name="Path 1084" d="M212.893,78.5c13.962,3.014,24.55,15.109,29.137,26.241,5.06,12.216,2.118,21.781-.7,41.993a425.6,425.6,0,0,0-4,58.79c-4.234,3.3-24.274,18.324-51.569,14.507a67.7,67.7,0,0,1-34.393-15.672,130.944,130.944,0,0,0,.707-28.451c-1.489-16.957-5.49-23.588-6.235-37.01-.471-8.48.236-20.977,6.588-36.649A162.89,162.89,0,0,1,167.362,93C186.972,82.275,199.246,75.565,212.893,78.5Z" transform="translate(118.803 34.238)" fill="#f7fafc" stroke="#111314" stroke-width="1"/>
    <path id="Path_1085" data-name="Path 1085" d="M187.83,96.632a110.726,110.726,0,0,1,6,50.874c-4.509,37.654-27.529,60.921-34.666,67.59a66.484,66.484,0,0,0,32.666,4.422,67.515,67.515,0,0,0,33.648-13.984,309.668,309.668,0,0,1,1.647-40.949c3.372-31.1,9.451-42.314,2.98-59.393-1.53-4.059-6.668-17.641-19.647-23.91a32.036,32.036,0,0,0-8.667-2.733,29.931,29.931,0,0,1-6.981,12.618A27.806,27.806,0,0,1,187.83,96.632Z" transform="translate(130.299 34.871)" fill="#32a00f" opacity="0.645"/>
    <path id="Path_1086" data-name="Path 1086" d="M224.864,96.033q-15.471,43.037-30.981,86.036-13.47,11.27-26.982,22.544a78.828,78.828,0,0,0,29.649-3.055,80.175,80.175,0,0,0,22.979-11.252c-.117-4.258-.195-10.527,0-18.083.549-18.966.785-28.451,3.335-39.942,2.352-10.609,5.529-18.686,3.333-30.742A42.783,42.783,0,0,0,224.864,96.033Z" transform="translate(136.911 49.816)" fill="#2d3436" opacity="0.21"/>
    <path id="Path_1087" data-name="Path 1087" d="M108.565,149.552q7,17.36,14.04,34.679,28.471-10.127,56.981-20.292-6.824-16.7-13.61-33.434Z" transform="translate(87.051 79.277)" fill="#f7fafc" stroke="#111314" stroke-miterlimit="10" stroke-width="1"/>
    <path id="Path_1088" data-name="Path 1088" d="M105.266,131.462a128.17,128.17,0,0,1,21.451,20.294,134.025,134.025,0,0,1,14.04,20.294q11.178-17.783,22.314-35.524-13-14.828-26-29.615Q121.128,119.207,105.266,131.462Z" transform="translate(84.233 59.111)" fill="#f7fafc" stroke="#111314" stroke-miterlimit="10" stroke-width="1"/>
    <path id="Path_1089" data-name="Path 1089" d="M86.744,95.681v32.591q12.177-6.148,24.353-12.258c5.372-2.692,10.745-5.384,16.118-8.036-1.53-7.916-3.019-15.793-4.55-23.709Q104.724,89.934,86.744,95.681Z" transform="translate(68.401 39.761)" fill="#f7fafc" stroke="#111314" stroke-miterlimit="10" stroke-width="1"/>
    <path id="Path_1090" data-name="Path 1090" d="M73.994,67.1q6,14.587,11.961,29.174Q107.19,83.8,128.464,71.324q-8.883-17.36-17.764-34.679A132.4,132.4,0,0,1,97.092,50.589,133.7,133.7,0,0,1,73.994,67.1Z" transform="translate(57.505 -0.944)" fill="#f7fafc" stroke="#111314" stroke-miterlimit="10" stroke-width="1"/>
    <path id="Path_1092" data-name="Path 1092" d="M108.995,141.855q20.353,3.074,40.352,7.715c.746.161,1.059-1.005.313-1.165-13.372-3.1-26.822-5.707-40.352-7.715C108.562,140.608,108.249,141.775,108.995,141.855Z" transform="translate(87.056 87.979)" fill="#111314"/>
    <path id="Path_1093" data-name="Path 1093" d="M146.444,130.947a145.691,145.691,0,0,1-15.8,26.2c-.469.6.354,1.447.824.844a146.43,146.43,0,0,0,16-26.44C147.778,130.865,146.759,130.262,146.444,130.947Z" transform="translate(105.799 79.398)" fill="#111314"/>
    <path id="Path_1094" data-name="Path 1094" d="M110.971,130.736a128.128,128.128,0,0,1,21.922-19.007c.627-.441.039-1.487-.588-1.044a130.708,130.708,0,0,0-22.158,19.207C109.6,130.415,110.461,131.3,110.971,130.736Z" transform="translate(88.254 62.246)" fill="#111314"/>
    <path id="Path_1095" data-name="Path 1095" d="M114.039,130.89a112.5,112.5,0,0,1,16.275-15.108c.588-.443,0-1.487-.588-1.046a111.634,111.634,0,0,0-16.51,15.31C112.666,130.61,113.49,131.454,114.039,130.89Z" transform="translate(90.872 65.708)" fill="#111314"/>
    <path id="Path_1096" data-name="Path 1096" d="M116.691,136.807A160.626,160.626,0,0,1,137.712,116.6c.588-.482-.236-1.326-.823-.844a160.526,160.526,0,0,0-21.021,20.212C115.358,136.527,116.222,137.371,116.691,136.807Z" transform="translate(93.159 66.544)" fill="#111314"/>
    <path id="Path_1097" data-name="Path 1097" d="M121.275,141.132a61.5,61.5,0,0,1,8.157-9.965c3.216-3.337,6.432-6.712,9.648-10.047.549-.562-.313-1.406-.823-.844-3.374,3.537-6.745,7.033-10.117,10.568a57.747,57.747,0,0,0-7.882,9.685C119.864,141.173,120.884,141.776,121.275,141.132Z" transform="translate(96.969 70.377)" fill="#111314"/>
    <path id="Path_1098" data-name="Path 1098" d="M115.3,150.637a33.42,33.42,0,0,0,3.491,9.283c.352.683,1.372.08,1.018-.6a32.381,32.381,0,0,1-3.372-9C116.275,149.552,115.138,149.872,115.3,150.637Z" transform="translate(92.792 95.835)" fill="#111314"/>
    <path id="Path_1099" data-name="Path 1099" d="M116.2,153.3a32.762,32.762,0,0,1,12.667-4.54c-.236-.121-.471-.282-.707-.4.785,2.613,1.53,5.184,2.315,7.8.236.723,1.372.441,1.137-.323-.785-2.611-1.528-5.184-2.313-7.8a.549.549,0,0,0-.707-.4,33.319,33.319,0,0,0-12.942,4.663A.572.572,0,1,0,116.2,153.3Z" transform="translate(92.831 93.895)" fill="#111314"/>
    <path id="Path_1100" data-name="Path 1100" d="M117.9,158.474c3.726-1.567,7.374-3.335,10.982-5.223.666-.362.078-1.408-.588-1.046-3.491,1.849-7.059,3.537-10.707,5.1C116.881,157.63,117.195,158.8,117.9,158.474Z" transform="translate(94.423 97.76)" fill="#111314"/>
    <path id="Path_1101" data-name="Path 1101" d="M134.162,148.637a49.361,49.361,0,0,1,13.686-5.023c.746-.161.432-1.326-.313-1.165a49.559,49.559,0,0,0-13.96,5.143C132.868,147.955,133.495,149,134.162,148.637Z" transform="translate(108.161 89.474)" fill="#111314"/>
    <path id="Path_1102" data-name="Path 1102" d="M134.923,149.763c2.628-1.165,5.254-2.331,7.843-3.5.707-.321.078-1.365-.588-1.044-2.628,1.165-5.256,2.329-7.843,3.5C133.629,149.04,134.257,150.045,134.923,149.763Z" transform="translate(108.813 91.806)" fill="#111314"/>
    <path id="Path_1103" data-name="Path 1103" d="M88.975,97.37c9.333-3.175,18.667-7.032,28.353-8.961.746-.161.432-1.326-.313-1.165-9.647,1.969-19.02,5.787-28.353,8.961C87.955,96.446,88.269,97.611,88.975,97.37Z" transform="translate(69.7 42.29)" fill="#111314"/>
    <path id="Path_1104" data-name="Path 1104" d="M88.968,100.743a167.547,167.547,0,0,1,27.686-10.207.6.6,0,0,0-.313-1.165A169.62,169.62,0,0,0,88.38,99.7C87.714,100.02,88.3,101.065,88.968,100.743Z" transform="translate(69.549 44.102)" fill="#111314"/>
    <path id="Path_1105" data-name="Path 1105" d="M88.5,101.261c3.922-1.648,7.765-3.416,11.569-5.3.667-.321.078-1.366-.588-1.045q-5.589,2.773-11.294,5.184C87.521,100.377,87.8,101.543,88.5,101.261Z" transform="translate(69.31 48.805)" fill="#111314"/>
    <path id="Path_1106" data-name="Path 1106" d="M89.759,106.612c8.275-4.3,16.745-8.237,25.373-11.733.707-.281.391-1.447-.313-1.165-8.746,3.536-17.295,7.514-25.648,11.854C88.465,105.929,89.092,106.974,89.759,106.612Z" transform="translate(70.21 47.795)" fill="#111314"/>
    <path id="Path_1107" data-name="Path 1107" d="M77.1,64.431A146.505,146.505,0,0,0,108,43.7c.588-.522-.274-1.366-.824-.844A146.822,146.822,0,0,1,76.509,63.426C75.8,63.748,76.391,64.793,77.1,64.431Z" transform="translate(59.382 4.223)" fill="#111314"/>
    <path id="Path_1108" data-name="Path 1108" d="M78.375,61.987a133.145,133.145,0,0,0,13.451-9.162c.588-.442,0-1.527-.588-1.045a133.143,133.143,0,0,1-13.451,9.162C77.12,61.344,77.708,62.389,78.375,61.987Z" transform="translate(60.495 11.89)" fill="#111314"/>
    <path id="Path_1109" data-name="Path 1109" d="M79.982,68.193a270.675,270.675,0,0,0,28.981-18.364c.627-.442.039-1.487-.588-1.045A266.814,266.814,0,0,1,79.394,67.148C78.727,67.51,79.315,68.554,79.982,68.193Z" transform="translate(61.871 9.34)" fill="#111314"/>
    <path id="Path_1110" data-name="Path 1110" d="M81.347,71.644a189.175,189.175,0,0,0,31.647-18.565c.627-.442.039-1.487-.588-1.045A186.079,186.079,0,0,1,80.759,70.6C80.053,70.92,80.641,71.925,81.347,71.644Z" transform="translate(63.013 12.118)" fill="#111314"/>
    <path id="Path_1111" data-name="Path 1111" d="M110.341,124.458l12.588-2.893q8.941,19.291,17.883,38.538c5.961-7.918,11.922-15.793,17.883-23.71Q145.519,121.868,132.38,107.3,121.322,115.919,110.341,124.458Z" transform="translate(88.569 59.445)" fill="#47c923" opacity="0.13"/>
    <path id="Path_1112" data-name="Path 1112" d="M96.757,92.367c-2.2,10.327-4.392,20.7-6.588,31.023q16.824-8.257,33.686-16.556c-1.647-7.314-3.255-14.667-4.9-21.981Q107.837,88.65,96.757,92.367Z" transform="translate(71.33 40.259)" fill="#0010f7" opacity="0.21"/>
    <path id="Path_1113" data-name="Path 1113" d="M121,142.081q3.294,8.2,6.588,16.4c3.646.844,7.255,1.688,10.9,2.493,3.962,2.812,7.882,5.666,11.844,8.478,6-2.129,12.039-4.258,18.039-6.349-4.588-10.65-9.136-21.338-13.725-31.988-6,1.849-12.041,3.737-18.04,5.586l-9.411,15.431C125.115,148.753,123.075,145.418,121,142.081Z" transform="translate(97.68 79.795)" fill="#c3c8fc" opacity="0.399"/>
    <path id="Path_1115" data-name="Path 1115" d="M83.572,55.321c1.451,21.7,2.549,32.509,3.333,32.509.235,0,.431-1.085.627-3.175,10.275-5.3,20.588-10.609,30.863-15.913-5.176-9.926-10.352-19.811-15.529-29.737C96.4,44.431,89.964,49.9,83.572,55.321Z" transform="translate(65.692 1.075)" fill="#fd6920" opacity="0.11"/>
    <path id="Path_1116" data-name="Path 1116" d="M233.3,86.923c5.3-.723,11.727,15.029,14.472,24.433,4.627,15.913,2.98,29.857,1.411,42.8-1.686,13.782-2.509,20.694-5.725,27.928-10.392,23.387-36.511,32.349-46.745,35.243a49.108,49.108,0,0,1-14.628,7.595c-14.55,4.581-33.648,2.611-36.276-5.063-.862-2.572-.039-6.109,1.96-7.756,3.335-2.732,8.315,1.165,16.707-1.447.432-.121,4.156-1.326,4.04-2.17-.08-.523-1.452-.683-3.177-.885-7.725-.924-10.039-.762-10.2-1.326-.236-.964,5.685-4.179,13.333-6.107a82.444,82.444,0,0,1,23.842-2.331q14.472-13.621,28.942-27.284a400.651,400.651,0,0,1,3.413-53.888C228.359,89.415,231.536,87.165,233.3,86.923Z" transform="translate(118.594 42.009)" fill="#f7fafc" stroke="#111314" stroke-miterlimit="10" stroke-width="1"/>
    <path id="Path_1117" data-name="Path 1117" d="M145.409,158.9c1.491,1.647,4.236,2.129,6.235,2.732a61.914,61.914,0,0,0,9.019,1.888c.746.121,1.059-1.044.313-1.165a62.416,62.416,0,0,1-7.608-1.526c-2.157-.564-5.607-1.046-7.137-2.814C145.722,157.489,144.9,158.333,145.409,158.9Z" transform="translate(118.405 102.646)" fill="#111314"/>
    <path id="Path_1118" data-name="Path 1118" d="M145.827,156.964a33.089,33.089,0,0,0,16.156,5.1c.746.039.746-1.167,0-1.205a31.3,31.3,0,0,1-15.568-4.943C145.786,155.517,145.159,156.562,145.827,156.964Z" transform="translate(118.655 100.921)" fill="#111314"/>
    <path id="Path_1119" data-name="Path 1119" d="M146.95,155.44a37.984,37.984,0,0,0,17.608,4.34.6.6,0,0,0,0-1.206A36.426,36.426,0,0,1,147.54,154.4C146.872,154.034,146.284,155.078,146.95,155.44Z" transform="translate(119.609 99.632)" fill="#111314"/>
    <path id="Path_1120" data-name="Path 1120" d="M231.148,88.572a113.89,113.89,0,0,1,9.568,37.01c1.02,12.256,2.706,33.152-9.568,53.967-12.078,20.453-30.393,28.571-37.177,31.544-6.823,3.014-18.274,7.918-33.138,6.31a54.95,54.95,0,0,1-14.235-3.5c-.746,1.688-1.452,4.1-.629,6.31,2.667,7.192,19.294,7.072,28.236,5.666a54.411,54.411,0,0,0,22.51-9.123c11.137-3.375,38.824-13.42,47.139-36.125,2.431-6.63,3.882-16.154,4.666-21.338a139.375,139.375,0,0,0,1.686-32.429s-1.489-20.454-12.549-37.211c-.51-.8-1.686-2.491-3.413-2.612A4.374,4.374,0,0,0,231.148,88.572Z" transform="translate(118.707 42.13)" fill="#2d3436" opacity="0.15"/>
    <path id="Path_1121" data-name="Path 1121" d="M225.65,116.857c-1.176-.2-3.685,13.14-6.352,21.538-4.627,14.546-15.922,33.8-45.883,52.882A71.35,71.35,0,0,0,199.533,179.3c4.9-3.617,13.178-9.685,18.9-20.9,3.96-7.756,5.019-14.708,6.352-23.708C226,126.781,226.631,117.017,225.65,116.857Z" transform="translate(142.478 67.611)" fill="#2d3436" opacity="0.09"/>
    <path id="Path_1122" data-name="Path 1122" d="M144.36,59.813a26.361,26.361,0,0,0-.328,6.209,54.076,54.076,0,0,0,2.817,16.546c1.376,4.095,3.177,9.431,7.8,14.935,0,0,6.551,7.753,16.247,10.874a13.053,13.053,0,0,0,7.04.638,12.236,12.236,0,0,0,5.4-2.618,13.162,13.162,0,0,1,1.736,4.363c.623,3.054-.262,4.4.753,6.746A7.1,7.1,0,0,0,188.97,121c2.062,1.04,4.093.537,5.863.1a12.6,12.6,0,0,0,6.517-3.927,7.05,7.05,0,0,0,2.064-4.363,5.7,5.7,0,0,0-.753-2.719c-.558-1.04-1.311-3.893-2.817-9.6-1.014-3.826-.885-6.88-.655-12.955A78.093,78.093,0,0,1,200.6,75.554a5.084,5.084,0,0,0,3.374.638c2.587-.47,3.865-3.121,4.455-4.363.163-.336,2.916-6.343-.427-10.572-.326-.4-2.98-3.658-5.961-2.718-2.161.671-3.014,3.088-3.144,3.49a24.975,24.975,0,0,1-2.064-2.954,23.118,23.118,0,0,1-2.817-7.619,61.28,61.28,0,0,1-15.394-1.208c-7.369-1.544-9.629-3.491-16.113-3.558-3.963-.067-8.68-.1-12.643,3.155C145.736,53.3,144.655,58.4,144.36,59.813Z" transform="translate(117.346 7.628)" fill="#f7fafc"/>
    <path id="Path_1123" data-name="Path 1123" d="M143.838,55.642c-.588,13.089,2.851,26.649,11.989,36.214a35.495,35.495,0,0,0,14.379,9.33c2.817.94,5.961,1.712,8.876.839,3.012-.94,5.829-3.021,8.417-4.867,5.863-4.2,11.071-9.8,12.512-17.184.132-.638-.818-.906-.95-.269-1.278,6.511-5.6,11.646-10.677,15.573a50.42,50.42,0,0,1-7.664,5c-3.146,1.611-6.256,1.208-9.531.2-11.006-3.39-19.456-12.754-23.388-23.628a55.219,55.219,0,0,1-2.947-21.178A.509.509,0,0,0,143.838,55.642Z" transform="translate(117.146 14.888)" fill="#111314"/>
    <path id="Path_1124" data-name="Path 1124" d="M165.229,79.515a40.134,40.134,0,0,1,2.1,9.028c.065.638,1.048.638.981,0a40.477,40.477,0,0,0-2.127-9.263C165.951,78.642,165,78.911,165.229,79.515Z" transform="translate(135.452 35.183)" fill="#111314"/>
    <path id="Path_1125" data-name="Path 1125" d="M179.793,69.249a45.877,45.877,0,0,0,.59,11.982,47.841,47.841,0,0,0,1.573,6.041c.72,2.148,1.8,4.33,1.669,6.645-.228,3.826-3.635,6.612-6.944,7.686-3.57,1.175-9.891.537-9.433-4.732.065-.638-.916-.638-.983,0-.326,3.893,3.275,6.243,6.682,6.343a12.65,12.65,0,0,0,10.023-4.833c2.947-3.994.983-8.021-.328-12.25a43.749,43.749,0,0,1-1.866-16.848A.492.492,0,0,0,179.793,69.249Z" transform="translate(136.348 26.518)" fill="#111314"/>
    <path id="Path_1126" data-name="Path 1126" d="M166.158,84.428a29.085,29.085,0,0,0,11.2-10.673.5.5,0,0,0-.851-.5,28.05,28.05,0,0,1-10.874,10.337C165.11,83.892,165.6,84.731,166.158,84.428Z" transform="translate(135.637 30.135)" fill="#111314"/>
    <path id="Path_1127" data-name="Path 1127" d="M166.2,85.819a28.143,28.143,0,0,0,7.435-5.873,23.274,23.274,0,0,0,5.11-7.25c.23-.6-.721-.873-.95-.269a23.526,23.526,0,0,1-5.241,7.216,25.233,25.233,0,0,1-6.846,5.3C165.117,85.215,165.608,86.087,166.2,85.819Z" transform="translate(135.663 29.349)" fill="#111314"/>
    <path id="Path_1128" data-name="Path 1128" d="M166.344,86.7a30.534,30.534,0,0,0,12.872-14.163c.263-.57-.588-1.108-.851-.5a29.757,29.757,0,0,1-12.512,13.794C165.3,86.128,165.821,87,166.344,86.7Z" transform="translate(135.811 29.073)" fill="#111314"/>
    <path id="Path_1129" data-name="Path 1129" d="M154.1,57.952a149.111,149.111,0,0,0,1.311,17.922.5.5,0,0,0,.72.3,33.064,33.064,0,0,0,5.306-5.034c.427-.5-.295-1.208-.688-.7a32.5,32.5,0,0,1-5.108,4.9c.228.1.49.2.72.3a144.657,144.657,0,0,1-1.278-17.654A.492.492,0,1,0,154.1,57.952Z" transform="translate(125.974 16.841)" fill="#111314"/>
    <path id="Path_1130" data-name="Path 1130" d="M151.464,64.527a3.688,3.688,0,0,1-1.769-1.846c-.295-.638-.851-3.054.59-2.651.818.235,1.474,1.544,1.7,2.282a2.668,2.668,0,0,1,.163,1.343.9.9,0,0,1-.686.973,2.432,2.432,0,0,1-.558-.6c-.393-.5-1.079.2-.686.7,1.014,1.343,2.587,1.141,2.882-.638a5.137,5.137,0,0,0-2.031-4.766c-1.474-1.074-2.621-.134-2.686,1.577A4.855,4.855,0,0,0,151,65.333C151.529,65.7,152.021,64.829,151.464,64.527Z" transform="translate(121.083 18.051)" fill="#111314"/>
    <path id="Path_1131" data-name="Path 1131" d="M148.821,60.175a9.286,9.286,0,0,0,2.391,4.565c.36.4.918-.034.82-.5-.295-1.611-1.834-2.853-1.7-4.531-.295.134-.556.235-.851.369a8.109,8.109,0,0,1,1.769,3.893c.163-.2.327-.436.458-.638-1.015,0-1.6-.973-2.064-1.745a.5.5,0,0,0-.851.5c.657,1.108,1.508,2.249,2.916,2.249a.491.491,0,0,0,.458-.638,9.049,9.049,0,0,0-2-4.33c-.295-.369-.818-.034-.851.369-.132,1.846,1.441,3.054,1.736,4.8.262-.168.556-.336.818-.5a8.635,8.635,0,0,1-2.161-4.128C149.639,59.268,148.689,59.537,148.821,60.175Z" transform="translate(121.368 18.342)" fill="#111314"/>
    <path id="Path_1132" data-name="Path 1132" d="M164.426,62.953a3.688,3.688,0,0,1-1.769-1.846c-.295-.638-.851-3.054.59-2.651.82.235,1.474,1.544,1.7,2.282a2.669,2.669,0,0,1,.165,1.343.9.9,0,0,1-.688.973,2.391,2.391,0,0,1-.556-.6c-.393-.5-1.081.2-.688.7,1.014,1.343,2.587,1.141,2.882-.638a5.137,5.137,0,0,0-2.031-4.766c-1.474-1.074-2.621-.134-2.686,1.577a4.853,4.853,0,0,0,2.621,4.43C164.491,64.127,164.983,63.255,164.426,62.953Z" transform="translate(132.16 16.705)" fill="#111314"/>
    <path id="Path_1133" data-name="Path 1133" d="M161.766,58.582a9.286,9.286,0,0,0,2.391,4.565c.36.4.916-.034.818-.5-.293-1.611-1.832-2.853-1.7-4.531-.295.134-.556.235-.851.369a8.126,8.126,0,0,1,1.769,3.893c.163-.2.326-.436.458-.638-1.016,0-1.6-.973-2.064-1.745a.5.5,0,0,0-.851.5c.655,1.108,1.508,2.249,2.916,2.249a.492.492,0,0,0,.458-.638,9.05,9.05,0,0,0-2-4.33c-.295-.369-.82-.034-.851.369-.132,1.846,1.441,3.054,1.736,4.8.262-.168.556-.336.818-.5a8.635,8.635,0,0,1-2.161-4.128C162.584,57.709,161.634,57.978,161.766,58.582Z" transform="translate(132.432 16.982)" fill="#111314"/>
    <path id="Path_1134" data-name="Path 1134" d="M146.876,58.186a3.706,3.706,0,0,1,6.714-1.242c.36.537,1.211.034.851-.5a4.678,4.678,0,0,0-8.483,1.477A.478.478,0,1,0,146.876,58.186Z" transform="translate(118.987 14.156)" fill="#111314"/>
    <path id="Path_1135" data-name="Path 1135" d="M159.977,55.608c2-4.464,7.272-2.282,9.5.671.393.5,1.244,0,.851-.5a8.334,8.334,0,0,0-5.8-3.725,5.353,5.353,0,0,0-5.4,3.054C158.864,55.675,159.716,56.178,159.977,55.608Z" transform="translate(130.223 12.204)" fill="#111314"/>
    <path id="Path_1136" data-name="Path 1136" d="M154.03,78.22c-2.062-3.893,2.784-3.524,5.176-3.759a17.128,17.128,0,0,0,7.172-2.349c2.359-1.376,3.865-3.524,5.929-5.2.883-.738,2.194-1.577,3.405-.906,1.016.571,1.41,2.047,1.508,3.088a10.408,10.408,0,0,1-.786,4.665c-1.573,4.33-4.52,7.921-8.877,9.4A11.762,11.762,0,0,1,154.03,78.22c-.326-.537-1.18-.034-.851.5a12.719,12.719,0,0,0,11.071,6.008,14.328,14.328,0,0,0,11.169-6.511c2.064-3.155,4.815-9.9,1.213-12.854-2-1.645-4.422.2-5.9,1.678-2.359,2.383-4.587,4.464-7.8,5.571a18.017,18.017,0,0,1-5.34.906,7.686,7.686,0,0,0-3.57.638c-1.933,1.074-1.8,2.819-.851,4.565C153.474,79.294,154.325,78.791,154.03,78.22Z" transform="translate(124.606 23.053)" fill="#111314"/>
    <path id="Path_1137" data-name="Path 1137" d="M153.243,77.888a23.838,23.838,0,0,0,22.3-11.948.494.494,0,0,0-.851-.5,22.774,22.774,0,0,1-21.453,11.445C152.62,76.848,152.62,77.855,153.243,77.888Z" transform="translate(124.839 23.45)" fill="#111314"/>
    <path id="Path_1138" data-name="Path 1138" d="M179.732,70.419a29.662,29.662,0,0,1-13.823,17.117c-.556.3-.065,1.175.491.873a30.668,30.668,0,0,0,14.248-17.721A.477.477,0,0,0,179.732,70.419Z" transform="translate(135.854 27.633)" fill="#111314"/>
    <path id="Path_1139" data-name="Path 1139" d="M174.219,57.415a4.031,4.031,0,0,1,5.5-3.121c2.424.873,3.767,3.289,4.1,5.773a11.933,11.933,0,0,1-1.41,7.417c-1.276,2.249-4.158,4.33-6.517,2.181-.458-.436-1.18.269-.688.7,2.261,2.081,5.4,1.108,7.205-1.107a12.534,12.534,0,0,0,2.359-9.666c-.525-3.088-2.522-5.974-5.7-6.545a4.934,4.934,0,0,0-5.8,4.061C173.2,57.784,174.152,58.053,174.219,57.415Z" transform="translate(142.349 13.014)" fill="#111314"/>
    <path id="Path_1140" data-name="Path 1140" d="M194.792,70.388c.163.906.295,2.752,1.6,3.558,1.376.839,3.342.1,4.815-.638.067-.168,1.213-3.155,4.1-3.658a5.836,5.836,0,0,1,4.618,1.51,8.387,8.387,0,0,1,2.621,5.37,12.358,12.358,0,0,1-.525,5.84,8.8,8.8,0,0,1-1.736,3.457,6.341,6.341,0,0,1-2.292,1.846,5.878,5.878,0,0,1-4.585-.269,9.591,9.591,0,0,0-2.031,2.316s-.067.1-.132.2c-1.015,1.745-.132,5.605,0,7.753a11.5,11.5,0,0,1-1.146,5.5,14.818,14.818,0,0,0,9.958.94,12.5,12.5,0,0,0,9.759-14,11.472,11.472,0,0,0,2.851-3.96c.262-.6,2.031-4.866.262-6.746-.721-.738-1.343-.436-1.933-1.074-.786-.805-1.014-2.752,1.376-7.686a1.665,1.665,0,0,0,1.015-.3c.918-.772.556-3.088-.95-5.739,2.031-1.141,4.062-2.282,6.093-3.39a11.716,11.716,0,0,1-5.9-2.014c-3.045-2.148-3.439-5-5.469-7.887-1.573-2.249-4.39-4.967-9.989-6.78a33.23,33.23,0,0,0,4.945-4.3c1.376-1.477,4.39-5.034,3.767-5.806-.425-.5-2.194.57-4.388,1.41-4.062,1.51-7.469,1.275-12.742.873-7.107-.57-7.862-1.846-13.79-2.584a40.454,40.454,0,0,0-19.456,1.611,37.085,37.085,0,0,0-14.379,9.7,39.3,39.3,0,0,0-9.006,15.3c-1.213,3.893-2.359,7.921-.328,11.546a10.255,10.255,0,0,0,4.618,4.095,17.808,17.808,0,0,1,2.457-10.572c3.8-6.008,10.579-7.384,15.557-8.391,3.963-.805,13-2.618,21.028,2.484C188.471,61.83,193.94,65.287,194.792,70.388Z" transform="translate(114.506 -3.517)" fill="#643d00"/>
    <path id="Path_1141" data-name="Path 1141" d="M153.063,77.7a11.009,11.009,0,0,0,2.719,3.356,11.987,11.987,0,0,0,4.225,2.181,12.99,12.99,0,0,0,8.123-.537,13.766,13.766,0,0,0,6.486-5.605,12.3,12.3,0,0,0,2.357-7.249,11.3,11.3,0,0,0-1.18-4.632c-.326.336-.785.839-1.343,1.443-1.9,2.081-3.11,3.658-3.5,4.162a19.841,19.841,0,0,1-7.141,5.068A21.845,21.845,0,0,1,153.063,77.7Z" transform="translate(125.084 23.474)" fill="#111314"/>
    <path id="Path_1142" data-name="Path 1142" d="M149.433,44.218a20.955,20.955,0,0,0-3.21,4.4,28.593,28.593,0,0,0-3.144,8.458,38.765,38.765,0,0,0-.82,11.579,2.678,2.678,0,0,0,1.736,2.416A2.25,2.25,0,0,0,145.469,71a14.456,14.456,0,0,1,1.9-5.2,16.454,16.454,0,0,1,7.011-6.209,22.918,22.918,0,0,1,9.071-2.416,26.56,26.56,0,0,1,9.466.906,28.783,28.783,0,0,1,7.764,3.826c3.177,2.047,3.635,3.088,6.582,4.4a11.6,11.6,0,0,0,5.929,1.309,7.8,7.8,0,0,0,4.618-1.645,7.534,7.534,0,0,0,2.391-3.658,39.416,39.416,0,0,1,6.846,3.893c3.57,2.517,5.568,4.833,10.382,7.619.82.47,1.539.839,1.966,1.074.523-2.215,1.048-4.43,1.571-6.612-.686-.5-1.7-1.242-2.98-2.148a103,103,0,0,0-11.857-7.686c-1.178-.638-2.882-1.477-5.043-2.416a16.4,16.4,0,0,0-.1-8.861,10.994,10.994,0,0,0-3.047-5.3,8.919,8.919,0,0,0-3.144-1.812A58.52,58.52,0,0,0,177.83,36.9a59.749,59.749,0,0,0-18.8,2.148C154.346,40.425,151.593,42,149.433,44.218Z" transform="translate(115.745 -0.74)" fill="#f7fafc"/>
    <path id="Path_1143" data-name="Path 1143" d="M144.611,61.921C146.905,49.1,164.2,45.777,174.189,50.409a70.961,70.961,0,0,1,7.893,4.5,24.916,24.916,0,0,0,7.074,3.49c3.767.94,8.45-.268,9.795-4.363.195-.6-.755-.873-.951-.268-.916,2.819-3.93,4.095-6.649,3.994-3.045-.134-5.764-1.846-8.287-3.39-4.748-2.954-9.661-6.243-15.36-6.813-9.565-.94-22.043,3.188-24.009,14.13C143.531,62.256,144.481,62.559,144.611,61.921Z" transform="translate(117.061 8.273)" fill="#111314"/>
    <path id="Path_1144" data-name="Path 1144" d="M145.194,70.35c-.49-.1-.981-.2-1.506-.3-.1-.269-.23-.537-.328-.805a5.9,5.9,0,0,1-.262-1.074,19.285,19.285,0,0,1-.2-2.383,44.558,44.558,0,0,1,.165-4.665,27.169,27.169,0,0,1,2.226-9.666c2.589-5.605,7.829-9.364,13.43-11.378,6.191-2.215,12.938-2.685,19.456-2.517,6.256.168,13.3.738,18.736,4.2,3.6,2.282,4.028,6.645,4.127,10.673a33.383,33.383,0,0,1-1.7,11.378c-.2.6.755.873.951.269a33.534,33.534,0,0,0,1.736-11.646c-.1-3.222-.295-7.451-2.589-9.9-2.324-2.517-6.091-3.759-9.3-4.531a59.24,59.24,0,0,0-11.66-1.41c-13.79-.47-31.837,2.786-35.571,18.9a36.075,36.075,0,0,0-.851,12.284c.163,1.242.491,2.886,1.539,3.692a1.568,1.568,0,0,0,2.457-.57C146.309,70.283,145.457,69.78,145.194,70.35Z" transform="translate(115.493 -1.029)" fill="#111314"/>
    <path id="Path_1145" data-name="Path 1145" d="M143.36,62.581A23.164,23.164,0,0,1,161.375,46a25.169,25.169,0,0,1,13.79,1.477c4.52,1.779,7.8,4.867,11.334,8.156,3.177,2.987,7.467,5.571,11.79,3.524.556-.268.065-1.141-.491-.873-5.436,2.584-9.989-2.886-13.526-6.209A27.959,27.959,0,0,0,173,45.666,24.775,24.775,0,0,0,149.551,50.8a23.64,23.64,0,0,0-7.107,11.512A.478.478,0,1,0,143.36,62.581Z" transform="translate(115.987 5.901)" fill="#111314"/>
    <path id="Path_1146" data-name="Path 1146" d="M173.406,50.992c6.582,4.095,13,8.458,19.29,12.989.525.369,1.016-.5.492-.873q-9.431-6.847-19.291-12.989C173.372,49.784,172.881,50.656,173.406,50.992Z" transform="translate(142.278 10.509)" fill="#111314"/>
    <path id="Path_1147" data-name="Path 1147" d="M174.068,47.626a205.213,205.213,0,0,1,19.391,12.586c.523.369,1.015-.5.492-.873a209.339,209.339,0,0,0-19.391-12.586C174,46.418,173.511,47.29,174.068,47.626Z" transform="translate(142.828 7.632)" fill="#111314"/>
    <path id="Path_1148" data-name="Path 1148" d="M184.955,53.789a34.318,34.318,0,0,0-1.41,6.545c-.065.638.918.638.983,0a29.431,29.431,0,0,1,1.376-6.276C186.1,53.453,185.152,53.185,184.955,53.789Z" transform="translate(151.134 13.418)" fill="#111314"/>
    <path id="Path_1149" data-name="Path 1149" d="M152.638,52.988c5.306-5.2,10.644-10.337,16.049-15.472.46-.436-.228-1.141-.686-.7-5.373,5.1-10.744,10.27-16.05,15.472C151.491,52.72,152.18,53.425,152.638,52.988Z" transform="translate(124.004 -0.918)" fill="#111314"/>
    <path id="Path_1150" data-name="Path 1150" d="M159.808,52.845q7.172-7.3,14.346-14.633c.458-.47-.262-1.175-.688-.7q-7.172,7.3-14.346,14.633C158.661,52.61,159.35,53.314,159.808,52.845Z" transform="translate(130.131 -0.338)" fill="#111314"/>
    <path id="Path_1151" data-name="Path 1151" d="M148.15,53.217c-.163-1.343-.326-2.651-.492-3.994a23.328,23.328,0,0,1,7.469-3.491c7.239-1.913,13.331.436,16.115,1.51a21.948,21.948,0,0,1,7.172,3.994c2,1.745,1.966,2.484,4.39,4.5,2.227,1.88,4.388,3.625,7.172,3.491a6.993,6.993,0,0,0,3.733-1.342c.721-1.04,1.41-2.115,2.129-3.155.753.1,5.471.839,7.632,4.833a27.755,27.755,0,0,1,.983,2.987c1.343,3.927,1.7,4.028,1.964,5.336.067.3.755,4.565-2.127,7.35a7.852,7.852,0,0,1-5.865,2.014,20.524,20.524,0,0,0-1.146,6.511c0,2.316-.032,5.135,1.8,7.652.655.906,2.129,2.953,4.716,3.155,3.11.235,5.175-2.416,5.371-2.651-4.323.839-8.68,1.678-13,2.484a30.439,30.439,0,0,0,.983,8.156c1.178,4.565,2.882,6.545,2.75,10.337a13.069,13.069,0,0,1-1.474,5.5c-2-5.739-4.028-11.445-6.026-17.184-2.163,1.712-4.323,3.457-6.517,5.169.851-1.88,1.736-3.793,2.587-5.672a54.35,54.35,0,0,0,1.309-12.485c-.065-4.732-1.309-9.431-3.733-18.828-1.474-5.639-2.489-8.659-5.208-11.176a25.369,25.369,0,0,0-4.225-2.819c-4.815-2.853-7.205-4.3-10.088-5-5.994-1.443-11.3.2-13.823,1.007A25.118,25.118,0,0,0,148.15,53.217Z" transform="translate(120.466 6.204)" fill="#636e72" opacity="0.15"/>
    <path id="Path_1152" data-name="Path 1152" d="M155.126,57.595a105.031,105.031,0,0,0-1.8,10.673c-.23,2.148-.393,4.2-.492,6.176l4.225,1.007C156.4,69.51,155.781,63.569,155.126,57.595Z" transform="translate(124.889 16.962)" fill="#636e72" opacity="0.13"/>
    <path id="Path_1153" data-name="Path 1153" d="M180.09,60.092c-.425,2.383-.983,4.866-1.7,7.451A81.661,81.661,0,0,1,164.4,95.165c.655-.3,11.4-5.538,14.837-13.458a14.98,14.98,0,0,0,1.7-6.276c.067-3.155-1.079-4.363-.295-6.713.786-2.249,2.326-2.551,2.424-4.229C183.168,62.71,181.531,61.166,180.09,60.092Z" transform="translate(134.774 19.097)" fill="#636e72" opacity="0.09"/>
    <path id="Path_1154" data-name="Path 1154" d="M149.257,49.778c-.2,1.443,1.408,2.752,2.227,3.423,4.585,3.792,8.745.436,16.835,2.114,6.846,1.443,8.155,4.766,15.231,4.867a24.93,24.93,0,0,0,5.863-.638,15.449,15.449,0,0,1-3.963-1.477,17.827,17.827,0,0,1-4.913-3.893,34.564,34.564,0,0,0-13-8.29C159.507,43.3,149.715,46.522,149.257,49.778Z" transform="translate(121.816 6.151)" fill="#636e72" opacity="0.1"/>
  </g>
</svg>
