<svg xmlns="http://www.w3.org/2000/svg" xmlns:xlink="http://www.w3.org/1999/xlink" width="538" height="374" viewBox="0 0 538 374">
  <defs>
    <clipPath id="clip-path">
      <rect id="Rectangle_443" data-name="Rectangle 443" width="538" height="374" transform="translate(0 -0.133)" fill="#fff"/>
    </clipPath>
  </defs>
  <g id="expenses_illustration_2_" data-name="expenses illustration 2 " transform="translate(0 0.133)" clip-path="url(#clip-path)">
    <path id="Path_1025" data-name="Path 1025" d="M247.349,225.5a81.186,81.186,0,0,0,17.919-29.784c.13.264.3.527.43.791-.985-.219-1.93-.4-2.916-.614a.656.656,0,0,1-.172-1.186c3.688-2.021,4.116-8.524,4.931-12.256,1.073-4.876,2.058-9.752,2.916-14.628q2.7-15.024,4.158-30.268c.343.176.643.4.985.572a152.972,152.972,0,0,0-20.362,14.716c-5.746,4.965-11.49,10.279-15.563,16.782-4.373,6.9-6.474,15.243-7.759,23.239a67.64,67.64,0,0,0,.6,26.576.646.646,0,1,1-1.243.351c-3.216-13.311-1.586-27.5,2.528-40.414,3.988-12.343,12.99-21.262,22.637-29.257a155.811,155.811,0,0,1,18.477-13.134.663.663,0,0,1,.985.57q-1.542,16.277-4.5,32.288c-.985,5.316-2.058,10.632-3.3,15.859-.815,3.558-1.373,8.215-4.844,10.148a11.371,11.371,0,0,0-.172-1.186c.985.219,1.93.4,2.915.614a.616.616,0,0,1,.428.791,82.756,82.756,0,0,1-18.262,30.356C247.649,227.033,246.749,226.11,247.349,225.5Z" transform="translate(-133.248 112.012)" fill="#dfe6e9"/>
    <path id="Path_1026" data-name="Path 1026" d="M262.857,138.258a204.79,204.79,0,0,0-31.382,76.655c-.172.835-1.415.485-1.243-.351a205.7,205.7,0,0,1,31.552-77.008C262.212,136.9,263.327,137.555,262.857,138.258Z" transform="translate(-121.617 112.404)" fill="#dfe6e9"/>
    <path id="Path_1027" data-name="Path 1027" d="M251.442,157.093c-6.474,1.45-13.29,3.076-17.791,8.479-.515.659-1.458-.308-.9-.923,4.631-5.58,11.66-7.335,18.349-8.83C251.915,155.643,252.257,156.918,251.442,157.093Z" transform="translate(-115.35 131.434)" fill="#dfe6e9"/>
    <path id="Path_1028" data-name="Path 1028" d="M243.466,166.081a38.269,38.269,0,0,0-2.873-17.923c-.343-.791.772-1.45,1.115-.659a39.361,39.361,0,0,1,3.043,18.582C244.667,166.914,243.379,166.914,243.466,166.081Z" transform="translate(-124.433 122.534)" fill="#dfe6e9"/>
    <path id="Path_1029" data-name="Path 1029" d="M283.6,176.022c-3.086-19.681-16.248-34.968-28.851-49.246.343-.219.728-.438,1.072-.659,2.958,10.851-3.988,20.912-6.516,31.1a80.237,80.237,0,0,0-2.145,17.221c-.085,2.855-.043,5.754.045,8.609a22.956,22.956,0,0,0,.343,4.217c.428,1.89,2.486,4.834,4.671,2.857q.386.526.773,1.054c-3.773,2.019-2.4,7.818-1.8,11.2.772,4.568,2.058,8.917,4.931,12.607,4.158,5.271,10.117,9.18,12.088,15.946.257.835-.985,1.141-1.243.351-2.443-8.258-11.06-12.212-14.618-19.855a39.421,39.421,0,0,1-3.043-12.915c-.3-3.118,0-6.853,3.043-8.434.6-.308,1.371.527.77,1.054a3.664,3.664,0,0,1-4.671.219c-1.673-1.141-2.188-3.25-2.358-5.227a93.514,93.514,0,0,1,.385-20.208,74.98,74.98,0,0,1,4.888-18.888c2.528-6.5,5.144-13.4,3.214-20.472-.17-.614.645-1.141,1.073-.659,12.733,14.452,26.065,29.96,29.194,49.815C284.971,176.5,283.728,176.855,283.6,176.022Z" transform="translate(-174.897 100.513)" fill="#dfe6e9"/>
    <path id="Path_1030" data-name="Path 1030" d="M252.492,128.332a246.2,246.2,0,0,1,16.421,70.6c.085.833-1.2.833-1.287,0a245.475,245.475,0,0,0-16.376-70.242C250.949,127.936,252.192,127.586,252.492,128.332Z" transform="translate(-170.115 102.782)" fill="#dfe6e9"/>
    <path id="Path_1031" data-name="Path 1031" d="M264.145,166.177c-10.5,2.328-20.749-2.855-30.867-4.921a89.366,89.366,0,0,0-33.825-.174c-.815.132-1.158-1.1-.343-1.275a91.614,91.614,0,0,1,31.339-.4,135.292,135.292,0,0,1,15.6,3.866c5.789,1.626,11.747,2.944,17.706,1.626C264.617,164.727,264.96,165.958,264.145,166.177Z" transform="translate(-59.245 133.95)" fill="#dfe6e9"/>
    <path id="Path_1032" data-name="Path 1032" d="M333.51,161.031c-6.088-1.186-12.09.308-17.964,1.8-5.744,1.405-11.532,2.678-17.406,3.733a256.4,256.4,0,0,1-34.295,3.69c-.815.045-.815-1.273,0-1.318a253.546,253.546,0,0,0,36.4-4.085c5.829-1.1,11.575-2.459,17.319-3.864,5.359-1.318,10.8-2.285,16.291-1.186C334.623,159.934,334.28,161.207,333.51,161.031Z" transform="translate(-211.088 167.822)" fill="#dfe6e9"/>
    <path id="Path_1033" data-name="Path 1033" d="M253.5,148.752c-15.176-3.6-30.352-7.775-45.742-10.06a199.75,199.75,0,0,0-46.386-1.142c-29.752,2.636-58.647,10.63-87.8,16.824-16.076,3.426-32.324,6.239-48.743,7.38-.815.045-.815-1.273,0-1.318,30.094-2.109,59.333-9.971,88.741-16.386,29.237-6.326,58.99-10.894,88.913-7.38,17.362,2.066,34.339,6.766,51.358,10.807C254.661,147.654,254.318,148.927,253.5,148.752Z" transform="translate(146.653 67.575)" fill="#dfe6e9"/>
    <path id="Path_1034" data-name="Path 1034" d="M425.531,170.566c-22.366-2.24-44.276-8.3-65.955-14.8q-33.263-10.015-66.526-20.206c-22.138-6.721-44.237-13.619-66.45-20.163-11.05-3.252-22.213-6.194-33.568-7.425a152.741,152.741,0,0,0-32.921.176c-25.529,2.723-50.371,10.586-75.022,18.406-.724.219-1.029-1.054-.3-1.273,21.68-6.9,43.473-13.8,65.839-17.222a169.261,169.261,0,0,1,33.645-2.064A156.91,156.91,0,0,1,217,111.306c10.972,2.9,21.833,6.368,32.73,9.708L283.1,131.162q33.723,10.212,67.479,20.472c24.653,7.467,49.457,15.024,74.947,17.57C426.255,169.335,426.255,170.653,425.531,170.566Z" transform="translate(-39.076 52.23)" fill="#dfe6e9"/>
    <path id="Path_1035" data-name="Path 1035" d="M207.825,180.535,176.4,181.721c-10.2.4-20.449,1.01-30.652,1.1-9.946.089-19.549-1.888-29.323-3.69a281.329,281.329,0,0,0-30.867-4,293.487,293.487,0,0,0-34.64-.527c-.813.043-.813-1.275,0-1.318a290.39,290.39,0,0,1,60.49,3.645c10.2,1.713,20.321,4.349,30.652,4.568,10.117.264,20.363-.527,30.481-.923q17.62-.657,35.239-1.318C208.639,179.173,208.639,180.491,207.825,180.535Z" transform="translate(189.429 139.831)" fill="#dfe6e9"/>
    <path id="Path_1036" data-name="Path 1036" d="M44.8,232.966c-.643.483-1.286.923-1.929,1.405-.6.44-1.286-.527-.772-1.054l5.873-6.281a24.746,24.746,0,0,0,2.7-2.944c1.115-1.669-.043-2.459-.3-3.822-.3-1.405,1.072-2.2,1.843-3.074a19.482,19.482,0,0,0,3.687-6.679c3.558-9.971,4.8-21.218,5.144-31.761q.322.331.643.659c-10.8-1.01-17.062,9.446-20.663,18.276-4.03,9.795-7.717,20.032-8.188,30.794-.043.835-1.329.835-1.286,0,.515-11.51,4.544-22.667,9.089-33.123,3.773-8.741,10.589-18.274,21.092-17.307a.667.667,0,0,1,.643.659,138.613,138.613,0,0,1-1.629,16.869,83.414,83.414,0,0,1-3.9,16.21,21.4,21.4,0,0,1-2.83,5.271c-.857,1.1-2.315,2.064-1.8,3.69.214.659.643,1.01.6,1.8-.086,1.932-2.143,3.514-3.3,4.744-2.143,2.285-4.33,4.613-6.473,6.9q-.386-.529-.772-1.054c.643-.485,1.286-.923,1.929-1.407C44.848,231.34,45.491,232.483,44.8,232.966Z" transform="translate(308.344 149.044)" fill="#dfe6e9"/>
    <path id="Path_1037" data-name="Path 1037" d="M67.525,203.6a54.218,54.218,0,0,0-18.82-24.95,6.608,6.608,0,0,1,.9-.221A69.423,69.423,0,0,0,44.718,196c-.129-.264-.3-.527-.429-.791,1.029.308,2.058.614,3.13.923a.674.674,0,0,1,.386.967c-1.2,2.942-2.529,6.281-1.2,9.4,1.115,2.593,3.515,4.525,5.187,6.679a50.238,50.238,0,0,1,7.2,12.739c.3.791-.943,1.142-1.243.351-2.4-6.194-6-11.113-10.246-16.078a10.023,10.023,0,0,1-2.787-6.237c-.086-2.636.986-5.14,1.972-7.512.129.306.257.659.386.965-1.029-.306-2.058-.614-3.129-.923a.63.63,0,0,1-.429-.791,72.283,72.283,0,0,1,5.016-17.923.623.623,0,0,1,.9-.219A55.984,55.984,0,0,1,68.854,203.3C69.025,204.043,67.825,204.394,67.525,203.6Z" transform="translate(277.652 148.487)" fill="#dfe6e9"/>
    <path id="Path_1038" data-name="Path 1038" d="M55.538,182.469A88.627,88.627,0,0,0,35.3,228.286c-.129.835-1.415.835-1.286,0A90.524,90.524,0,0,1,54.637,181.5C55.195,180.888,56.1,181.81,55.538,182.469Z" transform="translate(310.044 152.449)" fill="#dfe6e9"/>
    <path id="Path_1039" data-name="Path 1039" d="M54.975,208.292a96.887,96.887,0,0,0-8.488-20.91c-.386-.748.686-1.407,1.115-.659a99.808,99.808,0,0,1,8.617,21.218A.646.646,0,1,1,54.975,208.292Z" transform="translate(284.37 157.682)" fill="#dfe6e9"/>
    <path id="Path_1041" data-name="Path 1041" d="M162.836,198.309a256.3,256.3,0,0,0-25.808-3.382,104.4,104.4,0,0,0-25.894,1.845,111.621,111.621,0,0,1-23.579,2.019c-8.36-.219-16.806-.614-24.951,1.626a.66.66,0,0,1-.343-1.273c7.887-2.2,15.991-1.934,24.093-1.713a115.125,115.125,0,0,0,12.9-.176,131.328,131.328,0,0,0,13.118-2.064,101.939,101.939,0,0,1,25.079-1.581c8.617.57,17.191,1.977,25.722,3.382C163.993,197.167,163.651,198.441,162.836,198.309Z" transform="translate(210.581 100.189)" fill="#dfe6e9"/>
    <path id="Path_1042" data-name="Path 1042" d="M274.582,203.808a389.469,389.469,0,0,0-48.488-4.13c-15.819-.351-31.637.308-47.456.659a.661.661,0,0,1,0-1.318c16.076-.351,32.195-1.01,48.313-.614a398.75,398.75,0,0,1,47.973,4.128C275.739,202.665,275.4,203.9,274.582,203.808Z" transform="translate(-92.225 169.081)" fill="#dfe6e9"/>
    <path id="Path_1043" data-name="Path 1043" d="M251.407,207.4c-6.131-2.68-12.733.572-19.034.264a15.456,15.456,0,0,1-3.988-.7c-1.758-.614-3.386-1.581-5.273-1.669-3.258-.176-6.3,1.1-9.56.572-.815-.132-.47-1.407.343-1.275,3.645.616,7.2-1.229,10.8-.4,1.628.353,3.086,1.231,4.671,1.713a17.281,17.281,0,0,0,4.973.485c5.959-.264,11.918-2.593,17.749-.045C252.778,206.568,252.135,207.711,251.407,207.4Z" transform="translate(-140.3 174.931)" fill="#dfe6e9"/>
    <path id="Path_1044" data-name="Path 1044" d="M320.464,183.781c-10.8-3.295-21.607-3.207-32.667-1.845-10.419,1.273-20.922,2.944-31.382,1.054-.815-.132-.472-1.405.343-1.273,10.89,1.977,21.822-.045,32.667-1.275,10.675-1.229,21.092-1.1,31.424,2.109C321.577,182.772,321.277,184.045,320.464,183.781Z" transform="translate(-192.279 165.716)" fill="#dfe6e9"/>
    <path id="Path_1045" data-name="Path 1045" d="M259.528,79.284c7.974-4.393,13.16-12.915,11.96-22.36a21.89,21.89,0,0,0-16.119-18.143c-8.447-2.021-17.876,2.065-22.465,9.576a22.335,22.335,0,0,0,2.188,25.786c6.859,8.083,18.862,9.313,27.521,3.6.687-.483,1.33.659.643,1.142a22.433,22.433,0,0,1-26.664-1.362,23.768,23.768,0,0,1-6.474-26.489A22.758,22.758,0,0,1,251.853,36.98c9.089.439,17.319,7.16,20.064,15.99,3.429,10.938-2.315,22.184-11.79,27.412C259.442,80.821,258.8,79.679,259.528,79.284Z" transform="translate(-168.128 2.072)" fill="#dfe6e9"/>
    <path id="Path_1047" data-name="Path 1047" d="M215.835,90.019c.858-2.372,1.886-5.183.343-7.512-1.415-2.065-3.816-1.01-5.829-1.669-2.658-.879-4.288-3.558-5.016-6.15-.858-3.031.17-6.985-1.588-9.664-2.143-3.295-6.772.747-9.687-1.274-.687-.483-.043-1.625.643-1.142,2.958,2.065,6.987-2.153,9.775,1.23,2.228,2.68,1.2,6.765,1.928,9.928.515,2.2,1.673,4.525,3.688,5.579,1.758.923,3.771,0,5.529.923,3.773,1.977,2.573,6.9,1.415,10.1C216.82,91.117,215.577,90.809,215.835,90.019Z" transform="translate(-66.917 29.533)" fill="#dfe6e9"/>
    <path id="Path_1048" data-name="Path 1048" d="M213.46,70.3a6.365,6.365,0,0,0-1.245-6.458c-1.971-2.2-4.244-1.318-6.687-2.2a5.152,5.152,0,0,1-2.873-3.207c-.343-.879-.558-1.8-.858-2.68a5.716,5.716,0,0,0-1.071-2.021c-.773-.747-2.615-1.362-3.088.308A.646.646,0,0,1,196.4,53.7a2.944,2.944,0,0,1,4.288-1.625c3.086,1.625,1.971,6.458,4.844,8.083,1.586.879,3.558.351,5.229,1.054a7.5,7.5,0,0,1,2.745,2.2,7.621,7.621,0,0,1,1.2,7.248C214.446,71.444,213.2,71.093,213.46,70.3Z" transform="translate(-69.171 18.454)" fill="#dfe6e9"/>
    <path id="Path_1049" data-name="Path 1049" d="M222.862,88.323a4.864,4.864,0,0,0-.772-6.15c-1.928-1.845-4.714-1.011-6.044,1.1-3.043,4.7,3.688,8.83,6.9,4.92.558-.659,1.458.308.9.922a5.828,5.828,0,0,1-7.629.923c-2.658-1.757-2.873-5.315-1.03-7.819,1.8-2.46,5.146-3.295,7.546-1.274a6.167,6.167,0,0,1,1.243,8C223.5,89.685,222.39,89.026,222.862,88.323Z" transform="translate(-114.67 47.349)" fill="#dfe6e9"/>
    <path id="Path_1050" data-name="Path 1050" d="M222.255,92.46c1.2-1.713,2.7-3.778,2.186-5.974-.772-3.251-4.544-2.416-6.259-.483-1.415,1.625-1.93,4.173-.13,5.711a3.346,3.346,0,0,0,4.716,0c.557-.615,1.458.307.9.923a4.631,4.631,0,0,1-6.472.088c-2.188-1.933-1.93-5.14-.215-7.292,1.715-2.2,5.616-3.778,7.759-1.274,2.4,2.812.385,6.458-1.373,8.962C222.9,93.822,221.783,93.163,222.255,92.46Z" transform="translate(-118.907 50.506)" fill="#dfe6e9"/>
    <path id="Path_1051" data-name="Path 1051" d="M90.242,133.421A55.845,55.845,0,0,1,75.58,135.97c-.814.045-.814-1.273,0-1.318a52.716,52.716,0,0,0,14.319-2.5C90.713,131.885,91.056,133.158,90.242,133.421Z" transform="translate(301.408 101.092)" fill="#dfe6e9"/>
    <path id="Path_1052" data-name="Path 1052" d="M342.323,116.1c-29.151-.221-56.589,10.938-84.113,19.2-7.887,2.372-15.861,4.525-23.92,6.149-.815.176-1.158-1.1-.343-1.273,28.594-5.8,55.559-18.231,84.325-23.282a129.639,129.639,0,0,1,24.05-2.109A.661.661,0,0,1,342.323,116.1Z" transform="translate(-180.731 66.957)" fill="#dfe6e9"/>
    <path id="Path_1053" data-name="Path 1053" d="M111.743,21.872c-1.5,3.69-3.344,11.861-8.746,8.215-1.8-1.186-4.458-4.657-6.388-1.845-1.158,1.669-1.243,3.866-3.429,4.613-.772.264-1.115-1.011-.343-1.274,2.013-.7,2.013-3.866,3.643-5.139a3.185,3.185,0,0,1,3.558-.176c1.715.835,2.958,2.724,4.759,3.338,3.215,1.1,4.844-5.974,5.7-8.083C110.843,20.774,112.086,21.081,111.743,21.872Z" transform="translate(236.354 80.323)" fill="#dfe6e9"/>
    <path id="Path_1054" data-name="Path 1054" d="M117.984,23.029a4.6,4.6,0,0,0-7.118,1.845c-.728,1.8-1.285,2.856-3.343,2.987a23.48,23.48,0,0,0-3.043-.132c-2.058.351-2.058,2.2-2.4,3.91s-1.115,3.207-2.916,3.426c-.815.088-.815-1.23,0-1.318,2.358-.264,1.373-5.227,3.216-6.633,1.973-1.493,4.931.483,6.474-1.362.728-.879.943-2.065,1.713-2.943a5.486,5.486,0,0,1,2.315-1.625,5.675,5.675,0,0,1,5.7.747C119.313,22.414,118.67,23.557,117.984,23.029Z" transform="translate(216.782 79.957)" fill="#dfe6e9"/>
    <path id="Path_1055" data-name="Path 1055" d="M122.72,47.509a5.477,5.477,0,0,1-6.3-4,5.058,5.058,0,0,1,3.431-5.974c5.7-1.977,8.874,6.062,4.244,9.357-.685.483-1.33-.659-.643-1.142,3.258-2.328,1.243-8.171-2.916-7.073a3.782,3.782,0,0,0-2.958,4.129,4.135,4.135,0,0,0,4.8,3.383C123.192,46.059,123.535,47.333,122.72,47.509Z" transform="translate(182.074 3.6)" fill="#dfe6e9"/>
    <path id="Path_1056" data-name="Path 1056" d="M121.929,47.466a7.238,7.238,0,0,0,2.7-3.119,2.752,2.752,0,0,0-3.128-3.514,3.107,3.107,0,0,0-2.058,3.558,3.14,3.14,0,0,0,3.816,2.109.66.66,0,0,1,.343,1.274,4.5,4.5,0,0,1-5.273-2.592,4.4,4.4,0,0,1,2.273-5.447,4.007,4.007,0,0,1,5.1,2.2c1.2,2.68-.985,4.92-2.916,6.458C122.229,48.916,121.286,47.993,121.929,47.466Z" transform="translate(178.706 5.884)" fill="#dfe6e9"/>
    <path id="Path_1057" data-name="Path 1057" d="M84.165,90.825c1.972-1.8,2.358-4.525.429-6.545a3.79,3.79,0,0,0-5.745.132c-3.3,3.778,1.458,8.7,5.359,6.106.686-.483,1.329.659.643,1.142a5.4,5.4,0,0,1-6.6-8.522,5.05,5.05,0,0,1,7.245.176,5.743,5.743,0,0,1-.429,8.434C84.465,92.319,83.565,91.4,84.165,90.825Z" transform="translate(301.997 49.284)" fill="#dfe6e9"/>
    <path id="Path_1058" data-name="Path 1058" d="M177.908,33.015a48.864,48.864,0,0,0-10.247-14.8c-.6-.571.3-1.537.9-.923A50.3,50.3,0,0,1,179.021,32.4C179.365,33.1,178.25,33.806,177.908,33.015Z" transform="translate(-92.022 32.055)" fill="#dfe6e9"/>
    <path id="Path_1059" data-name="Path 1059" d="M178.913,29.656a73.121,73.121,0,0,0-8.53-9.05c-.643-.571.3-1.493.9-.923a76.651,76.651,0,0,1,8.532,9.05C180.328,29.392,179.428,30.314,178.913,29.656Z" transform="translate(-98.385 34.533)" fill="#dfe6e9"/>
    <path id="Path_1060" data-name="Path 1060" d="M175.43,28.532c-1.158-1.01-2.315-1.977-3.473-2.987-.643-.527.3-1.494.9-.923,1.158,1.01,2.315,1.977,3.473,2.987C176.972,28.136,176.072,29.059,175.43,28.532Z" transform="translate(-98.159 39.612)" fill="#dfe6e9"/>
    <path id="Path_1061" data-name="Path 1061" d="M205.385,34.869a6.416,6.416,0,1,1,6.259-6.414A6.338,6.338,0,0,1,205.385,34.869Z" transform="translate(-107.188 181.678)" fill="#fd6920"/>
    <path id="Path_1063" data-name="Path 1063" d="M105.666,122.1a4.7,4.7,0,1,1,4.586-4.7A4.643,4.643,0,0,1,105.666,122.1Z" transform="translate(228.921 81.14)" fill="#fd6920"/>
    <path id="Path_1065" data-name="Path 1065" d="M145.7,89.009c-.385,3.822-1.586,7.2-5.829,7.117-1.458,0-2.7-.439-3.816.7-1.03,1.054-.73,2.109-1.158,3.426a3.23,3.23,0,0,1-1.115,1.713c-.772.571-3.686.571-3.43,1.889.172.835-1.071,1.186-1.243.351-.3-1.494.687-2.372,2.058-2.768,1.973-.571,2.443-1.362,2.743-3.163a4.828,4.828,0,0,1,.858-2.372c1.115-1.362,2.916-1.186,4.458-1.142,1.673.088,3.258-.044,4.158-1.713a10.385,10.385,0,0,0,.987-4.085C144.5,88.174,145.784,88.174,145.7,89.009Z" transform="translate(136.761 56.154)" fill="#0010f7"/>
    <path id="Path_1066" data-name="Path 1066" d="M144.113,97.82c-2.23-2.416-4.888.044-5.574,2.46a6.138,6.138,0,0,1-1.03,2.636c-1.543,1.756-4.371.791-5.786,2.636-.515.659-1.415-.264-.9-.923.943-1.23,2.273-1.406,3.686-1.714a3.066,3.066,0,0,0,2.573-2.152,19.6,19.6,0,0,1,.858-2.548c1.458-2.68,4.886-3.734,7.074-1.362C145.613,97.512,144.713,98.435,144.113,97.82Z" transform="translate(133.975 63.508)" fill="#0010f7"/>
    <path id="Path_1067" data-name="Path 1067" d="M212.264,97.471a1.43,1.43,0,0,0-2.188-1.8.672.672,0,0,1-.985-.571,2,2,0,0,0-2.7-2.065c-.772.308-1.115-.966-.343-1.274a3.276,3.276,0,0,1,4.329,3.338c-.343-.176-.643-.4-.985-.571a2.722,2.722,0,0,1,3.943,3.6C212.991,98.876,211.876,98.217,212.264,97.471Z" transform="translate(-86.451 59.421)" fill="#0010f7"/>
    <path id="Path_1068" data-name="Path 1068" d="M215.165,95.249c.3-.747-1.758-.879-2.1-.879-1.073.044-2.1.22-3.173.308-.815.088-.815-1.23,0-1.318,1.673-.176,3.558-.659,5.188.044a1.848,1.848,0,0,1,1.2,2.5C215.98,96.7,214.865,96,215.165,95.249Z" transform="translate(-96.642 60.939)" fill="#0010f7"/>
    <path id="Path_1069" data-name="Path 1069" d="M102.289,125.381a5.185,5.185,0,1,1,5.059-5.184A5.123,5.123,0,0,1,102.289,125.381Z" transform="translate(239.632 83.523)" fill="#f7fafc"/>
    <path id="Path_1070" data-name="Path 1070" d="M126.8,31.375a6.987,6.987,0,1,1,6.816-6.985A6.9,6.9,0,0,1,126.8,31.375Z" transform="translate(158.625 76.534)" fill="#f7fafc"/>
    <path id="Path_1071" data-name="Path 1071" d="M66.773,166.43a8.832,8.832,0,1,1,8.617-8.83A8.726,8.726,0,0,1,66.773,166.43Z" transform="translate(350.812 118.208)" fill="#f7fafc"/>
    <path id="Path_1072" data-name="Path 1072" d="M209.717,146.706a4.527,4.527,0,1,1,4.414-4.525A4.472,4.472,0,0,1,209.717,146.706Z" transform="translate(-86.263 106.787)" fill="#f7fafc"/>
    <path id="Path_1073" data-name="Path 1073" d="M260.184,210.448c-9.089-2.24-18.219-4.525-27.308-6.766A101.9,101.9,0,0,1,208.1,202.5c-9.775-1.669-28.511-6.368-28.381-11.553.085-3.426,8.445-5.886,22.25-9.971a211.575,211.575,0,0,1,21.907-5.184c5.659,2.855,11.745,5.667,18.3,8.347a238.9,238.9,0,0,0,25.165,8.741C264.985,198.764,262.584,204.6,260.184,210.448Z" transform="translate(-87.602 145.968)" fill="#111314" stroke="#111314" stroke-miterlimit="10" stroke-width="3"/>
    <path id="Path_1074" data-name="Path 1074" d="M249.1,206.05c-9.089-2.24-18.221-4.525-27.308-6.766a101.919,101.919,0,0,1-24.78-1.186c-9.775-1.669-28.509-6.37-28.379-11.553.085-3.426,8.445-5.888,22.248-9.973a212.016,212.016,0,0,1,21.907-5.182c5.659,2.855,11.747,5.667,18.306,8.345a238.329,238.329,0,0,0,25.165,8.743C253.9,194.408,251.5,200.251,249.1,206.05Z" transform="translate(-54.058 141.449)" fill="#111314" stroke="#111314" stroke-miterlimit="10" stroke-width="3"/>
    <path id="Path_1075" data-name="Path 1075" d="M190.654,157.482a187.907,187.907,0,0,1,16.291,10.279,157.992,157.992,0,0,1,23.235,19.9c14.061,14.849,25.893,27.325,25.123,43.139-.687,14.233-11.19,24.117-12.347,25.171-18.734,17.132-58.775,10.894-99.2-15.506,1.458-7.865,2.871-15.683,4.329-23.547a39.2,39.2,0,0,1-19.162-10.148,41,41,0,0,1-11.79-23.237,57.162,57.162,0,0,1,1.843-13.8,60.784,60.784,0,0,1,18.906-30.047C151.214,142.063,171.276,146.852,190.654,157.482Z" transform="translate(51.293 108.879)" fill="#f7fafc" stroke="#111314" stroke-miterlimit="10" stroke-width="1"/>
    <path id="Path_1076" data-name="Path 1076" d="M198.977,162.156a188.314,188.314,0,0,1,16.291,10.279,187.9,187.9,0,0,1,23.235,19.9c18.221,17.923,31.169,30.092,29.453,44.852-1.673,14.188-15.52,22.755-16.676,23.413-8.1,4.834-16.334,4.965-22.937,4.613-29.666-1.581-62.933-14.539-76.266-20.119,1.458-7.863,2.873-15.683,4.331-23.545a39.381,39.381,0,0,1-20.535-16.254,40.648,40.648,0,0,1-5.616-16.518c-.3-2.5-.643-7.775,2.058-18.714A120.058,120.058,0,0,1,142.6,143.136C154.435,145.287,177.542,150.3,198.977,162.156Z" transform="translate(12.316 112.418)" fill="#f7fafc" stroke="#111314" stroke-miterlimit="10" stroke-width="1"/>
    <path id="Path_1077" data-name="Path 1077" d="M209.177,190.309a132.625,132.625,0,0,1-46.813-7.293c-.772-.264-.43-1.537.343-1.273a129.772,129.772,0,0,0,46.47,7.248C209.992,188.947,209.992,190.265,209.177,190.309Z" transform="translate(6.017 152.051)" fill="#111314"/>
    <path id="Path_1078" data-name="Path 1078" d="M165.8,184.176a9.81,9.81,0,0,1-4.673,4.217c-.772.306-1.415-.791-.643-1.144a8.791,8.791,0,0,0,4.2-3.733A.648.648,0,0,1,165.8,184.176Z" transform="translate(53.56 153.571)" fill="#111314"/>
    <path id="Path_1079" data-name="Path 1079" d="M193.584,189.059c14.918,8.566,22.635,7.161,37.468,19.022,3.858,3.118,26.408,21.173,23.535,39.491-.258,1.537-1.585,10.148-7.844,13.529-2.658,1.45-5.273,1.362-8.917,1.1a142.057,142.057,0,0,1-22.807-3.645c-15.005-3.822-12.475-2.24-22.807-5.1a209.563,209.563,0,0,1-26.751-9.489c1.415-7.686,2.871-15.33,4.286-23.018a47.852,47.852,0,0,1-11.79-8.039c-3.171-2.944-12.218-11.289-14.276-24.468-1.113-7.074.258-12.477,2.488-21.218a94.936,94.936,0,0,1,7.844-20.472C167.389,170.785,182.394,182.688,193.584,189.059Z" transform="translate(-1.238 116.137)" fill="#fd6920" opacity="0.12"/>
    <path id="Path_1080" data-name="Path 1080" d="M124.6,148.965c.6-1.054,19.462,7.731,41.026,23.766,26.666,19.811,41.454,31.54,42.1,48.234.728,19.46-25.3,35.714-26.408,34.7-.6-.57,15.089-11.684,15.346-27.762.172-10.5-6.344-18.8-17.834-30.706C149.463,166.756,123.87,150.238,124.6,148.965Z" transform="translate(83.78 118.321)" fill="#2d3436" opacity="0.11"/>
    <path id="Path_1081" data-name="Path 1081" d="M166.171,153.623a85.3,85.3,0,0,0,14.963,31.452c18.992,24.733,45.955,30.443,53.844,31.805-1.328,1.318-2.615,2.812-3.943,4.394a65.631,65.631,0,0,0-12.475,25.567c-11.662-4.13-23.322-8.3-34.94-12.433,1.8-7.293,3.558-14.628,5.359-21.921A45.629,45.629,0,0,1,173.63,201.9a42.945,42.945,0,0,1-10.717-18.276C159.055,169.306,164.456,157.094,166.171,153.623Z" transform="translate(-18.41 123.195)" fill="#21650b" opacity="0.12"/>
    <path id="Path_1082" data-name="Path 1082" d="M119.426,90.757c-3.6.527-5.144,11.553-5.659,15.2-2.1,14.8,2.358,21.437,3.045,39.579.558,14.409-2.015,15.068-.858,22.1,1.715,10.279,9.645,23.458,37.811,35.406a32.856,32.856,0,0,0,11.232,8.3c11.36,4.921,26.28,2.372,28.294-4.7.687-2.372.043-5.667-1.543-7.206-2.573-2.547-6.516,1.1-13.033-1.318-.343-.132-3.258-1.229-3.171-2.019.043-.485,1.156-.659,2.486-.835,6.044-.878,7.844-.7,7.974-1.231.215-.878-4.416-3.909-10.417-5.667a55.4,55.4,0,0,0-18.606-2.151c-6.731-7.775-13.505-15.551-20.234-23.326a142.176,142.176,0,0,0-3.173-40.5C130.873,110.612,124.487,90.01,119.426,90.757Z" transform="translate(121.018 58.579)" fill="#f7fafc" stroke="#111314" stroke-miterlimit="10" stroke-width="1"/>
    <path id="Path_1083" data-name="Path 1083" d="M125.507,90.639c5.273.088,10.032,21.569,11.017,36.813,1.243,19.283-3.686,25.3,0,37.119,2.443,7.82,8.617,17.878,25.208,27.016,13.075,11.2,21.777,12.388,27.523,10.983,3.516-.835,7.887-3.163,9.86-1.186,1.673,1.669.9,5.8-.858,8.609-4.2,6.547-16.848,4.965-24.05,2.372a33.449,33.449,0,0,1-13.633-9.489,63.27,63.27,0,0,1-30.994-19.592c-11.1-12.915-13.72-26.666-15.048-34.133C109.431,120.731,119.076,90.507,125.507,90.639Z" transform="translate(114.768 58.478)" fill="#2d3436" opacity="0.12"/>
    <path id="Path_1084" data-name="Path 1084" d="M180.575,78.562c-15.263,3.295-26.838,16.517-31.852,28.686-5.531,13.354-2.315,23.81.77,45.906a465.26,465.26,0,0,1,4.373,64.267c4.629,3.6,26.536,20.032,56.374,15.859a74.007,74.007,0,0,0,37.6-17.132,143.146,143.146,0,0,1-.773-31.1c1.628-18.537,6-25.786,6.816-40.459.515-9.27-.257-22.931-7.2-40.063a178.066,178.066,0,0,0-16.333-10.1C208.911,82.692,195.493,75.356,180.575,78.562Z" transform="translate(-5.333 45.293)" fill="#f7fafc" stroke="#111314" stroke-width="1"/>
    <path id="Path_1085" data-name="Path 1085" d="M208.5,98.317a121.043,121.043,0,0,0-6.559,55.614c4.929,41.162,30.094,66.6,37.9,73.888a72.678,72.678,0,0,1-35.71,4.833,73.806,73.806,0,0,1-36.783-15.287,338.523,338.523,0,0,0-1.8-44.765c-3.686-34-10.332-46.257-3.258-64.927,1.673-4.437,7.289-19.285,21.477-26.138a35.021,35.021,0,0,1,9.474-2.987,32.72,32.72,0,0,0,7.631,13.794A30.4,30.4,0,0,0,208.5,98.317Z" transform="translate(-18.429 46.055)" fill="#32a00f" opacity="0.645"/>
    <path id="Path_1086" data-name="Path 1086" d="M169.167,96.033q16.912,47.047,33.867,94.053,14.726,12.32,29.5,24.644a86.173,86.173,0,0,1-32.412-3.339A87.646,87.646,0,0,1,175,199.09c.128-4.655.213-11.508,0-19.768-.6-20.733-.858-31.1-3.645-43.664-2.571-11.6-6.044-20.427-3.643-33.607A46.769,46.769,0,0,1,169.167,96.033Z" transform="translate(-26.809 64.022)" fill="#2d3436" opacity="0.21"/>
    <path id="Path_1087" data-name="Path 1087" d="M186.2,151.326q-7.652,18.977-15.348,37.91-31.124-11.07-62.291-22.183,7.46-18.254,14.878-36.55Z" transform="translate(137.796 99.439)" fill="#f7fafc" stroke="#111314" stroke-miterlimit="10" stroke-width="1"/>
    <path id="Path_1088" data-name="Path 1088" d="M168.457,133.75a140.113,140.113,0,0,0-23.45,22.185,146.514,146.514,0,0,0-15.348,22.185q-12.22-19.44-24.393-38.835,14.212-16.21,28.421-32.375Q151.117,120.352,168.457,133.75Z" transform="translate(162.23 75.196)" fill="#f7fafc" stroke="#111314" stroke-miterlimit="10" stroke-width="1"/>
    <path id="Path_1089" data-name="Path 1089" d="M130.986,96.744v35.627q-13.311-6.721-26.622-13.4c-5.873-2.943-11.747-5.886-17.62-8.785,1.673-8.654,3.3-17.264,4.973-25.918Q111.33,90.462,130.986,96.744Z" transform="translate(237.256 51.933)" fill="#f7fafc" stroke="#111314" stroke-miterlimit="10" stroke-width="1"/>
    <path id="Path_1090" data-name="Path 1090" d="M133.54,69.943q-6.559,15.946-13.075,31.892Q97.25,88.2,73.994,74.555,83.7,55.578,93.413,36.645a144.736,144.736,0,0,0,14.876,15.243A146.154,146.154,0,0,0,133.54,69.943Z" transform="translate(260.552 2.998)" fill="#f7fafc" stroke="#111314" stroke-miterlimit="10" stroke-width="1"/>
    <path id="Path_1092" data-name="Path 1092" d="M153.489,141.964q-22.25,3.361-44.112,8.434c-.815.176-1.158-1.1-.343-1.273,14.618-3.384,29.322-6.239,44.112-8.434C153.962,140.6,154.3,141.876,153.489,141.964Z" transform="translate(170.037 109.901)" fill="#111314"/>
    <path id="Path_1093" data-name="Path 1093" d="M131.68,130.975a159.266,159.266,0,0,0,17.276,28.64c.513.659-.387,1.581-.9.923a160.072,160.072,0,0,1-17.491-28.9C130.223,130.886,131.336,130.227,131.68,130.975Z" transform="translate(130.416 99.585)" fill="#111314"/>
    <path id="Path_1094" data-name="Path 1094" d="M134.229,132.615a140.068,140.068,0,0,0-23.965-20.778c-.685-.483-.043-1.626.643-1.141a142.887,142.887,0,0,1,24.222,21C135.729,132.264,134.786,133.231,134.229,132.615Z" transform="translate(185.827 78.966)" fill="#111314"/>
    <path id="Path_1095" data-name="Path 1095" d="M131.092,132.406A122.977,122.977,0,0,0,113.3,115.89c-.643-.485,0-1.626.643-1.144a122.036,122.036,0,0,1,18.049,16.737C132.592,132.1,131.692,133.022,131.092,132.406Z" transform="translate(182.748 83.127)" fill="#111314"/>
    <path id="Path_1096" data-name="Path 1096" d="M138.913,138.783a175.592,175.592,0,0,0-22.98-22.1c-.643-.527.257-1.45.9-.923a175.485,175.485,0,0,1,22.98,22.1C140.37,138.477,139.425,139.4,138.913,138.783Z" transform="translate(169.527 84.132)" fill="#111314"/>
    <path id="Path_1097" data-name="Path 1097" d="M139.825,143.093c-2.445-4.041-5.7-7.467-8.917-10.894-3.516-3.647-7.031-7.337-10.547-10.983-.6-.614.343-1.537.9-.923,3.688,3.866,7.374,7.688,11.06,11.553a63.129,63.129,0,0,1,8.617,10.588C141.368,143.137,140.253,143.8,139.825,143.093Z" transform="translate(159.439 88.74)" fill="#111314"/>
    <path id="Path_1098" data-name="Path 1098" d="M120.29,150.707a36.535,36.535,0,0,1-3.816,10.148c-.385.746-1.5.087-1.113-.659a35.4,35.4,0,0,0,3.686-9.841C119.22,149.521,120.463,149.872,120.29,150.707Z" transform="translate(190.076 119.346)" fill="#111314"/>
    <path id="Path_1099" data-name="Path 1099" d="M132.211,153.828a35.814,35.814,0,0,0-13.848-4.963c.258-.132.515-.308.772-.44-.858,2.857-1.673,5.667-2.53,8.524-.257.791-1.5.483-1.243-.353.858-2.855,1.671-5.667,2.528-8.522a.6.6,0,0,1,.772-.44,36.424,36.424,0,0,1,14.148,5.1A.625.625,0,1,1,132.211,153.828Z" transform="translate(177.128 117.014)" fill="#111314"/>
    <path id="Path_1100" data-name="Path 1100" d="M129.514,159.065c-4.073-1.713-8.061-3.645-12-5.709-.728-.4-.085-1.539.643-1.143,3.816,2.021,7.717,3.866,11.7,5.58C130.627,158.143,130.284,159.418,129.514,159.065Z" transform="translate(176.224 121.66)" fill="#111314"/>
    <path id="Path_1101" data-name="Path 1101" d="M148.69,149.215a53.96,53.96,0,0,0-14.961-5.491c-.815-.176-.472-1.45.343-1.273a54.177,54.177,0,0,1,15.261,5.622C150.105,148.469,149.42,149.611,148.69,149.215Z" transform="translate(124.251 111.698)" fill="#111314"/>
    <path id="Path_1102" data-name="Path 1102" d="M142.939,150.192c-2.873-1.273-5.744-2.549-8.574-3.822-.772-.351-.085-1.492.643-1.141,2.873,1.273,5.746,2.547,8.574,3.822C144.354,149.4,143.666,150.5,142.939,150.192Z" transform="translate(128.458 114.501)" fill="#111314"/>
    <path id="Path_1103" data-name="Path 1103" d="M119.724,98.315c-10.2-3.47-20.406-7.688-30.995-9.8-.815-.176-.472-1.45.343-1.274,10.546,2.153,20.792,6.326,30.995,9.8C120.839,97.3,120.5,98.579,119.724,98.315Z" transform="translate(244.66 54.974)" fill="#111314"/>
    <path id="Path_1104" data-name="Path 1104" d="M118.819,101.8A183.159,183.159,0,0,0,88.553,90.647a.66.66,0,0,1,.343-1.274,185.425,185.425,0,0,1,30.567,11.29C120.191,101.014,119.548,102.156,118.819,101.8Z" transform="translate(245.736 57.152)" fill="#111314"/>
    <path id="Path_1105" data-name="Path 1105" d="M100.774,101.859c-4.287-1.8-8.488-3.734-12.647-5.8-.729-.351-.086-1.493.643-1.142q6.109,3.031,12.347,5.667C101.846,100.892,101.546,102.166,100.774,101.859Z" transform="translate(264.553 62.806)" fill="#111314"/>
    <path id="Path_1106" data-name="Path 1106" d="M117.032,107.818c-9.046-4.7-18.306-9-27.737-12.826-.772-.308-.428-1.581.343-1.274,9.56,3.866,18.906,8.215,28.037,12.959C118.447,107.072,117.761,108.213,117.032,107.818Z" transform="translate(245.937 61.592)" fill="#111314"/>
    <path id="Path_1107" data-name="Path 1107" d="M110.187,66.457A160.156,160.156,0,0,1,76.406,43.79c-.643-.571.3-1.493.9-.923A160.5,160.5,0,0,0,110.83,65.359C111.6,65.71,110.959,66.852,110.187,66.457Z" transform="translate(278.461 9.209)" fill="#111314"/>
    <path id="Path_1108" data-name="Path 1108" d="M92.464,62.949a145.553,145.553,0,0,1-14.7-10.016c-.643-.483,0-1.669.643-1.142a145.549,145.549,0,0,0,14.7,10.016C93.836,62.247,93.193,63.389,92.464,62.949Z" transform="translate(293.57 18.427)" fill="#111314"/>
    <path id="Path_1109" data-name="Path 1109" d="M111.075,70.011A295.9,295.9,0,0,1,79.394,49.936c-.686-.483-.043-1.625.643-1.142a291.674,291.674,0,0,0,31.681,20.076C112.447,69.264,111.8,70.407,111.075,70.011Z" transform="translate(271.698 15.362)" fill="#111314"/>
    <path id="Path_1110" data-name="Path 1110" d="M115.33,73.481a206.8,206.8,0,0,1-34.6-20.3c-.686-.483-.043-1.625.643-1.142a203.417,203.417,0,0,0,34.6,20.3C116.744,72.69,116.1,73.788,115.33,73.481Z" transform="translate(264.703 18.701)" fill="#111314"/>
    <path id="Path_1111" data-name="Path 1111" d="M163.2,126.056l-13.761-3.163q-9.775,21.088-19.549,42.129c-6.516-8.655-13.033-17.264-19.549-25.919q14.4-15.878,28.766-31.8Q151.2,116.722,163.2,126.056Z" transform="translate(157.2 75.597)" fill="#47c923" opacity="0.13"/>
    <path id="Path_1112" data-name="Path 1112" d="M119.792,93.067c2.4,11.29,4.8,22.624,7.2,33.913q-18.391-9.026-36.825-18.1c1.8-8,3.558-16.034,5.359-24.029Q107.681,89,119.792,93.067Z" transform="translate(234.302 52.532)" fill="#0010f7" opacity="0.21"/>
    <path id="Path_1113" data-name="Path 1113" d="M172.784,143.1q-3.6,8.963-7.2,17.923c-3.986.922-7.932,1.845-11.918,2.725-4.331,3.074-8.617,6.194-12.948,9.268-6.559-2.328-13.16-4.655-19.719-6.94,5.016-11.642,9.987-23.326,15-34.968,6.559,2.021,13.162,4.085,19.721,6.107l10.288,16.869C168.283,150.4,170.514,146.751,172.784,143.1Z" transform="translate(126.005 100.063)" fill="#c3c8fc" opacity="0.399"/>
    <path id="Path_1115" data-name="Path 1115" d="M121.64,56.841C120.054,80.563,118.854,92.38,118,92.38c-.257,0-.472-1.186-.686-3.47-11.232-5.8-22.507-11.6-33.738-17.4,5.658-10.851,11.317-21.657,16.976-32.507C107.622,44.936,114.652,50.911,121.64,56.841Z" transform="translate(253.031 5.426)" fill="#fd6920" opacity="0.11"/>
    <path id="Path_1116" data-name="Path 1116" d="M164.6,86.926c-5.789-.791-12.82,16.429-15.821,26.709-5.059,17.4-3.258,32.639-1.543,46.784,1.843,15.066,2.743,22.623,6.259,30.53,11.36,25.567,39.913,35.364,51.1,38.526a53.683,53.683,0,0,0,15.991,8.3c15.906,5.008,36.783,2.855,39.656-5.535.943-2.812.043-6.678-2.143-8.479-3.645-2.987-9.089,1.273-18.264-1.581-.472-.132-4.544-1.45-4.416-2.372.087-.572,1.588-.746,3.473-.967,8.445-1.01,10.975-.833,11.145-1.45.257-1.054-6.214-4.568-14.576-6.677a90.126,90.126,0,0,0-26.063-2.549q-15.821-14.89-31.639-29.826a437.984,437.984,0,0,0-3.731-58.909C170,89.649,166.53,87.189,164.6,86.926Z" transform="translate(-11.44 54.636)" fill="#f7fafc" stroke="#111314" stroke-miterlimit="10" stroke-width="1"/>
    <path id="Path_1117" data-name="Path 1117" d="M162.733,158.994c-1.63,1.8-4.631,2.328-6.816,2.987a67.683,67.683,0,0,1-9.86,2.064c-.815.132-1.158-1.141-.343-1.273a68.235,68.235,0,0,0,8.317-1.669c2.358-.616,6.129-1.143,7.8-3.076C162.391,157.455,163.291,158.378,162.733,158.994Z" transform="translate(86.715 127.534)" fill="#111314"/>
    <path id="Path_1118" data-name="Path 1118" d="M163.813,157.07a36.172,36.172,0,0,1-17.662,5.58c-.815.043-.815-1.275,0-1.318a34.211,34.211,0,0,0,17.019-5.4C163.858,155.488,164.543,156.63,163.813,157.07Z" transform="translate(84.905 125.46)" fill="#111314"/>
    <path id="Path_1119" data-name="Path 1119" d="M166.517,155.544a41.524,41.524,0,0,1-19.249,4.744.661.661,0,0,1,0-1.318,39.82,39.82,0,0,0,18.6-4.568C166.6,154.007,167.245,155.149,166.517,155.544Z" transform="translate(79.93 123.911)" fill="#111314"/>
    <path id="Path_1120" data-name="Path 1120" d="M166.791,88.714a124.5,124.5,0,0,0-10.46,40.459c-1.115,13.4-2.958,36.241,10.46,59,13.2,22.359,33.225,31.234,40.641,34.484,7.459,3.295,19.977,8.655,36.225,6.9a60.07,60.07,0,0,0,15.561-3.822c.815,1.845,1.587,4.481.687,6.9-2.916,7.863-21.092,7.731-30.867,6.194a59.481,59.481,0,0,1-24.608-9.973c-12.175-3.69-42.442-14.671-51.531-39.491-2.658-7.248-4.244-17.659-5.1-23.326a152.361,152.361,0,0,1-1.843-35.451s1.628-22.36,13.718-40.678c.558-.878,1.843-2.724,3.731-2.855A4.782,4.782,0,0,1,166.791,88.714Z" transform="translate(-11.401 54.781)" fill="#2d3436" opacity="0.15"/>
    <path id="Path_1121" data-name="Path 1121" d="M173.943,116.857c1.285-.221,4.029,14.365,6.944,23.545,5.059,15.9,17.406,36.945,50.158,57.81a78,78,0,0,1-28.551-13.089c-5.359-3.954-14.405-10.588-20.664-22.844-4.329-8.479-5.486-16.078-6.944-25.917C173.556,127.706,172.871,117.032,173.943,116.857Z" transform="translate(-38.529 85.415)" fill="#2d3436" opacity="0.09"/>
    <path id="Path_1122" data-name="Path 1122" d="M215.378,61.038a28.817,28.817,0,0,1,.359,6.788,59.115,59.115,0,0,1-3.08,18.088c-1.5,4.476-3.473,10.31-8.522,16.327,0,0-7.161,8.475-17.761,11.888a14.269,14.269,0,0,1-7.7.7,13.376,13.376,0,0,1-5.908-2.862,14.388,14.388,0,0,0-1.9,4.77c-.681,3.339.286,4.806-.823,7.375a7.761,7.761,0,0,1-3.439,3.816c-2.255,1.137-4.475.587-6.409.11a13.778,13.778,0,0,1-7.125-4.293,7.707,7.707,0,0,1-2.257-4.77,6.229,6.229,0,0,1,.823-2.972c.61-1.137,1.433-4.256,3.08-10.493,1.109-4.183.967-7.521.716-14.162a85.367,85.367,0,0,0-1.539-13.1,5.558,5.558,0,0,1-3.688.7c-2.828-.514-4.225-3.412-4.87-4.77-.178-.367-3.187-6.934.466-11.557.357-.44,3.258-4,6.516-2.972,2.362.734,3.295,3.375,3.437,3.816a27.3,27.3,0,0,0,2.257-3.229A25.272,25.272,0,0,0,161.1,51.9a66.99,66.99,0,0,0,16.828-1.321c8.055-1.688,10.527-3.816,17.615-3.889,4.333-.073,9.489-.11,13.821,3.449C213.874,53.92,215.056,59.5,215.378,61.038Z" transform="translate(36.375 13.303)" fill="#f7fafc"/>
    <path id="Path_1123" data-name="Path 1123" d="M205.2,55.686c.643,14.309-3.116,29.132-13.106,39.588a38.8,38.8,0,0,1-15.719,10.2c-3.08,1.027-6.516,1.871-9.7.917-3.293-1.027-6.372-3.3-9.2-5.32-6.409-4.586-12.1-10.713-13.677-18.785-.144-.7.894-.991,1.038-.294,1.4,7.118,6.123,12.731,11.672,17.024a55.118,55.118,0,0,0,8.378,5.467c3.439,1.761,6.839,1.321,10.419.22,12.031-3.706,21.268-13.942,25.567-25.83a60.364,60.364,0,0,0,3.222-23.151A.556.556,0,0,1,205.2,55.686Z" transform="translate(47.347 22.032)" fill="#111314"/>
    <path id="Path_1124" data-name="Path 1124" d="M168.563,79.571a43.874,43.874,0,0,0-2.293,9.87c-.071.7-1.146.7-1.073,0a44.249,44.249,0,0,1,2.326-10.126C167.775,78.617,168.813,78.91,168.563,79.571Z" transform="translate(40.582 46.43)" fill="#111314"/>
    <path id="Path_1125" data-name="Path 1125" d="M171.4,69.294a50.152,50.152,0,0,1-.645,13.1,52.3,52.3,0,0,1-1.719,6.6c-.787,2.348-1.969,4.733-1.825,7.264.249,4.183,3.974,7.228,7.591,8.4,3.9,1.284,10.813.587,10.312-5.173-.071-.7,1-.7,1.075,0,.357,4.256-3.581,6.824-7.305,6.934a13.829,13.829,0,0,1-10.957-5.283c-3.222-4.366-1.075-8.769.359-13.392a47.826,47.826,0,0,0,2.04-18.418A.538.538,0,0,1,171.4,69.294Z" transform="translate(20.848 36.013)" fill="#111314"/>
    <path id="Path_1126" data-name="Path 1126" d="M177.736,85.493a31.8,31.8,0,0,1-12.244-11.667.541.541,0,0,1,.931-.55,30.663,30.663,0,0,0,11.887,11.3C178.882,84.906,178.344,85.823,177.736,85.493Z" transform="translate(30.192 40.362)" fill="#111314"/>
    <path id="Path_1127" data-name="Path 1127" d="M179.193,87.1a30.765,30.765,0,0,1-8.128-6.421,25.442,25.442,0,0,1-5.586-7.925c-.251-.66.789-.954,1.038-.294,1.253,3.082,3.473,5.54,5.73,7.888a27.584,27.584,0,0,0,7.483,5.8C180.375,86.438,179.838,87.392,179.193,87.1Z" transform="translate(28.662 39.417)" fill="#111314"/>
    <path id="Path_1128" data-name="Path 1128" d="M179.74,88.09a33.379,33.379,0,0,1-14.071-15.483c-.288-.624.643-1.211.931-.55a32.529,32.529,0,0,0,13.678,15.079C180.886,87.466,180.312,88.42,179.74,88.09Z" transform="translate(27.794 39.085)" fill="#111314"/>
    <path id="Path_1129" data-name="Path 1129" d="M162.269,58a163,163,0,0,1-1.433,19.592.541.541,0,0,1-.787.33,36.145,36.145,0,0,1-5.8-5.5c-.466-.55.322-1.321.752-.771A35.525,35.525,0,0,0,160.584,77c-.249.11-.535.22-.787.33a158.137,158.137,0,0,0,1.4-19.3A.538.538,0,1,1,162.269,58Z" transform="translate(69.399 24.379)" fill="#111314"/>
    <path id="Path_1130" data-name="Path 1130" d="M150.233,65.054a4.032,4.032,0,0,0,1.934-2.018c.322-.7.931-3.339-.645-2.9-.894.257-1.612,1.688-1.861,2.495a2.917,2.917,0,0,0-.178,1.468.98.98,0,0,0,.75,1.064,2.658,2.658,0,0,0,.61-.66c.43-.55,1.18.22.75.77-1.109,1.468-2.828,1.248-3.151-.7a5.615,5.615,0,0,1,2.22-5.21c1.612-1.174,2.865-.147,2.936,1.724a5.307,5.307,0,0,1-2.863,4.843C150.162,66.338,149.625,65.384,150.233,65.054Z" transform="translate(89.668 25.834)" fill="#111314"/>
    <path id="Path_1131" data-name="Path 1131" d="M152.382,60.265a10.152,10.152,0,0,1-2.613,4.99c-.393.44-1-.037-.9-.55.322-1.761,2.005-3.119,1.863-4.953.322.147.608.257.931.4a8.865,8.865,0,0,0-1.934,4.256c-.178-.22-.357-.477-.5-.7,1.109,0,1.754-1.064,2.257-1.908a.541.541,0,0,1,.931.55c-.718,1.211-1.648,2.458-3.187,2.458a.537.537,0,0,1-.5-.7,9.892,9.892,0,0,1,2.184-4.733c.322-.4.894-.037.931.4.144,2.018-1.575,3.339-1.9,5.247-.286-.183-.608-.367-.894-.55a9.439,9.439,0,0,0,2.362-4.513C151.488,59.274,152.526,59.568,152.382,60.265Z" transform="translate(90.097 26.184)" fill="#111314"/>
    <path id="Path_1132" data-name="Path 1132" d="M163.195,63.48a4.032,4.032,0,0,0,1.934-2.018c.322-.7.931-3.339-.645-2.9-.9.257-1.612,1.688-1.861,2.495a2.917,2.917,0,0,0-.18,1.468.983.983,0,0,0,.752,1.064,2.613,2.613,0,0,0,.608-.66c.43-.55,1.182.22.752.77-1.109,1.468-2.828,1.248-3.151-.7a5.615,5.615,0,0,1,2.22-5.21c1.612-1.174,2.865-.147,2.936,1.724a5.305,5.305,0,0,1-2.865,4.843C163.124,64.764,162.587,63.81,163.195,63.48Z" transform="translate(50.427 24.216)" fill="#111314"/>
    <path id="Path_1133" data-name="Path 1133" d="M165.326,58.672a10.151,10.151,0,0,1-2.613,4.99c-.393.44-1-.037-.894-.55.32-1.761,2-3.119,1.861-4.953.322.147.608.257.931.4a8.883,8.883,0,0,0-1.934,4.256c-.178-.22-.357-.477-.5-.7,1.111,0,1.754-1.064,2.257-1.908a.541.541,0,0,1,.931.55c-.716,1.211-1.648,2.458-3.187,2.458a.538.538,0,0,1-.5-.7,9.893,9.893,0,0,1,2.184-4.733c.322-.4.9-.037.931.4.144,2.018-1.575,3.339-1.9,5.247-.286-.183-.608-.367-.894-.55a9.44,9.44,0,0,0,2.362-4.513C164.432,57.718,165.47,58.011,165.326,58.672Z" transform="translate(50.907 24.549)" fill="#111314"/>
    <path id="Path_1134" data-name="Path 1134" d="M154.3,58.547a4.051,4.051,0,0,0-7.34-1.358c-.393.587-1.324.037-.931-.55a5.113,5.113,0,0,1,9.274,1.614A.523.523,0,1,1,154.3,58.547Z" transform="translate(92.91 21.151)" fill="#111314"/>
    <path id="Path_1135" data-name="Path 1135" d="M170.5,55.941c-2.186-4.88-7.95-2.495-10.385.734-.43.55-1.36,0-.931-.55a9.11,9.11,0,0,1,6.338-4.073,5.852,5.852,0,0,1,5.908,3.339C171.719,56.015,170.788,56.565,170.5,55.941Z" transform="translate(50.101 18.805)" fill="#111314"/>
    <path id="Path_1136" data-name="Path 1136" d="M179.126,79.478c2.255-4.256-3.043-3.852-5.659-4.109a18.724,18.724,0,0,1-7.84-2.568c-2.579-1.5-4.225-3.852-6.482-5.687-.965-.807-2.4-1.724-3.722-.991-1.111.624-1.541,2.238-1.648,3.376a11.377,11.377,0,0,0,.86,5.1c1.719,4.733,4.941,8.659,9.7,10.273a12.858,12.858,0,0,0,14.789-5.394c.357-.587,1.29-.037.931.55a13.9,13.9,0,0,1-12.1,6.567,15.663,15.663,0,0,1-12.21-7.118c-2.257-3.449-5.263-10.823-1.326-14.052,2.186-1.8,4.834.22,6.445,1.834,2.579,2.6,5.014,4.88,8.522,6.091a19.7,19.7,0,0,0,5.837.991,8.4,8.4,0,0,1,3.9.7c2.113,1.174,1.969,3.082.931,4.99C179.734,80.652,178.8,80.1,179.126,79.478Z" transform="translate(54.119 31.848)" fill="#111314"/>
    <path id="Path_1137" data-name="Path 1137" d="M177.24,79.072A26.059,26.059,0,0,1,152.857,66.01a.541.541,0,0,1,.931-.55A24.9,24.9,0,0,0,177.24,77.971C177.921,77.935,177.921,79.035,177.24,79.072Z" transform="translate(56.611 32.325)" fill="#111314"/>
    <path id="Path_1138" data-name="Path 1138" d="M166.7,70.45a32.426,32.426,0,0,0,15.111,18.712c.608.33.071,1.284-.537.954a33.525,33.525,0,0,1-15.575-19.372A.522.522,0,0,1,166.7,70.45Z" transform="translate(26.156 37.353)" fill="#111314"/>
    <path id="Path_1139" data-name="Path 1139" d="M184.978,57.829a4.407,4.407,0,0,0-6.014-3.412c-2.65.954-4.118,3.6-4.477,6.311a13.045,13.045,0,0,0,1.541,8.109c1.395,2.458,4.546,4.733,7.125,2.385.5-.477,1.289.294.752.77-2.471,2.275-5.908,1.211-7.877-1.211a13.7,13.7,0,0,1-2.579-10.567c.574-3.376,2.757-6.531,6.23-7.155a5.394,5.394,0,0,1,6.338,4.439C186.089,58.232,185.051,58.526,184.978,57.829Z" transform="translate(6.8 19.778)" fill="#111314"/>
    <path id="Path_1140" data-name="Path 1140" d="M177.565,73.813c-.178.991-.322,3.009-1.754,3.889-1.5.917-3.654.11-5.263-.7-.073-.183-1.326-3.449-4.477-4a6.38,6.38,0,0,0-5.048,1.651,9.169,9.169,0,0,0-2.865,5.87,13.51,13.51,0,0,0,.574,6.384,9.621,9.621,0,0,0,1.9,3.779,6.931,6.931,0,0,0,2.506,2.018,6.425,6.425,0,0,0,5.012-.294,10.485,10.485,0,0,1,2.22,2.532s.073.11.144.22c1.109,1.908.144,6.127,0,8.475a12.575,12.575,0,0,0,1.253,6.017,16.2,16.2,0,0,1-10.886,1.027,13.664,13.664,0,0,1-10.669-15.3,12.541,12.541,0,0,1-3.116-4.33c-.286-.66-2.22-5.32-.286-7.375.789-.807,1.468-.477,2.113-1.174.86-.881,1.109-3.009-1.5-8.4a1.82,1.82,0,0,1-1.109-.33c-1-.844-.608-3.375,1.038-6.274-2.22-1.248-4.44-2.5-6.66-3.706a12.808,12.808,0,0,0,6.445-2.2c3.329-2.348,3.759-5.467,5.979-8.622,1.719-2.458,4.8-5.43,10.92-7.412a36.327,36.327,0,0,1-5.405-4.7c-1.5-1.614-4.8-5.5-4.118-6.347.464-.55,2.4.624,4.8,1.541,4.44,1.651,8.165,1.394,13.929.954,7.769-.624,8.595-2.018,15.074-2.825,4.262-.55,12.317-1.467,21.268,1.761a40.541,40.541,0,0,1,15.719,10.6,42.963,42.963,0,0,1,9.846,16.731c1.326,4.256,2.579,8.659.359,12.621a11.211,11.211,0,0,1-5.048,4.476,19.468,19.468,0,0,0-2.686-11.557c-4.152-6.567-11.565-8.072-17.007-9.172-4.333-.881-14.215-2.862-22.988,2.715C184.475,64.457,178.5,68.236,177.565,73.813Z" transform="translate(22.162 -0.095)" fill="#643d00"/>
    <path id="Path_1141" data-name="Path 1141" d="M179.206,78.862a12.034,12.034,0,0,1-2.972,3.669,13.1,13.1,0,0,1-4.619,2.385,14.2,14.2,0,0,1-8.88-.587,15.049,15.049,0,0,1-7.09-6.127,13.451,13.451,0,0,1-2.577-7.925,12.357,12.357,0,0,1,1.29-5.063c.357.367.858.917,1.468,1.578,2.076,2.275,3.4,4,3.83,4.55a21.689,21.689,0,0,0,7.806,5.54A23.88,23.88,0,0,0,179.206,78.862Z" transform="translate(54.573 32.353)" fill="#111314"/>
    <path id="Path_1142" data-name="Path 1142" d="M220.334,44.9a22.907,22.907,0,0,1,3.51,4.806,31.258,31.258,0,0,1,3.437,9.246,42.376,42.376,0,0,1,.9,12.658,2.927,2.927,0,0,1-1.9,2.642,2.459,2.459,0,0,1-1.612-.073,15.8,15.8,0,0,0-2.076-5.687,17.987,17.987,0,0,0-7.664-6.788,25.053,25.053,0,0,0-9.916-2.642,29.035,29.035,0,0,0-10.348.991,31.465,31.465,0,0,0-8.487,4.183c-3.473,2.238-3.974,3.376-7.2,4.806-3.581,1.614-5.766,1.5-6.482,1.431a8.53,8.53,0,0,1-5.048-1.8,8.236,8.236,0,0,1-2.613-4,43.089,43.089,0,0,0-7.484,4.256c-3.9,2.752-6.087,5.283-11.35,8.329-.9.514-1.683.917-2.149,1.174-.572-2.422-1.146-4.843-1.717-7.228.75-.55,1.861-1.358,3.258-2.348a112.6,112.6,0,0,1,12.962-8.4c1.287-.7,3.151-1.614,5.513-2.642a17.934,17.934,0,0,1,.107-9.686,12.018,12.018,0,0,1,3.331-5.8,9.75,9.75,0,0,1,3.437-1.981A63.973,63.973,0,0,1,189.291,36.9a65.316,65.316,0,0,1,20.553,2.348C214.963,40.756,217.972,42.48,220.334,44.9Z" transform="translate(27.623 3.243)" fill="#f7fafc"/>
    <path id="Path_1143" data-name="Path 1143" d="M203.108,63.271C200.6,49.256,181.7,45.624,170.774,50.687a77.573,77.573,0,0,0-8.629,4.916,27.238,27.238,0,0,1-7.733,3.816c-4.118,1.027-9.237-.293-10.707-4.77-.213-.66.825-.954,1.04-.293,1,3.082,4.3,4.476,7.269,4.366,3.329-.147,6.3-2.018,9.059-3.706,5.19-3.229,10.561-6.824,16.792-7.448,10.456-1.027,24.1,3.485,26.246,15.446C204.288,63.638,203.25,63.969,203.108,63.271Z" transform="translate(48.682 14.078)" fill="#111314"/>
    <path id="Path_1144" data-name="Path 1144" d="M203.987,73.5c.535-.11,1.073-.22,1.646-.33.107-.294.251-.587.359-.881a6.448,6.448,0,0,0,.286-1.174,21.082,21.082,0,0,0,.215-2.605,48.713,48.713,0,0,0-.18-5.1,29.7,29.7,0,0,0-2.433-10.567c-2.83-6.127-8.558-10.236-14.681-12.438-6.768-2.421-14.144-2.935-21.268-2.752-6.839.183-14.537.807-20.482,4.586-3.937,2.495-4.4,7.264-4.511,11.667A36.493,36.493,0,0,0,144.8,66.346c.215.66-.825.954-1.04.294a36.66,36.66,0,0,1-1.9-12.731c.107-3.522.322-8.145,2.83-10.824,2.54-2.752,6.658-4.109,10.168-4.953a64.76,64.76,0,0,1,12.747-1.541c15.074-.514,34.8,3.045,38.885,20.656a39.437,39.437,0,0,1,.931,13.428c-.178,1.358-.537,3.155-1.683,4.036a1.714,1.714,0,0,1-2.686-.624C202.768,73.427,203.7,72.877,203.987,73.5Z" transform="translate(48.88 2.896)" fill="#111314"/>
    <path id="Path_1145" data-name="Path 1145" d="M202.731,64.252a25.322,25.322,0,0,0-19.693-18.125,27.514,27.514,0,0,0-15.074,1.614c-4.941,1.945-8.522,5.32-12.39,8.916-3.473,3.265-8.163,6.091-12.889,3.852-.608-.293-.071-1.247.537-.954,5.943,2.825,10.92-3.155,14.787-6.788a30.564,30.564,0,0,1,12.317-7.008,27.084,27.084,0,0,1,25.638,5.614,25.842,25.842,0,0,1,7.769,12.585A.522.522,0,1,1,202.731,64.252Z" transform="translate(51.6 11.227)" fill="#111314"/>
    <path id="Path_1146" data-name="Path 1146" d="M195.052,51.08c-7.2,4.476-14.215,9.246-21.088,14.2-.574.4-1.111-.55-.537-.954q10.31-7.485,21.088-14.2C195.088,49.76,195.626,50.714,195.052,51.08Z" transform="translate(-2.306 16.767)" fill="#111314"/>
    <path id="Path_1147" data-name="Path 1147" d="M195.8,47.714a224.332,224.332,0,0,0-21.2,13.759c-.572.4-1.109-.55-.537-.954a228.847,228.847,0,0,1,21.2-13.759C195.873,46.393,196.41,47.347,195.8,47.714Z" transform="translate(-4.382 13.308)" fill="#111314"/>
    <path id="Path_1148" data-name="Path 1148" d="M184.61,53.821a37.516,37.516,0,0,1,1.541,7.154c.071.7-1,.7-1.075,0a32.173,32.173,0,0,0-1.5-6.861C183.357,53.454,184.395,53.16,184.61,53.821Z" transform="translate(-14.171 20.265)" fill="#111314"/>
    <path id="Path_1149" data-name="Path 1149" d="M169.509,54.508c-5.8-5.687-11.636-11.3-17.544-16.914-.5-.477.249-1.248.75-.77,5.874,5.577,11.745,11.227,17.546,16.914C170.762,54.215,170.01,54.985,169.509,54.508Z" transform="translate(65.917 3.03)" fill="#111314"/>
    <path id="Path_1150" data-name="Path 1150" d="M174.812,54.288q-7.84-7.98-15.683-16c-.5-.514.286-1.284.752-.77q7.84,7.98,15.683,16C176.065,54.031,175.313,54.8,174.812,54.288Z" transform="translate(46.077 3.726)" fill="#111314"/>
    <path id="Path_1151" data-name="Path 1151" d="M214.366,53.982c.178-1.468.357-2.9.537-4.366a25.5,25.5,0,0,0-8.165-3.816c-7.913-2.091-14.574.477-17.617,1.651a23.992,23.992,0,0,0-7.84,4.366c-2.184,1.908-2.149,2.715-4.8,4.916-2.435,2.055-4.8,3.963-7.84,3.816a7.645,7.645,0,0,1-4.081-1.467c-.789-1.137-1.541-2.312-2.328-3.449-.823.11-5.981.917-8.343,5.283a30.345,30.345,0,0,0-1.075,3.265c-1.468,4.293-1.861,4.4-2.147,5.834-.073.33-.825,4.99,2.325,8.035a8.583,8.583,0,0,0,6.411,2.2,22.436,22.436,0,0,1,1.253,7.118c0,2.532.034,5.614-1.971,8.365-.716.991-2.328,3.229-5.156,3.449-3.4.257-5.657-2.642-5.872-2.9,4.726.917,9.489,1.834,14.215,2.715a33.276,33.276,0,0,1-1.075,8.916c-1.287,4.99-3.151,7.155-3.007,11.3a14.287,14.287,0,0,0,1.612,6.017c2.184-6.274,4.4-12.511,6.587-18.785,2.364,1.871,4.726,3.779,7.125,5.65-.931-2.055-1.9-4.146-2.828-6.2a59.414,59.414,0,0,1-1.431-13.649c.071-5.173,1.431-10.31,4.081-20.583,1.612-6.164,2.721-9.466,5.693-12.218a27.734,27.734,0,0,1,4.619-3.082c5.263-3.118,7.877-4.7,11.028-5.467,6.553-1.578,12.354.22,15.111,1.1A27.459,27.459,0,0,1,214.366,53.982Z" transform="translate(29.833 11.591)" fill="#636e72" opacity="0.15"/>
    <path id="Path_1152" data-name="Path 1152" d="M154.947,57.595a114.816,114.816,0,0,1,1.969,11.667c.251,2.348.43,4.586.537,6.751l-4.619,1.1C153.55,70.62,154.231,64.125,154.947,57.595Z" transform="translate(76.791 24.524)" fill="#636e72" opacity="0.13"/>
    <path id="Path_1153" data-name="Path 1153" d="M167.664,60.092c.464,2.6,1.075,5.32,1.861,8.145a89.27,89.27,0,0,0,15.289,30.2c-.716-.33-12.461-6.054-16.22-14.713a16.375,16.375,0,0,1-1.861-6.861c-.073-3.449,1.18-4.77.322-7.338-.86-2.458-2.542-2.788-2.65-4.623C164.3,62.954,166.088,61.266,167.664,60.092Z" transform="translate(25.978 27.091)" fill="#636e72" opacity="0.09"/>
    <path id="Path_1154" data-name="Path 1154" d="M193.137,50.228c.215,1.578-1.539,3.008-2.435,3.742-5.012,4.146-9.56.477-18.4,2.311-7.484,1.578-8.915,5.21-16.65,5.32a27.253,27.253,0,0,1-6.409-.7,16.889,16.889,0,0,0,4.333-1.614,19.488,19.488,0,0,0,5.371-4.256,37.785,37.785,0,0,1,14.215-9.062C181.931,43.147,192.637,46.669,193.137,50.228Z" transform="translate(48.375 11.528)" fill="#636e72" opacity="0.1"/>
  </g>
</svg>
