<svg xmlns="http://www.w3.org/2000/svg" width="24" height="26.467" viewBox="0 0 24 26.467">
  <path id="Icon_simple-email" data-name="Icon simple-email" d="M25.654,12.215a13.649,13.649,0,0,1-.44,2.96,8.567,8.567,0,0,1-1.151,2.6,6.074,6.074,0,0,1-1.952,1.847,5.508,5.508,0,0,1-2.85.7,4.131,4.131,0,0,1-2.061-.5,3.529,3.529,0,0,1-1.393-1.427,4.414,4.414,0,0,1-3.734,1.875,3.8,3.8,0,0,1-3.26-1.753A5.739,5.739,0,0,1,8,16.486,8.759,8.759,0,0,1,7.9,13.836a12.307,12.307,0,0,1,.807-3.245A8.82,8.82,0,0,1,10.2,8.106a6.311,6.311,0,0,1,2.051-1.584,5.722,5.722,0,0,1,2.494-.554,7.755,7.755,0,0,1,1.492.127,6.106,6.106,0,0,1,1.158.347,6.26,6.26,0,0,1,.959.506c.293.189.587.384.88.582l-.724,8.335a2.771,2.771,0,0,0,.021.976,1.365,1.365,0,0,0,.3.6,1.072,1.072,0,0,0,.483.314,1.793,1.793,0,0,0,1.7-.334,3.616,3.616,0,0,0,.91-1.158,7.456,7.456,0,0,0,.612-1.74,11.938,11.938,0,0,0,.268-2.167,13.846,13.846,0,0,0-.341-4.049,8.048,8.048,0,0,0-1.5-3.132,6.958,6.958,0,0,0-2.686-2.018,9.748,9.748,0,0,0-3.913-.716,8.64,8.64,0,0,0-3.87.843A8.88,8.88,0,0,0,7.546,5.626,11.223,11.223,0,0,0,5.621,9.144a15.853,15.853,0,0,0-.81,4.383A14.574,14.574,0,0,0,5.224,18,8.077,8.077,0,0,0,6.858,21.2a6.819,6.819,0,0,0,2.769,1.925,10.62,10.62,0,0,0,3.82.638,13.085,13.085,0,0,0,2.507-.27c.413-.083.805-.182,1.179-.291a8.875,8.875,0,0,0,1.015-.364l.524,2.358a5.82,5.82,0,0,1-1.136.562,10.936,10.936,0,0,1-1.343.389,13.1,13.1,0,0,1-2.8.314,14.709,14.709,0,0,1-5.114-.824,9.412,9.412,0,0,1-3.728-2.451A10.294,10.294,0,0,1,2.31,19.145a17.263,17.263,0,0,1-.625-5.618A17.134,17.134,0,0,1,2.759,8.135a13.343,13.343,0,0,1,2.59-4.283A11.8,11.8,0,0,1,9.3,1.025,12.37,12.37,0,0,1,14.417,0a12.915,12.915,0,0,1,4.958.888,9.644,9.644,0,0,1,3.579,2.5,10.249,10.249,0,0,1,2.124,3.858A14.753,14.753,0,0,1,25.654,12.215Zm-14.2,1.621a5.626,5.626,0,0,0,.291,2.79,1.5,1.5,0,0,0,1.439.943,1.589,1.589,0,0,0,.493-.091,1.758,1.758,0,0,0,.567-.341,3.027,3.027,0,0,0,.576-.695,5.331,5.331,0,0,0,.529-1.174l.566-6.476a3.379,3.379,0,0,0-.88-.116,3.042,3.042,0,0,0-1.464.336A2.9,2.9,0,0,0,12.53,10a5.788,5.788,0,0,0-.688,1.621,13.749,13.749,0,0,0-.39,2.216Z" transform="translate(-1.67)"/>
</svg>
