<svg xmlns="http://www.w3.org/2000/svg" width="31.5" height="36" viewBox="0 0 31.5 36">
  <path id="Icon_awesome-calculator" data-name="Icon awesome-calculator" d="M28.125,0H3.375A3.46,3.46,0,0,0,0,3.375v29.25A3.46,3.46,0,0,0,3.375,36h24.75A3.46,3.46,0,0,0,31.5,32.625V3.375A3.46,3.46,0,0,0,28.125,0ZM9,30.6a.968.968,0,0,1-.9.9H5.4a.968.968,0,0,1-.9-.9V27.9a.968.968,0,0,1,.9-.9H8.1a.968.968,0,0,1,.9.9Zm0-9a.968.968,0,0,1-.9.9H5.4a.968.968,0,0,1-.9-.9V18.9a.968.968,0,0,1,.9-.9H8.1a.968.968,0,0,1,.9.9Zm9,9a.968.968,0,0,1-.9.9H14.4a.968.968,0,0,1-.9-.9V27.9a.968.968,0,0,1,.9-.9h2.7a.968.968,0,0,1,.9.9Zm0-9a.968.968,0,0,1-.9.9H14.4a.968.968,0,0,1-.9-.9V18.9a.968.968,0,0,1,.9-.9h2.7a.968.968,0,0,1,.9.9Zm9,9a.968.968,0,0,1-.9.9H23.4a.968.968,0,0,1-.9-.9V18.9a.968.968,0,0,1,.9-.9h2.7a.968.968,0,0,1,.9.9V30.6Zm0-18a.968.968,0,0,1-.9.9H5.4a.968.968,0,0,1-.9-.9V5.4a.968.968,0,0,1,.9-.9H26.1a.968.968,0,0,1,.9.9Z" fill="#fff"/>
</svg>
