<svg xmlns="http://www.w3.org/2000/svg" width="33.816" height="30.177" viewBox="0 0 33.816 30.177">
  <g id="icon-saved-order" transform="translate(1 -2.958)">
    <path id="Path_666" data-name="Path 666" d="M6.535,31.177H31.281a3.351,3.351,0,0,0,3.535-3.131V12.124A2.961,2.961,0,0,0,33.78,9.91L27.013,3.917A3.78,3.78,0,0,0,24.514,3H6.535A3.351,3.351,0,0,0,3,6.131V28.046A3.351,3.351,0,0,0,6.535,31.177Z" transform="translate(-3 0.958)" fill="none" stroke="#2f2f2f" stroke-linecap="round" stroke-linejoin="round" stroke-width="2"/>
    <path id="Path_667" data-name="Path 667" d="M7,3V9.774H17.838V3" transform="translate(1.393 0.958)" fill="none" stroke="#000" stroke-linecap="round" stroke-linejoin="round" stroke-width="2"/>
    <ellipse id="Ellipse_48" data-name="Ellipse 48" cx="5.383" cy="5.383" rx="5.383" ry="5.383" transform="translate(9.801 15.932)" fill="none" stroke="#000" stroke-linecap="round" stroke-linejoin="round" stroke-width="2"/>
  </g>
</svg>
