<svg xmlns="http://www.w3.org/2000/svg" width="39.851" height="39.851" viewBox="0 0 39.851 39.851">
  <path id="Icon_material-local-phone" data-name="Icon material-local-phone" d="M12.514,21.746A33.538,33.538,0,0,0,27.1,36.336l4.871-4.871a2.2,2.2,0,0,1,2.258-.531,25.254,25.254,0,0,0,7.9,1.262,2.22,2.22,0,0,1,2.214,2.214v7.727a2.22,2.22,0,0,1-2.214,2.214A37.633,37.633,0,0,1,4.5,6.714,2.22,2.22,0,0,1,6.714,4.5h7.749a2.22,2.22,0,0,1,2.214,2.214,25.151,25.151,0,0,0,1.262,7.9,2.222,2.222,0,0,1-.553,2.258l-4.871,4.871Z" transform="translate(-4.5 -4.5)" fill="#9a9a9a"/>
</svg>
