<svg xmlns="http://www.w3.org/2000/svg" width="32.765" height="38.722" viewBox="0 0 32.765 38.722">
  <path id="Icon_ionic-md-notifications-outline" data-name="Icon ionic-md-notifications-outline" d="M22.1,10.121a13.456,13.456,0,0,1,2.226.417,9.486,9.486,0,0,1,7.23,9.294V31.71l.868.872.725.728H10.866l.725-.728.868-.872V19.832a9.486,9.486,0,0,1,7.23-9.294,16.478,16.478,0,0,1,2.226-.417m.093-6.746a2.846,2.846,0,0,0-2.891,2.9V7.634a12.549,12.549,0,0,0-9.637,12.2V30.481L5.625,34.353v1.936H38.39V34.353l-3.855-3.872V19.832A12.549,12.549,0,0,0,24.9,7.634V6.279a2.846,2.846,0,0,0-2.891-2.9Zm3.855,34.85H18.153a3.855,3.855,0,1,0,7.709,0Z" transform="translate(-5.625 -3.375)"/>
</svg>
