<svg xmlns="http://www.w3.org/2000/svg" width="34.997" height="34.998" viewBox="0 0 34.997 34.998">
  <g id="whatsapp" transform="translate(0 0)">
    <path id="Path_704" data-name="Path 704" d="M22.79,17.952l-.013.109c-3.207-1.6-3.542-1.811-3.956-1.19-.287.43-1.124,1.406-1.377,1.694s-.509.306-.942.109A11.835,11.835,0,0,1,13,16.51a13.23,13.23,0,0,1-2.421-3.018c-.427-.738.467-.843,1.28-2.383a.8.8,0,0,0-.036-.764c-.109-.219-.98-2.362-1.344-3.217s-.71-.744-.98-.744a2.17,2.17,0,0,0-1.995.5c-2.354,2.587-1.76,5.255.254,8.093,3.958,5.18,6.066,6.133,9.922,7.457a6.033,6.033,0,0,0,2.741.176c.837-.133,2.577-1.051,2.94-2.079a3.61,3.61,0,0,0,.262-2.078c-.108-.2-.394-.306-.831-.5Z" transform="translate(2.738 2.911)" fill="#293146"/>
    <path id="Path_705" data-name="Path 705" d="M29.922,5.03C18.71-5.809.155,2.052.147,17.343a17.259,17.259,0,0,0,2.326,8.669L0,35l9.238-2.409C20.765,38.815,34.991,30.547,35,17.351A17.2,17.2,0,0,0,29.9,5.086ZM32.084,17.3A14.518,14.518,0,0,1,10.193,29.7l-.525-.312L4.2,30.814,5.665,25.5l-.349-.547A14.463,14.463,0,0,1,27.842,7.11,14.273,14.273,0,0,1,32.084,17.3Z" transform="translate(0 0)" fill="#293146"/>
  </g>
</svg>
