<svg xmlns="http://www.w3.org/2000/svg" width="30.249" height="30.249" viewBox="0 0 30.249 30.249">
  <path id="Icon_awesome-arrow-alt-circle-right" data-name="Icon awesome-arrow-alt-circle-right" d="M15.687.563A15.125,15.125,0,1,1,.563,15.687,15.122,15.122,0,0,1,15.687.563ZM8.613,18.371h7.074v4.324a.732.732,0,0,0,1.25.518l6.971-7.007a.725.725,0,0,0,0-1.031L16.937,8.161a.732.732,0,0,0-1.25.518V13H8.613a.734.734,0,0,0-.732.732v3.9A.734.734,0,0,0,8.613,18.371Z" transform="translate(-0.563 -0.563)" fill="#011b60"/>
</svg>
