<svg xmlns="http://www.w3.org/2000/svg" width="26.365" height="30.132" viewBox="0 0 26.365 30.132">
  <path id="icon-branch" d="M25.659,28.248H24.482V1.412A1.412,1.412,0,0,0,23.07,0H3.3A1.412,1.412,0,0,0,1.883,1.412V28.248H.706A.706.706,0,0,0,0,28.955v1.177H26.365V28.955A.706.706,0,0,0,25.659,28.248ZM7.533,4.473a.706.706,0,0,1,.706-.706h2.354a.706.706,0,0,1,.706.706V6.827a.706.706,0,0,1-.706.706H8.239a.706.706,0,0,1-.706-.706Zm0,5.65a.706.706,0,0,1,.706-.706h2.354a.706.706,0,0,1,.706.706v2.354a.706.706,0,0,1-.706.706H8.239a.706.706,0,0,1-.706-.706Zm3.06,8.71H8.239a.706.706,0,0,1-.706-.706V15.772a.706.706,0,0,1,.706-.706h2.354a.706.706,0,0,1,.706.706v2.354A.706.706,0,0,1,10.593,18.832Zm4.473,9.416H11.3V23.3a.706.706,0,0,1,.706-.706H14.36a.706.706,0,0,1,.706.706Zm3.766-10.122a.706.706,0,0,1-.706.706H15.772a.706.706,0,0,1-.706-.706V15.772a.706.706,0,0,1,.706-.706h2.354a.706.706,0,0,1,.706.706Zm0-5.65a.706.706,0,0,1-.706.706H15.772a.706.706,0,0,1-.706-.706V10.122a.706.706,0,0,1,.706-.706h2.354a.706.706,0,0,1,.706.706Zm0-5.65a.706.706,0,0,1-.706.706H15.772a.706.706,0,0,1-.706-.706V4.473a.706.706,0,0,1,.706-.706h2.354a.706.706,0,0,1,.706.706Z"/>
</svg>
