<svg xmlns="http://www.w3.org/2000/svg" width="68.557" height="68.103" viewBox="0 0 68.557 68.103">
  <g id="svg3" transform="translate(0 2.229)">
    <path id="Path_4164" data-name="Path 4164" d="M0,32.937c0,24.7,7.478,32.937,29.878,32.937s29.878-8.236,29.878-32.937S52.29,0,29.878,0,0,8.236,0,32.937Z" transform="translate(8.801 -2.229)" fill="#b2bbff"/>
    <path id="Path_4130" data-name="Path 4130" d="M0,32.937c0,24.7,7.478,32.937,29.878,32.937s29.878-8.236,29.878-32.937S52.29,0,29.878,0,0,8.236,0,32.937Z" fill="#105ffb"/>
    <path id="Path_4127" data-name="Path 4127" d="M25.709.5H0" transform="translate(16.971 45.598)" fill="rgba(0,0,0,0)" stroke="#fff" stroke-linecap="round" stroke-linejoin="round" stroke-miterlimit="10" stroke-width="2.5"/>
    <path id="Path_4128" data-name="Path 4128" d="M25.709.5H0" transform="translate(16.971 32.209)" fill="rgba(0,0,0,0)" stroke="#fff" stroke-linecap="round" stroke-linejoin="round" stroke-miterlimit="10" stroke-width="2.5"/>
    <path id="Path_4129" data-name="Path 4129" d="M9.81.5H0" transform="translate(16.971 18.824)" fill="rgba(0,0,0,0)" stroke="#fff" stroke-linecap="round" stroke-linejoin="round" stroke-miterlimit="10" stroke-width="2.5"/>
  </g>
</svg>
