<svg xmlns="http://www.w3.org/2000/svg" width="60.84" height="60.84" viewBox="0 0 60.84 60.84">
  <g id="instagram_1_" data-name="instagram (1)" transform="translate(-35 -45)">
    <path id="Path_695" data-name="Path 695" d="M219.944,213.472A6.472,6.472,0,1,1,213.472,207,6.472,6.472,0,0,1,219.944,213.472Zm0,0" transform="translate(-148.052 -138.052)" fill="#a3a3a3"/>
    <path id="Path_696" data-name="Path 696" d="M163.422,139.507a5.784,5.784,0,0,0-3.315-3.315,9.664,9.664,0,0,0-3.243-.6c-1.842-.084-2.395-.1-7.059-.1s-5.217.018-7.059.1a9.67,9.67,0,0,0-3.243.6,5.787,5.787,0,0,0-3.316,3.315,9.668,9.668,0,0,0-.6,3.244c-.084,1.842-.1,2.394-.1,7.059s.018,5.216.1,7.059a9.664,9.664,0,0,0,.6,3.243,5.784,5.784,0,0,0,3.315,3.315,9.653,9.653,0,0,0,3.244.6c1.842.084,2.394.1,7.058.1s5.217-.018,7.059-.1a9.653,9.653,0,0,0,3.244-.6,5.785,5.785,0,0,0,3.315-3.315,9.673,9.673,0,0,0,.6-3.243c.084-1.842.1-2.395.1-7.059s-.018-5.217-.1-7.059A9.653,9.653,0,0,0,163.422,139.507Zm-13.617,19.272a8.97,8.97,0,1,1,8.97-8.97A8.97,8.97,0,0,1,149.805,158.778Zm9.324-16.2a2.1,2.1,0,1,1,2.1-2.1A2.1,2.1,0,0,1,159.129,142.58Zm0,0" transform="translate(-84.385 -74.388)" fill="#a3a3a3"/>
    <path id="Path_697" data-name="Path 697" d="M30.42,0A30.42,30.42,0,1,0,60.84,30.42,30.423,30.423,0,0,0,30.42,0ZM47.783,37.622a12.816,12.816,0,0,1-.812,4.24,8.932,8.932,0,0,1-5.109,5.109,12.825,12.825,0,0,1-4.24.812c-1.863.085-2.458.105-7.2.105s-5.339-.02-7.2-.105a12.825,12.825,0,0,1-4.24-.812,8.932,8.932,0,0,1-5.109-5.109,12.813,12.813,0,0,1-.812-4.24c-.086-1.863-.106-2.458-.106-7.2s.02-5.339.105-7.2a12.817,12.817,0,0,1,.811-4.24,8.938,8.938,0,0,1,5.109-5.109,12.828,12.828,0,0,1,4.24-.812c1.863-.085,2.458-.105,7.2-.105s5.339.02,7.2.106a12.83,12.83,0,0,1,4.24.811,8.934,8.934,0,0,1,5.109,5.109,12.815,12.815,0,0,1,.812,4.24c.085,1.863.1,2.458.1,7.2S47.868,35.759,47.783,37.622Zm0,0" transform="translate(35 45)" fill="#a3a3a3"/>
  </g>
</svg>
