<svg xmlns="http://www.w3.org/2000/svg" xmlns:xlink="http://www.w3.org/1999/xlink" viewBox="0 0 2560 1600"><defs><style>.cls-1{fill:none;}.cls-2{isolation:isolate;}.cls-3{clip-path:url(#clip-path);}.cls-4{fill:#293146;}.cls-5{opacity:0.26;mix-blend-mode:luminosity;}.cls-6{fill:url(#linear-gradient);}.cls-7{fill:url(#linear-gradient-2);}.cls-8{fill:url(#linear-gradient-3);}.cls-9{fill:url(#linear-gradient-4);}.cls-10{fill:url(#linear-gradient-5);}.cls-11{fill:url(#linear-gradient-6);}.cls-12{fill:url(#linear-gradient-7);}.cls-13{fill:url(#linear-gradient-8);}.cls-14{fill:url(#linear-gradient-9);}.cls-15{fill:url(#linear-gradient-10);}.cls-16{fill:url(#linear-gradient-11);}.cls-17{fill:url(#linear-gradient-12);}.cls-18{fill:url(#linear-gradient-13);}.cls-19{fill:url(#linear-gradient-14);}.cls-20{fill:url(#linear-gradient-15);}.cls-21{fill:url(#linear-gradient-16);}.cls-22{fill:url(#linear-gradient-17);}.cls-23{fill:url(#linear-gradient-18);}.cls-24{fill:url(#linear-gradient-19);}.cls-25{fill:url(#linear-gradient-20);}.cls-26{fill:url(#linear-gradient-21);}.cls-27{fill:url(#linear-gradient-22);}.cls-28{fill:#303c47;mix-blend-mode:hard-light;}</style><clipPath id="clip-path"><rect class="cls-1" y="-0.2" width="2560" height="1600.2"/></clipPath><linearGradient id="linear-gradient" x1="60.15" y1="-715.41" x2="126.3" y2="-600.82" gradientTransform="translate(0 756)" gradientUnits="userSpaceOnUse"><stop offset="0" stop-color="#ff5400"/><stop offset="1" stop-color="#6a20c1"/></linearGradient><linearGradient id="linear-gradient-2" x1="176.34" y1="-664.41" x2="337.16" y2="-385.87" gradientTransform="translate(0 756)" gradientUnits="userSpaceOnUse"><stop offset="0" stop-color="#ff9c00"/><stop offset="1" stop-color="#ff5400"/></linearGradient><linearGradient id="linear-gradient-3" x1="1979.43" y1="348.91" x2="2383.87" y2="1049.42" xlink:href="#linear-gradient-2"/><linearGradient id="linear-gradient-4" x1="1864.77" y1="151.26" x2="2302.96" y2="910.23" xlink:href="#linear-gradient"/><linearGradient id="linear-gradient-5" x1="2139.09" y1="-96.05" x2="2458.78" y2="457.67" xlink:href="#linear-gradient"/><linearGradient id="linear-gradient-6" x1="1825.42" y1="-727.57" x2="2430.28" y2="320.08" gradientTransform="translate(0 756)" gradientUnits="userSpaceOnUse"><stop offset="0" stop-color="#0087ff"/><stop offset="0.16" stop-color="#0681fc"/><stop offset="0.38" stop-color="#1672f2"/><stop offset="0.62" stop-color="#3157e2"/><stop offset="0.88" stop-color="#5633cd"/><stop offset="1" stop-color="#6a20c1"/></linearGradient><linearGradient id="linear-gradient-7" x1="2047.38" y1="-742.27" x2="2486.57" y2="18.43" xlink:href="#linear-gradient-2"/><linearGradient id="linear-gradient-8" x1="2462.44" y1="-766.62" x2="2624.81" y2="-485.39" xlink:href="#linear-gradient-2"/><linearGradient id="linear-gradient-9" x1="2271.86" y1="-621.69" x2="2486.83" y2="-249.35" xlink:href="#linear-gradient"/><linearGradient id="linear-gradient-10" x1="2068.43" y1="540.16" x2="2313.12" y2="963.96" xlink:href="#linear-gradient"/><linearGradient id="linear-gradient-11" x1="1381.84" y1="-588.69" x2="2155.99" y2="752.19" xlink:href="#linear-gradient-6"/><linearGradient id="linear-gradient-12" x1="1075.44" y1="-607.5" x2="1906.01" y2="831.08" xlink:href="#linear-gradient-2"/><linearGradient id="linear-gradient-13" x1="1234.39" y1="-630.37" x2="1854.15" y2="443.07" xlink:href="#linear-gradient"/><linearGradient id="linear-gradient-14" x1="942.52" y1="196.6" x2="1410.14" y2="1006.54" xlink:href="#linear-gradient-6"/><linearGradient id="linear-gradient-15" x1="1083.19" y1="-244.04" x2="1436.91" y2="368.64" xlink:href="#linear-gradient-6"/><linearGradient id="linear-gradient-16" x1="717.46" y1="669.79" x2="992.5" y2="1146.17" xlink:href="#linear-gradient"/><linearGradient id="linear-gradient-17" x1="430.12" y1="-394.14" x2="876.03" y2="378.2" xlink:href="#linear-gradient"/><linearGradient id="linear-gradient-18" x1="344.06" y1="-442.91" x2="700.79" y2="174.96" xlink:href="#linear-gradient-2"/><linearGradient id="linear-gradient-19" x1="391.6" y1="556.82" x2="566.59" y2="859.92" xlink:href="#linear-gradient-2"/><linearGradient id="linear-gradient-20" x1="291.65" y1="-459.08" x2="551.61" y2="-8.81" xlink:href="#linear-gradient-6"/><linearGradient id="linear-gradient-21" x1="680.67" y1="541.08" x2="731.66" y2="629.38" xlink:href="#linear-gradient"/><linearGradient id="linear-gradient-22" x1="325.01" y1="-552.4" x2="461.58" y2="-315.84" xlink:href="#linear-gradient"/></defs><g class="cls-2"><g id="Layer_1" data-name="Layer 1"><g class="cls-3"><rect class="cls-4" y="-0.2" width="2560" height="1600.2"/><g class="cls-5"><path class="cls-6" d="M130.8-.2H205c-3.1,6-6.3,11.9-9.8,17.7-9.1,15.3-20,30.3-35.4,39.4C142.4,67.2,121,68.9,103.4,79c-22,12.6-34.9,36.5-44.5,59.9s-17.5,48.3-33.8,67.7A103.63,103.63,0,0,1,0,228.1V159.3c16-15.4,29.2-32.9,35.5-54.2,4-13.3,5.1-27.8,12.2-39.8,10.5-17.7,31.4-25.9,49-36.6A145.34,145.34,0,0,0,130.8-.2Z"/><path class="cls-7" d="M531.9-.2c19.8,62,8,134.8-25,192.4-13.2,23-30,44.8-52.9,58.3-26.2,15.4-57.5,18.4-86.6,26.9a233.46,233.46,0,0,0-122,85.5c-21.5,29.3-36.1,63.7-61.5,89.6A142.72,142.72,0,0,1,122,489.7c-39.3,11.7-80.8,6.1-122,4.2V349.7c43.6-15.3,80.8-48.3,100.8-90,10.8-22.6,17.2-48.1,34.1-66.6,26.6-29,70.4-32.3,106.5-47.9a158.49,158.49,0,0,0,86-93.4A153.88,153.88,0,0,0,335.5-.3H531.9Z"/><path class="cls-8" d="M2557.8,1590.7V1705H2436.5c2.6-8.1,3.3-16.7,3.3-25.2a171.24,171.24,0,0,0-51.7-122.3c-36.7-35.5-90.5-55.9-112-102.3-6.6-14.4-9.5-30.2-12.7-45.8q-6-30.3-13.8-60.1c-7.9-30.5-17.2-61-33.8-87.7s-41.4-49.6-71.6-58.1-66.1-.4-85.6,24.2c-25,31.6-17.1,78.5,1.4,114.3,10.9,21.3,25.1,41,37.6,61.4,8.6,14,16.3,28.3,21.7,43.8a154.49,154.49,0,0,1,7.3,72.6c-3.9,28.4-15.7,55.5-18,84.1-2.9,34.7,8,71.7,28.5,101.1H2028c-14.8-31-21.2-66.1-17.4-100.3,3.9-35.1,12.6-65.5,8.9-101.6-4-38.9-15.1-76.9-27.6-113.8-22.7-66.9-50.2-134.6-47.5-205.3,3.1-82.3,75.4-120.3,149.2-85.1,31,14.8,56.4,39.3,78.8,65.4,35.8,41.7,65.1,88.5,90.8,137,25,47.3,41.4,103.3,76.1,144.6C2395.8,1513,2489.9,1535.2,2557.8,1590.7Z"/><path class="cls-9" d="M2557.8,1223.7v295.4a141.38,141.38,0,0,0-15.1-7.5c-82.5-35.2-163.7-79.5-218.9-152.1-51.8-68.1-76.2-151.8-118.9-225.2-50.6-86.9-133.4-133-234.5-130-58.7,1.8-105.2,28.9-118.3,89.4-16.2,74.8,17.7,153.7,45.2,221.7,38.1,94.2,72.4,184.1,74.9,281.4,1,37.4-7.7,74-12.6,108.2H1815c17.1-108.2,20.8-219-.8-325.5-13.6-67.6-48.9-125.6-78-187.2-33.1-70.2-42.2-145.7,15.4-206,10.3-10.8,21.5-20.9,32.5-31.1,51.9-36.6,115.6-55.4,179.3-58.6,70.5-3.6,141,11,207.6,34.4,60,21.1,118.7,50.3,162.9,96,28.3,29.3,49.7,64.5,76.5,95.3C2449.9,1167.9,2501.3,1202.7,2557.8,1223.7Z"/><path class="cls-10" d="M2557.8,1002.3v154.2a561.52,561.52,0,0,1-111.5-94.2c-33-36.2-61.5-76.7-98.9-108.3a286.76,286.76,0,0,0-97.6-53.9c-42.9-13.6-88.5-16.8-132.3-27.1s-88.3-29.6-114.2-66.4c-11.5-16.3-18.7-35.1-24-54.4,45.4,95.9,145.7,98.6,243.8,103.1C2346.1,861,2475.1,909.2,2557.8,1002.3Z"/><path class="cls-11" d="M1979.2,752.1c-2.6-5.5-5-11.2-7.2-17.3-31.5-86.5-17.3-183.9-55.7-268.4-27.8-61.3-67.3-118.9-84.5-183.4-16.8-63.1-3.4-133.6,11.9-195.7,7.4-29.9,17.3-60,31.3-87.5h112c-3.7,17.4-8,34.8-12.7,52-11.3,40.7-19.8,74.8-13.3,117.7,9.9,65.1,43.3,124.1,80,178.7,17.4,25.9,36,52.1,43.1,82.5,8,34.3.4,70-4.8,104.9-8.8,59-9.3,123.8,24.8,172.7,24.8,35.7,65.1,58,106.8,70.2s85.4,15.4,128.5,20.2a1623.24,1623.24,0,0,1,218.5,39.9v163.8c-82.7-93-211.7-141.3-334.8-147C2124.9,850.7,2024.6,848,1979.2,752.1Z"/><path class="cls-12" d="M2557.8,494V733.3a213.76,213.76,0,0,1-63.1,18.8c-48.3,6.8-97.1,2.2-144.8-6.3-56.5-10-113.2-12.3-149-63.8-53.1-76.4-44.6-174.7-41.9-262.8,1.9-64.9-4-132.8-27.1-194-22.7-60.1-71.8-116.1-68.6-183.2.1-1.3.1-2.6.2-4a142.93,142.93,0,0,1,8-38.2h194.6c-23.2,23.1-40,53.5-46.1,85.3a220.18,220.18,0,0,0-3.5,51.9c2.9,53.3,25.4,103.4,37.3,155.5,6.4,28,9.8,56.9,7.5,85.5-4.6,57.6-30.4,112.2-11.4,170.2,25.3,77.4,117.8,116.6,191.2,83.7C2496.3,607.1,2537.8,552.4,2557.8,494Z"/><path class="cls-13" d="M2557.8-.2V309.3c-18.3-66.3-50.3-129.2-71.8-197-12.4-39.1-15.4-79.7-41.6-112.5Z"/><path class="cls-14" d="M2476,341.6c11.5,41.1,19.8,85,8.9,126.3s-45.8,79-88.5,80.4c-36.5,1.3-71.8-26.7-78.8-62.5-3.6-18.3-.5-37.2,1.4-55.8a443.05,443.05,0,0,0-3.8-119.5c-9.8-58.2-48.6-184,28.6-217.1,84.8-36.4,99.9,70.2,103.1,123.8C2449.5,259.7,2464.4,300.5,2476,341.6Zm-49.9,29.3c3.9-14.8,1-30.4-3.2-45.1s-9.5-29.2-10.4-44.5c-1.1-19.1-6.5-57.2-36.8-44.2-27.6,11.8-13.7,56.8-10.2,77.6a155.93,155.93,0,0,1,1.3,42.6c-.7,6.6-1.8,13.4-.5,20,2.5,12.8,15.1,22.8,28.1,22.3,15.4-.5,27.8-14,31.7-28.7Z"/><path class="cls-15" d="M2320.5,1564.6c22.5,28.2,28.4,66.4,26.2,102.4a136.36,136.36,0,0,1-7.5,37.9H2193.1c-4.6-7.2-8.8-14.8-12.8-22.2-8.8-16.2-17.6-32.7-22.4-50.5-10.6-39-1.1-80.7-5.9-120.8-4.8-40.8-24.2-78.4-46-113.3a3.51,3.51,0,0,0-.5-.8c-12.1-19.3-25.3-38.8-29.2-61.3-4.4-25.4,8.6-59.2,37-62.1,27.8-2.8,58.1,13.6,74,35.7,19.2,26.9,21.3,61.9,26.1,94.6,5.3,36.1,15.3,73.1,39.6,100.3C2273.2,1527.1,2301.6,1541.1,2320.5,1564.6Z"/><path class="cls-16" d="M1784.2,955.2c-11,10.2-22.1,20.3-32.5,31.1-57.6,60.3-48.6,135.8-15.4,206,29.1,61.6,64.3,119.6,78,187.2,21.5,106.5,17.8,217.3.8,325.5H1749a502,502,0,0,0-67.7-229.8c-32.5-55.6-76.5-106.7-90.5-169.6-19-85.4,21.4-171.9,62.9-248.9s86.7-159.3,77.9-246.3c-8.8-87.2-60.9-165.6-88.8-247.2-14.5-42.5-29.1-85.1-38.8-128.8-32.6-146.5-6.2-304.2,67.8-434.5h134q-32,87.45-64,174.9c-29.7,81.1-43.9,168.3-21.2,253,22.4,83.6,81.2,153.5,114.2,233,34.6,83.6,44.5,184.3-15.9,258.8C1808.3,932.4,1796.4,943.9,1784.2,955.2Z"/><path class="cls-17" d="M1222.9,431.4c30-99.5,83.6-190.8,96.4-296.4,5.5-45.1,7.2-90.6,13.7-135.2h119.6c9.8,91.6-1.5,185.6-25.6,274.9-21.9,81.4-54.5,163.5-43.3,247,12,90.3,73.2,165.9,103.2,252A378.34,378.34,0,0,1,1503,958c-8.4,51.8-27.7,101.9-31.2,154.3-6.3,92.4,35.8,178,87.6,257.1q3,8.1,6.3,15.9c35,82.7,83.7,141.8,114.8,231.1,9.4,26.8,16.4,57,21.1,88.7H1570.2c-11.6-54.3-30.5-106.4-62.7-152.2-61-86.9-198.8-142-220.3-253.1-6.2-31.9-.7-63.9,10-94.3,7.8-22,18.3-43.3,29.2-63.1,36.8-67.1,81.9-135.5,85.6-214.3,4-83.7-34.1-166-96.1-219.7-69.4-60.1-125.2-134.9-104.7-231.9C1214.4,461.1,1218.4,446.2,1222.9,431.4Z"/><path class="cls-18" d="M1582.1,449.2c33,118.4,82.7,261.6,65.2,406.4-12,99.3-58.4,156.3-89.5,231.2-35.8,86.2-29.8,197.3,1.5,282.5-51.8-79.1-94-164.7-87.6-257.1,3.5-52.4,22.8-102.5,31.2-154.3a379.64,379.64,0,0,0-16.1-184.3c-29.9-86.1-91.1-161.7-103.2-252-11.1-83.5,21.5-165.6,43.3-247,24-89.3,35.4-183.3,25.6-274.9h104.1C1536.6,147.9,1542,305.5,1582.1,449.2Z"/><path class="cls-19" d="M1509.8,1705H1333.9a308.36,308.36,0,0,1-35.6-40.1c-48-65-55.6-149.3-77.1-225.3-13.7-48.4-42.6-101.1-98.1-106.8-48.6-5.1-83,18.3-111.4,52.6,21.2-31.7,45.9-67,48.9-100.8,3-33.2-13.3-66-37.2-89.1-29.7-28.7-69.3-44.3-108.4-55.7a732.7,732.7,0,0,0-141.7-26.3c23.7-.5,47.4-1.6,70.9-3.9,100.9-10,195-49.5,248.2-139.7,23.5-39.7,38.7-84.5,46.7-130.8-1.1,86.1-20.2,172.7-34.1,258.4-4.9,30.5-9.2,61.9-1.8,91.9,21.8,89,131.5,126.5,174.4,207.5,23.5,44.4,24.7,98.1,48.6,142.2,31.4,58.1,95.3,89.2,146.4,131A396.67,396.67,0,0,1,1509.8,1705Z"/><path class="cls-20" d="M1315.9,708.2c62,53.7,100.1,136,96.1,219.7-3.8,78.8-48.8,147.2-85.6,214.3-10.9,19.8-21.4,41.1-29.2,63.1-5.5-102.2,39.8-201.2,8.7-302.6-30.5-99.2-100.5-183.8-113.8-288.7a323.72,323.72,0,0,1,30.8-182.7c-4.5,14.8-8.5,29.7-11.7,44.9C1190.7,573.4,1246.5,648.1,1315.9,708.2Z"/><path class="cls-21" d="M1011.8,1385.4c28.4-34.3,62.8-57.7,111.4-52.6,55.4,5.8,84.3,58.4,98.1,106.8,21.5,76,29.1,160.3,77.1,225.3A294.28,294.28,0,0,0,1334,1705H1213.5c-17.3-25.3-27.6-55.3-34.9-85.3-5.3-22.1-11.5-47.6-32-57.4-18.7-9-41.2-.2-58,12-35.2,25.5-58.4,65.4-94.9,89.2-14.8,9.7-31.5,16.4-48.5,21.4-34.5,10.2-69.7,13.6-105.3,13.6-85.7,0-173.9-19.9-260.1-13.4-19.5,1.4-40.7,5.2-53.5,19.8h-152c-4.2-45.9,6.1-89,51.2-110.1,69.2-32.4,157.4-6.1,229.2,2.6C734,1607,828.2,1612.7,893,1557,938.1,1518,967.6,1438.6,1011.8,1385.4Z"/><path class="cls-22" d="M773.4,1113.5c-53.9,1.1-107.8-.4-161.5,4.6-111.1,10.4-170.4,124.1-274.8,150.7C257.5,1289,174.6,1253,95.7,1279c-41.9,13.8-73.4,41.3-95.7,76.4v-90.7A1002.67,1002.67,0,0,0,107.3,1242c51.9-14,109.1-31.5,158.3-59.5h0c70.6-34.4,141.3-71.4,195.4-128,34.9-36.5,62.2-80.6,102.5-111.1,106.2-80.5,266.3-42.7,379.1-113.7,81.6-51.4,122-154.1,115-250.3-2.5-34.9-10.5-69.2-13.1-104.2-4-54.6,3.9-117.5,17.3-177.6,24.8-51.5,43.1-105.1,38.2-164-3.9-46.9-24.3-90.5-43.3-133.5H1225a569.64,569.64,0,0,1-8.2,112.2c-20.2,117-105.7,213.7-112.3,334.3-4.4,79.9,23.2,156.2,35.5,234.2,8.1,51.4,8.4,106-.8,158.8-8,46.3-23.2,91-46.7,130.8-53.2,90.1-147.3,129.6-248.2,139.7C820.8,1111.9,797.1,1113,773.4,1113.5Z"/><path class="cls-23" d="M1061.8,297.3c-19.5,40.6-43.1,79.9-62.7,119.5-22.7,45.9-40.8,93.5-41,145.1-.2,54.1,7.1,110.3-15.7,161.2-19.2,42.9-59.6,67.8-102.2,84-87,33.1-181.4,39.7-272,61-32.5,7.7-64.9,17.4-93.5,34.6-60.6,36.3-76.8,106.7-102.4,167.4-21.3,50.4-60.5,85.9-106.7,112.1h0c-49.2,28-106.4,45.5-158.3,59.5A956.72,956.72,0,0,1,0,1264.6V1125.9a465.73,465.73,0,0,0,50.1,4.2c84.8,2.5,174.6-23.6,230-87.8,40.1-46.4,57.7-106.6,70.8-165.2,10.6-47.4,15.1-99.2,42.9-140.6,30.3-45.1,82.3-50.9,131.7-60.9,85.3-17.1,171.4-35.4,243.1-87.5,87.6-63.7,125.5-166.7,141.1-270,12.8-84.6,19.1-180.5-2.1-264.1A251.11,251.11,0,0,0,886.7-.2h169.9c19.1,43,39.4,86.7,43.3,133.5C1104.9,192.2,1086.6,245.8,1061.8,297.3Z"/><path class="cls-24" d="M967.9,1241.3c15.3,21.7,20.2,52.3,6.2,74.8-11.3,18.3-32.1,27.9-49.5,40.5-38.4,27.9-61.6,72-96.9,103.6-38.8,34.8-90.5,52.8-142.3,58.2s-104.2-.9-155.5-9.7c-53.7-9.2-107.5-21.2-161.9-19.3s-111,20-146.5,61.2c-35.9,41.6-44.4,98.1-46.3,154.3H0v-154a261.43,261.43,0,0,1,35.6-30.8c67.3-48.3,151.7-66.8,234.3-73.2,33.2-2.5,67.5-3.5,97.8-17.3,37.8-17.1,64.2-51.6,90.3-83.8,39.5-48.6,82.6-95.7,135.9-128.5,91.8-56.5,211.4-65.2,310.4-22.3C928.7,1205.6,952.6,1219.7,967.9,1241.3ZM828.7,1372.4c29.2-14.4,66.3-36.4,60.1-74.2-17.9-109-191.8-75.4-257.2-39.5a10.91,10.91,0,0,1-1.1.6c-20.3,11.4-35.7,30.4-45.5,51.3-10.4,22.4-9.2,49.7-23.3,70.3-10.1,14.9-30.9,26-33.3,45.3-2.7,22,18.1,40.7,36.7,47.9,20.8,8.1,44.6,10.7,66.8,11.7,66.5,2.8,98.3-29,141.3-76.9C788.2,1392.1,808.8,1382.2,828.7,1372.4Z"/><path class="cls-25" d="M840.3-.2c91.3,190.3,13.6,429.3-149.6,554-74,56.5-158,82.1-244.5,112.9C359.3,697.6,269,746.9,230,834.5c-14.9,33.5-26,68.9-46.2,99.5-23.6,35.7-58.8,62.9-97.8,80.5-27.3,12.3-56.4,20.1-86.1,24.5V934.8c18.4-6.6,35.5-16.4,49.8-29.7,38.4-35.9,51.7-91.8,87-130.7C209.6,694,350,709.7,423.5,630c29.2-31.7,43.3-74.1,64.1-111.8a339.56,339.56,0,0,1,95.4-109c56.9-42.1,127.3-66.7,175-119,38.5-42.4,58.1-99.6,62-156.6,3.1-44.9-3.1-89.9-13.9-133.7Z"/><path class="cls-26" d="M806.6,1302c4,17.1-11.2,32.1-25.1,42.8-22.5,17.4-45.6,34.2-69.1,50.3-17,11.6-34.7,23-54.6,27.9-28.9,7.1-45.4-10-29.1-34.6,16.6-25.2,29.1-53.5,47.2-77.7,14.1-19,34.1-35.2,57.5-38,10.9-1.3,21.9.4,32.7,2.4C783,1278.3,802.7,1285.2,806.6,1302Z"/><path class="cls-27" d="M772.7-.2c28.1,93-15.6,201.9-111,241.7-33.3,13.8-69.5,18.2-104.7,25.9-40.5,8.8-77.6,24-107.1,54-54.7,55.8-64,143.2-124.7,193.7s-140.5,62.2-215.6,76C72.9,597.7,35.5,606.9,0,619.9V573.2a274.66,274.66,0,0,1,60.9-18.5c44.9-8.1,93.9-6.1,132.4-30.7,25.2-16.1,42.6-41.9,56.8-68.2,15-27.8,27.4-57.2,46.5-82.3C380.4,263.7,562,271.5,646.3,162,681.1,116.8,692.3,54.9,678-.2Z"/></g><rect class="cls-28" y="-0.1" width="2560" height="1600.2"/></g></g></g></svg>