<svg xmlns="http://www.w3.org/2000/svg" width="169.001" height="169" viewBox="0 0 169.001 169">
  <g id="one_time_payment_icon" data-name="one time payment icon" transform="translate(0 -0.301)">
    <path id="Path_741" data-name="Path 741" d="M479.587,92.082,449.105,61.543V183.922H489.9V116.878A34.97,34.97,0,0,0,479.587,92.082Zm0,0" transform="translate(-320.897 -43.759)" fill="#ffb782"/>
    <path id="Path_742" data-name="Path 742" d="M23.825,117.869.781,58.049A11.654,11.654,0,0,1,7.469,42.985L116.233,1.09A11.653,11.653,0,0,1,131.3,7.778L154.339,67.6a11.654,11.654,0,0,1-6.687,15.064L38.891,124.557A11.659,11.659,0,0,1,23.825,117.869Zm0,0" transform="translate(0 -0.005)" fill="#de4c3c"/>
    <path id="Path_743" data-name="Path 743" d="M162.6,101.961,32.2,152.51l8.684,22.541,130.415-50.526Zm0,0" transform="translate(-23.005 -72.639)" fill="#7a4930"/>
    <path id="Path_744" data-name="Path 744" d="M0,76.06v-64.1A11.656,11.656,0,0,1,11.659.3H128.211a11.656,11.656,0,0,1,11.655,11.655v64.1a11.656,11.656,0,0,1-11.655,11.655H11.659A11.656,11.656,0,0,1,0,76.06Zm0,0" transform="translate(-0.003)" fill="#4398d1"/>
    <path id="Path_745" data-name="Path 745" d="M199.318.3H186.934L99.52,87.715h99.8A11.656,11.656,0,0,0,210.973,76.06v-64.1A11.656,11.656,0,0,0,199.318.3Zm0,0" transform="translate(-71.109)" fill="#3e8cc7"/>
    <path id="Path_746" data-name="Path 746" d="M40.832,163.609H52.487v5.828H40.832Zm0,0" transform="translate(-29.176 -116.688)" fill="#5eb3d1"/>
    <path id="Path_747" data-name="Path 747" d="M40.832,224.852H52.487v5.828H40.832Zm0,0" transform="translate(-29.176 -160.447)" fill="#5eb3d1"/>
    <path id="Path_748" data-name="Path 748" d="M224.555,224.852H236.21v5.828H224.555Zm0,0" transform="translate(-160.45 -160.447)" fill="#5eb3d1"/>
    <path id="Path_749" data-name="Path 749" d="M102.074,163.609h11.654v5.828H102.074Zm0,0" transform="translate(-72.935 -116.688)" fill="#5eb3d1"/>
    <path id="Path_750" data-name="Path 750" d="M163.312,163.609h11.655v5.828H163.312Zm0,0" transform="translate(-116.691 -116.688)" fill="#5eb3d1"/>
    <path id="Path_751" data-name="Path 751" d="M224.555,163.609H236.21v5.828H224.555Zm0,0" transform="translate(-160.45 -116.688)" fill="#5eb3d1"/>
    <path id="Path_752" data-name="Path 752" d="M418.484,41.129h5.828V49.87h-5.828Zm0,0" transform="translate(-299.018 -29.173)" fill="#5eb3d1"/>
    <path id="Path_753" data-name="Path 753" d="M377.656,41.129h5.828V49.87h-5.828Zm0,0" transform="translate(-269.845 -29.173)" fill="#5eb3d1"/>
    <path id="Path_754" data-name="Path 754" d="M336.828,41.129h5.828V49.87h-5.828Zm0,0" transform="translate(-240.672 -29.173)" fill="#5eb3d1"/>
    <path id="Path_755" data-name="Path 755" d="M296,41.129h5.827V49.87H296Zm0,0" transform="translate(-211.502 -29.173)" fill="#5eb3d1"/>
    <path id="Path_756" data-name="Path 756" d="M408.277,490.23h52.448v29.137H408.277Zm0,0" transform="translate(-291.725 -350.067)" fill="#88b337"/>
    <path id="Path_757" data-name="Path 757" d="M324.388,175.467a12.631,12.631,0,0,0-18.24,17.469l23.878,26.05a39.3,39.3,0,0,0,.8,40.318l2.119,3.389h37.879V221.9Zm0,0" transform="translate(-216.388 -122.528)" fill="#ffb782"/>
    <path id="Path_758" data-name="Path 758" d="M438.9,520.852h5.828v5.828H438.9Zm0,0" transform="translate(-313.604 -371.947)" fill="#6b962a"/>
    <path id="Path_759" data-name="Path 759" d="M40.832,59.777V45.791a4.661,4.661,0,0,1,4.662-4.662H59.48a4.66,4.66,0,0,1,4.661,4.662V59.777A4.66,4.66,0,0,1,59.48,64.44H45.494A4.661,4.661,0,0,1,40.832,59.777Zm0,0" transform="translate(-29.176 -29.173)" fill="#fdb62f"/>
    <path id="Path_760" data-name="Path 760" d="M40.832,71.75h8.742v5.828H40.832Zm0,0" transform="translate(-29.176 -51.052)" fill="#fd7b2f"/>
    <path id="Path_761" data-name="Path 761" d="M91.867,71.75h8.74v5.828h-8.74Zm0,0" transform="translate(-65.642 -51.052)" fill="#fd7b2f"/>
    <path id="Path_762" data-name="Path 762" d="M494.383,303.667a2.908,2.908,0,0,1-2.06-.854l-11.655-11.655a2.914,2.914,0,0,1,4.12-4.12l11.655,11.655a2.914,2.914,0,0,1-2.061,4.975Zm0,0" transform="translate(-342.865 -204.296)" fill="#f2a46f"/>
  </g>
</svg>
