<svg xmlns="http://www.w3.org/2000/svg" xmlns:xlink="http://www.w3.org/1999/xlink" width="942" height="710" viewBox="0 0 942 710">
  <defs>
    <clipPath id="clip-path">
      <rect id="Rectangle_316" data-name="Rectangle 316" width="942" height="710" rx="5" transform="translate(532 341)" fill="none" stroke="#707070" stroke-width="1"/>
    </clipPath>
  </defs>
  <g id="Mask_Group_28" data-name="Mask Group 28" transform="translate(-532 -341)" clip-path="url(#clip-path)">
    <path id="Shape" d="M403.28,585.84a13.747,13.747,0,0,1,6.918-18.168A272.732,272.732,0,0,0,517.52,481.3a13.747,13.747,0,0,1,16.54-4.412,69.625,69.625,0,0,0,62.46-124.219c-11.054-6.359-8.243-23.036,4.284-25.42A151.229,151.229,0,1,0,455.511,82.7a13.739,13.739,0,0,1-17.958,3.149A270.294,270.294,0,0,0,299.154,48C149.119,48,27.493,169.633,27.493,319.674q0,5.353.206,10.679A13.747,13.747,0,1,1,.226,331.415Q0,325.557,0,319.674C0,154.449,133.934,20.511,299.154,20.511a297.876,297.876,0,0,1,142.652,36.14A178.727,178.727,0,1,1,632.944,346.885,97.134,97.134,0,0,1,533.3,505.878a300.14,300.14,0,0,1-111.85,86.878,13.736,13.736,0,0,1-18.168-6.918Z" transform="translate(725.5 864.933) rotate(-21)" fill="#1f1f1f"/>
  </g>
</svg>
