<svg xmlns="http://www.w3.org/2000/svg" xmlns:xlink="http://www.w3.org/1999/xlink" width="965.277" height="962.158" viewBox="0 0 965.277 962.158">
  <defs>
    <clipPath id="clip-path">
      <path id="Path_498" data-name="Path 498" d="M10.182,0H955.095c5.624,0,10.182,10.507,10.182,23.467V938.691c0,12.96-4.559,23.467-10.182,23.467H10.182C4.559,962.158,0,951.651,0,938.691V23.467C0,10.507,4.559,0,10.182,0Z" transform="translate(0 0)" fill="none"/>
    </clipPath>
  </defs>
  <g id="Refer_a_Friend" data-name="Refer a Friend" transform="translate(0 56.283)">
    <g id="Group_22" data-name="Group 22" transform="translate(0 -56.283)" clip-path="url(#clip-path)">
      <g id="innovative-oppurtunity-01" transform="translate(-15.543 -55.469)">
        <g id="Refer_a_Friend_-_Dashboard" data-name="Refer a Friend - Dashboard" transform="translate(0 0)">
          <ellipse id="_1c1c8477-432b-479a-aac9-e76a931e16e1" data-name="1c1c8477-432b-479a-aac9-e76a931e16e1" cx="348.569" cy="348.569" rx="348.569" ry="348.569" transform="translate(152.522 239.315)" fill="#dcf6ff"/>
          <g id="Group_405" data-name="Group 405" transform="translate(53.03 860.01)" opacity="0.42">
            <path id="Path_515" data-name="Path 515" d="M328.181,86.424c-20.773.774-48.643,6.838-43.353,17.935,3.1,6.58,17.806,7.1,29.16,11.225l3.742,1.29c-79.738-.9-159.09.774-239.086,5.161C57.87,123.068,30,131.067,35.161,145.647c3.226,8.645,17.806,9.419,29.289,14.838,63.223,29.547-18.322,16-59.61,47.482A22.838,22.838,0,0,0-5.74,225c0,17.806,32.644,24.257,57.417,25.805,144.252,4.9,208.894,17.806,353.017,8.774,107.092-6.451,202.185-91.222,192.121-75.739,45.933-1.032,139.22-27.225,185.024-24.257C890.35,166.55,930.993,85.908,899.382,71.328,772.549,13.266,507.012,78.94,328.181,86.424Z" transform="translate(5.74 -47.569)" fill="#aec4bd"/>
          </g>
          <path id="Path_516" data-name="Path 516" d="M60.264,53.62A17.032,17.032,0,0,1,82.714,37.1,22.064,22.064,0,0,0,108.52,18.138a27.354,27.354,0,0,1,31.741-15.1" transform="translate(806.033 192.654)" fill="none" stroke="#e0164d" stroke-miterlimit="10" stroke-width="1.5"/>
          <path id="Path_517" data-name="Path 517" d="M57.759,6.9a8,8,0,1,1-8-8,8,8,0,0,1,8,8Z" transform="translate(585.837 147.773)" fill="none" stroke="#fda09b" stroke-miterlimit="10" stroke-width="1.5"/>
          <path id="Path_518" data-name="Path 518" d="M68.43,33.092a5.938,5.938,0,1,1-6.193-5.935,5.548,5.548,0,0,1,6.193,5.935Z" transform="translate(761.996 497.181)" fill="none" stroke="#353e99" stroke-miterlimit="10" stroke-width="1.5"/>
          <path id="Path_519" data-name="Path 519" d="M55.637,101.426A19.483,19.483,0,0,1,42.863,73.3a25.031,25.031,0,0,0-14.709-33.16A31.224,31.224,0,0,1,19.639,1.43" transform="translate(502.721 949.889)" fill="none" stroke="#353e99" stroke-miterlimit="10" stroke-width="1.5"/>
          <path id="Path_524" data-name="Path 524" d="M1.379,33.514h.9L1.25,31.449h0l2.064-2.322L6.8,27.062c2.322-1.419,4.774-2.581,7.1-3.742A103.219,103.219,0,0,1,29.12,17.385,105.415,105.415,0,0,1,61.634,12.74a95.093,95.093,0,0,1,33.031,6.451,64.513,64.513,0,0,1,15.612,8.774,37.288,37.288,0,0,1,7.225,7.1A20.386,20.386,0,0,1,121.761,49h0v.645a40.385,40.385,0,0,1-8.9,19.87,25.111,25.111,0,0,1-24.773,7.1A24.515,24.515,0,0,1,81.5,73.9a16.257,16.257,0,0,1-6.451-7.484,17.419,17.419,0,0,1,2.193-15.741A38.708,38.708,0,0,1,93.5,36.739,34.708,34.708,0,0,1,103.955,33.9a27.869,27.869,0,0,1,11.225,1.548A60.126,60.126,0,0,1,131.567,45a63.738,63.738,0,0,1,21.289,29.289l-8,2.581a55.481,55.481,0,0,0-20.128-21.935,46.449,46.449,0,0,0-12.9-6.193,10.581,10.581,0,0,0-5.548,0,32,32,0,0,0-5.548,2.322,21.289,21.289,0,0,0-8.258,8.774c-.9,1.548,0,2.322,0,0s-1.161-1.29,0-1.161a6.709,6.709,0,0,0,6.322-1.935,26.967,26.967,0,0,0,4.774-10.709V46.8c0,1.548,0,.645-.645,0a19.482,19.482,0,0,0-3.613-3.871A49.675,49.675,0,0,0,88.343,34.8a86.964,86.964,0,0,0-27.1-8.129,93.028,93.028,0,0,0-29.289,0,98.061,98.061,0,0,0-14.451,3.484l-7.1,2.581L6.927,34.288l-1.677.774h0L3.96,33h0Z" transform="translate(103.66 321.91)" fill="#fdce72"/>
          <path id="Path_525" data-name="Path 525" d="M34.5,38.79a8,8,0,1,1-8-8A8,8,0,0,1,34.5,38.79Z" transform="translate(308.981 542.089)" fill="none" stroke="#fda09b" stroke-miterlimit="10" stroke-width="1.5"/>
          <path id="Path_526" data-name="Path 526" d="M74.581,48.19,34.97,50.642,39.744,98.9l39.1-3.226Z" transform="translate(505.018 755.175)" fill="#faa09a"/>
          <path id="Path_527" data-name="Path 527" d="M54.605,48.26A39.869,39.869,0,0,1,51.9,76.646c-4.516,6.451-.9,24.386-.9,24.386s-6.064,25.805-12.9,23.87c-1.419,0-4-76-4-76Z" transform="translate(494.543 756.5)" fill="#ebe1db"/>
          <path id="Path_528" data-name="Path 528" d="M42.888,48.31l-9.548.516L38.888,125.6l8-1.29Z" transform="translate(485.617 757.121)" fill="#ebe1db"/>
          <line id="Line_132" data-name="Line 132" x2="4" y2="75.997" transform="translate(528.505 805.407)" fill="none" stroke="#535e5e" stroke-linecap="round" stroke-miterlimit="10" stroke-width="0.3"/>
          <path id="Path_529" data-name="Path 529" d="M46.16,62.76s0-3.484-5.677-3.871S34.29,52.18,34.29,52.18" transform="translate(496.924 803.212)" fill="none" stroke="#535e5e" stroke-linecap="round" stroke-miterlimit="10" stroke-width="0.3"/>
          <path id="Path_530" data-name="Path 530" d="M50.179,48.28s1.161,18.58-16,19.483" transform="translate(495.615 755.738)" fill="none" stroke="#535e5e" stroke-linecap="round" stroke-miterlimit="10" stroke-width="0.3"/>
          <path id="Path_531" data-name="Path 531" d="M35.439,54.864s7.355-5.677,9.935-1.677c4.129,6.193-6.322,3.871-9.29,3.1h0c2.064,1.29,7.742,5.161,5.677,7.742s-6.451-6.967-6.451-6.967" transform="translate(509.065 798.113)" fill="none" stroke="#535e5e" stroke-miterlimit="10" stroke-width="0.3"/>
          <path id="Path_532" data-name="Path 532" d="M175.317,28.44,282.151,276.429c7.484,17.548,8.645,50.707-8,56.256-24.257,8.129-232.248,7.1-232.248,7.1L37,281.461l150.961-11.1s-80.513-173.8-56.772-237.28Z" transform="translate(529.18 517.912)" fill="#4c2222"/>
          <path id="Path_533" data-name="Path 533" d="M48.73,47.19a154.81,154.81,0,0,1,19.483,7.484" transform="translate(668.799 742.23)" fill="none" stroke="#202123" stroke-linecap="round" stroke-miterlimit="10" stroke-width="0.48"/>
          <path id="Path_534" data-name="Path 534" d="M69.64,50.786,29.9,50.27l1.29,48.514L70.543,98.4Z" transform="translate(444.671 780.555)" fill="#faa09a"/>
          <path id="Path_535" data-name="Path 535" d="M51.211,51.043a40.127,40.127,0,0,1-4.645,28.128c-5.032,5.935-2.581,24.128-2.581,24.128S36.115,129.1,29.277,126.266c-1.419,0,1.419-76.126,1.419-76.126Z" transform="translate(432.521 779.481)" fill="#ebe1db"/>
          <path id="Path_536" data-name="Path 536" d="M37.828,50.378,28.28,50.12v77.029l8.129-.645Z" transform="translate(425.389 779.25)" fill="#ebe1db"/>
          <line id="Line_133" data-name="Line 133" x1="1.419" y2="76.126" transform="translate(461.798 829.617)" fill="none" stroke="#535e5e" stroke-linecap="round" stroke-miterlimit="10" stroke-width="0.3"/>
          <path id="Path_537" data-name="Path 537" d="M39.457,66s0-3.613-5.419-4.258S29.006,54,29.006,54" transform="translate(433.953 825.461)" fill="none" stroke="#535e5e" stroke-linecap="round" stroke-miterlimit="10" stroke-width="0.3"/>
          <path id="Path_538" data-name="Path 538" d="M46.429,50.21s0,18.58-17.419,18.193" transform="translate(434.078 779.287)" fill="none" stroke="#535e5e" stroke-linecap="round" stroke-miterlimit="10" stroke-width="0.3"/>
          <path id="Path_539" data-name="Path 539" d="M30.238,56.429S37.98,51.268,40.3,55.4c3.613,6.58-6.58,3.484-9.548,2.452h0s7.354,5.677,5.032,8.129-5.806-7.484-5.806-7.484" transform="translate(445.624 822.979)" fill="none" stroke="#535e5e" stroke-miterlimit="10" stroke-width="0.3"/>
          <path id="Path_540" data-name="Path 540" d="M206.862,28.75C236.8,266.675,230.6,264.869,232.667,293.9c1.806,32.644-8,62.191-29.934,63.094C170.348,358.413,86.609,360.219,35,360.219L32.16,302.931l117.8-3.355s-15.1-116.124-22.064-144.123c-9.806-38.708,10.064-120.511,10.064-120.511Z" transform="translate(471.572 522.147)" fill="#663332"/>
          <path id="Path_541" data-name="Path 541" d="M69.474,9.753A37.031,37.031,0,0,0,41.6,40.72C40.572,56.59,93.214,60.332,93.214,60.332c4.387,8.516,14.451,4.516,17.161-4.258a32.386,32.386,0,0,0,1.032-19.225,34.321,34.321,0,0,0-41.934-27.1Z" transform="translate(583.8 273.367)" fill="#ff2f0d"/>
          <path id="Path_542" data-name="Path 542" d="M42.46,23.595a33.547,33.547,0,0,1,38.708-12.9l2.71,1.032A41.8,41.8,0,0,1,96.006,79.463a16.645,16.645,0,0,1,9.677,15.1,16.257,16.257,0,0,1-32.515,0,12.907,12.907,0,0,1,0-3.226h-.9Z" transform="translate(594.169 274.857)" fill="#ff2f0d"/>
          <path id="Path_543" data-name="Path 543" d="M42.272,38.274A31.869,31.869,0,0,1,70.787,10.018a25.805,25.805,0,0,1,13.935,2.451C95.689,17.759,99.56,34.275,100.85,46.79l-.9,16.257,1.548,64.513c-9.677,40.256-41.418,38.708-41.676-10.709V84.466C40.853,78.918,40.208,55.048,42.272,38.274Z" transform="translate(582.357 287.719)" fill="#fca29c"/>
          <path id="Path_544" data-name="Path 544" d="M43.029,20.292A25.805,25.805,0,0,0,64.576,15.26,42.837,42.837,0,0,1,42.9,34.743Z" transform="translate(599.406 352.462)" fill="#ea7d7a"/>
          <path id="Path_545" data-name="Path 545" d="M45.918,17.766A5.29,5.29,0,0,0,50.176,23.7c2.451,0,4.516-2.452,4.645-5.677a5.29,5.29,0,0,0-4.258-6.064Q46.112,12.734,45.918,17.766Z" transform="translate(634.709 312.103)" fill="#d09a93"/>
          <path id="Path_546" data-name="Path 546" d="M46.2,13.134a.774.774,0,1,0,.774-.774A.774.774,0,0,0,46.2,13.134Z" transform="translate(638.685 316.912)" fill="#b77b77"/>
          <path id="Path_547" data-name="Path 547" d="M42.91,20.5l5.419-2.322A42.585,42.585,0,0,1,53.1,16.5a25.806,25.806,0,0,1,11.354-1.032,12.9,12.9,0,0,1-3.742,5.419,14.709,14.709,0,0,1-5.548,3.1,13.548,13.548,0,0,1-6.451,0A8.9,8.9,0,0,1,42.91,20.5Z" transform="translate(599.525 352.165)" fill="#32354a"/>
          <path id="Path_548" data-name="Path 548" d="M45.918,17.766A5.29,5.29,0,0,0,50.176,23.7c2.451,0,4.516-2.452,4.645-5.677a5.29,5.29,0,0,0-4.258-6.064Q46.112,12.734,45.918,17.766Z" transform="translate(634.709 312.103)" fill="#fca29c"/>
          <path id="Path_549" data-name="Path 549" d="M46.1,12.29s2.581,0,2.839,1.677-2.322,1.677-2.322,1.677" transform="translate(637.494 316.071)" fill="none" stroke="#ce7c77" stroke-linecap="round" stroke-miterlimit="10" stroke-width="0.48"/>
          <path id="Path_550" data-name="Path 550" d="M64.049,13.48A11.87,11.87,0,0,1,53.727,24.705a10.709,10.709,0,0,1-8.516-2.839,9.548,9.548,0,0,1-3.1-7.355,23.1,23.1,0,0,0,10.58,1.935C55.275,16.19,58.759,14.77,64.049,13.48Z" transform="translate(589.998 330.66)" fill="#2f3249"/>
          <path id="Path_551" data-name="Path 551" d="M48.713,11.8a26.579,26.579,0,0,1-5.419,7.1h0a70.726,70.726,0,0,1,4,6.709c-1.677-1.935-3.226-4-4.774-6.193h0A31.87,31.87,0,0,1,48.713,11.8Z" transform="translate(594.883 310.164)" fill="#2f3249"/>
          <path id="Path_552" data-name="Path 552" d="M44.44,11.9s-2.322,8.129,1.161,9.935,8.129-5.677,8.129-5.677" transform="translate(608.705 311.359)" fill="none" stroke="#000" stroke-miterlimit="10" stroke-width="0.1"/>
          <path id="Path_553" data-name="Path 553" d="M43.005,11.5s-2.451,8,0,9.29,6.967-6.322,6.967-6.322" transform="translate(587.689 306.469)" fill="none" stroke="#000" stroke-miterlimit="10" stroke-width="0.1"/>
          <path id="Path_554" data-name="Path 554" d="M98.372,15.479V43.994c-1.161.645-14.967,1.548-20.515-26.838A166.187,166.187,0,0,1,41.6,34.188,34.45,34.45,0,0,1,69.857,9.415C91.275,8.382,98.372,15.479,98.372,15.479Z" transform="translate(583.933 279.925)" fill="#ff2f0d"/>
          <path id="Path_555" data-name="Path 555" d="M100.661,25.674c9.806-13.935,9.935-12.9,9.806-13.935S96.532,23.351,96.532,23.351,104.4,13.287,103.5,11.094,85.307,26.577,85.307,26.577a12.9,12.9,0,0,0-3.226-9.419,2.968,2.968,0,0,0-3.484,0,38.708,38.708,0,0,1-2.064,20.257L62.34,58.7l2.839,4.774c2.323,3.871,4.645,7.871,6.838,11.87L89.049,50.834S111.112,28.9,112.015,26.706s-8.774,4.774-8.774,4.774a57.029,57.029,0,0,0,8.774-11.87C112.919,16.513,100.661,25.674,100.661,25.674Z" transform="translate(830.794 299.613)" fill="#fca29c"/>
          <path id="Path_556" data-name="Path 556" d="M64.594,36.347S50.917,26.928,50.272,20.09c-1.032,0-2.71.645-2.968,1.935a12.9,12.9,0,0,0,2.064,9.806s-23.741-6.322-23.483-4S38.144,34.8,38.144,34.8,19.306,29.767,20.209,31.96s0,0,15.612,6.967c0,0-15.354-1.677-12.9,0A58.062,58.062,0,0,0,36.6,44.605s-11.87-1.161-9.935,0,32,9.032,32,9.032L110.27,77.12l8.387-19.483Z" transform="translate(328.949 411.82)" fill="#fca29c"/>
          <path id="Path_557" data-name="Path 557" d="M541.094,12.94s-35.74,60.126-97.157,65.287a844.224,844.224,0,0,1-92.383,0h0l-72.771-4.9h0a60,60,0,0,0-38.708,8,728.48,728.48,0,0,1-88.125,50.32c-53.417,21.806-126.188-9.806-126.188-9.806L23.31,138.87c43.74,26.708,72.771,38.708,126.188,31.611,27.483-3.742,89.415-36.127,94.834-38.708l-4.258,107.221,99.351,2.581,3.871-106.06c12.9-3.871,77.416-11.354,100-15.612C494.9,110.226,535.546,57.2,555.932,19.262Z" transform="translate(366.233 326.065)" fill="#fca29c"/>
          <path id="Path_558" data-name="Path 558" d="M182.872,21.637a21.289,21.289,0,0,1-21.418,11.1c-25.805-2.452-20.644-14.451-20.644-14.451s-19.354-5.548-46.321,14.193A389.538,389.538,0,0,1,34.62,67.958l10.967,46.192L100.294,94.8,94.488,217.758a507.858,507.858,0,0,1,79.222-7.354,172.122,172.122,0,0,0,49.8-5.161L214.87,81.377l64.513-3.355,3.355-53.933S210.612,13.122,182.872,21.637Z" transform="translate(500.852 382.485)" fill="#76e4ff"/>
          <path id="Path_559" data-name="Path 559" d="M182.872,21.637a21.289,21.289,0,0,1-21.418,11.1c-25.805-2.452-20.644-14.451-20.644-14.451s-19.354-5.548-46.321,14.193A389.538,389.538,0,0,1,34.62,67.958l10.967,46.192L100.294,94.8,94.488,217.758a507.858,507.858,0,0,1,79.222-7.354,172.122,172.122,0,0,0,49.8-5.161L214.87,81.377l64.513-3.355,3.355-53.933S210.612,13.122,182.872,21.637Z" transform="translate(500.852 382.485)" opacity="0.25"/>
          <path id="Path_560" data-name="Path 560" d="M64.394,26.328a11.354,11.354,0,0,1-14.064,8A11.871,11.871,0,0,1,44.137,19.1a10.967,10.967,0,0,1,14.322-7.1,10.58,10.58,0,0,1,5.935,14.322Z" transform="translate(604.104 304.33)" fill="none" stroke="#000" stroke-miterlimit="10" stroke-width="0.1"/>
          <path id="Path_561" data-name="Path 561" d="M58.635,24.346C56.958,30.668,51.926,34.8,47.41,33.506a10.967,10.967,0,0,1-5.29-13.935c1.806-6.322,6.58-9.806,11.225-8.516a10.193,10.193,0,0,1,5.29,13.29Z" transform="translate(580.574 297.887)" fill="none" stroke="#000" stroke-miterlimit="10" stroke-width="0.1"/>
          <path id="Path_562" data-name="Path 562" d="M42.74,12.508s6.193-3.355,8.516,2.322" transform="translate(597.502 306.715)" fill="none" stroke="#000" stroke-miterlimit="10" stroke-width="0.1"/>
          <line id="Line_134" data-name="Line 134" y1="3.613" x2="12.774" transform="translate(669.531 324.004)" fill="none" stroke="#000" stroke-miterlimit="10" stroke-width="0.1"/>
          <path id="Path_563" data-name="Path 563" d="M49.894,53.59l38.837,8.129-11.87,47.095L38.54,99.782Z" transform="translate(547.511 821.256)" fill="#faa09a"/>
          <path id="Path_564" data-name="Path 564" d="M49.023,54a90.316,90.316,0,0,1-1.29,28.515c-2.193,11.1-6.322,24.128-6.322,24.128s5.032,29.289,12.9,28.644c1.419,0,12.9-77.416,12.9-77.416Z" transform="translate(581.671 826.783)" fill="#09243e"/>
          <path id="Path_565" data-name="Path 565" d="M54.617,54.29l7.742,1.548L52.424,133.9,42.36,131.835Z" transform="translate(592.978 830.295)" fill="#09243e"/>
          <line id="Line_135" data-name="Line 135" x1="12.258" y2="77.674" transform="translate(635.338 884.546)" fill="none" stroke="#535e5e" stroke-linecap="round" stroke-miterlimit="10" stroke-width="0.3"/>
          <path id="Path_566" data-name="Path 566" d="M51.644,61.747s-6.451-6.838-9.677-3.226c-4.9,5.548,5.677,4.774,8.9,4.387h0c-2.193,1.032-8.516,4-6.709,6.838s7.355-5.935,7.355-5.935" transform="translate(573.114 867.829)" fill="none" stroke="#535e5e" stroke-miterlimit="10" stroke-width="0.3"/>
          <path id="Path_567" data-name="Path 567" d="M59.562,26.362c-28.386-4.774,24.773-2.968,34.192,23.483,5.29,15.1-47.482,25.805-47.482,25.805-3.355,9.032-13.806,6.322-17.806-1.935a33.031,33.031,0,0,1-3.355-18.967,28.386,28.386,0,0,1,34.45-28.386Z" transform="translate(384.817 463.148)" fill="#4a2b27"/>
          <path id="Path_568" data-name="Path 568" d="M72.717,105.63l3.355,29.805A374.189,374.189,0,0,1,32.589,138.4l-4-51.611L25.88,70.276c0-12.9,2.193-31.1,12.9-37.8A81.415,81.415,0,0,1,63.427,24.73c16,0,19.354,14.838,22.838,30.321S91.942,97.243,72.717,105.63Z" transform="translate(396.823 469.212)" fill="#fca29c"/>
          <path id="Path_569" data-name="Path 569" d="M60.338,37.784A84.254,84.254,0,0,1,26.92,30.43a70.062,70.062,0,0,0,35.1,22.451Z" transform="translate(409.201 537.771)" fill="#ea7d7a" opacity="0.62"/>
          <path id="Path_570" data-name="Path 570" d="M34.779,33.014c0,3.355-1.29,6.451-3.871,6.709s-5.032-2.064-5.419-5.548a5.548,5.548,0,0,1,3.871-6.709C31.941,27.078,34.134,29.659,34.779,33.014Z" transform="translate(390.117 500.978)" fill="#cf9c94"/>
          <path id="Path_571" data-name="Path 571" d="M34.779,33.014c0,3.355-1.29,6.451-3.871,6.709s-5.032-2.064-5.419-5.548a5.548,5.548,0,0,1,3.871-6.709C31.941,27.078,34.134,29.659,34.779,33.014Z" transform="translate(390.117 500.978)" fill="#fcb9b4"/>
          <path id="Path_572" data-name="Path 572" d="M33.961,29.7s-1.935,34.321,9.419,29.16A94.06,94.06,0,0,1,89.571,48.663s2.71,33.418-9.419,36.256A35.224,35.224,0,0,1,33.187,65.178,71.223,71.223,0,0,1,26.219,26.47Z" transform="translate(396.484 489.854)" fill="#4a2b27"/>
          <path id="Path_573" data-name="Path 573" d="M35.378,63.082S99.891,57.018,85.311,35.6s-41.16-9.29-52.772,0a22.063,22.063,0,0,0-4.9,24.9Z" transform="translate(395.066 455.325)" fill="#4a2b27"/>
          <path id="Path_574" data-name="Path 574" d="M28.165,27.76s-2.71,0-2.581,2.064,2.581,1.419,2.581,1.419" transform="translate(393.248 504.946)" fill="none" stroke="#cf7c76" stroke-linecap="round" stroke-miterlimit="10" stroke-width="0.49"/>
          <path id="Path_575" data-name="Path 575" d="M28.221,29.952A24.514,24.514,0,0,0,38.93,31.759c2.71,0,6.064-1.548,11.483-2.839a12.9,12.9,0,0,1-2.968,7.226,12.9,12.9,0,0,1-7.613,4,11.354,11.354,0,0,1-8.387-2.839,9.677,9.677,0,0,1-3.226-7.354Z" transform="translate(424.674 519.197)" fill="#ececf5"/>
          <path id="Path_576" data-name="Path 576" d="M29.08,27A25.805,25.805,0,0,1,35.4,31.774h0a46.187,46.187,0,0,1-4.387,6.709c1.161-2.452,2.323-4.774,3.613-7.1h0A23.1,23.1,0,0,1,29.08,27Z" transform="translate(434.911 495.754)" fill="#2f3249"/>
          <path id="Path_577" data-name="Path 577" d="M37,27a18.323,18.323,0,0,1,1.548,5.161A5.548,5.548,0,0,1,36.74,37.58a5.161,5.161,0,0,1-5.548-1.161,26.576,26.576,0,0,1-3.742-3.871s0,0,0-.645h0a32.77,32.77,0,0,0,3.742,3.613c1.419.9,3.1,1.677,4.258.9a4.387,4.387,0,0,0,1.419-4.258,16.774,16.774,0,0,0-1.161-5.032Z" transform="translate(415.51 495.748)" fill="#2f3249"/>
          <path id="Path_578" data-name="Path 578" d="M37.261,26.433a30.967,30.967,0,0,1,1.548,4.9c0,1.548.774,3.613-1.161,5.161s-3.871-.9-5.032-1.935a48.519,48.519,0,0,1-3.226-4h0a29.293,29.293,0,0,0,3.355,3.613c1.032,1.032,2.71,2.064,3.613,1.677s1.032-2.581.774-4a28.648,28.648,0,0,0-1.161-4.774h0A1.445,1.445,0,0,1,37.261,26.433Z" transform="translate(438.601 488.648)" fill="#2f3249"/>
          <path id="Path_579" data-name="Path 579" d="M16.638,87.463h0a387.085,387.085,0,0,0,2.193,43.095,20.9,20.9,0,0,0,28.257,3.355c-4-27.354-8.129-60-8.129-60s3.613-18.451,10.451-22.193a3.355,3.355,0,0,0-3.355-2.193,15.225,15.225,0,0,0-9.29,6.58S32.637,28.5,30.315,30.3s-1.677,15.87-1.677,15.87-3.355-22.064-5.161-20,0,0,0,19.354c0,0-5.161-16.644-6.193-13.548a68.772,68.772,0,0,0,0,16.9s-4.129-12.9-4.9-10.322a216.754,216.754,0,0,0,3.1,25.805,114.319,114.319,0,0,1,1.161,22.967Z" transform="translate(236.137 485.215)" fill="#fca29c"/>
          <path id="Path_580" data-name="Path 580" d="M59.669,113.376a168.634,168.634,0,0,0,26.708,3.871h3.355c-8.258-24.9-16-44.9-16-44.9S72.7,52.863,78.507,47.314a3.613,3.613,0,0,0-3.871-1.29,15.741,15.741,0,0,0-7.613,8.9S55.8,28.347,54.121,30.283s2.322,16.386,2.322,16.386S47.541,25.38,46.25,27.831s0,0,4.645,19.483c0,0-9.419-15.354-9.677-12a66.194,66.194,0,0,0,4.516,16.773s-7.355-11.741-7.484-9.032S52.7,79.442,52.7,79.442,56.831,103.441,59.669,113.376Z" transform="translate(544.058 504.447)" fill="#fca29c"/>
          <path id="Path_581" data-name="Path 581" d="M396.232,57.157l-33.289,4.129c0,1.161,9.032,64.513,12.9,78.061,0,0-90.319-84.383-135.865-79.738a33.418,33.418,0,0,1-20.773,9.419,38.708,38.708,0,0,1-24.257-5.419A62.965,62.965,0,0,0,160.5,78.447c-24.515,21.935-57.417,57.159-87.609,73.029A478.949,478.949,0,0,1,46.183,30.32c-6.58,2.064-24.515,2.967-30.966,5.161l-3.1,36c.9,103.221,37.289,130.059,41.547,131.22,9.032,5.935,62.578-3.1,116.124-66.191-6.451,39.353-11.225,91.351-19.612,134.575L303.591,267.6a322.551,322.551,0,0,1-12.9-44.643,296.754,296.754,0,0,0-12.128-77.416s96.383,69.029,132.252,65.675S401.651,68.383,396.232,57.157Z" transform="translate(233.042 539.676)" fill="#d2dbe4"/>
          <path id="Path_582" data-name="Path 582" d="M303.752,119.951l-269.537,76L16.41,136.209S246.852,45.89,307.494,45.89A30.837,30.837,0,0,1,336.654,84.6a45.546,45.546,0,0,1-32.9,35.353Z" transform="translate(284.104 728.91)" fill="#053a72"/>
          <path id="Path_583" data-name="Path 583" d="M56.943,46.19,340.8,141.411,322.738,194.57S30.88,128.767,23.009,116.251,1.849,45.286,56.943,46.19Z" transform="translate(275.441 732.418)" fill="#074591"/>
          <path id="Path_584" data-name="Path 584" d="M18.09,52.36l91.867,39.611L137.7,84.23Z" transform="translate(304.101 805.931)" fill="#022a50"/>
          <path id="Path_585" data-name="Path 585" d="M186.346,34.941a36,36,0,0,0-40-8.645,124.51,124.51,0,0,1-63.094,2.839A63.481,63.481,0,0,0,17.321,54.166a63.481,63.481,0,0,0,3.226,88.125c28.773,29.676,90.319,52.9,132.768-36C153.315,106.551,217.7,69.778,186.346,34.941Z" transform="translate(101.782 455.395)" fill="#1c141e"/>
          <path id="Path_586" data-name="Path 586" d="M56.082,153.027V104.384C76.726,98.578,77.5,72.9,75.307,54.967A34.708,34.708,0,0,0,44.6,24.516a28.128,28.128,0,0,0-14.967,2.71c-11.741,5.677-15.87,23.483-17.29,36.9l1.032,16.9L11.826,150.7C10.794,151.349,56.082,153.027,56.082,153.027Z" transform="translate(229.336 465.242)" fill="#faa09a"/>
          <path id="Path_587" data-name="Path 587" d="M36.526,35.589a27.483,27.483,0,0,1-23.1-5.419A45.934,45.934,0,0,0,36.784,51.2Z" transform="translate(248.635 534.578)" fill="#e87d7a"/>
          <path id="Path_588" data-name="Path 588" d="M21.04,33.061a5.677,5.677,0,0,1-4.516,6.451,6.58,6.58,0,0,1,0-12.9,5.677,5.677,0,0,1,4.516,6.451Z" transform="translate(222.574 491.008)" fill="#ce9891"/>
          <path id="Path_589" data-name="Path 589" d="M13.237,27.834a.774.774,0,0,1-.774.774.779.779,0,1,1-.129-1.548S13.237,27.318,13.237,27.834Z" transform="translate(226.377 496.377)" fill="#b57b77"/>
          <path id="Path_590" data-name="Path 590" d="M36.288,35.824a11.612,11.612,0,0,1-12.9,3.742A14.58,14.58,0,0,1,13.45,30.4a29.548,29.548,0,0,1,12.9,1.161,107.864,107.864,0,0,1,9.935,4.258Z" transform="translate(248.873 534.206)" fill="#32354a"/>
          <path id="Path_591" data-name="Path 591" d="M21.04,33.061a5.677,5.677,0,0,1-4.516,6.451,6.58,6.58,0,0,1,0-12.9,5.677,5.677,0,0,1,4.516,6.451Z" transform="translate(222.574 491.008)" fill="#faa09a"/>
          <path id="Path_592" data-name="Path 592" d="M14.672,27s-2.839,0-3.1,1.806,2.581,1.935,2.581,1.935" transform="translate(226.361 495.669)" fill="none" stroke="#cc7c77" stroke-linecap="round" stroke-miterlimit="10" stroke-width="0.51"/>
          <path id="Path_593" data-name="Path 593" d="M14.3,28.26a24.773,24.773,0,0,0,11.225,3.1c2.71,0,6.451-1.161,12.9-1.935A12.812,12.812,0,0,1,26.167,40.259a11.612,11.612,0,0,1-8.774-3.871,9.935,9.935,0,0,1-3.1-8.129Z" transform="translate(258.478 511.146)" fill="#2f3249"/>
          <path id="Path_594" data-name="Path 594" d="M15.33,26.72a36.774,36.774,0,0,1,6.838,7.355h0a59.737,59.737,0,0,1-5.935,4A64.521,64.521,0,0,1,21.652,33.3h0A37.029,37.029,0,0,1,15.33,26.72Z" transform="translate(271.25 492.334)" fill="#2f3249"/>
          <path id="Path_595" data-name="Path 595" d="M24.239,26.56a27.612,27.612,0,0,1,1.032,5.677,5.935,5.935,0,0,1-2.323,5.548,5.29,5.29,0,0,1-5.806-1.806,20.644,20.644,0,0,1-3.613-4.516h.645a22.451,22.451,0,0,0,3.613,4.129c1.419,1.161,3.226,2.193,4.516,1.548s1.935-2.71,1.935-4.516a24.9,24.9,0,0,0,0-5.419h0Z" transform="translate(249.825 490.382)" fill="#2f3249"/>
          <path id="Path_596" data-name="Path 596" d="M24.255,26.133a19.484,19.484,0,0,1,1.161,5.29c0,1.677,0,4.129-1.677,5.419s-4-1.29-5.161-2.581a27.355,27.355,0,0,1-2.968-4.516h.645A25.807,25.807,0,0,0,19.352,34c1.032,1.161,2.581,2.581,3.742,2.064s1.29-2.452,1.29-4.129a24.13,24.13,0,0,0-.9-5.161h0S24.255,26,24.255,26.133Z" transform="translate(274.582 484.991)" fill="#2f3249"/>
          <path id="Path_597" data-name="Path 597" d="M41.177,27.02s-7.871,26.708-27.1,29.289A28.386,28.386,0,0,1,16.4,29.342C25.952,19.536,41.177,27.02,41.177,27.02Z" transform="translate(228.242 462.86)" fill="#1c141e"/>
          <path id="Path_598" data-name="Path 598" d="M46.354,36.981S41.193,19.95,13.452,25.24C13.194,25.24,35,38.788,46.354,36.981Z" transform="translate(248.871 461.835)" fill="#1c141e"/>
          <path id="Path_599" data-name="Path 599" d="M205.718,76.281c.645-2.451-8.645,6.193-8.645,6.193A58.965,58.965,0,0,0,204.944,68.8c.645-2.968-11.354,8.258-11.354,8.258,8.774-16,9.032-14.967,8.774-16s-12.9,14.064-12.9,14.064,7.225-11.741,5.935-13.806-17.419,18.451-17.419,18.451a14.063,14.063,0,0,0-4.516-9.677,3.355,3.355,0,0,0-3.742,0c3.871,6.193-1.677,23.1-1.677,23.1a235.216,235.216,0,0,1-68.513,62.578,249.151,249.151,0,0,1-17.806-34.45A415.6,415.6,0,0,1,62.111,65.443C52.821,32.8,39.66,33.7,39.66,33.7c-17.935,0-25.805,10.709-26.45,31.224A136.639,136.639,0,0,0,27.4,125.44c28,57.546,51.611,77.416,61.675,77.416,4.774,1.161,44.385-5.677,90.319-88.383h0l4.9-9.935S205.2,78.087,205.718,76.281Z" transform="translate(246.016 579.891)" fill="#faa09a"/>
          <path id="Path_600" data-name="Path 600" d="M8.731,64.66A4.091,4.091,0,0,0,7.311,62.08,12.9,12.9,0,0,1,6.15,59.37a9.357,9.357,0,0,1,1.677,2.451,6.193,6.193,0,0,1,.9,2.839Z" transform="translate(161.983 896.572)" fill="#415569"/>
          <path id="Path_601" data-name="Path 601" d="M8.552,64.718a17.8,17.8,0,0,1-1.161-2.709A14.838,14.838,0,0,1,6.23,59.17a6.71,6.71,0,0,1,1.677,2.581,6.064,6.064,0,0,1,.645,2.968Z" transform="translate(162.935 888.469)" fill="#415569"/>
          <path id="Path_602" data-name="Path 602" d="M5.89,59.674a3.355,3.355,0,0,1,3.226,1.032,3.484,3.484,0,0,1,1.419,3.1,3.51,3.51,0,0,0-1.806-2.71A8.385,8.385,0,0,0,5.89,59.674Z" transform="translate(158.889 899.235)" fill="#415569"/>
          <path id="Path_603" data-name="Path 603" d="M43.98,55.877,4.24,55.49,5.659,104l39.224-.516Z" transform="translate(139.249 844.347)" fill="#faa09a"/>
          <path id="Path_604" data-name="Path 604" d="M25.708,56.134a39.74,39.74,0,0,1-4.774,28.128c-4.9,6.064-2.581,24.257-2.581,24.257s-7.871,25.805-14.709,22.838c-1.419,0,1.548-76,1.548-76Z" transform="translate(127.587 843.312)" fill="#fffbf9"/>
          <path id="Path_605" data-name="Path 605" d="M12.3,55.6,2.62,55.34l.129,76.9,8-.645Z" transform="translate(119.967 843.08)" fill="#fffbf9"/>
          <line id="Line_136" data-name="Line 136" x1="1.548" y2="75.997" transform="translate(130.716 898.667)" fill="none" stroke="#535e5e" stroke-linecap="round" stroke-miterlimit="10" stroke-width="0.3"/>
          <path id="Path_606" data-name="Path 606" d="M14.515,70.614s0-3.484-5.419-4.129S3.29,59.26,3.29,59.26" transform="translate(127.942 895.263)" fill="none" stroke="#535e5e" stroke-linecap="round" stroke-miterlimit="10" stroke-width="0.3"/>
          <path id="Path_607" data-name="Path 607" d="M20.9,55.42s0,18.709-17.548,18.193" transform="translate(128.656 842.915)" fill="none" stroke="#535e5e" stroke-linecap="round" stroke-miterlimit="10" stroke-width="0.3"/>
          <path id="Path_608" data-name="Path 608" d="M4.7,61.651s7.742-5.29,9.935-1.032c3.613,6.451-6.58,3.355-9.419,2.451h0s7.355,5.806,5.032,8.129S4.31,63.845,4.31,63.845" transform="translate(140.082 886.058)" fill="none" stroke="#535e5e" stroke-miterlimit="10" stroke-width="0.3"/>
          <path id="Path_609" data-name="Path 609" d="M6.918,79.229,6.66,55.875l49.8-.645L82.657,69.552Z" transform="translate(168.054 840.703)" fill="#7f8ead"/>
          <path id="Path_610" data-name="Path 610" d="M132.98,51.18s150.832,20.386,154.832,65.546-39.482,58.836-84.642,59.481c-16,0-194.83,1.548-194.83,1.548v-61.03H164.333S35.307,102.92,48.209,51.309Z" transform="translate(188.05 793.211)" fill="#7f8ead"/>
          <path id="Path_611" data-name="Path 611" d="M42.88,57.126,3.14,56.61l1.419,48.514,39.224-.387Z" transform="translate(126.156 858.034)" fill="#faa09a"/>
          <path id="Path_612" data-name="Path 612" d="M24.568,57.383a39.74,39.74,0,0,1-4.774,28.128c-4.9,5.935-2.581,24.128-2.581,24.128S9.343,134.8,2.5,132.606c-1.419,0,1.548-76.126,1.548-76.126Z" transform="translate(114.018 857.008)" fill="#fffbf9"/>
          <path id="Path_613" data-name="Path 613" d="M11.2,56.718,1.52,56.46l.129,77.029,8-.645Z" transform="translate(106.874 856.779)" fill="#fffbf9"/>
          <line id="Line_137" data-name="Line 137" x1="1.548" y2="76.126" transform="translate(116.522 913.485)" fill="none" stroke="#535e5e" stroke-linecap="round" stroke-miterlimit="10" stroke-width="0.3"/>
          <path id="Path_614" data-name="Path 614" d="M13.415,71.863s0-3.613-5.548-4.258S2.19,60.38,2.19,60.38" transform="translate(114.849 908.594)" fill="none" stroke="#535e5e" stroke-linecap="round" stroke-miterlimit="10" stroke-width="0.3"/>
          <path id="Path_615" data-name="Path 615" d="M19.8,56.55S19.54,75.259,2.25,75.259" transform="translate(115.563 856.725)" fill="none" stroke="#535e5e" stroke-linecap="round" stroke-miterlimit="10" stroke-width="0.3"/>
          <path id="Path_616" data-name="Path 616" d="M3.716,62.719s7.613-5.161,9.935-1.032c3.613,6.58-6.58,3.484-9.548,2.451h0s7.355,5.677,5.032,8.129S3.2,64.784,3.2,64.784" transform="translate(126.87 905.094)" fill="none" stroke="#535e5e" stroke-miterlimit="10" stroke-width="0.3"/>
          <path id="Path_617" data-name="Path 617" d="M133.591,51.19s147.736,20.257,151.09,65.416S245.2,175.443,200.04,176.088c-16,0-194.83,1.548-194.83,1.548v-61.03H122.753S32.435,134.412,45.337,51.19Z" transform="translate(150.795 793.33)" fill="#9daed8"/>
          <line id="Line_138" data-name="Line 138" x2="194.701" transform="translate(156.005 909.098)" fill="none" stroke="#7984a3" stroke-linecap="round" stroke-miterlimit="10" stroke-width="0.48"/>
          <path id="Path_618" data-name="Path 618" d="M239.513,121.184a205.409,205.409,0,0,1-52.643,43.353,249.149,249.149,0,0,1-17.806-34.45,415.6,415.6,0,0,1-19.1-55.481c-9.29-32.644-22.322-32.257-22.322-32.257l-44-9.419c-16.9,0-32.9,18.193-45.933,45.546C19.393,117.184-.993,177.311,8.039,184.407a64.514,64.514,0,0,0,33.289,8.645l-2.452,77.416c12.9,1.032,25.805,4.258,38.708,4.9a504.116,504.116,0,0,0,59.223,1.032,66.45,66.45,0,0,0,25.805-5.806c-.645-20.257-2.839-43.869-4.258-62.062a27.211,27.211,0,0,0,0-3.226c8.9,8.774,16,12.9,19.87,12.9s40.127-5.935,81.158-70.061Z" transform="translate(158.159 571.794)" fill="#f9dbde"/>
          <path id="Path_619" data-name="Path 619" d="M239.513,121.184a205.409,205.409,0,0,1-52.643,43.353,249.149,249.149,0,0,1-17.806-34.45,415.6,415.6,0,0,1-19.1-55.481c-9.29-32.644-22.322-32.257-22.322-32.257l-44-9.419c-16.9,0-32.9,18.193-45.933,45.546C19.393,117.184-.993,177.311,8.039,184.407a64.514,64.514,0,0,0,33.289,8.645l-2.452,77.416c12.9,1.032,25.805,4.258,38.708,4.9a504.116,504.116,0,0,0,59.223,1.032,66.45,66.45,0,0,0,25.805-5.806c-.645-20.257-2.839-43.869-4.258-62.062a27.211,27.211,0,0,0,0-3.226c8.9,8.774,16,12.9,19.87,12.9s40.127-5.935,81.158-70.061Z" transform="translate(158.159 571.794)" opacity="0.52"/>
          <line id="Line_139" data-name="Line 139" y1="123.349" x2="4" transform="translate(196.39 717.859)" fill="none" stroke="#cb7f7f" stroke-linecap="round" stroke-miterlimit="10" stroke-width="0.4"/>
          <path id="Path_620" data-name="Path 620" d="M15,42.56a151.735,151.735,0,0,0,50.578,60.126" transform="translate(267.322 686.521)" fill="none" stroke="#cb7f7f" stroke-linecap="round" stroke-miterlimit="10" stroke-width="0.4"/>
          <ellipse id="_1c1c8477-432b-479a-aac9-e76a931e16e1-2" data-name="1c1c8477-432b-479a-aac9-e76a931e16e1" cx="348.372" cy="348.372" rx="348.372" ry="348.372" transform="translate(156.908 239.999)" fill="none"/>
        </g>
        <ellipse id="cc77b3ac-6943-41ce-a86c-cfe7abfbe0e4" cx="239.328" cy="239.328" rx="239.328" ry="239.328" transform="translate(76.156 101.136)" fill="none"/>
        <path id="Path_621" data-name="Path 621" d="M281.946,7.96A239.192,239.192,0,0,0,78.19,416.359V529.4h48.636l-.532,66.885h36.145l-.532-66.885H409.958V416.359A239.192,239.192,0,0,0,282.389,7.96Z" transform="translate(71.673 96.729)" fill="none"/>
      </g>
    </g>
  </g>
</svg>
