<svg xmlns="http://www.w3.org/2000/svg" width="30.571" height="30.566" viewBox="0 0 30.571 30.566">
  <path id="phone_icon" data-name="phone icon" d="M4.158,2l5.2.188a2.8,2.8,0,0,1,2.486,1.769l1.537,3.8a2.933,2.933,0,0,1-.257,2.691l-1.969,3.029a35.246,35.246,0,0,0,7.694,7.892l2.5-1.541a2.738,2.738,0,0,1,2.118-.323l4.977,1.276a2.864,2.864,0,0,1,2.111,3l-.319,4.261a2.59,2.59,0,0,1-2.789,2.5C8.273,28.318-2.971,2,4.158,2Z" transform="translate(-0.999 -1)" fill="none" stroke="#000" stroke-linecap="round" stroke-linejoin="round" stroke-width="2"/>
</svg>
