<svg id="pos_m7pay-01" xmlns="http://www.w3.org/2000/svg" width="159.536" height="156.047" viewBox="0 0 159.536 156.047">
  <path id="Path_17" data-name="Path 17" d="M150.054,125.09a2.975,2.975,0,0,1,2.4,4.705A78.021,78.021,0,1,1,131.576,18.462a7.74,7.74,0,0,1,3.552,6.512v85.19A14.907,14.907,0,0,0,150.054,125.09Z" transform="translate(-7.748 -5.998)" fill="#ffbe00"/>
  <path id="Path_18" data-name="Path 18" d="M205.4,383.1h35.023v36.55a79.09,79.09,0,0,1-35.023,0V383.1Z" transform="translate(-141.398 -265.597)" fill="#0571b3"/>
  <path id="Path_19" data-name="Path 19" d="M225.746,395.913H177.978a3.192,3.192,0,0,1-3.178-3.178v-6.357a3.192,3.192,0,0,1,3.178-3.178h47.767a3.192,3.192,0,0,1,3.178,3.178v6.357A3.192,3.192,0,0,1,225.746,395.913Z" transform="translate(-120.333 -265.666)" fill="#056099"/>
  <path id="Path_20" data-name="Path 20" d="M150.594,147.86a77.73,77.73,0,0,1-5.951,9.566H4.767A4.767,4.767,0,0,1,0,152.659V50.767A4.767,4.767,0,0,1,4.767,46h119a77.044,77.044,0,0,1,12.246,9.784C141.215,60.8,150.594,147.86,150.594,147.86ZM81.513,170.139a9.568,9.568,0,0,0-9.566,9.566v9.286a80.867,80.867,0,0,0,9.566.592,74.742,74.742,0,0,0,9.566-.592v-9.286A9.548,9.548,0,0,0,81.513,170.139Z" transform="translate(0 -33.536)" fill="#f02929"/>
  <path id="Path_21" data-name="Path 21" d="M14.333,157.326H4.767A4.767,4.767,0,0,1,0,152.559V50.667A4.767,4.767,0,0,1,4.767,45.9h9.566a4.767,4.767,0,0,0-4.767,4.767V152.559A4.748,4.748,0,0,0,14.333,157.326Z" transform="translate(0 -33.467)" fill="#06163a"/>
  <path id="Path_22" data-name="Path 22" d="M180.67,132.556a77.738,77.738,0,0,1-8.943,36.3H33.878a3.192,3.192,0,0,1-3.178-3.178v-86A3.192,3.192,0,0,1,33.878,76.5H156.927A77.662,77.662,0,0,1,180.67,132.556Z" transform="translate(-21.134 -54.532)" fill="#fdf7bd"/>
  <path id="Path_23" data-name="Path 23" d="M70.2,184.523v6.357a1.6,1.6,0,0,1-1.589,1.589H52.689A1.6,1.6,0,0,1,51.1,190.88v-6.357a1.6,1.6,0,0,1,1.589-1.589H68.612A1.6,1.6,0,0,1,70.2,184.523Zm23.9-1.589H78.178a1.6,1.6,0,0,0-1.589,1.589v6.357a1.6,1.6,0,0,0,1.589,1.589H94.1a1.6,1.6,0,0,0,1.589-1.589v-6.357A1.6,1.6,0,0,0,94.1,182.934Zm25.457,0H103.635a1.6,1.6,0,0,0-1.589,1.589v6.357a1.6,1.6,0,0,0,1.589,1.589h15.922a1.6,1.6,0,0,0,1.589-1.589v-6.357A1.6,1.6,0,0,0,119.557,182.934ZM68.612,197.267H52.689a1.6,1.6,0,0,0-1.589,1.589v6.357a1.6,1.6,0,0,0,1.589,1.589H68.612a1.6,1.6,0,0,0,1.589-1.589v-6.357A1.6,1.6,0,0,0,68.612,197.267Zm25.488,0H78.178a1.6,1.6,0,0,0-1.589,1.589v6.357a1.6,1.6,0,0,0,1.589,1.589H94.1a1.6,1.6,0,0,0,1.589-1.589v-6.357A1.6,1.6,0,0,0,94.1,197.267Zm25.457,0H103.635a1.6,1.6,0,0,0-1.589,1.589v6.357a1.6,1.6,0,0,0,1.589,1.589h15.922a1.6,1.6,0,0,0,1.589-1.589v-6.357A1.6,1.6,0,0,0,119.557,197.267ZM167.979,140.9H157.167a.971.971,0,0,0-.966.966v1.278a.971.971,0,0,0,.966.966h10.812a.971.971,0,0,0,.966-.966v-1.278A1.014,1.014,0,0,0,167.979,140.9Zm19.1,20.378H176.268a.971.971,0,0,0-.966.966v1.278a.971.971,0,0,0,.966.966H187.08a.971.971,0,0,0,.966-.966v-1.278A.992.992,0,0,0,187.08,161.278Zm-10.843-17.2h11.249c-.5-1.059-1.028-2.15-1.558-3.178h-9.691a.971.971,0,0,0-.966.966v1.278A.986.986,0,0,0,176.236,144.078Zm-30.567,17.2H131.647a.971.971,0,0,0-.966.966v1.278a.971.971,0,0,0,.966.966h14.022a.971.971,0,0,0,.966-.966v-1.278A.971.971,0,0,0,145.669,161.278Zm0-20.378H131.647a.971.971,0,0,0-.966.966v1.278a.971.971,0,0,0,.966.966h14.022a.971.971,0,0,0,.966-.966v-1.278A.971.971,0,0,0,145.669,140.9Zm22.31,20.378H157.167a.971.971,0,0,0-.966.966v1.278a.971.971,0,0,0,.966.966h10.812a.971.971,0,0,0,.966-.966v-1.278A1.014,1.014,0,0,0,167.979,161.278Z" transform="translate(-35.178 -98.865)" fill="#f5dc90"/>
  <path id="Path_24" data-name="Path 24" d="M119.557,147.877H52.689a1.6,1.6,0,0,1-1.589-1.589V98.52a1.6,1.6,0,0,1,1.589-1.589h66.868a1.6,1.6,0,0,1,1.589,1.589v47.767A1.6,1.6,0,0,1,119.557,147.877Zm7.977-22.31V119.21a1.6,1.6,0,0,1,1.589-1.589h60.044a76.232,76.232,0,0,1,3.116,9.566h-63.16A1.623,1.623,0,0,1,127.534,125.567Zm66.744,12.744H129.123a1.6,1.6,0,0,0-1.589,1.589v6.357a1.6,1.6,0,0,0,1.589,1.589h65.591v-1.278A80.489,80.489,0,0,0,194.278,138.311Zm-65.154-31.845h54.5A82.66,82.66,0,0,0,176.86,96.9H129.123a1.6,1.6,0,0,0-1.589,1.589v6.357A1.6,1.6,0,0,0,129.123,106.466Z" transform="translate(-35.178 -68.575)" fill="#ffe899"/>
  <path id="Path_25" data-name="Path 25" d="M322.454,128.856v1.278a.971.971,0,0,1-.966.966H307.466a.971.971,0,0,1-.966-.966v-1.278a.971.971,0,0,1,.966-.966h14.022A.971.971,0,0,1,322.454,128.856Zm-.966-21.656H307.466a.971.971,0,0,0-.966.966v1.278a.971.971,0,0,0,.966.966h14.022a.971.971,0,0,0,.966-.966v-1.278A.951.951,0,0,0,321.488,107.2Zm30.6,3.178h5.359q-1.075-1.636-2.243-3.178h-3.116a.971.971,0,0,0-.966.966v1.278A.965.965,0,0,0,352.086,110.378Zm-30.6,38.2H307.466a.971.971,0,0,0-.966.966v1.278a.971.971,0,0,0,.966.966h14.022a.971.971,0,0,0,.966-.966v-1.278A.971.971,0,0,0,321.488,148.58ZM343.8,107.2H332.986a.971.971,0,0,0-.966.966v1.278a.971.971,0,0,0,.966.966H343.8a.971.971,0,0,0,.966-.966v-1.278A.97.97,0,0,0,343.8,107.2Zm0,41.38H332.986a.971.971,0,0,0-.966.966v1.278a.971.971,0,0,0,.966.966H343.8a.971.971,0,0,0,.966-.966v-1.278A.992.992,0,0,0,343.8,148.58Zm19.1,0H352.086a.971.971,0,0,0-.966.966v1.278a.971.971,0,0,0,.966.966H362.9a.971.971,0,0,0,.966-.966v-1.278A.971.971,0,0,0,362.9,148.58Zm0-20.69H352.086a.971.971,0,0,0-.966.966v1.278a.971.971,0,0,0,.966.966H362.9a.971.971,0,0,0,.966-.966v-1.278A.971.971,0,0,0,362.9,127.89Zm-19.1,0H332.986a.971.971,0,0,0-.966.966v1.278a.971.971,0,0,0,.966.966H343.8a.971.971,0,0,0,.966-.966v-1.278A.992.992,0,0,0,343.8,127.89Z" transform="translate(-210.996 -75.666)" fill="#fbc56d"/>
  <path id="Path_26" data-name="Path 26" d="M132.3,154.283c0,1.4-.81,2.555-1.807,2.555H82.507c-1,0-1.807-1.153-1.807-2.555s.81-2.555,1.807-2.555h48.017C131.49,151.728,132.3,152.881,132.3,154.283Zm-48.64-7.634a23.3,23.3,0,0,1,17.138-18.2,1.111,1.111,0,0,1-.249-.717,1.184,1.184,0,0,1,1.184-1.184v-1.184a4.767,4.767,0,0,1,9.535,0v1.184a1.184,1.184,0,0,1,1.184,1.184,1.111,1.111,0,0,1-.249.717,23.341,23.341,0,0,1,17.138,18.2,1.159,1.159,0,0,1-1.153,1.371H84.813A1.146,1.146,0,0,1,83.66,146.649Zm20.441-20.1h4.767v-1.184a2.4,2.4,0,1,0-4.8,0v1.184Z" transform="translate(-55.554 -84.891)" fill="#f4aa39"/>
  <path id="Path_27" data-name="Path 27" d="M359.005,299.668H299.989a1.6,1.6,0,0,1-1.589-1.589v-20.69a1.6,1.6,0,0,1,1.589-1.589h64.718A76.266,76.266,0,0,1,359.005,299.668Z" transform="translate(-205.42 -191.731)" fill="#fdcdc7"/>
  <path id="Path_28" data-name="Path 28" d="M363.764,287.6v1.278a.971.971,0,0,1-.966.966H323.351a.971.971,0,0,1-.966-.966V287.6a.971.971,0,0,1,.966-.966H362.83A.945.945,0,0,1,363.764,287.6Zm-48.7,7.946h-2.243V293.3a.971.971,0,0,0-.966-.966h-1.278a.971.971,0,0,0-.966.966v2.243h-2.243a.971.971,0,0,0-.966.966v1.278a.971.971,0,0,0,.966.966h2.243V301a.971.971,0,0,0,.966.966h1.278a.971.971,0,0,0,.966-.966v-2.243h2.243a.971.971,0,0,0,.966-.966v-1.278A.992.992,0,0,0,315.062,295.545Zm8.288-10.812h7.634a.971.971,0,0,0,.966-.966v-1.278a.971.971,0,0,0-.966-.966h-7.634a.971.971,0,0,0-.966.966v1.278A.971.971,0,0,0,323.351,284.733Zm0,11.467h7.634a.971.971,0,0,0,.966-.966v-1.278a.971.971,0,0,0-.966-.966h-7.634a.971.971,0,0,0-.966.966v1.278A.971.971,0,0,0,323.351,296.2Zm26.735,1.9H323.351a.971.971,0,0,0-.966.966v1.278a.971.971,0,0,0,.966.966h26.735a.971.971,0,0,0,.966-.966v-1.278A.971.971,0,0,0,350.086,298.1Zm-35.023-14.022h-2.243v-2.212a.971.971,0,0,0-.966-.966h-1.278a.971.971,0,0,0-.966.966v2.244h-2.243a.971.971,0,0,0-.966.966v1.278a.971.971,0,0,0,.966.966h2.243v2.243a.971.971,0,0,0,.966.966h1.278a.971.971,0,0,0,.966-.966v-2.243h2.243a.971.971,0,0,0,.966-.966v-1.278A1,1,0,0,0,315.062,284.078Z" transform="translate(-210.927 -195.242)" fill="#fd8e82"/>
</svg>
