<svg xmlns="http://www.w3.org/2000/svg" xmlns:xlink="http://www.w3.org/1999/xlink" width="638" height="697.059" viewBox="0 0 638 697.059">
  <defs>
    <clipPath id="clip-path">
      <path id="Path_498" data-name="Path 498" d="M6.73,0H631.27C634.987,0,638,7.612,638,17V680.058c0,9.39-3.013,17-6.73,17H6.73c-3.717,0-6.73-7.612-6.73-17V17C0,7.612,3.013,0,6.73,0Z" fill="none"/>
    </clipPath>
    <clipPath id="clip-path-2">
      <rect id="Rectangle_290" data-name="Rectangle 290" width="822.268" height="718.656" transform="translate(0 822.268) rotate(-90)" fill="rgba(0,0,0,0)"/>
    </clipPath>
  </defs>
  <g id="Refer_a_Friend" data-name="Refer a Friend" transform="translate(0 0)">
    <g id="Group_22" data-name="Group 22" transform="translate(0 0)" clip-path="url(#clip-path)">
      <g id="innovative-oppurtunity-01" transform="translate(-9.263 -19.767)">
        <g id="Refer_a_Friend_-_Dashboard" data-name="Refer a Friend - Dashboard" transform="translate(0 0)">
          <ellipse id="_1c1c8477-432b-479a-aac9-e76a931e16e1" data-name="1c1c8477-432b-479a-aac9-e76a931e16e1" cx="230.387" cy="228.22" rx="230.387" ry="228.22" transform="translate(100.809 156.688)" fill="#dcf6ff"/>
          <path id="Path_673" data-name="Path 673" d="M0,0H792.074V718.656H0Z" transform="translate(0 822.269) rotate(-90)" fill="#0a5fff"/>
          <g id="Group_404" data-name="Group 404" transform="translate(0)" clip-path="url(#clip-path-2)">
            <g id="Group_403" data-name="Group 403" transform="translate(-79.055 -196.419)">
              <path id="Path_514" data-name="Path 514" d="M-19.12-26.15V319.267c5.714,66.742,35.647,159.438,76.752,178.953,43.663,20.686,103.359,17.856,128.944,58.448a72.343,72.343,0,0,1,8.528,21.564c17.056,68.888,52.788,166.854,179.685,183.052,72.573,9.758,132.952-72.889,145.914-86.842,11.929-14.907,27.65-25.147,44.943-29.273,23.793-5.464,52.7.586,69.674-16.881,13.9-14.344,11.854-36.981,11.513-56.886.256-54.545,31.042-117.969,85.536-120.6a308.938,308.938,0,0,1,49.889,6.245c41.276,4.488,45.028-18.93,61.231-82.549V-26.15Z" transform="translate(19.12 26.15)" fill="#f4f5f9" stroke="#707070" stroke-width="1"/>
            </g>
          </g>
          <g id="Group_405" data-name="Group 405" transform="translate(35.05 563.078)" opacity="0.42">
            <path id="Path_515" data-name="Path 515" d="M214.965,73.009c-13.73.507-32.151,4.477-28.654,11.742,2.047,4.308,11.769,4.646,19.273,7.35l2.473.845c-52.7-.591-105.15.507-158.024,3.379C36.3,97,17.883,102.238,21.294,111.784c2.132,5.66,11.769,6.167,19.359,9.715,41.787,19.345-12.11,10.475-39.4,31.088A14.937,14.937,0,0,0-5.74,163.738c0,11.658,21.576,15.882,37.95,16.9,95.343,3.21,138.069,11.658,233.326,5.744,70.782-4.224,133.634-59.726,126.982-49.589,30.36-.676,92.017-17.825,122.292-15.882,71.721,4.562,98.584-48.237,77.69-57.783C508.67,25.109,333.163,68.109,214.965,73.009Z" transform="translate(5.74 -47.569)" fill="#aeb5c4"/>
          </g>
          <path id="Path_516" data-name="Path 516" d="M60.262,35.853a11.115,11.115,0,0,1,4.584-9.225A11.345,11.345,0,0,1,75.1,25.04a14.69,14.69,0,0,0,11.223-2.577,14.42,14.42,0,0,0,5.833-9.841,18.131,18.131,0,0,1,20.979-9.884" transform="translate(512.316 125.391)" fill="none"/>
          <path id="Path_517" data-name="Path 517" d="M52.335,4.138a5.288,5.288,0,0,1-10.575,0,5.288,5.288,0,0,1,10.575,0Z" transform="translate(373.05 97.132)" fill="none"/>
          <path id="Path_518" data-name="Path 518" d="M64.406,31.029a3.7,3.7,0,0,1-1.278,2.644,3.776,3.776,0,0,1-2.815.9,3.717,3.717,0,1,1,0-7.434,3.689,3.689,0,0,1,2.974.984,3.614,3.614,0,0,1,1.119,2.9Z" transform="translate(484.465 316.159)" fill="none"/>
          <path id="Path_519" data-name="Path 519" d="M42.278,66.9a12.851,12.851,0,0,1-8.8-7.148,12.649,12.649,0,0,1,.357-11.268,16.247,16.247,0,0,0-.16-12.921,16.484,16.484,0,0,0-9.562-8.79A20.318,20.318,0,0,1,18.485,1.43" transform="translate(326.768 621.431)" fill="none"/>
          <path id="Path_524" data-name="Path 524" d="M1.335,26.337h.6L1.25,24.986h0l1.364-1.521,2.3-1.352c1.535-.929,3.155-1.69,4.69-2.45a68.615,68.615,0,0,1,10.063-3.886,70.288,70.288,0,0,1,21.491-3.041A63.375,63.375,0,0,1,62.993,16.96,42.753,42.753,0,0,1,73.312,22.7a24.537,24.537,0,0,1,4.776,4.646A13.261,13.261,0,0,1,80.9,36.475h0V36.9a26.325,26.325,0,0,1-5.884,13.01,16.7,16.7,0,0,1-16.374,4.646,16.29,16.29,0,0,1-4.349-1.774,10.674,10.674,0,0,1-4.264-4.9,11.315,11.315,0,0,1,1.45-10.306,25.519,25.519,0,0,1,10.745-9.124,23.111,23.111,0,0,1,6.908-1.859A18.582,18.582,0,0,1,76.552,27.6a39.83,39.83,0,0,1,10.831,6.251,41.754,41.754,0,0,1,14.071,19.177l-5.287,1.69a36.457,36.457,0,0,0-13.3-14.361,30.827,30.827,0,0,0-8.528-4.055,7.057,7.057,0,0,0-3.667,0A21.261,21.261,0,0,0,67,37.826a13.994,13.994,0,0,0-5.458,5.745c-.6,1.014,0,1.521,0,0s-.768-.845,0-.76a4.461,4.461,0,0,0,4.179-1.267,17.576,17.576,0,0,0,3.155-7.012v.507c0,1.014,0,.422-.426,0A12.8,12.8,0,0,0,66.063,32.5a32.814,32.814,0,0,0-7.249-5.322A57.884,57.884,0,0,0,40.905,21.86a62.064,62.064,0,0,0-19.359,0A65.327,65.327,0,0,0,12,24.141L7.3,25.831,5,26.844l-1.109.507h0L3.041,26h0Z" transform="translate(462.766 83.302)" fill="#fdce72"/>
          <path id="Path_525" data-name="Path 525" d="M29.075,36.028a5.288,5.288,0,1,1-5.287-5.238A5.263,5.263,0,0,1,29.075,36.028Z" transform="translate(197.949 344.293)" fill="none"/>
          <path id="Path_526" data-name="Path 526" d="M61.151,48.19,34.97,49.8,38.125,81.39l25.84-2.112Z" transform="translate(321.935 477.8)" fill="#faa09a"/>
          <path id="Path_527" data-name="Path 527" d="M47.65,48.26a25.881,25.881,0,0,1-1.791,18.585c-2.985,4.224-.6,15.966-.6,15.966s-4.008,16.9-8.528,15.628c-.938,0-2.644-49.758-2.644-49.758Z" transform="translate(315.31 478.644)" fill="#ebe1db"/>
          <path id="Path_528" data-name="Path 528" d="M39.651,48.31l-6.311.338,3.667,50.264,5.287-.845Z" transform="translate(309.664 479.033)" fill="#ebe1db"/>
          <line id="Line_132" data-name="Line 132" x2="2.644" y2="49.758" transform="translate(349.315 527.328)" fill="none"/>
          <path id="Path_529" data-name="Path 529" d="M42.136,59.107s0-2.281-3.752-2.534S34.29,52.18,34.29,52.18" transform="translate(316.816 507.874)" fill="none"/>
          <path id="Path_530" data-name="Path 530" d="M44.755,48.28s.768,12.165-10.575,12.756" transform="translate(315.988 478.138)" fill="none"/>
          <path id="Path_531" data-name="Path 531" d="M35.4,53.792s4.861-3.717,6.567-1.1c2.729,4.055-4.179,2.534-6.14,2.027h0c1.364.845,5.117,3.379,3.752,5.069s-4.264-4.562-4.264-4.562" transform="translate(324.495 504.681)" fill="none"/>
          <path id="Path_532" data-name="Path 532" d="M128.42,28.44l70.612,162.367c4.946,11.489,5.714,33.2-5.287,36.832-16.033,5.322-153.5,4.646-153.5,4.646L37,194.1l99.778-7.265S83.563,73.044,99.254,31.481Z" transform="translate(337.217 329.275)" fill="#4c2222"/>
          <path id="Path_533" data-name="Path 533" d="M48.73,47.19a102.919,102.919,0,0,1,12.877,4.9" transform="translate(425.521 469.67)" fill="none"/>
          <path id="Path_534" data-name="Path 534" d="M56.166,50.608,29.9,50.27l.853,31.764,26.01-.253Z" transform="translate(283.768 493.699)" fill="#faa09a"/>
          <path id="Path_535" data-name="Path 535" d="M43.64,50.731a26.061,26.061,0,0,1-3.07,18.416c-3.326,3.886-1.706,15.8-1.706,15.8s-5.2,16.9-9.722,15.037c-.938,0,.938-49.842.938-49.842Z" transform="translate(276.083 493.041)" fill="#ebe1db"/>
          <path id="Path_536" data-name="Path 536" d="M34.591,50.289,28.28,50.12v50.433l5.373-.422Z" transform="translate(271.573 492.897)" fill="#ebe1db"/>
          <line id="Line_133" data-name="Line 133" x1="0.938" y2="49.842" transform="translate(305.225 543.179)" fill="none"/>
          <path id="Path_537" data-name="Path 537" d="M35.911,61.856s0-2.365-3.582-2.788S29,54,29,54" transform="translate(276.989 521.813)" fill="none"/>
          <path id="Path_538" data-name="Path 538" d="M40.523,50.21s0,12.165-11.513,11.911" transform="translate(277.068 492.89)" fill="none"/>
          <path id="Path_539" data-name="Path 539" d="M30.151,55.52s5.117-3.379,6.652-.676c2.388,4.308-4.349,2.281-6.311,1.605h0s4.861,3.717,3.326,5.322-3.838-4.9-3.838-4.9" transform="translate(284.37 520.258)" fill="none"/>
          <path id="Path_540" data-name="Path 540" d="M147.629,28.75c19.785,155.778,15.692,154.595,17.056,173.6,1.194,21.373-5.287,40.718-19.785,41.31-21.405.929-76.752,2.112-110.864,2.112L32.16,208.266l77.861-2.2s-9.978-76.03-14.583-94.362c-6.481-25.343,6.652-78.9,6.652-78.9Z" transform="translate(300.781 331.941)" fill="#663332"/>
          <path id="Path_541" data-name="Path 541" d="M60.019,9.412A24.329,24.329,0,0,0,41.6,29.686c-.682,10.391,34.112,12.841,34.112,12.841,2.9,5.576,9.551,2.957,11.342-2.788a21.015,21.015,0,0,0,.682-12.587,22.464,22.464,0,0,0-10-14.791A22.866,22.866,0,0,0,60.019,9.412Z" transform="translate(371.762 175.957)" fill="#2f2f2f"/>
          <path id="Path_542" data-name="Path 542" d="M42.46,18.507a22.286,22.286,0,0,1,25.584-8.448l1.791.676a27.242,27.242,0,0,1,8.016,44.351,10.892,10.892,0,0,1,6.4,9.884,10.746,10.746,0,0,1-21.491,0,8.372,8.372,0,0,1,0-2.112h-.6Z" transform="translate(378.32 176.9)" fill="#2f2f2f"/>
          <path id="Path_543" data-name="Path 543" d="M42,28.471A20.968,20.968,0,0,1,60.846,9.97a17.2,17.2,0,0,1,9.21,1.605c7.249,3.464,9.807,14.277,10.66,22.471l-.6,10.644,1.023,42.239c-6.4,26.357-27.375,25.343-27.545-7.012v-21.2C41.061,55.081,40.635,39.453,42,28.471Z" transform="translate(370.849 184.969)" fill="#fca29c"/>
          <path id="Path_544" data-name="Path 544" d="M42.985,18.555A17.179,17.179,0,0,0,57.227,15.26,28.222,28.222,0,0,1,42.9,28.016Z" transform="translate(381.632 225.5)" fill="#ea7d7a"/>
          <path id="Path_545" data-name="Path 545" d="M45.9,15.762a3.467,3.467,0,0,0,2.814,3.886c1.62,0,2.985-1.605,3.07-3.717a3.467,3.467,0,0,0-2.814-3.97Q46.028,12.467,45.9,15.762Z" transform="translate(403.96 200.215)" fill="#d09a93"/>
          <path id="Path_546" data-name="Path 546" d="M46.2,12.867a.512.512,0,1,0,.512-.507A.509.509,0,0,0,46.2,12.867Z" transform="translate(406.475 203.226)" fill="#b77b77"/>
          <path id="Path_547" data-name="Path 547" d="M42.91,18.684l3.582-1.521a28.327,28.327,0,0,1,3.155-1.1,17.21,17.21,0,0,1,7.5-.676,8.446,8.446,0,0,1-2.473,3.548,9.748,9.748,0,0,1-3.667,2.027,9.037,9.037,0,0,1-4.264,0,5.894,5.894,0,0,1-3.838-2.281Z" transform="translate(381.707 225.312)" fill="#32354a"/>
          <path id="Path_548" data-name="Path 548" d="M45.9,15.762a3.467,3.467,0,0,0,2.814,3.886c1.62,0,2.985-1.605,3.07-3.717a3.467,3.467,0,0,0-2.814-3.97Q46.028,12.467,45.9,15.762Z" transform="translate(403.96 200.215)" fill="#fca29c"/>
          <path id="Path_549" data-name="Path 549" d="M46.1,12.29s1.706,0,1.876,1.1-1.535,1.1-1.535,1.1" transform="translate(405.722 202.699)" fill="none"/>
          <path id="Path_550" data-name="Path 550" d="M56.611,13.48a7.8,7.8,0,0,1-6.822,7.35,7.12,7.12,0,0,1-5.628-1.859,6.223,6.223,0,0,1-2.047-4.815,15.392,15.392,0,0,0,6.993,1.267C50.812,15.254,53.114,14.325,56.611,13.48Z" transform="translate(375.682 211.84)" fill="#2f3249"/>
          <path id="Path_551" data-name="Path 551" d="M46.613,11.8a17.421,17.421,0,0,1-3.582,4.646h0a46.216,46.216,0,0,1,2.644,4.393c-1.109-1.267-2.132-2.619-3.155-4.055h0A20.907,20.907,0,0,1,46.613,11.8Z" transform="translate(378.771 199.001)" fill="#2f3249"/>
          <path id="Path_552" data-name="Path 552" d="M44.182,11.9s-1.535,5.322.767,6.5,5.373-3.717,5.373-3.717" transform="translate(387.513 199.749)" fill="none"/>
          <path id="Path_553" data-name="Path 553" d="M42.636,11.5s-1.62,5.238,0,6.082,4.605-4.139,4.605-4.139" transform="translate(374.221 196.685)" fill="none"/>
          <path id="Path_554" data-name="Path 554" d="M79.123,13.35v18.67c-.768.422-9.893,1.014-13.56-17.571A110.317,110.317,0,0,1,41.6,25.6,22.7,22.7,0,0,1,60.276,9.379C74.433,8.7,79.123,13.35,79.123,13.35Z" transform="translate(371.846 180.061)" fill="#2f2f2f"/>
          <path id="Path_555" data-name="Path 555" d="M87.668,20.575c6.481-9.124,6.567-8.448,6.481-9.124s-9.21,7.6-9.21,7.6,5.2-6.589,4.605-8.025S77.52,21.166,77.52,21.166A8.4,8.4,0,0,0,75.388,15a1.977,1.977,0,0,0-2.3,0,25.121,25.121,0,0,1-1.364,13.263L62.34,42.2l1.876,3.126c1.535,2.534,3.07,5.153,4.52,7.772L79.993,37.048s14.583-14.361,15.18-15.8-5.8,3.126-5.8,3.126a37.362,37.362,0,0,0,5.8-7.772C95.77,14.577,87.668,20.575,87.668,20.575Z" transform="translate(527.977 192.401)" fill="#fca29c"/>
          <path id="Path_556" data-name="Path 556" d="M49.535,30.734S40.5,24.567,40.069,20.09c-.682,0-1.791.422-1.961,1.267a8.384,8.384,0,0,0,1.364,6.42S23.78,23.638,23.951,25.159s8.1,4.562,8.1,4.562S19.6,26.426,20.2,27.862s0,0,10.319,4.562c0,0-10.148-1.1-8.528,0a38.578,38.578,0,0,0,9.04,3.717s-7.846-.76-6.567,0,21.149,5.913,21.149,5.913L79.724,57.429l5.543-12.756Z" transform="translate(210.577 262.696)" fill="#fca29c"/>
          <path id="Path_557" data-name="Path 557" d="M365.539,12.94s-23.623,39.367-64.216,42.746a563.272,563.272,0,0,1-61.06,0h0l-48.1-3.21h0a39.966,39.966,0,0,0-25.584,5.238A482.706,482.706,0,0,1,108.334,90.66c-35.306,14.277-83.4-6.42-83.4-6.42L23.31,95.391c28.91,17.487,48.1,25.343,83.4,20.7,18.165-2.45,59.1-23.654,62.681-25.343l-2.814,70.2,65.666,1.69L234.8,93.194c8.528-2.534,51.168-7.434,66.092-10.222,34.112-6.336,60.975-41.056,74.45-65.893Z" transform="translate(234.158 209.018)" fill="#fca29c"/>
          <path id="Path_558" data-name="Path 558" d="M132.607,20.231A14.107,14.107,0,0,1,118.45,27.5c-17.056-1.605-13.645-9.462-13.645-9.462S92.014,14.4,74.19,27.327A258.011,258.011,0,0,1,34.62,50.559L41.869,80.8,78.028,68.13,74.19,148.638a338.766,338.766,0,0,1,52.362-4.815,114.8,114.8,0,0,0,32.918-3.379l-5.714-81.1,42.64-2.2,2.217-35.312S150.942,14.656,132.607,20.231Z" transform="translate(319.3 244.361)" fill="#fd6920"/>
          <path id="Path_559" data-name="Path 559" d="M132.607,20.231A14.107,14.107,0,0,1,118.45,27.5c-17.056-1.605-13.645-9.462-13.645-9.462S92.014,14.4,74.19,27.327A258.011,258.011,0,0,1,34.62,50.559L41.869,80.8,78.028,68.13,74.19,148.638a338.766,338.766,0,0,1,52.362-4.815,114.8,114.8,0,0,0,32.918-3.379l-5.714-81.1,42.64-2.2,2.217-35.312S150.942,14.656,132.607,20.231Z" transform="translate(319.3 244.361)" fill="none" opacity="0.25"/>
          <path id="Path_560" data-name="Path 560" d="M57.24,21.145A7.444,7.444,0,0,1,53.7,25.691a7.567,7.567,0,0,1-5.755.691,7.745,7.745,0,0,1-4.093-9.968,7.2,7.2,0,0,1,3.719-4.351,7.312,7.312,0,0,1,5.747-.3,6.964,6.964,0,0,1,4.025,3.841,6.868,6.868,0,0,1-.1,5.536Z" transform="translate(384.604 195.348)" fill="none"/>
          <path id="Path_561" data-name="Path 561" d="M52.764,19.665c-1.109,4.139-4.435,6.843-7.419,6a7.152,7.152,0,0,1-3.5-9.124c1.194-4.139,4.349-6.42,7.419-5.576a6.65,6.65,0,0,1,3.5,8.7Z" transform="translate(369.722 191.312)" fill="none"/>
          <path id="Path_562" data-name="Path 562" d="M42.74,12.168s4.093-2.2,5.628,1.521" transform="translate(380.428 196.838)" fill="none"/>
          <line id="Line_134" data-name="Line 134" y1="2.365" x2="8.443" transform="translate(442.526 212.136)" fill="none"/>
          <path id="Path_563" data-name="Path 563" d="M46.045,53.59l25.669,5.322L63.868,89.747,38.54,83.833Z" transform="translate(348.81 519.201)" fill="#faa09a"/>
          <path id="Path_564" data-name="Path 564" d="M46.441,54a58.587,58.587,0,0,1-.853,18.67c-1.45,7.265-4.179,15.8-4.179,15.8s3.326,19.177,8.528,18.754c.938,0,8.528-50.687,8.528-50.687Z" transform="translate(370.415 522.678)" fill="#09243e"/>
          <path id="Path_565" data-name="Path 565" d="M50.462,54.29,55.578,55.3l-6.567,51.109-6.652-1.352Z" transform="translate(377.567 524.878)" fill="#09243e"/>
          <line id="Line_135" data-name="Line 135" x1="8.102" y2="50.856" transform="translate(419.927 579.143)" fill="none"/>
          <path id="Path_566" data-name="Path 566" d="M47.931,60.27s-4.264-4.477-6.4-2.112c-3.241,3.633,3.752,3.126,5.884,2.872h0c-1.45.676-5.628,2.619-4.435,4.477s4.861-3.886,4.861-3.886" transform="translate(365.004 548.356)" fill="none"/>
          <path id="Path_567" data-name="Path 567" d="M47.8,25.647C29.039,22.521,64.174,23.7,70.4,41.022c3.5,9.884-31.383,16.9-31.383,16.9-2.217,5.913-9.125,4.139-11.769-1.267A21.45,21.45,0,0,1,25.03,44.232a18.513,18.513,0,0,1,6.826-14.774A18.9,18.9,0,0,1,47.8,25.647Z" transform="translate(245.912 294.852)" fill="#4a2b27"/>
          <path id="Path_568" data-name="Path 568" d="M56.837,77.7l2.217,19.514a249.628,249.628,0,0,1-28.739,1.943L27.671,65.364,25.88,54.551c0-8.448,1.45-20.359,8.528-24.752A54.18,54.18,0,0,1,50.7,24.73c10.575,0,12.792,9.715,15.095,19.852S69.543,72.207,56.837,77.7Z" transform="translate(253.505 298.67)" fill="#8d5c56"/>
          <path id="Path_569" data-name="Path 569" d="M49.008,35.245A56.134,56.134,0,0,1,26.92,30.43a46.358,46.358,0,0,0,23.2,14.7Z" transform="translate(261.334 341.591)" fill="#8d5c56" opacity="0.62"/>
          <path id="Path_570" data-name="Path 570" d="M31.571,31.085c0,2.2-.853,4.224-2.558,4.393s-3.326-1.352-3.582-3.633a3.629,3.629,0,0,1,2.558-4.393C29.695,27.2,31.145,28.888,31.571,31.085Z" transform="translate(249.264 318.538)" fill="#cf9c94"/>
          <path id="Path_571" data-name="Path 571" d="M31.571,31.085c0,2.2-.853,4.224-2.558,4.393s-3.326-1.352-3.582-3.633a3.629,3.629,0,0,1,2.558-4.393C29.695,27.2,31.145,28.888,31.571,31.085Z" transform="translate(249.264 318.538)" fill="#fcb9b4"/>
          <path id="Path_572" data-name="Path 572" d="M31.211,28.582s-1.279,22.471,6.225,19.092A62.66,62.66,0,0,1,67.967,41s1.791,21.88-6.225,23.738a23.485,23.485,0,0,1-18.312.114A23.163,23.163,0,0,1,30.7,51.813,46.251,46.251,0,0,1,26.095,26.47Z" transform="translate(253.291 311.585)" fill="#4a2b27"/>
          <path id="Path_573" data-name="Path 573" d="M32.108,49.473s42.64-3.97,33-17.994-27.2-6.082-34.88,0a14.348,14.348,0,0,0-3.241,16.3Z" transform="translate(252.395 289.946)" fill="#4a2b27"/>
          <path id="Path_574" data-name="Path 574" d="M27.288,27.76s-1.791,0-1.706,1.352,1.706.929,1.706.929" transform="translate(251.244 321.021)" fill="none"/>
          <path id="Path_575" data-name="Path 575" d="M28.221,29.6A16.34,16.34,0,0,0,35.3,30.779c1.791,0,4.008-1.014,7.59-1.859a8.406,8.406,0,0,1-1.961,4.731A8.554,8.554,0,0,1,35.9,36.27a7.55,7.55,0,0,1-5.543-1.859A6.309,6.309,0,0,1,28.221,29.6Z" transform="translate(271.12 329.951)" fill="#ececf5"/>
          <path id="Path_576" data-name="Path 576" d="M29.08,27a17.042,17.042,0,0,1,4.179,3.126h0a30.214,30.214,0,0,1-2.9,4.393c.768-1.605,1.535-3.126,2.388-4.646h0A15.244,15.244,0,0,1,29.08,27Z" transform="translate(277.595 315.265)" fill="#2f3249"/>
          <path id="Path_577" data-name="Path 577" d="M33.761,27a11.913,11.913,0,0,1,1.023,3.379,3.613,3.613,0,0,1-1.194,3.548,3.435,3.435,0,0,1-3.667-.76,17.475,17.475,0,0,1-2.473-2.534s0,0,0-.422h0a21.569,21.569,0,0,0,2.473,2.365c.938.591,2.047,1.1,2.814.591a2.857,2.857,0,0,0,.938-2.788,10.9,10.9,0,0,0-.768-3.295Z" transform="translate(265.324 315.261)" fill="#2f3249"/>
          <path id="Path_578" data-name="Path 578" d="M34.592,26.428a20.136,20.136,0,0,1,1.023,3.21c0,1.014.512,2.365-.767,3.379s-2.558-.591-3.326-1.267a31.823,31.823,0,0,1-2.132-2.619h0A19.252,19.252,0,0,0,31.607,31.5c.682.676,1.791,1.352,2.388,1.1s.682-1.69.512-2.619a18.61,18.61,0,0,0-.768-3.126h0A.957.957,0,0,1,34.592,26.428Z" transform="translate(279.929 310.813)" fill="#2f3249"/>
          <path id="Path_579" data-name="Path 579" d="M15.194,66.256h0a251.076,251.076,0,0,0,1.45,28.216,13.907,13.907,0,0,0,18.676,2.2c-2.644-17.909-5.373-39.282-5.373-39.282s2.388-12.08,6.908-14.53a2.218,2.218,0,0,0-2.217-1.436,10.061,10.061,0,0,0-6.14,4.308s-2.729-18.078-4.264-16.9-1.109,10.391-1.109,10.391-2.217-14.446-3.411-13.094,0,0,0,12.672c0,0-3.411-10.9-4.093-8.87a44.607,44.607,0,0,0,0,11.067s-2.729-8.448-3.241-6.758a140.641,140.641,0,0,0,2.047,16.9,74.153,74.153,0,0,1,.768,15.037Z" transform="translate(151.877 308.697)" fill="#fca29c"/>
          <path id="Path_580" data-name="Path 580" d="M52.407,83.772A112.449,112.449,0,0,0,70.06,86.307h2.217C66.819,70,61.7,56.908,61.7,56.908S61.02,44.152,64.858,40.52a2.4,2.4,0,0,0-2.558-.845A10.334,10.334,0,0,0,57.268,45.5S49.849,28.1,48.74,29.369,50.275,40.1,50.275,40.1s-5.884-13.939-6.737-12.334,0,0,3.07,12.756c0,0-6.225-10.053-6.4-7.856A43.018,43.018,0,0,0,43.2,43.645s-4.861-7.688-4.946-5.913S47.8,61.555,47.8,61.555,50.531,77.268,52.407,83.772Z" transform="translate(346.626 320.737)" fill="#fca29c"/>
          <path id="Path_581" data-name="Path 581" d="M266,47.891l-22,2.7c0,.76,5.97,42.239,8.528,51.109,0,0-59.7-55.249-89.8-52.207a22.182,22.182,0,0,1-13.73,6.167,25.781,25.781,0,0,1-16.033-3.548,41.815,41.815,0,0,0-22.77,9.715c-16.2,14.361-37.95,37.424-57.905,47.815A311.07,311.07,0,0,1,34.634,30.32c-4.349,1.352-16.2,1.943-20.467,3.379L12.12,57.268c.6,67.583,24.646,85.154,27.46,85.914,5.97,3.886,41.361-2.027,76.752-43.337-4.264,25.766-7.419,59.81-12.963,88.111l101.4-2.281a209.661,209.661,0,0,1-8.528-29.229,192.614,192.614,0,0,0-8.016-50.687s63.7,45.2,87.412,43S269.581,55.241,266,47.891Z" transform="translate(149.92 342.876)" fill="#d2dbe4"/>
          <path id="Path_582" data-name="Path 582" d="M206.329,94.38,28.179,144.138,16.41,105.025S168.72,45.89,208.8,45.89a20.444,20.444,0,0,1,15.847,8.037,20.039,20.039,0,0,1,3.426,17.306,29.936,29.936,0,0,1-21.746,23.147Z" transform="translate(182.215 461.398)" fill="#053a72"/>
          <path id="Path_583" data-name="Path 583" d="M42.954,46.186,230.57,108.531l-11.939,34.8S25.727,100.252,20.525,92.058,6.539,45.595,42.954,46.186Z" transform="translate(176.736 463.595)" fill="#105ffb"/>
          <path id="Path_584" data-name="Path 584" d="M18.09,52.36,78.809,78.295l18.335-5.069Z" transform="translate(194.862 509.592)" fill="#022a50"/>
          <path id="Path_585" data-name="Path 585" d="M123.536,31.014A23.953,23.953,0,0,0,97.1,25.354a83.046,83.046,0,0,1-41.7,1.859A42.156,42.156,0,0,0,11.819,43.6a41.284,41.284,0,0,0,2.132,57.7c19.017,19.43,59.7,34.636,87.753-23.569C101.7,77.9,144.259,53.824,123.536,31.014Z" transform="translate(66.902 290.025)" fill="#1c141e"/>
          <path id="Path_586" data-name="Path 586" d="M41.071,108.613V76.765c13.645-3.8,14.156-20.613,12.707-32.355a22.836,22.836,0,0,0-20.3-19.937,18.745,18.745,0,0,0-9.892,1.774C15.828,29.964,13.1,41.622,12.161,50.408l.682,11.067L11.82,107.092C11.138,107.515,41.071,108.613,41.071,108.613Z" transform="translate(147.576 296.189)" fill="#faa09a"/>
          <path id="Path_587" data-name="Path 587" d="M28.7,33.718A18.3,18.3,0,0,1,13.43,30.17,30.261,30.261,0,0,0,28.866,43.94Z" transform="translate(159.782 339.59)" fill="#e87d7a"/>
          <path id="Path_588" data-name="Path 588" d="M17.718,30.834a3.72,3.72,0,0,1-2.985,4.224,4.3,4.3,0,0,1,0-8.448,3.72,3.72,0,0,1,2.985,4.224Z" transform="translate(143.299 312.292)" fill="#ce9891"/>
          <path id="Path_589" data-name="Path 589" d="M12.669,27.567a.509.509,0,0,1-.512.507.515.515,0,0,1-.418-.115.511.511,0,0,1,.333-.9S12.669,27.229,12.669,27.567Z" transform="translate(145.704 315.652)" fill="#b57b77"/>
          <path id="Path_590" data-name="Path 590" d="M28.545,33.865a7.72,7.72,0,0,1-8.528,2.45,9.6,9.6,0,0,1-6.567-6,19.706,19.706,0,0,1,8.528.76q3.352,1.23,6.567,2.788Z" transform="translate(159.932 339.353)" fill="#32354a"/>
          <path id="Path_591" data-name="Path 591" d="M17.718,30.834a3.72,3.72,0,0,1-2.985,4.224,4.3,4.3,0,0,1,0-8.448,3.72,3.72,0,0,1,2.985,4.224Z" transform="translate(143.299 312.292)" fill="#faa09a"/>
          <path id="Path_592" data-name="Path 592" d="M13.616,27s-1.876,0-2.047,1.183,1.706,1.267,1.706,1.267" transform="translate(145.695 315.209)" fill="none"/>
          <path id="Path_593" data-name="Path 593" d="M14.283,28.26A16.493,16.493,0,0,0,21.7,30.287c1.791,0,4.264-.76,8.528-1.267a8.423,8.423,0,0,1-2.558,4.815,8.57,8.57,0,0,1-5.543,2.281,7.708,7.708,0,0,1-5.8-2.534,6.472,6.472,0,0,1-2.047-5.322Z" transform="translate(166.007 324.907)" fill="#2f3249"/>
          <path id="Path_594" data-name="Path 594" d="M15.33,26.72a24.168,24.168,0,0,1,4.52,4.815h0a39.508,39.508,0,0,1-3.923,2.619,42.524,42.524,0,0,1,3.582-3.126h0A24.347,24.347,0,0,1,15.33,26.72Z" transform="translate(174.085 313.122)" fill="#2f3249"/>
          <path id="Path_595" data-name="Path 595" d="M20.608,26.56a17.926,17.926,0,0,1,.682,3.717,3.869,3.869,0,0,1-1.535,3.633,3.516,3.516,0,0,1-3.838-1.183A13.54,13.54,0,0,1,13.53,29.77h.426a14.743,14.743,0,0,0,2.388,2.7c.938.76,2.132,1.436,2.985,1.014s1.279-1.774,1.279-2.957a16.152,16.152,0,0,0,0-3.548h0Z" transform="translate(160.534 311.899)" fill="#2f3249"/>
          <path id="Path_596" data-name="Path 596" d="M21.324,26.128a12.655,12.655,0,0,1,.768,3.464c0,1.1,0,2.7-1.109,3.548s-2.644-.845-3.411-1.69a17.9,17.9,0,0,1-1.961-2.957h.426a16.9,16.9,0,0,0,2.047,2.788c.682.76,1.706,1.69,2.473,1.352s.853-1.605.853-2.7a15.665,15.665,0,0,0-.6-3.379h0S21.324,26.044,21.324,26.128Z" transform="translate(176.193 308.522)" fill="#2f3249"/>
          <path id="Path_597" data-name="Path 597" d="M31.188,26.077s-5.2,17.487-17.909,19.177A18.435,18.435,0,0,1,14.815,27.6C21.125,21.177,31.188,26.077,31.188,26.077Z" transform="translate(146.884 294.664)" fill="#1c141e"/>
          <path id="Path_598" data-name="Path 598" d="M35.2,32.576s-3.411-11.151-21.746-7.688C13.281,24.888,27.693,33.758,35.2,32.576Z" transform="translate(159.931 294.017)" fill="#1c141e"/>
          <path id="Path_599" data-name="Path 599" d="M140.448,61.579c.426-1.605-5.714,4.055-5.714,4.055a38.518,38.518,0,0,0,5.2-8.955c.426-1.943-7.5,5.407-7.5,5.407,5.8-10.475,5.97-9.8,5.8-10.475s-8.528,9.208-8.528,9.208,4.776-7.687,3.923-9.039-11.513,12.08-11.513,12.08a9.172,9.172,0,0,0-2.985-6.336,2.235,2.235,0,0,0-2.473,0c2.558,4.055-1.109,15.122-1.109,15.122a154.939,154.939,0,0,1-45.284,40.972A162.575,162.575,0,0,1,58.494,91.062,270.4,270.4,0,0,1,45.531,54.483C39.391,33.11,30.692,33.7,30.692,33.7c-11.854,0-17.056,7.012-17.482,20.444a88.773,88.773,0,0,0,9.381,39.62C41.1,131.443,56.7,144.452,63.355,144.452c3.155.76,29.336-3.717,59.7-57.867h0l3.241-6.5S140.107,62.762,140.448,61.579Z" transform="translate(158.126 368.039)" fill="#faa09a"/>
          <path id="Path_600" data-name="Path 600" d="M7.856,62.834a2.668,2.668,0,0,0-.938-1.69A8.4,8.4,0,0,1,6.15,59.37a6.128,6.128,0,0,1,1.109,1.605,4.028,4.028,0,0,1,.6,1.859Z" transform="translate(104.978 566.518)" fill="#415569"/>
          <path id="Path_601" data-name="Path 601" d="M7.765,62.8A11.6,11.6,0,0,1,7,61.029,9.664,9.664,0,0,1,6.23,59.17a4.389,4.389,0,0,1,1.109,1.69A3.939,3.939,0,0,1,7.765,62.8Z" transform="translate(105.58 561.281)" fill="#415569"/>
          <path id="Path_602" data-name="Path 602" d="M5.89,59.647a2.23,2.23,0,0,1,2.132.676A2.272,2.272,0,0,1,8.96,62.35a2.294,2.294,0,0,0-1.194-1.774,5.563,5.563,0,0,0-1.876-.929Z" transform="translate(103.02 568.184)" fill="#415569"/>
          <path id="Path_603" data-name="Path 603" d="M30.506,55.743,4.24,55.49l.938,31.764L31.1,86.916Z" transform="translate(90.599 533.664)" fill="#faa09a"/>
          <path id="Path_604" data-name="Path 604" d="M18.1,55.867a25.811,25.811,0,0,1-3.155,18.416c-3.241,3.971-1.706,15.882-1.706,15.882s-5.2,16.9-9.722,14.953c-.938,0,1.023-49.758,1.023-49.758Z" transform="translate(83.223 533.031)" fill="#fffbf9"/>
          <path id="Path_605" data-name="Path 605" d="M9.016,55.509l-6.4-.169.085,50.349,5.287-.422Z" transform="translate(78.404 532.886)" fill="#fffbf9"/>
          <line id="Line_136" data-name="Line 136" x1="1.023" y2="49.758" transform="translate(86.397 588.388)" fill="none"/>
          <path id="Path_606" data-name="Path 606" d="M10.709,66.694s0-2.281-3.582-2.7S3.29,59.26,3.29,59.26" transform="translate(83.448 565.699)" fill="none"/>
          <path id="Path_607" data-name="Path 607" d="M14.948,55.42s0,12.249-11.6,11.911" transform="translate(83.899 532.751)" fill="none"/>
          <path id="Path_608" data-name="Path 608" d="M4.566,60.723s5.117-3.464,6.567-.676c2.388,4.224-4.349,2.2-6.225,1.605h0s4.861,3.8,3.326,5.322S4.31,62.159,4.31,62.159" transform="translate(91.126 559.775)" fill="none"/>
          <path id="Path_609" data-name="Path 609" d="M6.831,70.943,6.66,55.652l32.918-.422L56.89,64.607Z" transform="translate(108.817 531.368)" fill="#7f8ead"/>
          <path id="Path_610" data-name="Path 610" d="M90.721,51.18s99.692,13.348,102.336,42.915-26.1,38.522-55.944,38.944c-10.575,0-128.773,1.014-128.773,1.014V94.095h103.1s-85.28-9.039-76.752-42.83Z" transform="translate(121.464 501.671)" fill="#7f8ead"/>
          <path id="Path_611" data-name="Path 611" d="M29.406,56.948,3.14,56.61l.938,31.764L30,88.12Z" transform="translate(82.318 542.239)" fill="#faa09a"/>
          <path id="Path_612" data-name="Path 612" d="M16.957,57.071A25.811,25.811,0,0,1,13.8,75.488c-3.241,3.886-1.706,15.8-1.706,15.8s-5.2,16.473-9.722,15.037C1.436,106.322,3.4,56.48,3.4,56.48Z" transform="translate(74.641 541.612)" fill="#fffbf9"/>
          <path id="Path_613" data-name="Path 613" d="M7.916,56.629l-6.4-.169.085,50.433,5.287-.422Z" transform="translate(70.123 541.469)" fill="#fffbf9"/>
          <line id="Line_137" data-name="Line 137" x1="1.023" y2="49.842" transform="translate(77.015 598.09)" fill="none"/>
          <path id="Path_614" data-name="Path 614" d="M9.609,67.9s0-2.365-3.667-2.788S2.19,60.38,2.19,60.38" transform="translate(75.167 574.04)" fill="none"/>
          <path id="Path_615" data-name="Path 615" d="M13.848,56.55S13.678,68.8,2.25,68.8" transform="translate(75.618 541.402)" fill="none"/>
          <path id="Path_616" data-name="Path 616" d="M3.541,61.81s5.032-3.379,6.567-.676C12.5,65.443,5.758,63.415,3.8,62.739h0s4.861,3.717,3.326,5.322-3.923-4.9-3.923-4.9" transform="translate(82.77 571.85)" fill="none"/>
          <path id="Path_617" data-name="Path 617" d="M90.064,51.19s97.646,13.263,99.863,42.83-26.1,38.522-55.944,38.944c-10.575,0-128.773,1.014-128.773,1.014V94.02H82.9S23.2,105.678,31.732,51.19Z" transform="translate(97.901 501.746)" fill="#9daed8"/>
          <line id="Line_138" data-name="Line 138" x2="128.688" transform="translate(103.111 595.217)" fill="none"/>
          <path id="Path_618" data-name="Path 618" d="M160.282,90.713A135.5,135.5,0,0,1,125.488,119.1a162.568,162.568,0,0,1-11.769-22.556A270.366,270.366,0,0,1,101.1,60.216C94.958,38.843,86.344,39.1,86.344,39.1L57.264,32.93c-11.172,0-21.746,11.911-30.36,29.821C14.794,88.094,1.32,127.461,7.29,132.107a42.956,42.956,0,0,0,22,5.66l-1.62,50.687c8.528.676,17.056,2.788,25.584,3.21a336.35,336.35,0,0,0,39.144.676,44.27,44.27,0,0,0,17.056-3.8c-.426-13.263-1.876-28.723-2.814-40.634a17.654,17.654,0,0,0,0-2.112c5.884,5.745,10.575,8.448,13.133,8.448s26.522-3.886,53.641-45.872Z" transform="translate(102.559 363.003)" fill="#fbb97e"/>
          <path id="Path_619" data-name="Path 619" d="M160.282,90.713A135.5,135.5,0,0,1,125.488,119.1a162.568,162.568,0,0,1-11.769-22.556A270.366,270.366,0,0,1,101.1,60.216C94.958,38.843,86.344,39.1,86.344,39.1L57.264,32.93c-11.172,0-21.746,11.911-30.36,29.821C14.794,88.094,1.32,127.461,7.29,132.107a42.956,42.956,0,0,0,22,5.66l-1.62,50.687c8.528.676,17.056,2.788,25.584,3.21a336.35,336.35,0,0,0,39.144.676,44.27,44.27,0,0,0,17.056-3.8c-.426-13.263-1.876-28.723-2.814-40.634a17.654,17.654,0,0,0,0-2.112c5.884,5.745,10.575,8.448,13.133,8.448s26.522-3.886,53.641-45.872Z" transform="translate(102.559 363.003)" fill="#fbb97e" opacity="0.52"/>
          <line id="Line_139" data-name="Line 139" y1="80.761" x2="2.644" transform="translate(129.804 470.007)" fill="none"/>
          <path id="Path_620" data-name="Path 620" d="M15,42.56A99.587,99.587,0,0,0,48.43,81.927" transform="translate(171.6 434.794)" fill="none"/>
          <ellipse id="_1c1c8477-432b-479a-aac9-e76a931e16e1-2" data-name="1c1c8477-432b-479a-aac9-e76a931e16e1" cx="230.256" cy="228.091" rx="230.256" ry="228.091" transform="translate(103.708 157.135)" fill="none"/>
        </g>
        <ellipse id="cc77b3ac-6943-41ce-a86c-cfe7abfbe0e4" cx="158.184" cy="156.696" rx="158.184" ry="156.696" transform="translate(50.335 66.217)" fill="none"/>
        <path id="Path_621" data-name="Path 621" d="M188.047,6.921c-68.2-10.8-135.581,23.51-166.415,84.73A155.533,155.533,0,0,0,53.374,274.314v74.012H85.52l-.351,43.792h23.89l-.351-43.792H272.657V274.314A155.6,155.6,0,0,0,313.9,114.81C296.05,58.195,247.441,16.428,188.34,6.921Z" transform="translate(45.678 61.622)" fill="none"/>
      </g>
      <g id="Get_Started" data-name="Get Started" transform="translate(43.408 168)">
        <rect id="Rectangle_277" data-name="Rectangle 277" width="221" height="57" rx="3" transform="translate(-0.408)" fill="#fff"/>
        <text id="Get_Started-2" data-name="Get Started" transform="translate(105.592 36)" fill="#293146" font-size="25" font-family="Avenir-Book, Avenir"><tspan x="-64.775" y="0">Get Started</tspan></text>
      </g>
      <text id="Refer_a_friend_get_paid_instantly" data-name="Refer a friend &amp;
get paid instantly" transform="translate(43 82.015)" fill="#293146" font-size="32" font-family="Avenir-Heavy, Avenir" font-weight="800"><tspan x="0" y="0">Refer a friend &amp;</tspan><tspan x="0" y="39">get paid instantly</tspan></text>
    </g>
  </g>
</svg>
