<svg xmlns="http://www.w3.org/2000/svg" width="22.726" height="23.063" viewBox="0 0 22.726 23.063">
  <path id="search" d="M23.364,21.007l-5.6-5.709a9.17,9.17,0,0,0,2.23-5.986A9.42,9.42,0,0,0,10.488,0a9.42,9.42,0,0,0-9.5,9.312,9.42,9.42,0,0,0,9.5,9.312,9.536,9.536,0,0,0,5.445-1.685l5.645,5.752a1.258,1.258,0,0,0,1.752.034A1.2,1.2,0,0,0,23.364,21.007ZM10.488,2.429a6.962,6.962,0,0,1,7.024,6.883,6.962,6.962,0,0,1-7.024,6.883A6.962,6.962,0,0,1,3.463,9.312,6.962,6.962,0,0,1,10.488,2.429Z" transform="translate(-0.984)" fill="#95a4b3"/>
</svg>
