<svg xmlns="http://www.w3.org/2000/svg" width="183" height="183" viewBox="0 0 183 183">
  <g id="Subcription_Payment_Icon" data-name="Subcription Payment Icon" transform="translate(-0.323 -0.158)">
    <g id="Subcription" transform="translate(0.321 0.158)">
      <g id="Group_474" data-name="Group 474" transform="translate(0)">
        <circle id="Ellipse_59" data-name="Ellipse 59" cx="91.5" cy="91.5" r="91.5" transform="translate(0.001)" fill="#fed402"/>
      </g>
    </g>
    <g id="Group_488" data-name="Group 488" transform="translate(29.305 17.408)">
      <g id="Group_476" data-name="Group 476" transform="translate(0 95.496)">
        <path id="Path_708" data-name="Path 708" d="M178.306,339.088H93.28a11.518,11.518,0,0,1,0-23.036h85.026a11.518,11.518,0,0,1,0,23.036Z" transform="translate(-81.762 -316.052)" fill="#0091c8"/>
      </g>
      <g id="Group_477" data-name="Group 477" transform="translate(68.519 0)">
        <path id="Path_709" data-name="Path 709" d="M309.974,97.022l5.928-5.928,5.928,5.928,5.928-5.928.325.325V62.929a14.168,14.168,0,0,0-14.168-14.168H273.545V98h23.591l6.911-6.911Z" transform="translate(-273.545 -48.761)" fill="#afe6ff"/>
      </g>
      <g id="Group_478" data-name="Group 478" transform="translate(68.519)">
        <path id="Path_710" data-name="Path 710" d="M297.136,98l6.911-6.911,3.655,3.655V62.929a14.171,14.171,0,0,1,10.19-13.6,14.169,14.169,0,0,0-3.978-.57H273.545V98h23.591Z" transform="translate(-273.545 -48.761)" fill="#94deff"/>
      </g>
      <g id="Group_479" data-name="Group 479" transform="translate(10.317 103.566)">
        <path id="Path_711" data-name="Path 711" d="M194.217,346.1H114.372a3.732,3.732,0,0,1,0-7.464h79.845a3.732,3.732,0,1,1,0,7.464Z" transform="translate(-110.64 -338.639)" fill="#0073aa"/>
      </g>
      <g id="Group_480" data-name="Group 480" transform="translate(14.049 0)">
        <path id="Path_712" data-name="Path 712" d="M215.1,48.761H135.253a14.168,14.168,0,0,0-14.168,14.168v93.13H200.93V62.929A14.169,14.169,0,0,1,215.1,48.761Z" transform="translate(-121.085 -48.761)" fill="#fff"/>
      </g>
      <g id="Group_481" data-name="Group 481" transform="translate(14.049 0)">
        <path id="Path_713" data-name="Path 713" d="M146.669,48.761H135.253a14.168,14.168,0,0,0-14.168,14.168v93.13H132.5V62.929a14.168,14.168,0,0,1,14.168-14.168Z" transform="translate(-121.085 -48.761)" fill="#e1faff"/>
      </g>
      <g id="Group_482" data-name="Group 482" transform="translate(25.465 24.37)">
        <path id="Path_714" data-name="Path 714" d="M153.039,116.971h32.522v7.481H153.039Z" transform="translate(-153.039 -116.971)" fill="#6ee1ff"/>
      </g>
      <g id="Group_483" data-name="Group 483" transform="translate(71.301 24.37)">
        <path id="Path_715" data-name="Path 715" d="M281.331,116.971h11.424v7.481H281.331Z" transform="translate(-281.331 -116.971)" fill="#fe646f"/>
      </g>
      <g id="Group_484" data-name="Group 484" transform="translate(25.465 44.785)">
        <path id="Path_716" data-name="Path 716" d="M153.039,174.113h32.522v7.481H153.039Z" transform="translate(-153.039 -174.113)" fill="#6ee1ff"/>
      </g>
      <g id="Group_485" data-name="Group 485" transform="translate(71.301 44.785)">
        <path id="Path_717" data-name="Path 717" d="M281.331,174.113h11.424v7.481H281.331Z" transform="translate(-281.331 -174.113)" fill="#fe646f"/>
      </g>
      <g id="Group_486" data-name="Group 486" transform="translate(25.465 65.824)">
        <path id="Path_718" data-name="Path 718" d="M153.039,233h32.522v7.481H153.039Z" transform="translate(-153.039 -232.999)" fill="#6ee1ff"/>
      </g>
      <g id="Group_487" data-name="Group 487" transform="translate(71.301 65.824)">
        <path id="Path_719" data-name="Path 719" d="M281.331,233h11.424v7.481H281.331Z" transform="translate(-281.331 -232.999)" fill="#fe646f"/>
      </g>
    </g>
    <g id="Group_502" data-name="Group 502" transform="translate(62.09 110.066)">
      <g id="Group_489" data-name="Group 489" transform="translate(0)">
        <path id="Path_720" data-name="Path 720" d="M173.526,308.107h95.922v46.4H173.526Z" transform="translate(-173.526 -308.107)" fill="#5d913f"/>
      </g>
      <g id="Group_490" data-name="Group 490" transform="translate(0)">
        <path id="Path_721" data-name="Path 721" d="M263.848,313.707v35.2H179.126v-35.2Zm5.6-5.6H173.526v46.4h95.922Z" transform="translate(-173.526 -308.107)" fill="#3d772a"/>
      </g>
      <g id="Group_491" data-name="Group 491">
        <path id="Path_722" data-name="Path 722" d="M173.525,321.291a9.443,9.443,0,0,0,13.123-13.184H173.525v13.184Z" transform="translate(-173.525 -308.107)" fill="#3d772a"/>
      </g>
      <g id="Group_492" data-name="Group 492" transform="translate(0 31.654)">
        <path id="Path_723" data-name="Path 723" d="M178.93,396.706a9.4,9.4,0,0,0-5.4,1.7v13.042H186.75a9.446,9.446,0,0,0-7.82-14.743Z" transform="translate(-173.526 -396.706)" fill="#3d772a"/>
      </g>
      <g id="Group_493" data-name="Group 493" transform="translate(80.052 0)">
        <path id="Path_724" data-name="Path 724" d="M397.588,313.547a9.443,9.443,0,0,0,15.87,6.92v-12.36H399.314A9.4,9.4,0,0,0,397.588,313.547Z" transform="translate(-397.588 -308.107)" fill="#3d772a"/>
      </g>
      <g id="Group_494" data-name="Group 494" transform="translate(80.052 31.654)">
        <path id="Path_725" data-name="Path 725" d="M413.458,399.23a9.444,9.444,0,0,0-14.245,12.217h14.245Z" transform="translate(-397.588 -396.705)" fill="#3d772a"/>
      </g>
      <g id="Group_495" data-name="Group 495" transform="translate(32.194 7.431)">
        <circle id="Ellipse_60" data-name="Ellipse 60" cx="15.767" cy="15.767" r="15.767" fill="#3d772a"/>
      </g>
      <g id="Group_497" data-name="Group 497" transform="translate(9.609 20.212)">
        <g id="Group_496" data-name="Group 496">
          <path id="Path_726" data-name="Path 726" d="M200.42,364.679h18.117v5.973H200.42Z" transform="translate(-200.42 -364.679)" fill="#6eaa50"/>
        </g>
      </g>
      <g id="Group_499" data-name="Group 499" transform="translate(68.219 20.212)">
        <g id="Group_498" data-name="Group 498">
          <path id="Path_727" data-name="Path 727" d="M364.469,364.679h18.117v5.973H364.469Z" transform="translate(-364.469 -364.679)" fill="#6eaa50"/>
        </g>
      </g>
      <g id="Group_501" data-name="Group 501" transform="translate(42.446 12.806)">
        <g id="Group_500" data-name="Group 500">
          <path id="Path_728" data-name="Path 728" d="M296.784,362.734a10.849,10.849,0,0,1-4.377-.967v-3.792l2.52-.178v1.476c0,.458.076.636.509.789a4.169,4.169,0,0,0,1.349.2V355.5c-2.341-.636-4.453-1.629-4.453-4.581,0-2.545,1.756-4.25,4.453-4.632v-2.341h1.909v2.291a10.586,10.586,0,0,1,3.945.967V350.8l-2.494.153v-1.374c0-.458-.076-.636-.509-.789a5.167,5.167,0,0,0-.942-.178v4.479h.026c2.239.687,4.581,1.68,4.581,4.76,0,2.748-1.909,4.4-4.606,4.81v2.621h-1.909Zm0-10.308v-3.665a1.821,1.821,0,0,0-1.323,1.883A1.87,1.87,0,0,0,296.784,352.426Zm1.909,3.691v3.97a2,2,0,0,0,1.451-2.113A1.948,1.948,0,0,0,298.693,356.117Z" transform="translate(-292.331 -343.951)" fill="#6eaa50"/>
        </g>
      </g>
    </g>
    <g id="Group_516" data-name="Group 516" transform="translate(74.699 122.33)">
      <g id="Group_503" data-name="Group 503" transform="translate(0 0)">
        <path id="Path_729" data-name="Path 729" d="M208.819,342.432h95.922v46.4H208.819Z" transform="translate(-208.819 -342.432)" fill="#97d729"/>
      </g>
      <g id="Group_504" data-name="Group 504" transform="translate(0)">
        <path id="Path_730" data-name="Path 730" d="M299.141,348.032v35.2H214.419v-35.2Zm5.6-5.6H208.819v46.4h95.922Z" transform="translate(-208.819 -342.432)" fill="#6eaa50"/>
      </g>
      <g id="Group_505" data-name="Group 505" transform="translate(0 0)">
        <path id="Path_731" data-name="Path 731" d="M208.818,355.616a9.443,9.443,0,0,0,13.123-13.184H208.818v13.184Z" transform="translate(-208.818 -342.432)" fill="#6eaa50"/>
      </g>
      <g id="Group_506" data-name="Group 506" transform="translate(0 31.654)">
        <path id="Path_732" data-name="Path 732" d="M214.223,431.03a9.4,9.4,0,0,0-5.4,1.7v13.042h13.224a9.446,9.446,0,0,0-7.82-14.743Z" transform="translate(-208.819 -431.03)" fill="#6eaa50"/>
      </g>
      <g id="Group_507" data-name="Group 507" transform="translate(80.052 0)">
        <path id="Path_733" data-name="Path 733" d="M432.881,347.872a9.443,9.443,0,0,0,15.87,6.92v-12.36H434.607A9.4,9.4,0,0,0,432.881,347.872Z" transform="translate(-432.881 -342.432)" fill="#6eaa50"/>
      </g>
      <g id="Group_508" data-name="Group 508" transform="translate(80.052 31.654)">
        <path id="Path_734" data-name="Path 734" d="M448.751,433.555a9.444,9.444,0,0,0-14.245,12.217h14.245Z" transform="translate(-432.881 -431.03)" fill="#6eaa50"/>
      </g>
      <g id="Group_509" data-name="Group 509" transform="translate(32.194 7.431)">
        <circle id="Ellipse_61" data-name="Ellipse 61" cx="15.767" cy="15.767" r="15.767" fill="#6eaa50"/>
      </g>
      <g id="Group_511" data-name="Group 511" transform="translate(9.609 20.212)">
        <g id="Group_510" data-name="Group 510">
          <path id="Path_735" data-name="Path 735" d="M235.713,399H253.83v5.973H235.713Z" transform="translate(-235.713 -399.004)" fill="#8bc727"/>
        </g>
      </g>
      <g id="Group_513" data-name="Group 513" transform="translate(68.219 20.212)">
        <g id="Group_512" data-name="Group 512">
          <path id="Path_736" data-name="Path 736" d="M399.762,399h18.117v5.973H399.762Z" transform="translate(-399.762 -399.004)" fill="#8bc727"/>
        </g>
      </g>
      <g id="Group_515" data-name="Group 515" transform="translate(42.446 12.806)">
        <g id="Group_514" data-name="Group 514">
          <path id="Path_737" data-name="Path 737" d="M332.077,397.058a10.849,10.849,0,0,1-4.377-.968V392.3l2.52-.178V393.6c0,.458.076.636.509.789a4.171,4.171,0,0,0,1.349.2v-4.76c-2.341-.636-4.453-1.629-4.453-4.581,0-2.545,1.756-4.25,4.453-4.632v-2.341h1.909v2.29a10.587,10.587,0,0,1,3.945.967v3.588l-2.494.153V383.9c0-.458-.076-.636-.509-.789a5.169,5.169,0,0,0-.942-.178v4.479h.026c2.239.687,4.581,1.68,4.581,4.76,0,2.748-1.909,4.4-4.606,4.81V399.6h-1.909Zm0-10.308v-3.664a1.821,1.821,0,0,0-1.323,1.883A1.869,1.869,0,0,0,332.077,386.75Zm1.909,3.691v3.97a2,2,0,0,0,1.451-2.113A1.949,1.949,0,0,0,333.986,390.44Z" transform="translate(-327.624 -378.275)" fill="#97d729"/>
        </g>
      </g>
    </g>
    <g id="Group_522" data-name="Group 522" transform="translate(14.168 140.308)">
      <g id="Group_517" data-name="Group 517" transform="translate(0)">
        <circle id="Ellipse_62" data-name="Ellipse 62" cx="19.987" cy="19.987" r="19.987" fill="#fee45a"/>
      </g>
      <g id="Group_518" data-name="Group 518" transform="translate(4.085 4.085)">
        <path id="Path_738" data-name="Path 738" d="M66.731,407.026a15.9,15.9,0,0,1,15.835,14.482c.041-.468.066-.941.066-1.42a15.9,15.9,0,1,0-31.8,0c0,.479.025.951.066,1.42A15.9,15.9,0,0,1,66.731,407.026Z" transform="translate(-50.829 -404.187)" fill="#ffd23c"/>
      </g>
      <g id="Group_519" data-name="Group 519">
        <path id="Path_739" data-name="Path 739" d="M59.381,397.011a15.728,15.728,0,1,1-15.728,15.728,15.746,15.746,0,0,1,15.728-15.728m0-4.259a19.987,19.987,0,1,0,19.987,19.987A19.987,19.987,0,0,0,59.381,392.752Z" transform="translate(-39.394 -392.752)" fill="#faf58c"/>
      </g>
      <g id="Group_521" data-name="Group 521" transform="translate(12.996 6.814)">
        <g id="Group_520" data-name="Group 520">
          <path id="Path_740" data-name="Path 740" d="M81.415,435.632a13.755,13.755,0,0,1-5.548-1.227V429.6l3.194-.226v1.871c0,.581.1.807.645,1a5.293,5.293,0,0,0,1.71.258V426.47c-2.968-.807-5.645-2.065-5.645-5.807,0-3.226,2.225-5.388,5.645-5.872v-2.968h2.42v2.9a13.421,13.421,0,0,1,5,1.226V420.5l-3.162.194v-1.742c0-.581-.1-.807-.645-1a6.486,6.486,0,0,0-1.194-.226V423.4h.033c2.839.871,5.807,2.13,5.807,6.033,0,3.484-2.42,5.581-5.839,6.1v3.323h-2.42Zm0-13.066v-4.645a2.308,2.308,0,0,0-1.677,2.387A2.37,2.37,0,0,0,81.415,422.566Zm2.42,4.678v5.033a2.534,2.534,0,0,0,1.839-2.678A2.47,2.47,0,0,0,83.835,427.244Z" transform="translate(-75.77 -411.823)" fill="#ffd23c"/>
        </g>
      </g>
    </g>
  </g>
</svg>
