<svg id="tax_switch" data-name="tax switch" xmlns="http://www.w3.org/2000/svg" width="49.6" height="28" viewBox="0 0 49.6 28">
  <path id="Path_788" data-name="Path 788" d="M17.519,29.425H33.863a13.614,13.614,0,0,0,9.834,4.2,13.886,13.886,0,0,0,13.778-14,13.886,13.886,0,0,0-13.778-14,13.614,13.614,0,0,0-9.834,4.2H17.519a9.8,9.8,0,0,0,0,19.6ZM14.609,16.668a4.063,4.063,0,0,1,2.911-1.243H30.557a14.16,14.16,0,0,0,0,8.4H17.519a4.034,4.034,0,0,1-2.911-1.243,4.188,4.188,0,0,1,0-5.915Z" transform="translate(-7.875 -5.625)" fill="#105ffb"/>
</svg>
