<svg xmlns="http://www.w3.org/2000/svg" width="60.84" height="60.84" viewBox="0 0 60.84 60.84">
  <path id="twitter_1_" data-name="twitter (1)" d="M30.42,0A30.42,30.42,0,1,0,60.84,30.42,30.423,30.423,0,0,0,30.42,0ZM44.31,23.718q.02.449.02.9c0,9.226-7.023,19.866-19.866,19.866h0a19.764,19.764,0,0,1-10.7-3.136,14.2,14.2,0,0,0,1.665.1A14.01,14.01,0,0,0,24.1,38.458a6.99,6.99,0,0,1-6.523-4.85,6.959,6.959,0,0,0,3.154-.12,6.984,6.984,0,0,1-5.6-6.844c0-.032,0-.06,0-.089a6.934,6.934,0,0,0,3.162.873,6.988,6.988,0,0,1-2.162-9.322,19.824,19.824,0,0,0,14.392,7.3,6.986,6.986,0,0,1,11.9-6.368,14,14,0,0,0,4.434-1.695A7.01,7.01,0,0,1,43.783,21.2a13.925,13.925,0,0,0,4.01-1.1A14.19,14.19,0,0,1,44.31,23.718Zm0,0" fill="#a3a3a3"/>
</svg>
