<svg xmlns="http://www.w3.org/2000/svg" xmlns:xlink="http://www.w3.org/1999/xlink" width="45.466" height="61.256" viewBox="0 0 45.466 61.256">
  <defs>
    <linearGradient id="linear-gradient" x1="0.5" x2="0.5" y2="1" gradientUnits="objectBoundingBox">
      <stop offset="0" stop-color="red"/>
      <stop offset="1" stop-color="#fd2020"/>
    </linearGradient>
  </defs>
  <g id="fire-flame" transform="translate(-63.199 10.713)">
    <g id="Group_561" data-name="Group 561" transform="translate(63.199 -10.713)">
      <path id="Path_867" data-name="Path 867" d="M105.992,26.266l-3.187-6.5.353,7.23c.268,5.422-2.236,8.425-4.264,9.956.751-5.575,1.408-17.429-4.609-26.244C90.522,5.2,84.79,1.83,77.24.69L72.679,0l3.293,3.232C79.9,7.089,81.9,11.171,81.911,15.369a14.906,14.906,0,0,1-1.477,6.341c-.2-3.063-1.29-6.517-4.8-8.416l-2.373-1.281.171,2.69c.388,6.131-2.23,9.873-5,13.835-2.8,4-5.7,8.136-5.161,14.6.912,11.029,7.688,17.115,20.14,18.088.288.023.589.034.895.034,6.38,0,15.993-4.836,21.037-12.932C108.268,43.626,110.759,35.98,105.992,26.266ZM84.3,58.27c-.069,0-.131-.006-.2-.007.2,0,.375-.007.543-.009C84.532,58.256,84.412,58.27,84.3,58.27Zm18.5-11.524C98.732,53.278,91.144,57.512,85.716,58.17c5.884-1.836,9.218-24-2.816-27.578,3.174,5.509-1.689,10.661-5.885,13.16S69.988,48.6,71.7,53.977a4.489,4.489,0,0,0,.241.546c-3.4-2.544-5.261-6.376-5.7-11.633-.447-5.385,2.02-8.908,4.629-12.637,2.33-3.327,4.914-7.021,5.472-12.274,2.095,3.5.621,8.935.6,9l-1.506,5.392,3.992-3.923C79.657,28.231,84.9,22.99,84.9,15.4A18.1,18.1,0,0,0,81.15,4.647a19.817,19.817,0,0,1,10.662,7.739c7.231,10.576,3.672,26.865,3.635,27.031l-.579,2.564,2.5-.82a13.88,13.88,0,0,0,7.892-8A18.216,18.216,0,0,1,102.8,46.746Z" transform="translate(-63.199)" fill="url(#linear-gradient)"/>
      <path id="Path_868" data-name="Path 868" d="M299.613,36.95a8.4,8.4,0,0,1,1.375,3.378c.244,1.287.937,4.045.937,4.045l1.161-3.876c.987-3.521-.264-6.513-3.683-7.579l-5.44-1.063s2.023,1.688,3.164,2.53A11.868,11.868,0,0,1,299.613,36.95Z" transform="translate(-265.136 -27.876)" fill="url(#linear-gradient)"/>
    </g>
  </g>
</svg>
