<?xml version="1.0" encoding="utf-8"?>
<!-- Generator: Adobe Illustrator 25.0.0, SVG Export Plug-In . SVG Version: 6.00 Build 0)  -->
<svg version="1.1" id="Layer_1" xmlns="http://www.w3.org/2000/svg" xmlns:xlink="http://www.w3.org/1999/xlink" x="0px" y="0px"
	 viewBox="0 0 38 38" style="enable-background:new 0 0 38 38;" xml:space="preserve">
<style type="text/css">
	.st0{fill:#FFFFFF;}
	.st1{fill:#011B60;}
</style>
<g>
	<path class="st0" d="M20.2,38c-0.7,0-1.3,0-2,0c0-0.1,0.1-0.2,0.1-0.3c0.2-0.4,0.2-0.9-0.2-1.2c-0.4-0.3-0.9-0.3-1.3,0
		c-0.3,0.3-0.4,0.8-0.2,1.2c0,0.1,0.1,0.2,0.1,0.3c-0.7,0-1.3,0-2,0c0.1-0.3,0.3-0.6,0.3-0.9c0-0.5-0.5-0.8-1.1-0.8
		c-3.2,0-6.4,0-9.6,0c-1.6,0-2.7-1.1-2.7-2.7c0-6,0-12.1,0-18.1c0-1.6,1.1-2.7,2.7-2.7c8.7,0,17.4,0,26.2,0c1.6,0,2.7,1.1,2.7,2.7
		c0,1.5,0,3,0,4.5c0,0.1,0,0.2,0,0.4c-0.2,0-0.3,0-0.5,0c-1.6,0-3.2,0-4.9,0c-2.4,0-4.3,2-4.2,4.4c0.1,2.2,1.9,4,4.2,4
		c1.6,0,3.2,0,4.9,0c0.1,0,0.3,0,0.4,0c0,0.2,0,0.3,0,0.4c0,1.4,0,2.9,0,4.3c0,1.8-1.1,2.8-2.8,2.8c-3.1,0-6.3,0-9.4,0
		c-0.2,0-0.3,0-0.5,0c-0.6,0.2-0.9,0.8-0.6,1.4C20.1,37.8,20.1,37.9,20.2,38z"/>
	<path class="st1" d="M20.2,38c0-0.1-0.1-0.2-0.1-0.3c-0.3-0.6,0-1.2,0.6-1.4c0.2,0,0.3,0,0.5,0c3.1,0,6.3,0,9.4,0
		c1.8,0,2.8-1.1,2.8-2.8c0-1.4,0-2.9,0-4.3c0-0.1,0-0.3,0-0.4c-0.2,0-0.3,0-0.4,0c-1.6,0-3.2,0-4.9,0c-2.3,0-4.1-1.8-4.2-4
		c-0.1-2.4,1.8-4.4,4.2-4.4c1.6,0,3.2,0,4.9,0c0.1,0,0.3,0,0.5,0c0-0.1,0-0.3,0-0.4c0-1.5,0-3,0-4.5c0-1.6-1.1-2.7-2.7-2.7
		c-8.7,0-17.4,0-26.2,0c-1.6,0-2.7,1.1-2.7,2.7c0,6,0,12.1,0,18.1c0,1.6,1.1,2.7,2.7,2.7c3.2,0,6.4,0,9.6,0c0.7,0,1.1,0.3,1.1,0.8
		c0,0.3-0.2,0.6-0.3,0.9c-4,0-8,0-12,0c-0.5-0.3-1-0.6-1.5-0.9c-0.7-0.5-1-1.2-1.4-1.9c0-7.1,0-14.2,0-21.4c0.1-0.1,0.1-0.2,0.2-0.3
		c0.7-1.4,1.7-2.4,3.3-2.6c0.8-0.1,1.7-0.1,2.5-0.1c0.2,0,0.4-0.1,0.6-0.2c3-3,6-6,9-9c0.6-0.6,1.2-1.2,2-1.6c0.9,0,1.8,0,2.7,0
		c1,0.5,1.8,1.3,2.5,2.1c0.3,0.3,0.7,0.7,1,1c0.1,0.1,0.3,0.1,0.4,0.1C26,3,27.5,3.6,28.4,5.1c1.1,1.8,2.2,3.7,3.2,5.6
		c0.1,0.1,0.2,0.3,0.4,0.3c2.1,0.7,3.2,2.3,3.2,4.5c0,1.5,0,2.9,0,4.4c0,0.1,0,0.3,0,0.4c0.1,0,0.1,0,0.2,0c1.1-0.1,2,0.4,2.6,1.4
		c0,1.9,0,3.8,0,5.6c-0.6,1.1-1.6,1.5-2.8,1.4c0,1.7,0,3.3,0,4.9c0,1.4-0.5,2.5-1.5,3.4c-0.4,0.4-1,0.6-1.5,0.9
		C28.2,38,24.2,38,20.2,38z M29.5,10.7c-0.1-0.1-0.1-0.2-0.2-0.4C28.5,9,27.7,7.7,27,6.3c-0.7-1.3-1.8-1.6-3.1-0.9
		c-2.2,1.3-4.4,2.6-6.6,3.8c-0.8,0.5-1.6,0.9-2.5,1.4C19.7,10.7,24.6,10.7,29.5,10.7z M31.8,26.8C31.8,26.8,31.8,26.8,31.8,26.8
		c1.3,0,2.5,0,3.8,0c0.5,0,0.7-0.2,0.7-0.7c0-1.1,0-2.1,0-3.2c0-0.6-0.2-0.7-0.7-0.7c-2.5,0-4.9,0-7.4,0c-0.2,0-0.3,0-0.5,0
		c-1.2,0.2-2,1.3-1.9,2.5c0.1,1.1,1.1,2.1,2.3,2.1C29.3,26.8,30.5,26.8,31.8,26.8z M22.3,4.2C21.6,3.6,21,3,20.4,2.4
		c-0.9-0.9-2.1-0.9-3,0c-2.7,2.7-5.5,5.5-8.2,8.2c-0.1,0.1-0.1,0.1-0.2,0.2c0.5,0,1,0,1.5,0c0.2,0,0.4-0.1,0.5-0.1
		c2.2-1.2,4.3-2.5,6.5-3.7C19.1,6,20.7,5.1,22.3,4.2z"/>
	<path class="st0" d="M38,21.7c-0.6-1-1.4-1.5-2.6-1.4c0,0-0.1,0-0.2,0c0-0.1,0-0.3,0-0.4c0-1.5,0-2.9,0-4.4c0-2.2-1.2-3.8-3.2-4.5
		c-0.1,0-0.3-0.2-0.4-0.3c-1.1-1.9-2.1-3.7-3.2-5.6C27.5,3.6,26,3,24.3,3.2c-0.1,0-0.3,0-0.4-0.1c-0.4-0.3-0.7-0.7-1-1
		c-0.8-0.8-1.5-1.6-2.5-2.1C26.2,0,32.1,0,38,0C38,7.2,38,14.4,38,21.7z"/>
	<path class="st0" d="M17.6,0c-0.8,0.3-1.4,0.9-2,1.6c-3,3-6,6-9,9c-0.1,0.1-0.4,0.2-0.6,0.2c-0.8,0.1-1.7,0-2.5,0.1
		c-1.6,0.3-2.6,1.2-3.3,2.6c0,0.1-0.1,0.2-0.2,0.3C0,9.2,0,4.6,0,0C5.9,0,11.7,0,17.6,0z"/>
	<path class="st0" d="M32.2,38c0.5-0.3,1-0.6,1.5-0.9c1.1-0.9,1.5-2.1,1.5-3.4c0-1.6,0-3.2,0-4.9c1.2,0.1,2.2-0.3,2.8-1.4
		c0,3.6,0,7.1,0,10.7C36.1,38,34.1,38,32.2,38z"/>
	<path class="st0" d="M0,35.2c0.4,0.7,0.7,1.4,1.4,1.9c0.5,0.3,1,0.6,1.5,0.9c-0.9,0-1.9,0-2.8,0C0,37.1,0,36.1,0,35.2z"/>
	<path class="st1" d="M16.8,38c0-0.1-0.1-0.2-0.1-0.3c-0.2-0.4-0.2-0.9,0.2-1.2c0.4-0.3,0.9-0.3,1.3,0c0.3,0.3,0.4,0.8,0.2,1.2
		c0,0.1-0.1,0.2-0.1,0.3C17.7,38,17.3,38,16.8,38z"/>
	<path class="st0" d="M29.5,10.7c-4.9,0-9.8,0-14.8,0c0.9-0.5,1.7-1,2.5-1.4c2.2-1.3,4.4-2.6,6.6-3.8C25.1,4.7,26.2,5,27,6.3
		c0.8,1.4,1.6,2.7,2.4,4.1C29.4,10.5,29.4,10.6,29.5,10.7z"/>
	<path class="st0" d="M31.8,26.8c-1.2,0-2.5,0-3.7,0c-1.2,0-2.2-0.9-2.3-2.1c-0.1-1.2,0.7-2.3,1.9-2.5c0.2,0,0.3,0,0.5,0
		c2.5,0,4.9,0,7.4,0c0.6,0,0.7,0.2,0.7,0.7c0,1.1,0,2.1,0,3.2c0,0.5-0.2,0.7-0.7,0.7C34.3,26.8,33,26.8,31.8,26.8
		C31.8,26.8,31.8,26.8,31.8,26.8z M28.9,24.5c0-0.5-0.4-0.9-0.9-0.9c-0.5,0-0.9,0.4-1,0.9c0,0.5,0.4,1,1,1
		C28.5,25.4,28.9,25,28.9,24.5z"/>
	<path class="st0" d="M22.3,4.2c-1.6,0.9-3.1,1.8-4.7,2.7c-2.2,1.2-4.3,2.5-6.5,3.7c-0.2,0.1-0.3,0.1-0.5,0.1c-0.5,0-1,0-1.5,0
		c0.1-0.1,0.1-0.2,0.2-0.2c2.7-2.7,5.4-5.5,8.2-8.2c0.9-0.9,2.1-0.9,3,0C21,3,21.6,3.6,22.3,4.2z"/>
	<path class="st1" d="M28.9,24.5c0,0.5-0.4,0.9-0.9,1c-0.5,0-1-0.4-1-1c0-0.5,0.4-0.9,1-0.9C28.4,23.5,28.9,24,28.9,24.5z"/>
</g>
</svg>
