<svg id="Icon_ionic-ios-wallet" data-name="Icon ionic-ios-wallet" xmlns="http://www.w3.org/2000/svg" width="45.033" height="41.57" viewBox="0 0 45.033 41.57">
  <path id="Path_996" data-name="Path 996" d="M41.913,11.25H9.87a6.5,6.5,0,0,0-6.5,6.5V35.932a6.5,6.5,0,0,0,6.5,6.5H41.913a6.5,6.5,0,0,0,6.5-6.5V17.745A6.5,6.5,0,0,0,41.913,11.25Z" transform="translate(-3.375 -0.857)"/>
  <path id="Path_997" data-name="Path 997" d="M34.692,4.609,9.263,9.577C7.315,10.01,4.5,11.97,4.5,14.351a6.821,6.821,0,0,1,5.3-2.057H40.873V10.075a6.216,6.216,0,0,0-1.5-4.07h0A5.12,5.12,0,0,0,34.692,4.609Z" transform="translate(-2.768 -4.499)"/>
</svg>
