<svg xmlns="http://www.w3.org/2000/svg" width="60.84" height="60.84" viewBox="0 0 60.84 60.84">
  <g id="youtube" transform="translate(25.587 -25)">
    <path id="Path_698" data-name="Path 698" d="M224.113,225.605l15.25-8.783-15.25-8.783Zm0,0" transform="translate(-224.765 -161.402)" fill="#a3a3a3"/>
    <path id="Path_699" data-name="Path 699" d="M30.42,0A30.42,30.42,0,1,0,60.84,30.42,30.423,30.423,0,0,0,30.42,0ZM49.428,30.451s0,6.169-.783,9.144a4.763,4.763,0,0,1-3.351,3.35c-2.975.783-14.874.783-14.874.783s-11.868,0-14.874-.814a4.764,4.764,0,0,1-3.351-3.351c-.783-2.943-.783-9.144-.783-9.144s0-6.169.783-9.144a4.86,4.86,0,0,1,3.351-3.382c2.975-.783,14.874-.783,14.874-.783s11.9,0,14.874.814a4.764,4.764,0,0,1,3.351,3.351C49.46,24.251,49.428,30.451,49.428,30.451Zm0,0" transform="translate(-25.587 25)" fill="#a3a3a3"/>
  </g>
</svg>
