<svg xmlns="http://www.w3.org/2000/svg" width="38.18" height="38.182" viewBox="0 0 38.18 38.182">
  <g id="Accocunting_Icon" data-name="Accocunting Icon" transform="translate(0.35 0.35)">
    <path id="Path_646" data-name="Path 646" d="M12.175,31.081a.788.788,0,0,1-.553-.228.78.78,0,0,1-.214-.7l1.1-5.521a.766.766,0,0,1,.214-.4L24.874,12.08a2.347,2.347,0,0,1,3.313,0l2.208,2.208a2.344,2.344,0,0,1,0,3.313L18.247,29.748a.777.777,0,0,1-.4.214l-5.521,1.1A.828.828,0,0,1,12.175,31.081ZM14,25.163l-.828,4.14,4.14-.828L29.292,16.5a.781.781,0,0,0,0-1.1l-2.208-2.208a.781.781,0,0,0-1.1,0ZM17.7,29.2h.016Z" transform="translate(6.4 6.402)" fill="#293146" stroke="#293146" stroke-width="0.7"/>
    <path id="Path_647" data-name="Path 647" d="M14.837,31.112H3.9a3.908,3.908,0,0,1-3.9-3.9V6.9A3.908,3.908,0,0,1,3.9,3H7.028a.781.781,0,0,1,0,1.562H3.9A2.346,2.346,0,0,0,1.562,6.9v20.3A2.346,2.346,0,0,0,3.9,29.55H14.837a.781.781,0,0,1,0,1.562Z" transform="translate(0 1.685)" fill="#293146" stroke="#293146" stroke-width="0.7"/>
    <path id="Path_648" data-name="Path 648" d="M19.028,17.056a.781.781,0,0,1-.781-.781V6.9A2.346,2.346,0,0,0,15.9,4.562H12.781a.781.781,0,0,1,0-1.562H15.9a3.908,3.908,0,0,1,3.9,3.9v9.371A.781.781,0,0,1,19.028,17.056Z" transform="translate(6.741 1.685)" fill="#293146" stroke="#293146" stroke-width="0.7"/>
    <path id="Path_649" data-name="Path 649" d="M15.713,9.371H6.343A2.346,2.346,0,0,1,4,7.028V3.9a.781.781,0,0,1,.781-.781H7.2a3.905,3.905,0,0,1,7.653,0h2.421a.781.781,0,0,1,.781.781V7.028A2.346,2.346,0,0,1,15.713,9.371ZM5.562,4.685V7.028a.783.783,0,0,0,.781.781h9.371a.783.783,0,0,0,.781-.781V4.685H14.151a.781.781,0,0,1-.781-.781,2.343,2.343,0,0,0-4.685,0,.781.781,0,0,1-.781.781Z" transform="translate(2.247)" fill="#293146" stroke="#293146" stroke-width="0.7"/>
    <path id="Path_650" data-name="Path 650" d="M19.4,9.562H3.781A.781.781,0,0,1,3.781,8H19.4a.781.781,0,1,1,0,1.562Z" transform="translate(1.685 4.494)" fill="#293146" stroke="#293146" stroke-width="0.7"/>
    <path id="Path_651" data-name="Path 651" d="M19.4,12.562H3.781a.781.781,0,1,1,0-1.562H19.4a.781.781,0,1,1,0,1.562Z" transform="translate(1.685 6.179)" fill="#293146" stroke="#293146" stroke-width="0.7"/>
    <path id="Path_652" data-name="Path 652" d="M19.4,15.562H3.781a.781.781,0,0,1,0-1.562H19.4a.781.781,0,1,1,0,1.562Z" transform="translate(1.685 7.865)" fill="#293146" stroke="#293146" stroke-width="0.7"/>
  </g>
</svg>
