<svg xmlns="http://www.w3.org/2000/svg" width="29.476" height="41.639" viewBox="0 0 29.476 41.639">
  <g id="tax" transform="translate(-0.5 0.001)">
    <path id="Path_808" data-name="Path 808" d="M20,10.725a1.912,1.912,0,0,0,.247-.483,1.869,1.869,0,0,1,.737.295,2.819,2.819,0,0,0,1.507.482A2.921,2.921,0,0,0,23,10.972a2.691,2.691,0,0,0,1.743-1.1A1.466,1.466,0,0,1,26.875,9.5a2.691,2.691,0,0,0,2.014.435l-.223-1.262a1.466,1.466,0,0,1-1.15-.283,2.727,2.727,0,0,0-3.757.662,1.467,1.467,0,0,1-.984.659,1.27,1.27,0,0,1-.559-.013,2.548,2.548,0,0,0,1.025-.544A2.692,2.692,0,0,0,24.2,7.33a1.464,1.464,0,0,1,.523-1.062,1.444,1.444,0,0,1,1.137-.331,2.635,2.635,0,0,0,1.961-.63L27,4.325a1.531,1.531,0,0,1-1.137.33,2.728,2.728,0,0,0-2.923,2.452A1.466,1.466,0,0,1,21.281,8.5a2.848,2.848,0,0,0-1.18.158,1.922,1.922,0,0,0-.744-.727l2.865-5.723a.641.641,0,0,0-.577-.927,1.653,1.653,0,0,1-1.2-.5,2.954,2.954,0,0,0-4,0,1.693,1.693,0,0,1-1.2.5,1.692,1.692,0,0,1-1.2-.5,2.959,2.959,0,0,0-4.006,0,1.659,1.659,0,0,1-1.2.5.641.641,0,0,0-.574.927l2.862,5.723a1.9,1.9,0,0,0-.645,2.794A13.467,13.467,0,0,0,.5,23.707V35.241a3.207,3.207,0,0,0,3.2,3.2H26.772a3.208,3.208,0,0,0,3.2-3.2V23.707A13.468,13.468,0,0,0,20,10.725ZM10.833,1.781a1.7,1.7,0,0,1,2.405,0,2.958,2.958,0,0,0,4,0,1.691,1.691,0,0,1,2.4,0,3.4,3.4,0,0,0,1.04.629L18.046,7.688H12.43L9.791,2.41A3.423,3.423,0,0,0,10.833,1.781Zm1.2,8.47a.641.641,0,1,1,0-1.282h6.408a.641.641,0,0,1,0,1.282Zm16.66,24.99a1.922,1.922,0,0,1-1.922,1.922H3.7a1.922,1.922,0,0,1-1.922-1.922V23.707A12.188,12.188,0,0,1,13.956,11.533h2.563A12.188,12.188,0,0,1,28.694,23.707Zm0,0"/>
    <text id="_" data-name="$" transform="translate(8.5 32.638)" fill="#293146" font-size="25" font-family="Avenir-Book, Avenir"><tspan x="0" y="0">$</tspan></text>
  </g>
</svg>
