<svg xmlns="http://www.w3.org/2000/svg" width="28.667" height="28.667" viewBox="0 0 28.667 28.667">
  <g id="settings_-_icon" data-name="settings - icon" transform="translate(1 1)">
    <path id="Path_636" data-name="Path 636" d="M12.768,3.551A1.705,1.705,0,0,1,14.466,2H16.2a1.705,1.705,0,0,1,1.7,1.551,1.893,1.893,0,0,0,1.263,1.564q.261.1.517.209A1.943,1.943,0,0,0,21.7,5.091a1.748,1.748,0,0,1,2.355.107l1.224,1.224a1.666,1.666,0,0,1,.1,2.245,1.846,1.846,0,0,0-.193,1.978q.2.421.366.861a1.893,1.893,0,0,0,1.564,1.263,1.705,1.705,0,0,1,1.551,1.7V16.2a1.705,1.705,0,0,1-1.551,1.7,1.893,1.893,0,0,0-1.564,1.263q-.148.395-.325.775a1.758,1.758,0,0,0,.194,1.87,1.6,1.6,0,0,1-.1,2.149l-1.368,1.368a1.6,1.6,0,0,1-2.149.1,1.758,1.758,0,0,0-1.87-.194q-.38.177-.775.325A1.893,1.893,0,0,0,17.9,27.116a1.705,1.705,0,0,1-1.7,1.551H14.466a1.705,1.705,0,0,1-1.7-1.551,1.894,1.894,0,0,0-1.263-1.564q-.44-.165-.861-.366a1.846,1.846,0,0,0-1.978.193,1.666,1.666,0,0,1-2.245-.1L5.2,24.054A1.748,1.748,0,0,1,5.091,21.7a1.943,1.943,0,0,0,.233-2.022q-.111-.255-.209-.517A1.893,1.893,0,0,0,3.551,17.9,1.705,1.705,0,0,1,2,16.2V14.466a1.705,1.705,0,0,1,1.551-1.7,1.893,1.893,0,0,0,1.564-1.263q.115-.307.248-.606a2.03,2.03,0,0,0-.232-2.128,1.816,1.816,0,0,1,.111-2.447L6.325,5.242a1.816,1.816,0,0,1,2.447-.111,2.03,2.03,0,0,0,2.128.232q.3-.133.606-.248A1.893,1.893,0,0,0,12.768,3.551Z" transform="translate(-2 -2)" fill="none" stroke="#000" stroke-linecap="round" stroke-linejoin="round" stroke-width="2"/>
    <path id="Path_637" data-name="Path 637" d="M17,13a4,4,0,1,1-4-4A4,4,0,0,1,17,13Z" transform="translate(0.333 0.333)" fill="none" stroke="#000" stroke-linecap="round" stroke-linejoin="round" stroke-width="2"/>
  </g>
</svg>
