<svg xmlns="http://www.w3.org/2000/svg" width="70" height="60" viewBox="0 0 70 60">
  <g id="Group_786" data-name="Group 786" transform="translate(-313.364 -105.539)">
    <rect id="Calculator_Rectangle_" data-name="Calculator Rectangle " width="70" height="60" rx="1" transform="translate(313.364 105.539)" fill="#105ffb"/>
    <path id="Icon_awesome-barcode" data-name="Icon awesome-barcode" d="M0,43.57V4.5H1.831V43.57Zm2.733-.028V4.5h.93V43.542Zm2.762,0V4.5h.9V43.542Zm4.564,0V4.5h.9V43.542Zm3.663,0V4.5h1.8V43.542Zm4.564,0V4.5h.9V43.542Zm1.831,0V4.5h.9V43.542Zm1.831,0V4.5h.9V43.542Zm3.634,0V4.5h1.831V43.542Zm4.564,0V4.5h1.831V43.542Zm3.663,0V4.5H35.64V43.542Zm3.663,0V4.5H39.3V43.542Zm2.733,0V4.5h1.831V43.542Zm4.593,0V4.5h2.733V43.542Zm3.634,0V4.5h.93V43.542Zm1.831.028V4.5h1.831V43.57Z" transform="translate(322.134 111.737)" fill="#fff"/>
  </g>
</svg>
