<svg xmlns="http://www.w3.org/2000/svg" width="11.167" height="12.762" viewBox="0 0 11.167 12.762">
  <path id="icon-branch" d="M10.867,11.964h-.5V.6a.6.6,0,0,0-.6-.6H1.4A.6.6,0,0,0,.8.6V11.964H.3a.3.3,0,0,0-.3.3v.5H11.167v-.5A.3.3,0,0,0,10.867,11.964ZM3.19,1.894a.3.3,0,0,1,.3-.3h1a.3.3,0,0,1,.3.3v1a.3.3,0,0,1-.3.3h-1a.3.3,0,0,1-.3-.3Zm0,2.393a.3.3,0,0,1,.3-.3h1a.3.3,0,0,1,.3.3v1a.3.3,0,0,1-.3.3h-1a.3.3,0,0,1-.3-.3Zm1.3,3.689h-1a.3.3,0,0,1-.3-.3v-1a.3.3,0,0,1,.3-.3h1a.3.3,0,0,1,.3.3v1A.3.3,0,0,1,4.487,7.976Zm1.894,3.988h-1.6V9.87a.3.3,0,0,1,.3-.3h1a.3.3,0,0,1,.3.3Zm1.6-4.287a.3.3,0,0,1-.3.3h-1a.3.3,0,0,1-.3-.3v-1a.3.3,0,0,1,.3-.3h1a.3.3,0,0,1,.3.3Zm0-2.393a.3.3,0,0,1-.3.3h-1a.3.3,0,0,1-.3-.3v-1a.3.3,0,0,1,.3-.3h1a.3.3,0,0,1,.3.3Zm0-2.393a.3.3,0,0,1-.3.3h-1a.3.3,0,0,1-.3-.3v-1a.3.3,0,0,1,.3-.3h1a.3.3,0,0,1,.3.3Z" fill="#303c47"/>
</svg>
