<svg xmlns="http://www.w3.org/2000/svg" width="16.598" height="22.822" viewBox="0 0 16.598 22.822">
  <path id="Icon_metro-dialpad" data-name="Icon metro-dialpad" d="M16.011,22.528A2.075,2.075,0,1,0,18.086,24.6,2.074,2.074,0,0,0,16.011,22.528ZM9.787,3.856a2.075,2.075,0,1,0,2.075,2.075A2.074,2.074,0,0,0,9.787,3.856Zm0,6.224a2.075,2.075,0,1,0,2.075,2.075A2.074,2.074,0,0,0,9.787,10.08Zm0,6.224a2.075,2.075,0,1,0,2.075,2.075A2.074,2.074,0,0,0,9.787,16.3Zm12.448-8.3A2.075,2.075,0,1,0,20.16,5.931a2.074,2.074,0,0,0,2.075,2.075Zm-6.224,8.3a2.075,2.075,0,1,0,2.075,2.075A2.074,2.074,0,0,0,16.011,16.3Zm6.224,0a2.075,2.075,0,1,0,2.075,2.075A2.074,2.074,0,0,0,22.235,16.3Zm0-6.224a2.075,2.075,0,1,0,2.075,2.075,2.074,2.074,0,0,0-2.075-2.075Zm-6.224,0a2.075,2.075,0,1,0,2.075,2.075A2.074,2.074,0,0,0,16.011,10.08Zm0-6.224a2.075,2.075,0,1,0,2.075,2.075A2.074,2.074,0,0,0,16.011,3.856Z" transform="translate(-7.712 -3.856)"/>
</svg>
