<svg xmlns="http://www.w3.org/2000/svg" width="656.082" height="382.727" viewBox="0 0 656.082 382.727"><g transform="translate(-96.613 -77.247)"><g transform="translate(127.256 94.247)"><path d="M528.275,421.32c46.67,3.293,105.014-15.214,130.751-55.791,10.657-16.8,17.735-38.367,10.316-56.954-5.618-14.077-29.389-29.99-34.519-44.267-5.2-14.477-4.464-30.785-1.794-46,7.675-43.739-35-112.02-125.116-119.305-68.333-5.524-99.242,47.589-157.4,54.838-58.686,7.315-127.5-36.578-169.481,0-52.134,45.427-27.669,90.9-21.324,112.174,8.151,27.331-31.69,58.526-23.474,98.762,18.371,89.972,151.894,29.3,191.029,25.5,39.745-3.858,79.189,7.455,118.139,16.536s80.2,15.914,118.275,3.447Z" transform="translate(-46.966 -115.596)" fill="#f2f2f2"/></g><g transform="translate(96.613 433.232)"><ellipse cx="280.61" cy="13.371" rx="280.61" ry="13.371" fill="#e9ecf2"/></g><g transform="translate(175.347 266.185)"><path d="M196.255,475.709l-.72-.048c.08-1.214,8.235-121.846,28.944-161.042l.637.336C204.479,354.016,196.335,474.5,196.255,475.709Z" transform="translate(-195.535 -314.619)" fill="#fff"/></g><g transform="translate(219.139 322.562)"><g transform="translate(0)"><path d="M269.784,493.435c-.15-.716-15-71.986-19.229-107.9l.716-.084c4.222,35.88,19.069,107.119,19.219,107.835Z" transform="translate(-250.555 -385.452)" fill="#fff"/></g></g><g transform="translate(319.356 151.57)"><g transform="translate(219.194 66.409)"><g transform="translate(0.839 0.166)"><path d="M727.9,254.261c.008.277.015.548.023.825.992,33.848-2.481,60.232-8.359,80.791l-17.442,10.845,14.346-2.22.41-.062c-7.782,22.594-18.542,37.193-28.707,46.58a74.469,74.469,0,0,1-17.42,12.171c-.33.166-.653.326-.977.478-.806.388-1.586.733-2.328,1.05l-9.595.5c-.132-.447-.256-.887-.375-1.334q-.123-.42-.227-.841c-.107-.367-.2-.741-.294-1.109-11.339-43.693,2.951-78.544,21.617-103.387a2.039,2.039,0,0,1,.184-.247,169.07,169.07,0,0,1,20.166-22.186l4.241,10.8.61-15.13a166.442,166.442,0,0,1,23.568-17.205C727.705,254.365,727.9,254.261,727.9,254.261Z" transform="translate(-652.919 -254.261)" fill="#9aade5"/></g><g transform="translate(3.242)"><path d="M728.853,254.376l-.317.667-19.7,41.255-.355.73-5.369,11.249-.184.375L685.8,344.512l-.024.049L657.862,403l-.421.875-.665,1.389-.837.044.658-1.389.97-2.028,27.544-57.671.513-1.069,42.33-88.615.232-.486Z" transform="translate(-655.938 -254.052)" fill="#fff"/></g><g transform="translate(50.113 37.626)"><g transform="translate(0 0)"><rect width="29.652" height="0.645" transform="translate(0 16.805) rotate(-34.524)" fill="#fff"/></g></g><g transform="translate(55.552 29.467)"><g transform="translate(0 0)"><rect width="23.243" height="0.645" transform="matrix(0.824, -0.567, 0.567, 0.824, 0, 13.171)" fill="#fff"/></g></g><g transform="translate(26.46 44.152)"><g transform="translate(0 0)"><rect width="0.645" height="46.742" transform="matrix(0.992, -0.129, 0.129, 0.992, 0, 0.083)" fill="#fff"/></g></g><g transform="translate(1.91 90.313)"><path d="M654.265,435.829s22.742,10.745,55.1-8.547L698.869,422.3l17.125.688c12.627-8.834,26.487-22.3,40.876-42.56l-4-1.9,5.191.205q3.639-5.2,7.318-10.991a125.462,125.462,0,0,0-23.083.727l-6.971,9.441,1.976-8.768C709.523,373.364,669.091,387.915,654.265,435.829Z" transform="translate(-654.265 -367.523)" fill="#bac8f3"/></g><g transform="translate(0 90.227)"><g transform="translate(0 0)"><rect width="130.7" height="0.728" transform="translate(0 65.952) rotate(-30.305)" fill="#fff"/></g></g><g transform="translate(83.612 107.645)"><g transform="translate(0 0)"><rect width="0.676" height="16.24" transform="translate(0 0.672) rotate(-84.114)" fill="#fff"/></g></g><g transform="translate(75.85 112.016)"><g transform="translate(0 0)"><rect width="0.676" height="19.136" transform="matrix(0.175, -0.984, 0.984, 0.175, 0, 0.666)" fill="#fff"/></g></g><g transform="translate(27.927 96.994)"><path d="M687.52,396.067l-.568-.638a99.522,99.522,0,0,1,34.272-19.511l.276.809A98.64,98.64,0,0,0,687.52,396.067Z" transform="translate(-686.952 -375.917)" fill="#2e4882"/></g></g><g transform="translate(0 129.458)"><g transform="translate(21.717 0.218)"><path d="M403.753,333.542c.038.275.076.543.115.817,4.674,33.539,12.507,58.971,21.736,78.259l19.008,7.779-14.515.208-.414.007c11.446,20.977,24.493,33.574,36.084,41.132a74.449,74.449,0,0,0,19.209,9.09c.353.109.7.212,1.043.308.86.247,1.687.458,2.471.645l9.544-1.108c.055-.462.1-.917.146-1.378q.051-.436.083-.868c.045-.38.075-.764.106-1.142,3.881-44.973-16.03-76.948-38.583-98.324a2.105,2.105,0,0,0-.222-.213,169.159,169.159,0,0,0-23.589-18.506L433.6,361.607l-3.129-14.815a166.393,166.393,0,0,0-26.111-13.027C403.958,333.614,403.753,333.542,403.753,333.542Z" transform="translate(-403.753 -333.542)" fill="#9aade5"/></g><g transform="translate(21.408)"><path d="M403.365,333.7l.424.6,26.317,37.384.471.66,7.173,10.194.244.339,22.877,32.495.032.044,37.28,52.959.562.792.888,1.258.833-.1-.881-1.259-1.3-1.837-36.79-52.26-.684-.969-56.537-80.3-.31-.441Z" transform="translate(-403.365 -333.268)" fill="#fff"/></g><g transform="translate(28.957 36.94)"><g transform="translate(0 0)"><rect width="0.645" height="29.652" transform="translate(0 0.585) rotate(-65.096)" fill="#fff"/></g></g><g transform="translate(27.438 28.922)"><g transform="translate(0 0)"><rect width="0.645" height="23.243" transform="translate(0 0.585) rotate(-65.096)" fill="#fff"/></g></g><g transform="translate(77.097 35.424)"><g transform="translate(0 0)"><rect width="0.644" height="46.742" transform="translate(0 0.025) rotate(-2.228)" fill="#fff"/></g></g><g transform="translate(0.13 92.207)"><path d="M497.553,501.011s-20.627,14.393-55.749.777l9.512-6.661-16.769,3.539c-13.926-6.6-29.84-17.56-47.411-35.134l3.631-2.539-5.084,1.069q-4.454-4.514-9.05-9.615a125.5,125.5,0,0,1,22.88-3.138l8.451,8.144-3.414-8.314C432.637,448.654,474.931,456.248,497.553,501.011Z" transform="translate(-376.632 -449.117)" fill="#bac8f3"/></g><g transform="translate(0 95.198)"><g transform="translate(0 0)"><rect width="0.728" height="130.7" transform="translate(0 0.681) rotate(-69.31)" fill="#fff"/></g></g><g transform="translate(16.266 107.501)"><g transform="translate(0 0)"><rect width="16.24" height="0.676" transform="translate(0 4.34) rotate(-15.501)" fill="#fff"/></g></g><g transform="translate(22.236 110.522)"><g transform="translate(0 0)"><rect width="19.136" height="0.676" transform="matrix(0.941, -0.337, 0.337, 0.941, 0, 6.457)" fill="#fff"/></g></g><g transform="translate(51.18 93.411)"><path d="M477.5,464.868l.453-.724a99.532,99.532,0,0,0-37.049-13.513l-.137.844A98.638,98.638,0,0,1,477.5,464.868Z" transform="translate(-440.771 -450.631)" fill="#2e4882"/></g></g><g transform="translate(75.623 40.395)"><path d="M521.443,475.386H498.432a13.887,13.887,0,0,1-13.958-13.213L471.493,235.716a13.864,13.864,0,0,1,13.958-14.348h26.537Z" transform="translate(-471.481 -221.368)" fill="#105ef8"/></g><g transform="translate(93.313 40.395)"><path d="M639.636,235.716l-6.8,226.457a13.887,13.887,0,0,1-13.959,13.213H517.134c-7.492,0-16.316-5.83-16.626-13.213L493.72,235.716a13.864,13.864,0,0,1,13.958-14.348h118A13.864,13.864,0,0,1,639.636,235.716Z" transform="translate(-493.708 -221.368)" fill="#dce8ff"/></g><g transform="translate(113.245 56.05)"><path d="M526.921,241.038h-5.45a2.672,2.672,0,0,0-1.921.8,2.722,2.722,0,0,0,1.921,4.65h99.883a2.732,2.732,0,0,0,2.721-2.72,2.729,2.729,0,0,0-2.721-2.73H526.921Z" transform="translate(-518.75 -241.038)" fill="#3f5a9f"/></g><g transform="translate(111.992 75.258)"><path d="M619.912,335.089H523.023a3.443,3.443,0,0,1-3.44-3.311l-2.4-63.034a3.443,3.443,0,0,1,3.44-3.574h101.7a3.442,3.442,0,0,1,3.44,3.574l-2.4,63.034A3.443,3.443,0,0,1,619.912,335.089Z" transform="translate(-517.176 -265.17)" fill="#fff"/></g><g transform="translate(122.24 170.951)"><g transform="translate(0 0.445)"><rect width="24.517" height="16.345" rx="5.99" fill="#647ce2"/><g transform="translate(0 26.674)"><rect width="24.517" height="16.345" rx="5.99" fill="#647ce2"/></g><g transform="translate(0 53.347)"><rect width="24.517" height="16.345" rx="5.99" fill="#647ce2"/></g><g transform="translate(0 80.02)"><rect width="24.517" height="16.345" rx="5.99" fill="#3f5a9f"/></g><g transform="translate(31.119)"><rect width="24.517" height="16.345" rx="5.99" fill="#647ce2"/><g transform="translate(0 26.674)"><rect width="24.517" height="16.345" rx="5.99" fill="#647ce2"/></g><g transform="translate(0 53.347)"><rect width="24.517" height="16.345" rx="5.99" fill="#647ce2"/></g><g transform="translate(0 80.02)"><rect width="24.517" height="16.345" rx="5.99" fill="#647ce2"/></g></g><g transform="translate(62.238)"><rect width="24.517" height="16.345" rx="5.99" fill="#647ce2"/><g transform="translate(0 26.674)"><rect width="24.517" height="16.345" rx="5.99" fill="#647ce2"/></g><g transform="translate(0 53.347)"><rect width="24.517" height="16.345" rx="5.99" fill="#647ce2"/></g><g transform="translate(0 80.02)"><rect width="24.517" height="16.345" rx="5.99" fill="#3f5a9f"/></g></g></g><g transform="translate(4.446 0.445)"><rect width="24.517" height="16.345" rx="5.99" fill="#6d92f0"/><g transform="translate(0 26.674)"><rect width="24.517" height="16.345" rx="5.99" fill="#6d92f0"/></g><g transform="translate(0 53.347)"><rect width="24.517" height="16.345" rx="5.99" fill="#6d92f0"/></g><g transform="translate(0 80.02)"><rect width="24.517" height="16.345" rx="5.99" fill="#ff6900"/></g><g transform="translate(31.119)"><path d="M5.99,0H18.527a5.99,5.99,0,0,1,5.99,5.99v4.366a5.99,5.99,0,0,1-5.99,5.99H5.989A5.989,5.989,0,0,1,0,10.355V5.99A5.99,5.99,0,0,1,5.99,0Z" fill="#6d92f0"/><g transform="translate(0 26.674)"><path d="M5.99,0H18.527a5.99,5.99,0,0,1,5.99,5.99v4.366a5.99,5.99,0,0,1-5.99,5.99H5.989A5.989,5.989,0,0,1,0,10.355V5.99A5.99,5.99,0,0,1,5.99,0Z" fill="#6d92f0"/></g><g transform="translate(0 53.347)"><path d="M5.99,0H18.527a5.99,5.99,0,0,1,5.99,5.99v4.366a5.99,5.99,0,0,1-5.99,5.99H5.989A5.989,5.989,0,0,1,0,10.355V5.99A5.99,5.99,0,0,1,5.99,0Z" fill="#6d92f0"/></g><g transform="translate(0 80.02)"><path d="M5.99,0H18.527a5.99,5.99,0,0,1,5.99,5.99v4.366a5.99,5.99,0,0,1-5.99,5.99H5.989A5.989,5.989,0,0,1,0,10.355V5.99A5.99,5.99,0,0,1,5.99,0Z" fill="#6d92f0"/></g></g><g transform="translate(62.238)"><rect width="24.517" height="16.345" rx="5.99" fill="#6d92f0"/><g transform="translate(0 26.674)"><rect width="24.517" height="16.345" rx="5.99" fill="#6d92f0"/></g><g transform="translate(0 53.347)"><rect width="24.517" height="16.345" rx="5.99" fill="#6d92f0"/></g><g transform="translate(0 80.02)"><rect width="24.517" height="16.345" rx="5.99" fill="#ff6900"/></g></g></g><g transform="translate(4.001)"><path d="M555.272,402.633H540.289a5.216,5.216,0,0,1-5.212-5.211v-6.811a5.217,5.217,0,0,1,5.212-5.212h14.983a5.216,5.216,0,0,1,5.211,5.212v6.811A5.216,5.216,0,0,1,555.272,402.633Zm-14.983-16.344a4.327,4.327,0,0,0-4.322,4.323v6.811a4.327,4.327,0,0,0,4.322,4.322h14.983a4.327,4.327,0,0,0,4.322-4.322v-6.811a4.327,4.327,0,0,0-4.322-4.323Z" transform="translate(-535.077 -385.4)" fill="#fff"/><g transform="translate(0 26.674)"><path d="M555.272,436.146H540.289a5.216,5.216,0,0,1-5.212-5.211v-6.812a5.217,5.217,0,0,1,5.212-5.211h14.983a5.216,5.216,0,0,1,5.211,5.211v6.812A5.216,5.216,0,0,1,555.272,436.146ZM540.289,419.8a4.327,4.327,0,0,0-4.322,4.322v6.812a4.327,4.327,0,0,0,4.322,4.322h14.983a4.327,4.327,0,0,0,4.322-4.322v-6.812a4.327,4.327,0,0,0-4.322-4.322Z" transform="translate(-535.077 -418.913)" fill="#fff"/></g><g transform="translate(0 53.347)"><path d="M555.272,469.659H540.289a5.217,5.217,0,0,1-5.212-5.212v-6.811a5.216,5.216,0,0,1,5.212-5.211h14.983a5.216,5.216,0,0,1,5.211,5.211v6.811A5.216,5.216,0,0,1,555.272,469.659Zm-14.983-16.344a4.327,4.327,0,0,0-4.322,4.322v6.811a4.327,4.327,0,0,0,4.322,4.323h14.983a4.327,4.327,0,0,0,4.322-4.323v-6.811a4.327,4.327,0,0,0-4.322-4.322Z" transform="translate(-535.077 -452.426)" fill="#fff"/></g><g transform="translate(0 80.02)"><path d="M555.272,503.172H540.289a5.217,5.217,0,0,1-5.212-5.212V491.15a5.217,5.217,0,0,1,5.212-5.212h14.983a5.216,5.216,0,0,1,5.211,5.212v6.811A5.216,5.216,0,0,1,555.272,503.172Zm-14.983-16.345a4.327,4.327,0,0,0-4.322,4.323v6.811a4.327,4.327,0,0,0,4.322,4.323h14.983a4.327,4.327,0,0,0,4.322-4.323V491.15a4.327,4.327,0,0,0-4.322-4.323Z" transform="translate(-535.077 -485.938)" fill="#fff"/></g><g transform="translate(31.12)"><path d="M594.37,402.633H579.387a5.216,5.216,0,0,1-5.211-5.211v-6.811a5.217,5.217,0,0,1,5.211-5.212H594.37a5.217,5.217,0,0,1,5.212,5.212v6.811A5.217,5.217,0,0,1,594.37,402.633Zm-14.983-16.344a4.327,4.327,0,0,0-4.322,4.323v6.811a4.327,4.327,0,0,0,4.322,4.322H594.37a4.327,4.327,0,0,0,4.323-4.322v-6.811a4.327,4.327,0,0,0-4.323-4.323Z" transform="translate(-574.176 -385.4)" fill="#fff"/><g transform="translate(0 26.674)"><path d="M594.37,436.146H579.387a5.216,5.216,0,0,1-5.211-5.211v-6.812a5.216,5.216,0,0,1,5.211-5.211H594.37a5.217,5.217,0,0,1,5.212,5.211v6.812A5.217,5.217,0,0,1,594.37,436.146ZM579.387,419.8a4.327,4.327,0,0,0-4.322,4.322v6.812a4.327,4.327,0,0,0,4.322,4.322H594.37a4.327,4.327,0,0,0,4.323-4.322v-6.812a4.327,4.327,0,0,0-4.323-4.322Z" transform="translate(-574.176 -418.913)" fill="#fff"/></g><g transform="translate(0 53.347)"><path d="M594.37,469.659H579.387a5.217,5.217,0,0,1-5.211-5.212v-6.811a5.216,5.216,0,0,1,5.211-5.211H594.37a5.216,5.216,0,0,1,5.212,5.211v6.811A5.217,5.217,0,0,1,594.37,469.659Zm-14.983-16.344a4.327,4.327,0,0,0-4.322,4.322v6.811a4.327,4.327,0,0,0,4.322,4.323H594.37a4.327,4.327,0,0,0,4.323-4.323v-6.811a4.327,4.327,0,0,0-4.323-4.322Z" transform="translate(-574.176 -452.426)" fill="#fff"/></g><g transform="translate(0 80.02)"><path d="M594.37,503.172H579.387a5.217,5.217,0,0,1-5.211-5.212V491.15a5.217,5.217,0,0,1,5.211-5.212H594.37a5.217,5.217,0,0,1,5.212,5.212v6.811A5.217,5.217,0,0,1,594.37,503.172Zm-14.983-16.345a4.327,4.327,0,0,0-4.322,4.323v6.811a4.327,4.327,0,0,0,4.322,4.323H594.37a4.327,4.327,0,0,0,4.323-4.323V491.15a4.327,4.327,0,0,0-4.323-4.323Z" transform="translate(-574.176 -485.938)" fill="#fff"/></g></g><g transform="translate(62.239)"><path d="M633.468,402.633H618.485a5.216,5.216,0,0,1-5.211-5.211v-6.811a5.217,5.217,0,0,1,5.211-5.212h14.983a5.217,5.217,0,0,1,5.212,5.212v6.811A5.216,5.216,0,0,1,633.468,402.633Zm-14.983-16.344a4.327,4.327,0,0,0-4.322,4.323v6.811a4.327,4.327,0,0,0,4.322,4.322h14.983a4.327,4.327,0,0,0,4.323-4.322v-6.811a4.327,4.327,0,0,0-4.323-4.323Z" transform="translate(-613.274 -385.4)" fill="#fff"/><g transform="translate(0 26.674)"><path d="M633.468,436.146H618.485a5.216,5.216,0,0,1-5.211-5.211v-6.812a5.217,5.217,0,0,1,5.211-5.211h14.983a5.217,5.217,0,0,1,5.212,5.211v6.812A5.216,5.216,0,0,1,633.468,436.146ZM618.485,419.8a4.327,4.327,0,0,0-4.322,4.322v6.812a4.327,4.327,0,0,0,4.322,4.322h14.983a4.327,4.327,0,0,0,4.323-4.322v-6.812a4.327,4.327,0,0,0-4.323-4.322Z" transform="translate(-613.274 -418.913)" fill="#fff"/></g><g transform="translate(0 53.347)"><path d="M633.468,469.659H618.485a5.217,5.217,0,0,1-5.211-5.212v-6.811a5.216,5.216,0,0,1,5.211-5.211h14.983a5.216,5.216,0,0,1,5.212,5.211v6.811A5.217,5.217,0,0,1,633.468,469.659Zm-14.983-16.344a4.327,4.327,0,0,0-4.322,4.322v6.811a4.327,4.327,0,0,0,4.322,4.323h14.983a4.327,4.327,0,0,0,4.323-4.323v-6.811a4.327,4.327,0,0,0-4.323-4.322Z" transform="translate(-613.274 -452.426)" fill="#fff"/></g><g transform="translate(0 80.02)"><path d="M633.468,503.172H618.485a5.217,5.217,0,0,1-5.211-5.212V491.15a5.217,5.217,0,0,1,5.211-5.212h14.983a5.217,5.217,0,0,1,5.212,5.212v6.811A5.217,5.217,0,0,1,633.468,503.172Zm-14.983-16.345a4.327,4.327,0,0,0-4.322,4.323v6.811a4.327,4.327,0,0,0,4.322,4.323h14.983a4.327,4.327,0,0,0,4.323-4.323V491.15a4.327,4.327,0,0,0-4.323-4.323Z" transform="translate(-613.274 -485.938)" fill="#fff"/></g></g></g></g><g transform="translate(92.717 39.798)"><path d="M606.368,475.83H516.981c-7.7,0-16.9-6.022-17.222-13.785l-6.788-226.464a14.147,14.147,0,0,1,3.974-10.469,14.523,14.523,0,0,1,10.58-4.494h118a14.524,14.524,0,0,1,10.58,4.494,14.156,14.156,0,0,1,3.974,10.476l-.37,12.356-1.194-.036.371-12.363a12.982,12.982,0,0,0-3.642-9.607,13.343,13.343,0,0,0-9.719-4.126h-118a13.341,13.341,0,0,0-9.719,4.126,12.973,12.973,0,0,0-3.642,9.6L500.952,462c.3,7.112,8.861,12.634,16.029,12.634h89.387Z" transform="translate(-492.958 -220.618)" fill="#3f5a9f"/></g><g transform="translate(233.283 101.861)"><rect width="131.733" height="1.194" transform="translate(0 131.674) rotate(-88.285)" fill="#3f5a9f"/></g><g transform="translate(108.504 0.397)"><path d="M614.65,183.207v49.008H525.819V183.207a12.832,12.832,0,0,0-4.1-8.58,13.121,13.121,0,0,0-8.927-3.512h88.832a13.1,13.1,0,0,1,8.926,3.512A12.79,12.79,0,0,1,614.65,183.207Z" transform="translate(-512.793 -171.115)" fill="#fff"/></g><g transform="translate(95.47 0.397)"><path d="M522.477,183.207h-26.06a12.8,12.8,0,0,1,4.108-8.58,13.1,13.1,0,0,1,17.853,0A12.833,12.833,0,0,1,522.477,183.207Z" transform="translate(-496.417 -171.115)" fill="#2e4882"/></g><g transform="translate(108.504 0)"><path d="M615.049,232.512H525.421V183.106a12.4,12.4,0,0,0-3.972-8.289,12.689,12.689,0,0,0-8.656-3.4v-.8h88.832a13.483,13.483,0,0,1,9.2,3.617,13.175,13.175,0,0,1,4.226,8.847v49.431Zm-88.832-.8h88.036v-48.6a12.38,12.38,0,0,0-3.973-8.3,12.688,12.688,0,0,0-8.656-3.406H517.364a13.558,13.558,0,0,1,4.627,2.822,13.2,13.2,0,0,1,4.226,8.847Z" transform="translate(-512.793 -170.616)" fill="#2e4882"/></g><g transform="translate(112.847 55.652)"><path d="M621.252,246.784H521.368a3.12,3.12,0,0,1-2.2-5.329,3.06,3.06,0,0,1,2.2-.917h5.45v.8h-5.45a2.274,2.274,0,0,0-1.636.681,2.324,2.324,0,0,0,1.636,3.973h99.883a2.334,2.334,0,0,0,2.323-2.322,2.33,2.33,0,0,0-2.323-2.332H615.8v-.8h5.45a3.127,3.127,0,0,1,3.119,3.128,3.129,3.129,0,0,1-3.119,3.118Z" transform="translate(-518.25 -240.538)" fill="#2e4882"/></g><g transform="translate(206.833 243.982)"><g transform="translate(12.8 39.07)"><g transform="translate(0 3.894)"><path d="M652.416,542.051c0,2.2,16.17,3.993,36.112,3.993s36.112-1.792,36.112-3.993a.556.556,0,0,0-.018-.119V531.137h-72.18V541.9A.427.427,0,0,0,652.416,542.051Z" transform="translate(-652.416 -531.137)" fill="#f49b51"/></g><g transform="translate(0.003)"><ellipse cx="36.11" cy="3.993" rx="36.11" ry="3.993" fill="#fcc659"/></g></g><g transform="translate(4.267 26.047)"><g transform="translate(0 3.894)"><path d="M641.7,525.688c0,2.2,16.17,3.993,36.112,3.993s36.112-1.792,36.112-3.993a.553.553,0,0,0-.018-.12V514.774H641.72v10.769A.421.421,0,0,0,641.7,525.688Z" transform="translate(-641.695 -514.774)" fill="#f49b51"/></g><g transform="translate(0.003)"><ellipse cx="36.11" cy="3.993" rx="36.11" ry="3.993" fill="#fcc659"/></g></g><g transform="translate(12.8 13.023)"><g transform="translate(0 3.894)"><path d="M652.416,509.325c0,2.2,16.17,3.994,36.112,3.994s36.112-1.792,36.112-3.994a.571.571,0,0,0-.018-.119V498.411h-72.18V509.18A.422.422,0,0,0,652.416,509.325Z" transform="translate(-652.416 -498.411)" fill="#f49b51"/></g><g transform="translate(0.003)"><ellipse cx="36.11" cy="3.993" rx="36.11" ry="3.993" fill="#fcc659"/></g></g><g transform="translate(24.58 53.875)"><g transform="translate(21.787)"><path d="M697.131,549.266c14.688,0,36.538-1.177,36.538-4.421h-.853c0,1.245-12.256,3.567-35.685,3.567q-1.278,0-2.533-.01l-.007.853C695.429,549.262,696.277,549.266,697.131,549.266Z" transform="translate(-694.59 -544.845)" fill="#2e4882"/></g><g transform="translate(0 2.53)"><path d="M677.228,549.588l.04-.852c-3.656-.176-7.009-.415-9.966-.712l-.085.849C670.188,549.171,673.556,549.412,677.228,549.588Z" transform="translate(-667.217 -548.024)" fill="#2e4882"/></g></g><g transform="translate(11.672 40.804)"><g transform="translate(51.412)"><path d="M715.67,531.93c13.57-1.235,13.57-2.946,13.57-3.508h-.853c0,.416-2.3,1.7-12.794,2.658Z" transform="translate(-715.594 -528.422)" fill="#2e4882"/></g><g transform="translate(19.01 3.347)"><path d="M684.393,533.7c4.06,0,8.047-.074,11.851-.22l-.033-.853c-6.793.262-14.3.291-21.3.08l-.025.854C677.982,533.653,681.182,533.7,684.393,533.7Z" transform="translate(-674.883 -532.627)" fill="#2e4882"/></g><g transform="translate(0 2.034)"><path d="M661.044,532.8l.056-.852c-3.851-.254-7.209-.581-9.982-.973l-.12.845C653.793,532.217,657.173,532.547,661.044,532.8Z" transform="translate(-650.999 -530.977)" fill="#2e4882"/></g></g><g transform="translate(28.043 17.057)"><g transform="translate(45.063)"><path d="M728.272,501.946c12.035-1.227,12.035-2.777,12.035-3.36h-.853c0,.014-.306,1.394-11.269,2.512Z" transform="translate(-728.185 -498.586)" fill="#2e4882"/></g><g transform="translate(0 2.853)"><path d="M692.214,503.737c4.152,0,8.212-.077,12.068-.229l-.033-.853c-3.844.151-7.893.228-12.034.228-7.41,0-14.528-.247-20.582-.713l-.064.849C677.642,503.49,684.782,503.737,692.214,503.737Z" transform="translate(-671.567 -502.171)" fill="#2e4882"/></g></g><g transform="translate(0 3.894)"><path d="M636.334,492.962c0,2.2,16.17,3.994,36.112,3.994s36.112-1.792,36.112-3.994a.564.564,0,0,0-.017-.119V482.048H636.36v10.769A.438.438,0,0,0,636.334,492.962Z" transform="translate(-636.334 -482.048)" fill="#f49b51"/></g><g transform="translate(0.004)"><ellipse cx="36.11" cy="3.993" rx="36.11" ry="3.993" fill="#fcc659"/></g><g transform="translate(6.701 1.307)"><path d="M644.753,481.484c0,1.483,13.169,2.685,29.412,2.685s29.413-1.2,29.413-2.685S690.41,478.8,674.165,478.8,644.753,480,644.753,481.484Z" transform="translate(-644.753 -478.798)" fill="#f49b51"/></g></g><g transform="translate(133.811 21.939)"><g transform="translate(47.755)"><rect width="19.305" height="2.388" fill="#e1eaff"/></g><rect width="38.814" height="2.388" fill="#e1eaff"/><g transform="translate(22.353 10.347)"><rect width="44.707" height="2.388" fill="#e1eaff"/></g><g transform="translate(0 10.347)"><rect width="16.867" height="2.388" fill="#e1eaff"/></g><g transform="translate(40.44 21.49)"><rect width="18.289" height="2.388" fill="#e1eaff"/></g><g transform="translate(0 21.49)"><rect width="32.717" height="2.388" fill="#e1eaff"/></g></g><g transform="translate(140.962 144.58)"><rect width="24.207" height="1.194" fill="#3f5a9f"/></g><g transform="translate(174.561 86.669)"><path d="M635.955,338.612H595.787v-1.194h40.168a2.837,2.837,0,0,0,2.844-2.737l2.105-55.173,1.192.045-2.105,55.173A4.027,4.027,0,0,1,635.955,338.612Z" transform="translate(-595.787 -279.508)" fill="#3f5a9f"/></g></g><g transform="translate(460.097 237.794)"><g transform="translate(0 0)"><circle cx="22.723" cy="22.723" r="22.723" transform="translate(0 1.811) rotate(-2.284)" fill="#06cb34"/></g><g transform="translate(12.335 8.9)"><path d="M579.217,316.433l-10.422-10.721,1.141-1.11,8.837,9.09,11.368-23.561,1.433.692Z" transform="translate(-568.795 -290.131)" fill="#fff"/></g></g></g></svg>