<svg xmlns="http://www.w3.org/2000/svg" width="500" height="372.608" viewBox="0 0 500 372.608"><g transform="translate(0 -54.953)"><rect width="500" height="0.25" transform="translate(0 382.398)" fill="#ebebeb"/><path d="M237.014,337.8H43.915a5.715,5.715,0,0,1-5.708-5.708V60.66a5.714,5.714,0,0,1,5.708-5.707h193.1a5.714,5.714,0,0,1,5.707,5.707V332.092A5.715,5.715,0,0,1,237.014,337.8ZM43.915,55.2a5.463,5.463,0,0,0-5.458,5.457V332.092a5.464,5.464,0,0,0,5.458,5.458h193.1a5.463,5.463,0,0,0,5.457-5.458V60.66a5.463,5.463,0,0,0-5.457-5.457Z" fill="#ebebeb"/><path d="M453.31,337.8h-193.1a5.714,5.714,0,0,1-5.707-5.708V60.66a5.713,5.713,0,0,1,5.707-5.707h193.1a5.714,5.714,0,0,1,5.709,5.707V332.092A5.715,5.715,0,0,1,453.31,337.8ZM260.212,55.2a5.463,5.463,0,0,0-5.457,5.457V332.092a5.463,5.463,0,0,0,5.457,5.458h193.1a5.464,5.464,0,0,0,5.459-5.458V60.66A5.464,5.464,0,0,0,453.31,55.2Z" fill="#ebebeb"/><rect width="25.997" height="0.25" transform="translate(423.904 398.494)" fill="#ebebeb"/><rect width="45.027" height="0.25" transform="translate(311 401.208)" fill="#ebebeb"/><rect width="60.792" height="0.25" transform="translate(362.111 389.208)" fill="#ebebeb"/><rect width="19.235" height="0.25" transform="translate(52.459 390.888)" fill="#ebebeb"/><rect width="55.292" height="0.25" transform="translate(80.597 390.888)" fill="#ebebeb"/><rect width="74.467" height="0.25" transform="translate(169.667 395.111)" fill="#ebebeb"/><rect width="200.954" height="144.26" transform="translate(77.497 85.395)" fill="#fafafa"/><path d="M131.381,229.656,165.844,85.4H204.2l-34.463,144.26Z" fill="#fff"/><path d="M206.3,229.656,240.764,85.4h13.991l-34.463,144.26Z" fill="#fff"/><path d="M118.144,229.656,152.607,85.4h5.253L123.4,229.656Z" fill="#fff"/><path d="M288.033,80.435H67.916a.9.9,0,0,0-.893.893h0a.9.9,0,0,0,.893.893H288.033a.9.9,0,0,0,.893-.893h0A.9.9,0,0,0,288.033,80.435Z" fill="#e0e0e0"/><rect width="8.574" height="144.88" transform="translate(183.15 229.965) rotate(180)" fill="#f0f0f0"/><rect width="0.957" height="144.88" transform="translate(184.108 229.965) rotate(180)" fill="#e0e0e0"/><rect width="2.381" height="203.731" transform="translate(76.109 158.716) rotate(-90)" fill="#f0f0f0"/><path d="M279.84,228.663h0V84.006H76.109V228.663h0v2.382H279.84Zm-201.35,0V86.388H277.459V228.663Z" fill="#f0f0f0"/><rect width="1.191" height="147.038" transform="translate(281.03 231.045) rotate(180)" fill="#e0e0e0"/><path d="M244.392,78.252v239.6h50.227l-9.211-239.6Z" fill="#ebebeb" opacity="0.5"/><path d="M209.535,78.252v239.6h50.227l-9.211-239.6Z" fill="#ebebeb" opacity="0.5"/><path d="M93.422,78.252v239.6H62.52l5.667-239.6Z" fill="#ebebeb" opacity="0.5"/><path d="M114.867,78.252v239.6h-30.9l5.667-239.6Z" fill="#ebebeb" opacity="0.5"/><rect width="22.174" height="152.262" transform="translate(210.355 382.398) rotate(180)" fill="#e6e6e6"/><path d="M195.986,382.4H188.18V353.461h15.99Z" fill="#f0f0f0"/><rect width="22.174" height="152.262" transform="translate(444.84 382.398) rotate(180)" fill="#e6e6e6"/><rect width="241.297" height="144.364" transform="translate(429.478 374.5) rotate(180)" fill="#f0f0f0"/><path d="M421.672,382.4h7.806V353.461h-15.99Z" fill="#f0f0f0"/><rect width="119.421" height="71.529" transform="translate(349.925 361.511) rotate(-90)" fill="#e6e6e6"/><path d="M378.616,246.29h14.151a24.034,24.034,0,0,0,16.251-6.108H362.365A24.034,24.034,0,0,0,378.616,246.29Z" fill="#f0f0f0"/><rect width="119.421" height="71.528" transform="translate(273.064 361.511) rotate(-90)" fill="#e6e6e6"/><path d="M301.032,246.29h14.151a24.034,24.034,0,0,0,16.251-6.108H284.781A24.034,24.034,0,0,0,301.032,246.29Z" fill="#f0f0f0"/><rect width="119.421" height="71.528" transform="translate(196.203 361.511) rotate(-90)" fill="#e6e6e6"/><path d="M224.171,246.29h14.151a24.034,24.034,0,0,0,16.251-6.108H207.92A24.034,24.034,0,0,0,224.171,246.29Z" fill="#f0f0f0"/><path d="M436.015,202.505h-73.5s.668,18.942,21.74,25.193v2.438h30.02V227.7C435.347,221.447,436.015,202.505,436.015,202.505Z" fill="#e6e6e6"/><rect width="96.135" height="102.941" transform="translate(319.96 82.436)" fill="#f0f0f0"/><rect width="3.18" height="102.941" transform="translate(419.275 185.376) rotate(180)" fill="#e0e0e0"/><rect width="63.617" height="85.283" transform="translate(336.219 91.265)" fill="#fff"/><ellipse cx="193.889" cy="11.323" rx="193.889" ry="11.323" transform="translate(56.111 404.915)" fill="#f5f5f5"/><path d="M367.846,412.331l-8.135-.128-.549-18.894,8.135.128Z" fill="#ff8b7b"/><path d="M359.434,406.822l8.888.139a.672.672,0,0,1,.66.567l1.18,7.265a1.244,1.244,0,0,1-1.257,1.43c-3.2-.1-7.824-.366-11.854-.429-4.712-.074-1,.12-6.523.033-3.342-.053-4.069-3.447-2.653-3.732,6.45-1.293,6.776-2.737,9.561-4.67A3.426,3.426,0,0,1,359.434,406.822Z" fill="#ff6900"/><path d="M336.358,168.156c-.7,2.765-1.507,5.278-2.345,7.884-.823,2.588-1.782,5.133-2.765,7.678a109.936,109.936,0,0,1-7.127,14.985c-.34.613-.731,1.221-1.113,1.828l-.574.91-.287.454c-.091.147-.255.367-.38.545a19.091,19.091,0,0,1-3.656,3.917,26.738,26.738,0,0,1-8.459,4.528,40.054,40.054,0,0,1-8.585,1.8c-1.419.154-2.837.218-4.249.242a41.165,41.165,0,0,1-4.31-.177l-.154-6.114a55.623,55.623,0,0,0,13.634-4.594,19.614,19.614,0,0,0,4.989-3.619,10.144,10.144,0,0,0,1.486-2.046l.159-.282.208-.4.417-.8c.278-.531.562-1.054.816-1.617a133.429,133.429,0,0,0,5.665-13.875c.864-2.386,1.653-4.81,2.459-7.23.793-2.4,1.547-4.916,2.25-7.227Z" fill="#ba6c29"/><path d="M294.276,206.7l-9.24-.978L285.48,215s6.994,1.706,9.92-3.633Z" fill="#ba6c29"/><path d="M277.43,209.814l1.711,3.969a1.832,1.832,0,0,0,1.646,1.108l4.693.1-.444-9.278-6.285,1.491A1.914,1.914,0,0,0,277.43,209.814Z" fill="#ba6c29"/><path d="M359.164,393.314l.282,9.739,8.139.128-.282-9.739Z" opacity="0.2"/><path d="M328.1,157.838c-4.369,5.492-8.347,15.969-9.98,21.973,4.85,8.072,14.353,6.662,14.353,6.662s7.859-6.218,10.426-13.66S335.821,148.126,328.1,157.838Z" fill="#ff6900"/><path d="M378.578,158.952c1.93,14.056-.973,32.344,1.218,59l-43.54,2.755c-7.915-33.806-8.765-48.009-9.607-57.33a8.56,8.56,0,0,1,5.267-8.648c10.269-4.251,27.867-4.883,39.951-2.745A8.182,8.182,0,0,1,378.578,158.952Z" fill="#ff6900"/><path d="M357.668,131.136l-11.761,10.386c1.7,4.4,2.375,9.155-4.325,11.258a1.531,1.531,0,0,0-.871.69c-1.583,2.74-1.914,7.008,5.467,6.338a22.468,22.468,0,0,0,14.453-6.984,1.448,1.448,0,0,0,.1-2C356.73,146.508,356.992,136.7,357.668,131.136Z" fill="#ba6c29"/><path d="M352.874,135.374l-6.961,6.143a17.561,17.561,0,0,1,.955,3.225c2.8-.532,6.426-3.528,6.47-6.184A8.015,8.015,0,0,0,352.874,135.374Z" opacity="0.2"/><path d="M335.627,116.612c-2.577,3.556-.875,11.81,1.046,13.106C341.432,127.471,340.552,114.584,335.627,116.612Z" fill="#263238"/><path d="M357.879,122.058c-.041,8.073.346,12.8-3.495,17.192-5.778,6.612-15.943,3.584-18.32-4.316-2.141-7.11-1.713-19.119,6-22.838A10.939,10.939,0,0,1,357.879,122.058Z" fill="#ba6c29"/><path d="M357.344,130.046c1.176-2.7-5.2-1.087-5.2-1.087s-1.014-8.64,1.734-12.021c-2.769,1.649-10.105,1.607-11.628,0-3.086,1.565-7.187,2.03-9.809.212s-2.494-6.047-.8-8.076c2.156,1.987,5.2-.761,3.847-2.114,4.3-2.58,11.586-1.184,12.981.3a2.367,2.367,0,0,1,.719-3.256s.844,3.272,3.425,3.129c4.566-.254,9.9,1.311,7.864,5.623,3.256.339,4.82,4.059,3.847,6.977s1.946,3.467,2.284,2.579c1.1,2.072.211,3.3-1.691,4.059,4.989,5.781-5.666,7.539-7.64,11.3C357.273,137.67,355.907,133.343,357.344,130.046Z" fill="#263238"/><path d="M362.143,129.681a7.8,7.8,0,0,1-4.329,4.008c-2.542.93-4-1.274-3.456-3.769.493-2.245,2.409-5.435,5.037-5.294C361.984,124.766,363.175,127.406,362.143,129.681Z" fill="#ba6c29"/><path d="M367.8,307.338c-2.619-40.962,2.468-88.784,2.468-88.784l-33.984,2.154c2.008,15.456,7.991,65.143,10.465,89.43,2.628,25.793,9.713,88.6,9.713,88.6l13.8.21S371.515,339.664,367.8,307.338Z" fill="#263238"/><path d="M367.547,302.912c-.031-.538-.052-1.076-.072-1.614-.847-18.458-.289-37.749.541-53.052l-2.094,1.33c-8.941,13.253-3.2,38.185,1.751,55.8C367.628,304.555,367.582,303.734,367.547,302.912Z" opacity="0.2"/><path d="M355.148,395.9l1.1,5.619,14.337.258.562-5.309Z" fill="#263238"/><path d="M346.257,125.358c.037.655-.281,1.209-.711,1.237s-.807-.48-.844-1.134.281-1.209.71-1.237S346.22,124.7,346.257,125.358Z" fill="#263238"/><path d="M337.2,126.077c.037.654-.281,1.208-.71,1.236s-.808-.479-.845-1.134.281-1.208.711-1.237S337.161,125.422,337.2,126.077Z" fill="#263238"/><path d="M340.726,125.769a23.728,23.728,0,0,1-2.822,5.806,3.792,3.792,0,0,0,3.171.381Z" fill="#84450f"/><path d="M343.942,133.526a5.5,5.5,0,0,0,3.59-2.39.192.192,0,1,0-.335-.189,5.293,5.293,0,0,1-4.128,2.306.2.2,0,0,0-.182.206.19.19,0,0,0,.2.179A6.638,6.638,0,0,0,343.942,133.526Z" fill="#263238"/><path d="M348.327,121.328a.376.376,0,0,0,.177-.086.384.384,0,0,0,.044-.543,3.805,3.805,0,0,0-3.229-1.381.39.39,0,0,0-.335.434.382.382,0,0,0,.43.33h0a3.04,3.04,0,0,1,2.545,1.121A.383.383,0,0,0,348.327,121.328Z" fill="#263238"/><path d="M334.991,122.726a.391.391,0,0,0,.308-.2,3.1,3.1,0,0,1,2.275-1.637.391.391,0,0,0,.356-.416.38.38,0,0,0-.41-.352,3.886,3.886,0,0,0-2.9,2.036.381.381,0,0,0,.367.568Z" fill="#263238"/><path d="M412.837,412.923l-8.157-.128L400.866,393.9l8.157.128Z" fill="#ff8b7b"/><path d="M411.645,407.022l-8.869-.083a.452.452,0,0,0-.485.553l1.086,7.271a1.88,1.88,0,0,0,1.707,1.469c3.18-.024,4.121-.261,8.142-.223,4.7.044,2.574.184,8.088.236,3.334.031,3-3.347,1.493-3.684-4.779-1.064-6.431-2.9-8.969-4.882A3.584,3.584,0,0,0,411.645,407.022Z" fill="#ff6900"/><path d="M400.868,393.906l1.964,9.739,8.161.128-1.965-9.739Z" opacity="0.2"/><path d="M396.28,306.741c-5.684-37.071-10.607-74.148-16.462-88.792l-28.793,1.825s16.212,63.513,24.5,89.222c4.007,27.023,23.88,90.41,23.88,90.41l12.942-.566S401.963,343.811,396.28,306.741Z" fill="#263238"/><path d="M397.358,397.134l2.046,5.518,14.34-.464-.338-5.294Z" fill="#263238"/><path d="M380.315,161.863c.459.731.8,1.3,1.17,1.932s.7,1.248,1.031,1.871c.668,1.249,1.3,2.509,1.914,3.777a82.246,82.246,0,0,1,3.229,7.837,69.5,69.5,0,0,1,2.4,8.234l.464,2.117.361,2.158c.129.713.207,1.448.286,2.181l.121,1.1.059.548.015.137.031.418a7.049,7.049,0,0,1,0,.859,8.4,8.4,0,0,1-.592,2.653,10.867,10.867,0,0,1-.886,1.755,15.216,15.216,0,0,1-1.821,2.329,30.76,30.76,0,0,1-3.551,3.177,66.249,66.249,0,0,1-7.106,4.7,110.017,110.017,0,0,1-14.746,7.106l-2.895-5.387c4.181-3.09,8.454-6.191,12.43-9.375,1.989-1.582,3.914-3.224,5.593-4.855a19.853,19.853,0,0,0,2.132-2.37,5.118,5.118,0,0,0,.531-.869c.075-.136-.085-.188-.2.688,0,.088-.015.239-.006.363l.015.17L380.28,195l-.089-.434-.177-.868c-.115-.578-.224-1.155-.388-1.734l-.436-1.736-.508-1.736c-.71-2.309-1.522-4.613-2.455-6.894s-1.933-4.545-3.02-6.776c-.539-1.116-1.091-2.227-1.67-3.316l-.875-1.617-.83-1.5Z" fill="#ba6c29"/><path d="M362.688,210.2l-8.215.835,3.548,9.159s7.363-1.657,7.187-5.7Z" fill="#ba6c29"/><path d="M348.891,217.631l1.788,2.99a2.818,2.818,0,0,0,3.5,1.144l3.847-1.568-3.548-9.159-4.526,2.631A2.887,2.887,0,0,0,348.891,217.631Z" fill="#ba6c29"/><path d="M357.482,166.238c2.384,6.489,10.892,15.023,15.169,19.424,9.5-.118,15.861-9.487,15.861-9.487s-4.322-16.442-12.766-22.382C369.4,149.328,353.267,154.764,357.482,166.238Z" fill="#ff6900"/><rect width="197.243" height="18.324" transform="translate(142.757 302.519)" fill="#263238"/><rect width="55.988" height="18.324" transform="translate(284.013 302.519)" opacity="0.2"/><rect width="11.806" height="98.931" transform="translate(142.757 320.843)" fill="#263238"/><path d="M154.563,325.974l-11.806-2.565v-2.565h11.806Z" opacity="0.2"/><rect width="11.806" height="98.931" transform="translate(328.195 320.843)" fill="#263238"/><rect width="11.806" height="98.931" transform="translate(328.195 320.843)" opacity="0.2"/><rect width="11.806" height="98.931" transform="translate(284.013 320.843)" fill="#263238"/><path d="M295.819,325.974l-11.806-2.565v-2.565h11.806Z" opacity="0.2"/><rect width="11.806" height="98.931" transform="translate(179.721 320.843)" fill="#263238"/><rect width="11.806" height="98.931" transform="translate(179.721 320.843)" opacity="0.2"/><path d="M319.96,210.519H172.089l-13.129,57.5h147.87Z" fill="#263238"/><path d="M319.96,210.519h3.379l-13.129,57.5h-3.38Z"/><rect width="237.134" height="69" rx="12" transform="translate(116.071 233.519)" fill="#407bff"/><rect width="51.245" height="69" rx="12" transform="translate(301.96 233.519)" fill="#a21f1f" opacity="0.2"/><path d="M293.2,251.352H124.832a1.988,1.988,0,0,1-1.983-1.983h0a1.989,1.989,0,0,1,1.983-1.983H293.2a1.989,1.989,0,0,1,1.983,1.983h0A1.988,1.988,0,0,1,293.2,251.352Z" opacity="0.2"/><path d="M283.4,269.852h10.112a1.671,1.671,0,0,0,1.666-1.667h0a1.671,1.671,0,0,0-1.666-1.666H283.4a1.671,1.671,0,0,0-1.666,1.666h0A1.671,1.671,0,0,0,283.4,269.852Z" fill="#fff"/><path d="M283.4,276.939h10.112a1.671,1.671,0,0,0,1.666-1.667h0a1.671,1.671,0,0,0-1.666-1.667H283.4a1.671,1.671,0,0,0-1.666,1.667h0A1.671,1.671,0,0,0,283.4,276.939Z" fill="#fff"/><path d="M283.4,284.025h10.112a1.671,1.671,0,0,0,1.666-1.666h0a1.672,1.672,0,0,0-1.666-1.667H283.4a1.671,1.671,0,0,0-1.666,1.667h0A1.671,1.671,0,0,0,283.4,284.025Z" fill="#fff"/><path d="M164.113,249.352c1.943-16.868-10.157-30.542-27.025-30.542H260.3c16.868,0,28.967,13.674,27.025,30.542Z" fill="#407bff"/><g opacity="0.3"><path d="M164.113,249.352c1.943-16.868-10.157-30.542-27.025-30.542H260.3c16.868,0,28.967,13.674,27.025,30.542Z" fill="#fff"/></g><path d="M137.088,218.81H260.3c-16.867,0-32.117,13.674-34.06,30.542L212.27,370.678c-1.943,16.868-17.192,30.542-34.06,30.542H116.079c-16.868,0-28.967-13.674-27.024-30.542l13.974-121.326C104.971,232.484,120.22,218.81,137.088,218.81Z" fill="#407bff"/><path d="M137.088,218.81H260.3c-16.867,0-32.117,13.674-34.06,30.542L212.27,370.678c-1.943,16.868-17.192,30.542-34.06,30.542H116.079c-16.868,0-28.967-13.674-27.024-30.542l13.974-121.326C104.971,232.484,120.22,218.81,137.088,218.81Z" fill="#fff" opacity="0.7"/><path d="M151.186,370.678c-1.943,16.868,10.156,30.542,27.024,30.542H54.995c-16.868,0-28.967-13.674-27.024-30.542Z" fill="#407bff"/><path d="M151.186,370.678c-1.943,16.868,10.156,30.542,27.024,30.542H54.995c-16.868,0-28.967-13.674-27.024-30.542Z" fill="#fff" opacity="0.5"/><path d="M111.968,259.9h2.9l-1.078,9.359h-2.9Z" fill="#407bff"/><path d="M116.96,259.9h2.7l2.928,5.178.6-5.178h2.726l-1.078,9.359h-2.726l-2.913-5.139-.592,5.139h-2.72Z" fill="#407bff"/><path d="M126.913,259.9h3.023l1.331,6.735,2.855-6.735h2.935l-4.553,9.359H129.37Z" fill="#407bff"/><path d="M136.651,264.59a5.427,5.427,0,0,1,1.688-3.569,5.338,5.338,0,0,1,3.7-1.277A4.4,4.4,0,0,1,145.5,261a4.31,4.31,0,0,1,.859,3.514,6.274,6.274,0,0,1-.862,2.691,4.654,4.654,0,0,1-1.784,1.634,6.568,6.568,0,0,1-5.231.08,3.333,3.333,0,0,1-1.5-1.6A4.988,4.988,0,0,1,136.651,264.59Zm2.89.013a2.928,2.928,0,0,0,.293,2.036,1.579,1.579,0,0,0,1.361.619,2,2,0,0,0,1.514-.607,3.809,3.809,0,0,0,.761-2.176,2.68,2.68,0,0,0-.311-1.931,1.62,1.62,0,0,0-1.376-.61,1.978,1.978,0,0,0-1.475.619A3.479,3.479,0,0,0,139.541,264.6Z" fill="#407bff"/><path d="M148.56,259.9h2.9l-1.077,9.359h-2.9Z" fill="#407bff"/><path d="M159.127,265.433l2.446.765a5.335,5.335,0,0,1-1.009,1.781,4.129,4.129,0,0,1-1.487,1.08,5.423,5.423,0,0,1-2.114.363,5.66,5.66,0,0,1-2.441-.443,3.341,3.341,0,0,1-1.491-1.56,4.974,4.974,0,0,1-.373-2.859,5.463,5.463,0,0,1,1.647-3.569,5.218,5.218,0,0,1,3.639-1.247,4.361,4.361,0,0,1,2.7.715,3.616,3.616,0,0,1,1.251,2.2l-2.62.569a1.943,1.943,0,0,0-.209-.626,1.4,1.4,0,0,0-.535-.511,1.582,1.582,0,0,0-.764-.179,1.932,1.932,0,0,0-1.6.791,3.674,3.674,0,0,0-.608,1.843,3.3,3.3,0,0,0,.227,2.133,1.433,1.433,0,0,0,1.261.577,1.793,1.793,0,0,0,1.308-.466A3.308,3.308,0,0,0,159.127,265.433Z" fill="#407bff"/><path d="M163.7,259.9h7.75l-.23,2h-4.852l-.171,1.488h4.5l-.22,1.908h-4.5l-.213,1.846h4.993l-.244,2.119h-7.891Z" fill="#407bff"/><path d="M211.761,293.685H107.3l1.363-11.833H213.124Z" fill="#105ef9"/><path d="M211.761,293.685H107.3l-1.113,9.667H210.648Z" fill="#fff" opacity="0.8"/><path d="M204.541,356.373h-31.8l.659-5.718h31.8Z" fill="#105ef9"/><path d="M204.541,356.373h-31.8l-.538,4.671H204Z" fill="#fff" opacity="0.8"/><path d="M209.535,313.019H105.072l1.113-9.667H210.648Z" fill="#fff" opacity="0.5"/><path d="M209.535,313.019H105.072l-1.113,9.667H208.421Z" fill="#fff" opacity="0.8"/><path d="M207.308,332.352H102.845l1.113-9.667H208.421Z" fill="#fff" opacity="0.5"/><path d="M207.308,332.352H102.845l-1.113,9.667H206.195Z" fill="#fff" opacity="0.8"/></g></svg>