<svg xmlns="http://www.w3.org/2000/svg" width="24.487" height="29.113" viewBox="0 0 24.487 29.113">
  <g id="Group_766" data-name="Group 766" transform="translate(-213.771 -45.654)">
    <rect id="Rectangle_485" data-name="Rectangle 485" width="19.178" height="28.263" rx="3" transform="translate(219.08 46.504)" fill="#e6f1fb"/>
    <path id="paper-note" d="M9.4,7.4H20.2M9.4,12.8H20.2M9.4,18.2h4.049M6.7,28.992h16.2a2.7,2.7,0,0,0,2.7-2.7V4.7a2.7,2.7,0,0,0-2.7-2.7H6.7A2.7,2.7,0,0,0,4,4.7V26.293A2.7,2.7,0,0,0,6.7,28.992Z" transform="translate(210.621 44.504)" fill="none" stroke="#0b51d5" stroke-linecap="round" stroke-linejoin="round" stroke-width="1.7"/>
    <path id="Path_3848" data-name="Path 3848" d="M9,6H19.8" transform="translate(211.281 46.283)" fill="none" stroke="#ff6900" stroke-linecap="round" stroke-linejoin="round" stroke-width="1.7"/>
    <path id="Path_3849" data-name="Path 3849" d="M9,10H19.8" transform="translate(211.281 47.355)" fill="none" stroke="#ff6900" stroke-linecap="round" stroke-linejoin="round" stroke-width="1.7"/>
    <path id="Path_3850" data-name="Path 3850" d="M9,14h5.514" transform="translate(210.08 48.43)" fill="none" stroke="#ff6900" stroke-linecap="round" stroke-linejoin="round" stroke-width="1.7"/>
  </g>
</svg>
