<svg xmlns="http://www.w3.org/2000/svg" width="32.629" height="32.715" viewBox="0 0 32.629 32.715"><path d="M17.571,34.438H15.854c0-.086.086-.172.086-.258a.794.794,0,0,0-.172-1.03.9.9,0,0,0-1.116,0,.913.913,0,0,0-.172,1.03c0,.086.086.172.086.258H12.848a2.729,2.729,0,0,0,.258-.773c0-.429-.429-.687-.945-.687H3.918A2.209,2.209,0,0,1,1.6,30.66V15.118A2.209,2.209,0,0,1,3.918,12.8h22.5a2.209,2.209,0,0,1,2.318,2.318v4.207H24.1a3.606,3.606,0,1,0,0,7.213h4.551v4.036a2.212,2.212,0,0,1-2.4,2.4h-8.5a.833.833,0,0,0-.515,1.2A.584.584,0,0,1,17.571,34.438Z" transform="translate(-0.226 -1.809)" fill="#e6f1fb"/><path d="M17.359,32.629c0-.086-.086-.172-.086-.258a.833.833,0,0,1,.515-1.2h8.5a2.212,2.212,0,0,0,2.4-2.4V24.729H24.142a3.606,3.606,0,1,1,0-7.213h4.637V13.309a2.209,2.209,0,0,0-2.318-2.318H3.964a2.209,2.209,0,0,0-2.318,2.318V28.851a2.209,2.209,0,0,0,2.318,2.318h8.243c.6,0,.945.258.945.687a2.729,2.729,0,0,1-.258.773H2.59L1.3,31.856A4.484,4.484,0,0,1,.1,30.225V11.849c.086-.086.086-.172.172-.258A3.61,3.61,0,0,1,3.105,9.359a17.947,17.947,0,0,1,2.147-.086A1.22,1.22,0,0,0,5.767,9.1L13.5,1.374A6.724,6.724,0,0,1,15.212,0h2.318a7.286,7.286,0,0,1,2.147,1.8l.859.859a.516.516,0,0,0,.343.086A3.413,3.413,0,0,1,24.4,4.379c.945,1.546,1.889,3.177,2.748,4.808.086.086.172.258.343.258a3.8,3.8,0,0,1,2.748,3.864v4.122h.172a2.264,2.264,0,0,1,2.233,1.2v4.808a2.307,2.307,0,0,1-2.4,1.2v4.207a3.719,3.719,0,0,1-1.288,2.919,6.4,6.4,0,0,1-1.288.773C24.228,32.629,20.794,32.629,17.359,32.629ZM25.345,9.188c-.086-.086-.086-.172-.172-.343C24.486,7.728,23.8,6.612,23.2,5.41a1.765,1.765,0,0,0-2.662-.773C18.647,5.753,16.758,6.869,14.869,7.9c-.687.429-1.374.773-2.147,1.2C16.93,9.188,21.137,9.188,25.345,9.188Zm1.975,13.824h3.263c.429,0,.6-.172.6-.6V19.663c0-.515-.172-.6-.6-.6H23.8a1.985,1.985,0,0,0-1.631,2.147,2.036,2.036,0,0,0,1.975,1.8ZM19.162,3.606c-.6-.515-1.116-1.03-1.631-1.546a1.721,1.721,0,0,0-2.576,0L7.914,9.1l-.172.172H9.03a3.719,3.719,0,0,0,.429-.086c1.889-1.03,3.692-2.147,5.581-3.177C16.414,5.152,17.788,4.379,19.162,3.606Z" transform="translate(-0.014 0)" fill="#0a50d5"/><path d="M35.512,18.633a2.194,2.194,0,0,0-2.233-1.2h-.172V13.309A3.894,3.894,0,0,0,30.36,9.445c-.086,0-.258-.172-.343-.258-.945-1.631-1.8-3.177-2.748-4.808a3.413,3.413,0,0,0-3.52-1.631.516.516,0,0,1-.343-.086,8.1,8.1,0,0,1-.859-.859A8.571,8.571,0,0,0,20.4,0H35.512Z" transform="translate(-2.883)" fill="#fff"/><path d="M15.112,0A4.361,4.361,0,0,0,13.4,1.374L5.667,9.1a.921.921,0,0,1-.515.172c-.687.086-1.46,0-2.147.086A3.784,3.784,0,0,0,.172,11.592c0,.086-.086.172-.172.258Q0,5.925,0,0Z" fill="#fff"/><path d="M32.2,36.5l1.288-.773a3.572,3.572,0,0,0,1.288-2.919V28.6a2.307,2.307,0,0,0,2.4-1.2v9.188C35.549,36.5,33.831,36.5,32.2,36.5Z" transform="translate(-4.551 -3.873)" fill="#fff"/><path d="M0,35.2a4.484,4.484,0,0,0,1.2,1.631L2.49,37.6H.086A22.5,22.5,0,0,1,0,35.2Z" transform="translate(0 -4.975)" fill="#fff"/><path d="M16.767,37.756c0-.086-.086-.172-.086-.258a.794.794,0,0,1,.172-1.03.9.9,0,0,1,1.116,0,.913.913,0,0,1,.172,1.03c0,.086-.086.172-.086.258Z" transform="translate(-2.342 -5.127)" fill="#011b60"/><path d="M27.408,9.9H14.7c.773-.429,1.46-.859,2.147-1.2,1.889-1.116,3.778-2.233,5.667-3.263a1.79,1.79,0,0,1,2.748.687c.687,1.2,1.374,2.318,2.061,3.52A.315.315,0,0,0,27.408,9.9Z" transform="translate(-2.078 -0.715)" fill="#fff"/><path d="M30.951,26.15H27.774a1.99,1.99,0,0,1-.343-3.95h6.783c.515,0,.6.172.6.6v2.748c0,.429-.172.6-.6.6Zm-2.49-1.975a.77.77,0,0,0-.773-.773.913.913,0,0,0-.859.773.86.86,0,0,0,.859.859A.913.913,0,0,0,28.461,24.175Z" transform="translate(-3.645 -3.138)" fill="#fff"/><path d="M20.434,3.836c-1.374.773-2.662,1.546-4.036,2.318C14.51,7.185,12.706,8.3,10.817,9.331a.774.774,0,0,1-.429.086H9.1c.086-.086.086-.172.172-.172C11.59,6.927,13.908,4.523,16.313,2.2a1.721,1.721,0,0,1,2.576,0A9.2,9.2,0,0,0,20.434,3.836Z" transform="translate(-1.286 -0.23)" fill="#fff"/><path d="M28.631,24.371a.913.913,0,0,1-.773.859A.86.86,0,0,1,27,24.371a.793.793,0,0,1,.859-.773C28.2,23.512,28.631,23.942,28.631,24.371Z" transform="translate(-3.816 -3.334)" fill="#ff6900"/></svg>