<svg xmlns="http://www.w3.org/2000/svg" width="27.785" height="52.229" viewBox="0 0 27.785 52.229">
  <g id="Point_of_Sale_Icon" data-name="Point of Sale Icon" transform="translate(0.1 0.112)">
    <path id="Path_653" data-name="Path 653" d="M143.808,9.773h-.867V.762a.762.762,0,0,0-1.3-.539l-1.09,1.09L139.46.223a.762.762,0,0,0-1.078,0l-1.09,1.09L136.2.223a.762.762,0,0,0-1.078,0l-1.09,1.09-1.09-1.09a.762.762,0,0,0-1.078,0l-1.09,1.09-1.09-1.09a.762.762,0,0,0-1.078,0l-1.09,1.09-1.09-1.09a.762.762,0,0,0-1.3.539V7.278a.762.762,0,1,0,1.524,0V2.6l.328.328a.762.762,0,0,0,1.078,0l1.09-1.09,1.09,1.09a.762.762,0,0,0,1.078,0l1.09-1.09,1.09,1.09a.762.762,0,0,0,1.078,0l1.09-1.09,1.09,1.09a.762.762,0,0,0,1.078,0l1.09-1.09,1.09,1.09a.762.762,0,0,0,1.078,0l.328-.328V9.773H124.262a4.024,4.024,0,0,0-4.02,4.02V48a4.024,4.024,0,0,0,4.02,4.02h19.546a4.024,4.024,0,0,0,4.02-4.02V13.793a4.024,4.024,0,0,0-4.02-4.02Zm0,40.721H124.262a2.5,2.5,0,0,1-2.5-2.5V29.214h17.969a.762.762,0,0,0,0-1.524H121.766v-13.9a2.5,2.5,0,0,1,2.5-2.5h19.546a2.5,2.5,0,0,1,2.5,2.5v13.9h-3.31a.762.762,0,0,0,0,1.524h3.31V48A2.5,2.5,0,0,1,143.808,50.494Z" transform="translate(-120.242 0)" fill="#293146" stroke="#000" stroke-width="0.2"/>
    <path id="Path_654" data-name="Path 654" d="M186.151,153.2v-8.144a.762.762,0,0,0-.762-.762H169.1a.762.762,0,0,0-.762.762V153.2a.762.762,0,0,0,.762.762h16.288A.762.762,0,0,0,186.151,153.2Zm-1.524-.762H169.863v-6.62h14.764Z" transform="translate(-163.453 -129.631)" fill="#293146" stroke="#000" stroke-width="0.5"/>
    <path id="Path_664" data-name="Path 664" d="M217.325,65.653a.762.762,0,0,0,0-1.524h-8.144a.762.762,0,0,0,0,1.524Z" transform="translate(-199.46 -57.614)" fill="#293146" stroke="#000" stroke-width="0.5"/>
    <path id="Path_665" data-name="Path 665" d="M209.181,185.895h8.144a.762.762,0,1,0,0-1.524h-8.144a.762.762,0,1,0,0,1.524Z" transform="translate(-199.46 -165.639)" fill="#293146" stroke="#000" stroke-width="0.5"/>
  </g>
</svg>
