<svg xmlns="http://www.w3.org/2000/svg" width="26.878" height="26.879" viewBox="0 0 26.878 26.879">
  <g id="Accocunting_Icon" data-name="Accocunting Icon" transform="translate(0.35 0.35)">
    <rect id="Rectangle_484" data-name="Rectangle 484" width="16.273" height="16.981" rx="3" transform="translate(3.271 5.926)" fill="#e6f1fb"/>
    <path id="Path_646" data-name="Path 646" d="M11.939,25.144a.55.55,0,0,1-.386-.159.545.545,0,0,1-.149-.492l.771-3.856a.535.535,0,0,1,.149-.279l8.484-8.484a1.639,1.639,0,0,1,2.314,0l1.542,1.542a1.637,1.637,0,0,1,0,2.314L16.18,24.214a.542.542,0,0,1-.279.149l-3.856.771A.579.579,0,0,1,11.939,25.144Zm1.274-4.133L12.635,23.9l2.892-.578,8.367-8.367a.546.546,0,0,0,0-.771l-1.542-1.542a.546.546,0,0,0-.771,0ZM15.8,23.828h.011Z" transform="translate(1.034 1.035)" fill="#ff6900" stroke="#ff6900" stroke-width="0.7"/>
    <path id="Path_647" data-name="Path 647" d="M10.363,22.634H2.727A2.729,2.729,0,0,1,0,19.907V5.727A2.729,2.729,0,0,1,2.727,3H4.909a.545.545,0,0,1,0,1.091H2.727A1.638,1.638,0,0,0,1.091,5.727v14.18a1.638,1.638,0,0,0,1.636,1.636h7.636a.545.545,0,0,1,0,1.091Z" transform="translate(0 0.272)" fill="#0b51d5" stroke="#0b51d5" stroke-width="0.7"/>
    <path id="Path_648" data-name="Path 648" d="M16.909,12.817a.546.546,0,0,1-.545-.545V5.727a1.638,1.638,0,0,0-1.636-1.636H12.545a.545.545,0,0,1,0-1.091h2.182a2.729,2.729,0,0,1,2.727,2.727v6.545A.546.546,0,0,1,16.909,12.817Z" transform="translate(1.09 0.272)" fill="#0b51d5" stroke="#0b51d5" stroke-width="0.7"/>
    <path id="Path_649" data-name="Path 649" d="M12.181,6.545H5.636A1.638,1.638,0,0,1,4,4.909V2.727a.546.546,0,0,1,.545-.545H6.236a2.728,2.728,0,0,1,5.345,0h1.691a.546.546,0,0,1,.545.545V4.909A1.638,1.638,0,0,1,12.181,6.545ZM5.091,3.272V4.909a.547.547,0,0,0,.545.545h6.545a.547.547,0,0,0,.545-.545V3.272H11.09a.546.546,0,0,1-.545-.545,1.636,1.636,0,0,0-3.272,0,.546.546,0,0,1-.545.545Z" transform="translate(0.363)" fill="#0b51d5" stroke="#0b51d5" stroke-width="0.7"/>
    <path id="Path_650" data-name="Path 650" d="M14.453,9.091H3.545A.545.545,0,0,1,3.545,8H14.453a.545.545,0,1,1,0,1.091Z" transform="translate(0.272 0.726)" fill="#ff6900" stroke="#ff6900" stroke-width="0.7"/>
    <path id="Path_651" data-name="Path 651" d="M14.453,12.091H3.545a.545.545,0,1,1,0-1.091H14.453a.545.545,0,1,1,0,1.091Z" transform="translate(0.272 0.999)" fill="#ff6900" stroke="#ff6900" stroke-width="0.7"/>
    <path id="Path_652" data-name="Path 652" d="M14.453,15.091H3.545a.545.545,0,0,1,0-1.091H14.453a.545.545,0,1,1,0,1.091Z" transform="translate(0.272 1.271)" fill="#ff6900" stroke="#ff6900" stroke-width="0.7"/>
  </g>
</svg>
