<svg xmlns="http://www.w3.org/2000/svg" width="37.688" height="41.885" viewBox="0 0 37.688 41.885">
  <path id="Icon_material-fingerprint" data-name="Icon material-fingerprint" d="M35.517,8.173a.973.973,0,0,1-.482-.126A23.962,23.962,0,0,0,23.371,5.094,23.959,23.959,0,0,0,11.706,8.047,1.05,1.05,0,1,1,10.7,6.2,26.646,26.646,0,0,1,36,6.183a1.06,1.06,0,0,1-.482,1.99ZM5.549,19.167a1.091,1.091,0,0,1-.607-.188,1.044,1.044,0,0,1-.251-1.466,21.652,21.652,0,0,1,7.853-6.848,24.174,24.174,0,0,1,21.591-.021,21.735,21.735,0,0,1,7.853,6.806,1.052,1.052,0,1,1-1.717,1.215,19.66,19.66,0,0,0-7.1-6.157,22.067,22.067,0,0,0-19.686.021,19.867,19.867,0,0,0-7.12,6.2.913.913,0,0,1-.817.44ZM18.638,44.445a.982.982,0,0,1-.733-.314A21.171,21.171,0,0,1,13.7,38.6a18.59,18.59,0,0,1-2.2-9.089c0-6.22,5.319-11.288,11.853-11.288S35.2,23.293,35.2,29.513a1.047,1.047,0,1,1-2.094,0c0-5.068-4.377-9.194-9.759-9.194s-9.759,4.126-9.759,9.194a16.406,16.406,0,0,0,1.948,8.063,19.823,19.823,0,0,0,3.874,5.068,1.075,1.075,0,0,1,0,1.487A1.149,1.149,0,0,1,18.638,44.445ZM33.653,40.57a11.278,11.278,0,0,1-6.492-1.864,11.15,11.15,0,0,1-4.984-9.194,1.047,1.047,0,0,1,2.094,0,9.007,9.007,0,0,0,4.063,7.455,9.183,9.183,0,0,0,5.319,1.487,13.84,13.84,0,0,0,2.178-.209,1.052,1.052,0,0,1,.356,2.073,14.3,14.3,0,0,1-2.534.251Zm-4.209,4.314a1.226,1.226,0,0,1-.272-.042,16.34,16.34,0,0,1-7.791-4.4,15.281,15.281,0,0,1-4.544-10.932,6.315,6.315,0,0,1,6.45-6.157,6.315,6.315,0,0,1,6.45,6.157,4.367,4.367,0,0,0,8.712,0c0-7.9-6.806-14.3-15.183-14.3a15.289,15.289,0,0,0-13.843,8.44,13.472,13.472,0,0,0-1.236,5.864,20.811,20.811,0,0,0,1.4,7.56,1.022,1.022,0,0,1-.607,1.34,1.039,1.039,0,0,1-1.34-.607,23.331,23.331,0,0,1-1.529-8.293,15.733,15.733,0,0,1,1.424-6.785,17.38,17.38,0,0,1,15.728-9.633c9.529,0,17.277,7.351,17.277,16.4a6.457,6.457,0,0,1-12.9,0,4.217,4.217,0,0,0-4.356-4.063,4.217,4.217,0,0,0-4.356,4.063,13.188,13.188,0,0,0,3.916,9.445A14.241,14.241,0,0,0,29.7,42.811a1.039,1.039,0,0,1,.733,1.277,1.022,1.022,0,0,1-.984.8Z" transform="translate(-4.495 -3)" fill="#105ffb"/>
</svg>
