<svg xmlns="http://www.w3.org/2000/svg" width="24.366" height="24.731" viewBox="0 0 24.366 24.731">
  <g id="Group_954" data-name="Group 954" transform="translate(-14.818 -9.064)">
    <path id="icon-branch" d="M19.845,21.848h-.91V1.092A1.092,1.092,0,0,0,17.843,0H2.549A1.092,1.092,0,0,0,1.457,1.092V21.848H.546A.546.546,0,0,0,0,22.394v.91H20.391v-.91A.546.546,0,0,0,19.845,21.848ZM5.826,3.459a.546.546,0,0,1,.546-.546H8.193a.546.546,0,0,1,.546.546V5.28a.546.546,0,0,1-.546.546H6.372a.546.546,0,0,1-.546-.546Zm0,4.37a.546.546,0,0,1,.546-.546H8.193a.546.546,0,0,1,.546.546V9.65a.546.546,0,0,1-.546.546H6.372a.546.546,0,0,1-.546-.546Zm2.367,6.737H6.372a.546.546,0,0,1-.546-.546V12.2a.546.546,0,0,1,.546-.546H8.193a.546.546,0,0,1,.546.546v1.821A.546.546,0,0,1,8.193,14.566Zm3.459,7.283H8.739V18.025a.546.546,0,0,1,.546-.546h1.821a.546.546,0,0,1,.546.546Zm2.913-7.829a.546.546,0,0,1-.546.546H12.2a.546.546,0,0,1-.546-.546V12.2a.546.546,0,0,1,.546-.546h1.821a.546.546,0,0,1,.546.546Zm0-4.37a.546.546,0,0,1-.546.546H12.2a.546.546,0,0,1-.546-.546V7.829a.546.546,0,0,1,.546-.546h1.821a.546.546,0,0,1,.546.546Zm0-4.37a.546.546,0,0,1-.546.546H12.2a.546.546,0,0,1-.546-.546V3.459a.546.546,0,0,1,.546-.546h1.821a.546.546,0,0,1,.546.546Z" transform="translate(18.793 10.49)" fill="#0a50d5"/>
    <rect id="Rectangle_573" data-name="Rectangle 573" width="13" height="20" transform="translate(19.172 10.938)" fill="#fff"/>
    <path id="icon-branch-2" data-name="icon-branch" d="M19.845,21.848h-.91V1.092A1.092,1.092,0,0,0,17.843,0H2.549A1.092,1.092,0,0,0,1.457,1.092V21.848H.546A.546.546,0,0,0,0,22.394v.91H20.391v-.91A.546.546,0,0,0,19.845,21.848ZM5.826,3.459a.546.546,0,0,1,.546-.546H8.193a.546.546,0,0,1,.546.546V5.28a.546.546,0,0,1-.546.546H6.372a.546.546,0,0,1-.546-.546Zm0,4.37a.546.546,0,0,1,.546-.546H8.193a.546.546,0,0,1,.546.546V9.65a.546.546,0,0,1-.546.546H6.372a.546.546,0,0,1-.546-.546Zm2.367,6.737H6.372a.546.546,0,0,1-.546-.546V12.2a.546.546,0,0,1,.546-.546H8.193a.546.546,0,0,1,.546.546v1.821A.546.546,0,0,1,8.193,14.566Zm3.459,7.283H8.739V18.025a.546.546,0,0,1,.546-.546h1.821a.546.546,0,0,1,.546.546Zm2.913-7.829a.546.546,0,0,1-.546.546H12.2a.546.546,0,0,1-.546-.546V12.2a.546.546,0,0,1,.546-.546h1.821a.546.546,0,0,1,.546.546Zm0-4.37a.546.546,0,0,1-.546.546H12.2a.546.546,0,0,1-.546-.546V7.829a.546.546,0,0,1,.546-.546h1.821a.546.546,0,0,1,.546.546Zm0-4.37a.546.546,0,0,1-.546.546H12.2a.546.546,0,0,1-.546-.546V3.459a.546.546,0,0,1,.546-.546h1.821a.546.546,0,0,1,.546.546Z" transform="translate(14.818 9.064)" fill="#fd6920"/>
  </g>
</svg>
