<svg xmlns="http://www.w3.org/2000/svg" width="20.559" height="12.311" viewBox="0 0 20.559 12.311">
  <g id="Icon_ionic-ios-code" data-name="Icon ionic-ios-code" transform="translate(-4.5 -9.914)">
    <path id="Path_3868" data-name="Path 3868" d="M22.943,10.005a.332.332,0,0,0-.219-.091.322.322,0,0,0-.219.091l-.739.707a.311.311,0,0,0,0,.46l5.128,4.9-5.128,4.9a.311.311,0,0,0,0,.46l.739.707a.322.322,0,0,0,.219.091.312.312,0,0,0,.219-.091L29.055,16.3a.311.311,0,0,0,0-.46Z" transform="translate(-4.098)"/>
    <path id="Path_3869" data-name="Path 3869" d="M11.993,10.942a.316.316,0,0,0-.1-.23l-.739-.707a.332.332,0,0,0-.219-.091.322.322,0,0,0-.219.091L4.6,15.839a.311.311,0,0,0,0,.46l6.112,5.834a.332.332,0,0,0,.219.091.312.312,0,0,0,.219-.091l.739-.707a.311.311,0,0,0,0-.46l-5.128-4.9,5.128-4.9A.316.316,0,0,0,11.993,10.942Z"/>
  </g>
</svg>
