<svg xmlns="http://www.w3.org/2000/svg" width="500" height="372.56" viewBox="0 0 500 372.56"><g transform="translate(0 -55)"><rect width="500" height="0.25" transform="translate(0 382.4)" fill="#ebebeb"/><rect width="23.18" height="0.25" transform="translate(150.04 388.78)" fill="#ebebeb"/><rect width="56.67" height="0.25" transform="translate(402.1 394.14)" fill="#ebebeb"/><rect width="56.67" height="0.25" transform="translate(42.72 394.14)" fill="#ebebeb"/><path d="M237,337.8H43.91a5.709,5.709,0,0,1-5.7-5.71V60.66A5.71,5.71,0,0,1,43.91,55H237a5.71,5.71,0,0,1,5.71,5.71h0V332.09A5.71,5.71,0,0,1,237,337.8ZM43.91,55.2a5.46,5.46,0,0,0-5.45,5.46V332.09a5.459,5.459,0,0,0,5.45,5.46H237a5.47,5.47,0,0,0,5.46-5.46V60.66A5.471,5.471,0,0,0,237,55.2Z" fill="#ebebeb"/><path d="M453.31,337.8H260.21a5.72,5.72,0,0,1-5.71-5.71V60.66A5.72,5.72,0,0,1,260.21,55h193.1A5.71,5.71,0,0,1,459,60.66V332.09A5.71,5.71,0,0,1,453.31,337.8ZM260.21,55.2a5.47,5.47,0,0,0-5.46,5.46V332.09a5.47,5.47,0,0,0,5.46,5.46h193.1a5.47,5.47,0,0,0,5.46-5.46V60.66a5.471,5.471,0,0,0-5.46-5.46Z" fill="#ebebeb"/><rect width="23.091" height="79.914" transform="translate(291.98 303.026)" fill="#e6e6e6"/><rect width="23.091" height="79.914" transform="translate(275.63 303.026)" fill="#e6e6e6"/><path d="M294.338,382.941h4.383V370.462h-8.99Z" fill="#f0f0f0"/><rect width="23.091" height="79.914" transform="translate(159.563 303.026)" fill="#e6e6e6"/><rect width="119.896" height="73.772" transform="translate(178.825 303.026)" fill="#f0f0f0"/><path d="M291.257,360.2H244.3a4.579,4.579,0,0,1-4.568-4.568V310.723a4.578,4.578,0,0,1,4.568-4.567h46.95a4.576,4.576,0,0,1,4.567,4.567v44.909A4.578,4.578,0,0,1,291.257,360.2ZM244.3,307.176a3.557,3.557,0,0,0-3.557,3.547v44.909a3.558,3.558,0,0,0,3.518,3.6h46.989a3.558,3.558,0,0,0,3.586-3.528V310.723a3.558,3.558,0,0,0-3.557-3.547Z" fill="#e0e0e0"/><path d="M233.238,360.2H186.289a4.579,4.579,0,0,1-4.568-4.568V310.723a4.578,4.578,0,0,1,4.568-4.567h46.949a4.568,4.568,0,0,1,4.568,4.567h0v44.909a4.568,4.568,0,0,1-4.567,4.568Zm-46.949-53.024a3.547,3.547,0,0,0-3.547,3.547v44.909a3.547,3.547,0,0,0,3.547,3.547h46.949a3.556,3.556,0,0,0,3.557-3.547V310.723a3.557,3.557,0,0,0-3.557-3.547Z" fill="#e0e0e0"/><path d="M228.885,320.354a4.412,4.412,0,1,1,4.4-4.422v.02A4.411,4.411,0,0,1,228.885,320.354Z" fill="#fafafa"/><path d="M248.662,320.354a4.412,4.412,0,1,1,4.383-4.441v.068A4.4,4.4,0,0,1,248.662,320.354Z" fill="#fafafa"/><path d="M183.208,382.941h-4.383V370.462h8.99Z" fill="#f0f0f0"/><rect width="23.091" height="79.914" transform="translate(152.206 303.026)" fill="#e6e6e6"/><path d="M170.914,382.941H175.3V370.462h-8.99Z" fill="#f0f0f0"/><rect width="119.896" height="73.772" transform="translate(55.402 303.026)" fill="#f0f0f0"/><path d="M167.834,360.2h-46.96a4.577,4.577,0,0,1-4.577-4.568V310.723a4.577,4.577,0,0,1,4.577-4.567h46.95a4.578,4.578,0,0,1,4.568,4.567v44.909A4.579,4.579,0,0,1,167.834,360.2Zm-46.96-53.024a3.558,3.558,0,0,0-3.557,3.547v44.909a3.558,3.558,0,0,0,3.518,3.6h46.989a3.557,3.557,0,0,0,3.586-3.528V310.723a3.556,3.556,0,0,0-3.547-3.547Z" fill="#e0e0e0"/><path d="M109.815,360.2H62.865a4.568,4.568,0,0,1-4.567-4.568h0V310.723a4.567,4.567,0,0,1,4.567-4.567h46.95a4.576,4.576,0,0,1,4.567,4.567v44.909A4.578,4.578,0,0,1,109.815,360.2Zm-46.95-53.024a3.558,3.558,0,0,0-3.557,3.547v44.909a3.558,3.558,0,0,0,3.518,3.6h46.989a3.557,3.557,0,0,0,3.557-3.547V310.723a3.557,3.557,0,0,0-3.557-3.547Z" fill="#e0e0e0"/><path d="M105.461,320.354a4.412,4.412,0,1,1,4.4-4.422v.02A4.4,4.4,0,0,1,105.461,320.354Z" fill="#fafafa"/><path d="M125.238,320.354a4.412,4.412,0,1,1,4.383-4.441v.068A4.4,4.4,0,0,1,125.238,320.354Z" fill="#fafafa"/><path d="M59.785,382.941H55.4V370.462h8.98Z" fill="#f0f0f0"/><rect width="42.964" height="42.964" transform="translate(224.321 81.52)" fill="#ebebeb"/><rect width="1.904" height="42.965" transform="translate(267.286 81.527)" fill="#e0e0e0"/><rect width="31.321" height="31.321" transform="translate(230.147 87.345)" fill="#fff"/><path d="M251.047,108.244h0a7.412,7.412,0,0,1-10.483,0h0a7.411,7.411,0,0,1,0-10.482h0a7.412,7.412,0,0,1,10.483,0h0A7.413,7.413,0,0,1,251.047,108.244Z" fill="#f5f5f5"/><rect width="50.372" height="50.372" transform="translate(174.826 136.758)" fill="#ebebeb"/><rect width="2.232" height="50.372" transform="translate(225.198 136.766)" fill="#e0e0e0"/><rect width="36.721" height="36.721" transform="translate(181.656 143.588)" fill="#fff"/><rect width="15.66" height="15.66" transform="translate(192.181 154.114)" fill="#f5f5f5"/><rect width="27.271" height="6.373" transform="translate(423.227 120.563)" fill="#e6e6e6"/><rect width="112.878" height="6.373" transform="translate(310.349 120.563)" fill="#f5f5f5"/><rect width="31.777" height="33.827" transform="translate(342.714 86.737)" fill="#e0e0e0"/><rect width="8.14" height="33.827" transform="translate(334.575 86.737)" fill="#f0f0f0"/><rect width="23.87" height="39.043" transform="translate(358.953 81.52)" fill="#e6e6e6"/><rect width="6.901" height="39.043" transform="translate(352.062 81.52)" fill="#f0f0f0"/><rect width="20.125" height="33.827" transform="translate(365.986 86.737)" fill="#f0f0f0"/><rect width="4.598" height="33.827" transform="translate(361.388 86.737)" fill="#fafafa"/><rect width="26.398" height="28.103" transform="translate(382.458 92.461)" fill="#e6e6e6"/><rect width="6.759" height="28.103" transform="translate(375.699 92.461)" fill="#fafafa"/><rect width="19.831" height="32.436" transform="translate(395.946 88.127)" fill="#e6e6e6"/><rect width="5.734" height="32.436" transform="translate(390.222 88.127)" fill="#f0f0f0"/><rect width="19.263" height="28.103" transform="translate(401.792 92.461)" fill="#f0f0f0"/><rect width="3.816" height="28.103" transform="translate(397.966 92.461)" fill="#fafafa"/><path d="M407.091,309.423c8.542-11.166,28.873-15.316,35.9-22.352,9.2-9.232,9.155-23.081,1.322-28.076-6.8-4.345-29.359,25.025-31.9,28.3-8.746,11.283-11.273,19.66-12.915,27.765.184-6.89.369-13.227.515-18.105.476-15.939,1.069-21.06,1.341-22.634.972-.778,2.06-1.672,2.7-2.148,5.461-4.072,17.561-8.922,23.615-14.83,8.834-8.64,7.406-18.98,1.2-22.829-6.472-4.023-17.93,5.491-24.014,14.918s-3.479,18.465-5.18,26.239c-.359,1.536-.729,7.367-1.069,15.462a32,32,0,0,0-12.332-19.951c-8.378-6.687-15.608-14.821-22.508-13.771s-3.149,11.817,2.274,19.378c4.859,6.735,28.854,13.45,32.382,18.863-.418,10.963-.788,24.85-1.05,37.786-1.895-6.677-.593-7.241-8.338-17.494-4.607-6.083-23.5-13.605-25.744-9.407s1.166,12.08,8.3,17.61c5.753,4.461,18.465,4.451,21.468,7.221.69.641,2.964,3.119,4.266,4.548-.311,15.782-.447,29.719-.291,34.471l1.234.048c-.058-1.224.088-9.251.331-19.883,3.1-5.656,23.965-8.961,30.408-14.84,6.745-6.152,11.585-13.334,8.7-18.145-2.41-4.013-21.38,1.439-29.155,8.086-5.141,4.422-8.28,9.145-9.718,15.491.175-7.24.379-15.015.573-22.352C400.958,316.984,404.525,312.766,407.091,309.423Z" fill="#e6e6e6"/><path d="M408.908,382.729H387.246c-1.186,0-2.206-1.535-2.44-3.683l-1.535-14.014h29.612l-1.536,14.014C411.1,381.194,410.094,382.729,408.908,382.729Z" fill="#f0f0f0"/><path d="M413.505,370.465H382.649c-.739,0-1.361-1.021-1.438-2.381l-.632-10.36c-.1-1.594.573-2.984,1.438-2.984h32.12c.864,0,1.535,1.39,1.438,2.984l-.632,10.36C414.865,369.444,414.243,370.465,413.505,370.465Z" fill="#f0f0f0"/><line x2="55.074" transform="translate(48.544 394.14)" fill="#ebebeb"/><ellipse cx="193.89" cy="11.32" rx="193.89" ry="11.32" transform="translate(56.11 404.92)" fill="#f5f5f5"/><path d="M214.492,155.682c-2.214,5.367-15.22,5.007-28.856-.618s-22.9-14.535-20.683-19.9c.513-1.244,1.944-5.889,3.478-6.536,5.082-2.143,14.746,2.683,25.221,7,9.75,4.022,20.893,6.607,22.624,11.9C217.325,150.746,215.123,154.153,214.492,155.682Z" fill="#407bff"/><path d="M216.28,147.533c.828,4.211-1,6.227-1.789,8.148-.816,1.981-3.1,3.178-6.328,3.623-.39.064-.8.1-1.219.135a33.25,33.25,0,0,1-7.416-.387c-.351-.043-.7-.109-1.055-.171a58.846,58.846,0,0,1-8.487-2.183c-.319-.107-.641-.222-.963-.338-1.117-.393-2.256-.82-3.388-1.292s-2.227-.956-3.3-1.469c-.309-.141-.612-.294-.911-.439a58.39,58.39,0,0,1-7.273-4.263c-.283-.191-.548-.389-.818-.574a33.08,33.08,0,0,1-5.539-4.945c-.248-.277-.474-.55-.691-.826-2.152-2.727-3-5.322-2.149-7.388.552-1.338,1.759-5.887,3.471-6.541a11.883,11.883,0,0,1,6.477-.011c.328.072.669.15,1.013.237,5.046,1.277,11.3,4.127,17.731,6.782,7.586,3.129,16.557,6.375,20.949,10.127a10.187,10.187,0,0,1,.754.7A9.01,9.01,0,0,1,216.28,147.533Z" opacity="0.2"/><g opacity="0.2"><path d="M176.38,128.014l-.464.835-8.121,14.529c-.248-.277-.474-.55-.691-.826l7.8-13.94.6-1.081Z"/></g><g opacity="0.2"><path d="M182.52,133.931,174.152,148.9c-.283-.191-.548-.389-.818-.574l8.319-14.888Z"/></g><g opacity="0.2"><path d="M197.909,142.528l-7.923,14.17c-.319-.107-.641-.222-.963-.338l8.01-14.324Z"/></g><g opacity="0.2"><path d="M190.755,138.532,182.336,153.6c-.309-.141-.612-.294-.911-.439l8.454-15.121Z"/></g><g opacity="0.2"><path d="M207.24,145.267l-7.712,13.785c-.351-.043-.7-.109-1.055-.171l7.891-14.106Z"/></g><path d="M216.22,150.962c-2.214,5.367-15.063,5.157-28.7-.468s-22.9-14.535-20.683-19.9,15.063-5.157,28.7.468S218.433,145.6,216.22,150.962Z" fill="#407bff"/><path d="M211.584,149.05c-1.564,3.792-11.58,3.257-22.372-1.194S170.94,136.722,172.5,132.93s11.58-3.257,22.372,1.2S213.148,145.258,211.584,149.05Z" fill="#fff" opacity="0.2"/><path d="M283.413,107.144c3.554,4.589-3.227,15.694-14.89,24.726s-24,12.633-27.552,8.043c-.824-1.064-4.142-4.616-3.941-6.268.669-5.475,9.663-11.458,18.621-18.4,8.339-6.458,16.124-14.839,21.58-13.706C280.54,102.231,282.4,105.836,283.413,107.144Z" fill="#407bff"/><path d="M277.232,101.539c4.065,1.376,4.907,3.962,6.179,5.6,1.313,1.693,1.217,4.267,0,7.292-.138.37-.308.743-.489,1.124a33.307,33.307,0,0,1-4.025,6.241c-.212.283-.442.552-.673.831a58.756,58.756,0,0,1-6.116,6.276c-.25.224-.511.446-.772.667-.9.774-1.833,1.55-2.806,2.3s-1.937,1.456-2.914,2.132c-.277.2-.56.384-.834.572a58.429,58.429,0,0,1-7.316,4.189c-.307.15-.61.281-.9.424a33.156,33.156,0,0,1-7.045,2.345c-.364.078-.713.138-1.061.188-3.436.512-6.109-.044-7.478-1.809-.886-1.145-4.232-4.455-3.947-6.265a11.874,11.874,0,0,1,3.211-5.624c.226-.249.463-.507.71-.762,3.618-3.742,9.2-7.749,14.7-12.009,6.489-5.024,13.766-11.192,19.206-13.135a10.152,10.152,0,0,1,.983-.307A9.07,9.07,0,0,1,277.232,101.539Z" opacity="0.2"/><g opacity="0.2"><path d="M240.453,126.445l.494.817,8.565,14.272c-.364.078-.713.138-1.061.188l-8.214-13.7-.637-1.062Z"/></g><g opacity="0.2"><path d="M248.64,124.061l8.822,14.7c-.307.15-.61.281-.9.424l-8.778-14.623Z"/></g><g opacity="0.2"><path d="M263.753,114.987l8.351,13.921c-.25.224-.511.446-.772.667L262.89,115.5Z"/></g><g opacity="0.2"><path d="M256.727,119.206l8.885,14.8c-.277.2-.56.384-.834.572l-8.913-14.855Z"/></g><g opacity="0.2"><path d="M270.77,108.255l8.123,13.546c-.212.283-.442.552-.673.831l-8.313-13.862Z"/></g><ellipse cx="26.709" cy="10.511" rx="26.709" ry="10.511" transform="matrix(0.791, -0.612, 0.612, 0.791, 231.508, 127.695)" fill="#407bff"/><ellipse cx="21.137" cy="7.427" rx="21.137" ry="7.427" transform="matrix(0.791, -0.612, 0.612, 0.791, 238.243, 126.38)" fill="#fff" opacity="0.2"/><path d="M235.135,85.64c-1.171,6.581-15.892,9.373-32.615,6.4S173.189,81.311,174.36,74.73c.272-1.526.74-7.1,2.307-8.209,5.19-3.659,17.248-.605,30.095,1.682,11.957,2.128,25.129,2.3,28.377,7.831C237.109,79.39,235.469,83.764,235.135,85.64Z" fill="#407bff"/><path d="M235.144,76.032c1.966,4.534.409,7.25-.01,9.606-.431,2.429-2.7,4.337-6.229,5.632-.422.168-.872.311-1.337.451a38.363,38.363,0,0,1-8.439,1.387c-.4.038-.812.05-1.229.068a67.838,67.838,0,0,1-10.085-.371c-.384-.041-.775-.093-1.166-.144-1.353-.167-2.739-.368-4.129-.62s-2.74-.529-4.072-.842c-.383-.082-.761-.181-1.133-.269a67.326,67.326,0,0,1-9.23-3.009c-.365-.146-.712-.3-1.062-.445a38.162,38.162,0,0,1-7.446-4.2c-.347-.25-.669-.5-.98-.76-3.092-2.538-4.683-5.249-4.234-7.783.292-1.64.532-7.055,2.3-8.211s4.275-1.588,7.283-1.6c.387,0,.79,0,1.2.017,5.99.2,13.725,1.866,21.614,3.271,9.3,1.657,20.193,3.1,26.056,6.245a11.437,11.437,0,0,1,1.021.6A10.366,10.366,0,0,1,235.144,76.032Z" opacity="0.2"/><g opacity="0.2"><path d="M185.459,63.88l-.316,1.053-5.566,18.341c-.347-.25-.669-.5-.98-.76l5.347-17.6.414-1.365Z"/></g><g opacity="0.2"><path d="M193.82,69.027l-5.735,18.894c-.365-.146-.712-.3-1.062-.445l5.7-18.794Z"/></g><g opacity="0.2"><path d="M213.246,74.917l-5.431,17.888c-.384-.041-.775-.093-1.166-.144l5.491-18.083Z"/></g><g opacity="0.2"><path d="M204.216,72.179,198.448,91.2c-.383-.082-.761-.181-1.133-.269l5.794-19.09Z"/></g><g opacity="0.2"><path d="M224.417,75.705l-5.288,17.4c-.4.038-.812.05-1.229.068l5.41-17.81Z"/></g><ellipse cx="12.104" cy="30.757" rx="12.104" ry="30.757" transform="translate(173.237 81.042) rotate(-79.908)" fill="#407bff"/><ellipse cx="8.552" cy="24.34" rx="8.552" ry="24.34" transform="matrix(0.175, -0.985, 0.985, 0.175, 180.808, 78.782)" fill="#fff" opacity="0.2"/><path d="M322.44,253.628l-102.909,5.987a30.127,30.127,0,0,0-10.563,2.579L97.187,312.232a9.361,9.361,0,0,0-5.393,10.461l18.493,87.341a9.448,9.448,0,0,0,13.5,6.375l110.33-55.078,101.874-3.444a8.836,8.836,0,0,0,8.5-10.179l-13.636-83.64C330.152,259.749,326.875,253.5,322.44,253.628Z" fill="#407bff"/><path d="M322.44,253.628l-102.909,5.987a30.127,30.127,0,0,0-10.563,2.579L97.187,312.232a9.361,9.361,0,0,0-5.393,10.461l18.493,87.341a9.448,9.448,0,0,0,13.5,6.375l110.33-55.078,101.874-3.444a8.836,8.836,0,0,0,8.5-10.179l-13.636-83.64C330.152,259.749,326.875,253.5,322.44,253.628Z" opacity="0.1"/><rect width="73.45" height="142.987" transform="matrix(0.735, -0.678, 0.678, 0.735, 61.866, 246.543)" fill="#407bff"/><path d="M212.78,301.9,158.773,351.68l-96.9-105.132,35.441-32.67,18.566-17.116,3.1,3.356Z" fill="#fafafa" opacity="0.5"/><rect width="64.814" height="133.754" transform="translate(68.568 247.119) rotate(-42.668)" fill="none" stroke="#407bff" stroke-miterlimit="10" stroke-width="1"/><ellipse cx="13.456" cy="16.875" rx="13.456" ry="16.875" transform="matrix(0.735, -0.678, 0.678, 0.735, 115.674, 270.261)" fill="#407bff"/><path d="M158.2,309.015l-19.189,6.629L97.31,213.878l18.566-17.116,3.1,3.356Z" opacity="0.1"/><rect width="73.45" height="142.987" transform="matrix(0.94, -0.341, 0.341, 0.94, 92.878, 180.605)" fill="#407bff"/><rect width="73.45" height="142.987" transform="matrix(0.94, -0.341, 0.341, 0.94, 92.878, 180.605)" fill="#fafafa" opacity="0.5"/><rect width="64.814" height="133.754" transform="translate(98.837 183.726) rotate(-19.928)" fill="none" stroke="#407bff" stroke-miterlimit="10" stroke-width="1"/><ellipse cx="13.456" cy="16.875" rx="13.456" ry="16.875" transform="matrix(0.94, -0.341, 0.341, 0.94, 133.335, 223.279)" fill="#407bff"/><path d="M323.111,257.179l-101.5,5.718a29.3,29.3,0,0,0-10.414,2.55L101.058,315.171a9.337,9.337,0,0,0-5.293,10.442l18.469,87.346a9.338,9.338,0,0,0,13.337,6.407l108.7-54.766,100.487-3.178a8.747,8.747,0,0,0,8.355-10.153l-13.667-83.633C330.735,263.317,327.486,257.059,323.111,257.179Z" fill="#105ef8"/><line y1="5.367" x2="87.086" transform="translate(225.74 272.836)" fill="none" stroke="#000" stroke-linecap="round" stroke-linejoin="round" stroke-width="2" opacity="0.2"/><line x2="15.914" y2="73.08" transform="translate(215.307 280.453)" fill="none" stroke="#000" stroke-linecap="round" stroke-linejoin="round" stroke-width="2" opacity="0.2"/><path d="M109.23,346.429l11.219,56.216S129.05,380.338,109.23,346.429Z" fill="#fafafa" opacity="0.2"/><path d="M110.7,347.09c.384,1.025,99.654-41.6,99.654-41.6a52.232,52.232,0,0,1-27.362,47.395C153.12,369.645,110.7,347.09,110.7,347.09Z" fill="#fafafa" opacity="0.2"/><circle cx="4.3" cy="4.3" r="4.3" transform="translate(172.342 340.147)" fill="#407bff"/><path d="M210.408,305.493s12.312,18.523,9.334,50.09" opacity="0.2"/><line y1="46.147" x2="104.404" transform="translate(104.48 278.203)" fill="none" stroke="#fafafa" stroke-linecap="round" stroke-linejoin="round" stroke-width="1" stroke-dasharray="5 5" opacity="0.2"/><line y1="5.367" x2="87.086" transform="translate(228.661 289.262)" fill="none" stroke="#000" stroke-linecap="round" stroke-linejoin="round" stroke-width="2" opacity="0.2"/><line y1="5.366" x2="87.086" transform="translate(232.58 309.75)" fill="none" stroke="#000" stroke-linecap="round" stroke-linejoin="round" stroke-width="2" opacity="0.2"/><path d="M300.583,169.557s-2.193,23.334-10.86,25.344a26.177,26.177,0,0,1-15.992-1.6l-7.048-5.422-3.44,11.987s3.761,5.112,11.607,1.569c0,0,13.99,6.166,21.737,0s10.224-23.057,10.224-23.057Z" fill="#b97964"/><path d="M307.552,158.256s-6.048-10.309-3.3-29,18.419-21.03,24.467-19.656,11,7.167,15.12,18.222,5.635,13.942,12.508,12.018,25.154-7.972,30.24-2.611a12.649,12.649,0,0,1,3.436,11.408s25.429-6.185,23.229,16.494-38.9,43.848-73.812,21.443S307.552,158.256,307.552,158.256Z" fill="#263238"/><path d="M307.269,213.147s-6.911,59.434-6.681,87.307,10.136,93.527,10.136,93.527h12.209s-1.612-52.522-1.382-70.491,3.455-47.684,3.455-47.684,3.917,26.722,8.524,36.166,30.177,42.847,47.915,53.214l8.293-7.6s-18.429-22.806-25.34-34.094-13.13-14.512-15.664-35.475,1.843-54.6-5.529-74.868Z" fill="#263238"/><path d="M325.006,275.806l-5.31-37.67s-4.189,22.649,4.067,50.3Z" opacity="0.2"/><path d="M313.228,397.33,313.637,409l8.19.683.409-1.092v-12.08Z" fill="#b97964"/><path d="M309.338,392.894l.751,4.368,14.06.341.887-5.255Z" fill="#ff6900"/><path d="M377.588,366l13.036-12.148,2.866,4.573L382.3,368.665Z" fill="#ff6900"/><path d="M383.867,366l8.6,7.234,5.528-6.484-7.064-7.3Z" fill="#b97964"/><path d="M399.661,366.248l5.2,3.2a1.908,1.908,0,0,1,.429,2.893c-3.775,4.254-13.4,15.073-14.361,15.84-1.194.955-2.627-.683-2.968-2.184,0,0,2.73-3.618,2.968-5.938a42.106,42.106,0,0,0,.037-5.383,1.764,1.764,0,0,1,.424-1.231l5.814-6.814A1.911,1.911,0,0,1,399.661,366.248Z" fill="#263238"/><path d="M323.827,409.984,324.909,416a1.909,1.909,0,0,1-1.87,2.249c-5.687.025-20.17.067-21.38-.135-1.508-.253-1.244-2.414-.353-3.669,0,0,4.516-.379,6.4-1.748a42.2,42.2,0,0,0,4.035-3.563,1.765,1.765,0,0,1,1.2-.506l8.955-.213A1.911,1.911,0,0,1,323.827,409.984Z" fill="#263238"/><path d="M344.515,180.192l12.48-8.762s-3.319-13.277-8.231-13.941-29.342-5.31-44.875,0c0,0-5.576,1.593-7.3,17.26l6.638,2.124s2.39,29.341,3.85,33.855h35.449S342.922,185.5,344.515,180.192Z" fill="#ff6900"/><path d="M347.211,178.3s4.724,13.5,5.571,20.757c0,0-11.245-4.474-14.147-6.529l-2.192-7.9-7.481-3.587-2.171,5.925,6.161,7.738s16.924,15.839,25.511,12.212-3.4-34.131-3.4-34.131Z" fill="#b97964"/><path d="M315.456,119.186s-4.322,8.645-3.962,15.669,3.872,9.906,10.626,10.9c0,0,2.882,9.005-4.682,9.906-.575.068-.783,2.363-.734,2.73.2,1.464,1.644,2.259,2.953,2.6a19.8,19.8,0,0,0,4.336.478,10.073,10.073,0,0,0,8.065-3.589c.165-.183,1.68-2.13,1.679-2.13s-3.6-1.789-2.341-13.508a9.738,9.738,0,0,0,3.782-4.683,5.89,5.89,0,0,0,2.882-3.512c.54-2.342-1.531-5.584-5.314-2.342,0,0-7.114-3.6-9.815-16.209A12.666,12.666,0,0,1,315.456,119.186Z" fill="#b97964"/><path d="M317.488,132.943l.616-4.624-3.275,3.622A3.251,3.251,0,0,0,317.488,132.943Z" fill="#a24e3f"/><path d="M319.39,136.324s3.453.528,5.109-1.686" fill="none" stroke="#222221" stroke-linecap="round" stroke-linejoin="round" stroke-width="0.75"/><path d="M322.843,121.847a4.52,4.52,0,0,1,4.469,1.194" fill="none" stroke="#222221" stroke-linecap="round" stroke-linejoin="round" stroke-width="1"/><path d="M316.871,120.845s-1.964-.31-2.889.828" fill="none" stroke="#222221" stroke-linecap="round" stroke-linejoin="round" stroke-width="1"/><path d="M324.232,127.928c-.091.7-.54,1.213-1,1.153s-.766-.674-.675-1.371.54-1.212,1-1.152S324.322,127.232,324.232,127.928Z" fill="#222221"/><ellipse cx="1.272" cy="0.846" rx="1.272" ry="0.846" transform="translate(314.424 127.442) rotate(-82.595)" fill="#222221"/><path d="M323.556,126.558l-1.578-.687A1,1,0,0,0,323.556,126.558Z" fill="#222221"/><path d="M315.722,125.079l-1.578-.688A1,1,0,0,0,315.722,125.079Z" fill="#222221"/><path d="M305.843,209.168v4.17l38.392.325-1.023-4.967Z" fill="none"/><path d="M305.843,209.168v4.17l38.392.325-1.023-4.967Z" fill="none" opacity="0.4"/><path d="M306.308,188.927,285.2,262.395a12.781,12.781,0,0,1-15.841,8.772l-40.407-11.612a12.814,12.814,0,0,1-8.772-15.841l21.12-73.479a12.809,12.809,0,0,1,15.844-8.763l40.4,11.6A12.811,12.811,0,0,1,306.308,188.927Z" fill="#407bff"/><path d="M306.308,188.927,285.2,262.395a12.781,12.781,0,0,1-15.841,8.772l-40.407-11.612a12.814,12.814,0,0,1-8.772-15.841l21.12-73.479a12.809,12.809,0,0,1,15.844-8.763l40.4,11.6A12.811,12.811,0,0,1,306.308,188.927Z" opacity="0.2"/><path d="M302.8,189.8l-21.113,73.467a12.78,12.78,0,0,1-7.51,8.339,12.924,12.924,0,0,1-4.818-.44l-40.407-11.612a12.814,12.814,0,0,1-8.772-15.841l21.12-73.479a12.775,12.775,0,0,1,7.512-8.329,12.909,12.909,0,0,1,4.819.44l40.4,11.6A12.811,12.811,0,0,1,302.8,189.8Z" fill="#407bff"/><path d="M302.8,189.8l-21.113,73.467a12.78,12.78,0,0,1-7.51,8.339,12.924,12.924,0,0,1-4.818-.44l-40.407-11.612a12.814,12.814,0,0,1-8.772-15.841l21.12-73.479a12.775,12.775,0,0,1,7.512-8.329,12.909,12.909,0,0,1,4.819.44l40.4,11.6A12.811,12.811,0,0,1,302.8,189.8Z" fill="#fafafa" opacity="0.5"/><rect width="4.492" height="57.336" transform="translate(241.705 194.817) rotate(15.737)" fill="#fafafa"/><path d="M236.667,252.985l-4.318-1.241L247.9,196.569l4.318,1.241Z" fill="#fafafa"/><path d="M242.949,254.791l-4.318-1.241,15.546-55.175,4.318,1.241Z" fill="#fafafa"/><rect width="4.492" height="57.336" transform="translate(279.344 205.63) rotate(15.737)" opacity="0.5"/><path d="M283.1,191.25l-2.15,7.49-2.56-.72a4.865,4.865,0,0,1-3.36-5.99l1.4-4.97,5.17,1.48A2.2,2.2,0,0,1,283.1,191.25Z" fill="#fafafa"/><path d="M281.87,187.58l-5.17-1.48,1.55-5.48a4.861,4.861,0,0,1,5.99-3.36l2.66.75-2.32,8.07A2.175,2.175,0,0,1,281.87,187.58Z" fill="#fafafa"/><path d="M286.77,190.03l5.2,1.49-1.38,4.89a4.843,4.843,0,0,1-5.98,3.36l-2.7-.76,2.15-7.48A2.19,2.19,0,0,1,286.77,190.03Z" fill="#fafafa"/><path d="M293.81,185l-1.57,5.56-5.2-1.49a2.2,2.2,0,0,1-1.5-2.71l2.32-8.07,2.59.73A4.85,4.85,0,0,1,293.81,185Z" fill="#fafafa"/></g></svg>