<svg xmlns="http://www.w3.org/2000/svg" xmlns:xlink="http://www.w3.org/1999/xlink" width="340" height="132.01" viewBox="0 0 340 132.01">
  <defs>
    <clipPath id="clip-path">
      <path id="Path_3834" data-name="Path 3834" d="M2.279,0H337.721C338.98,0,340,2.515,340,5.617V126.392c0,3.1-1.02,5.617-2.279,5.617H2.279C1.02,132.01,0,129.495,0,126.392V5.617C0,2.515,1.02,0,2.279,0Z" transform="translate(0)" fill="none"/>
    </clipPath>
  </defs>
  <g id="Group_734" data-name="Group 734" transform="translate(-11.5 -489)">
    <g id="Mask_Group_24" data-name="Mask Group 24" transform="translate(11.5 489)" clip-path="url(#clip-path)">
      <path id="Path_3686" data-name="Path 3686" d="M2.279,0H337.721C338.98,0,340,2.515,340,5.617V126.392c0,3.1-1.02,5.617-2.279,5.617H2.279C1.02,132.01,0,129.495,0,126.392V5.617C0,2.515,1.02,0,2.279,0Z" transform="translate(0)" fill="#e6f1fb"/>
      <g id="ils_20" transform="translate(-30.011 5.5)">
        <path id="Path_3687" data-name="Path 3687" d="M402.562,59.851a74.83,74.83,0,0,0-37.149-17.883c3.122-8.189,7.948-20.365,9.15-22.168a18.275,18.275,0,0,1,2.344-.13c3.406,0,10.7.689,21.242,5.3,15.228,6.663,19.305,14.158,20.106,15.991Z" transform="translate(-258.595 -13.806)" fill="#fff" fill-rule="evenodd"/>
        <ellipse id="Ellipse_139" data-name="Ellipse 139" cx="12.301" cy="11.731" rx="12.301" ry="11.731" transform="translate(0 38.523) rotate(-90)" fill="#74ecf3"/>
        <path id="Path_3688" data-name="Path 3688" d="M373.845,16.7a15.959,15.959,0,0,0-2.805.19c-1.083.351-9.953,23.741-9.953,23.741A72.49,72.49,0,0,1,399.59,59.1l16.654-20.046s-2.779-9.1-20.778-16.975C384.918,17.468,377.566,16.7,373.845,16.7Zm0,1.8c3.332,0,10.474.679,20.862,5.224,13.778,6.027,18.23,12.765,19.4,15.045L399.4,56.469a74.957,74.957,0,0,0-24.988-14.439,71.274,71.274,0,0,0-10.805-2.844c3.451-9.015,7.205-18.295,8.466-20.615C372.484,18.533,373.076,18.5,373.845,18.5Z" transform="translate(-255.534 -11.735)" fill="#a0c6f4" fill-rule="evenodd"/>
        <path id="Path_3689" data-name="Path 3689" d="M371.078,101.483l.232.025c2.3.258,21.216,2.723,33.1,13.336a.236.236,0,0,0,.327-.014.22.22,0,0,0-.014-.317c-12.842-11.451-33.575-13.47-33.594-13.477a.229.229,0,0,0-.253.2.226.226,0,0,0,.207.246" transform="translate(-262.457 -70.547)" fill="#2a1e17" fill-rule="evenodd"/>
        <path id="Path_3690" data-name="Path 3690" d="M432.82,64.889l7.724-14.6,7.938,15.227Z" transform="translate(-306.298 -35.158)" fill="#a0c6f4" fill-rule="evenodd"/>
        <path id="Path_3691" data-name="Path 3691" d="M437.4,63.683l.205.1,7.517-14.209,7.556,14.492-15.269-.61-.009.225.205.1-.205-.1-.01.224,15.663.626a.232.232,0,0,0,.2-.1.219.219,0,0,0,.012-.223l-7.939-15.227a.234.234,0,0,0-.411,0l-7.724,14.6a.218.218,0,0,0,.006.216.231.231,0,0,0,.19.111Z" transform="translate(-309.375 -34.161)" fill="#2a1e17" fill-rule="evenodd"/>
        <path id="Path_3692" data-name="Path 3692" d="M412.575,13.476s.087.008.259.027c2.579.278,23.775,3.047,37.228,18.6a.235.235,0,0,0,.325.027.22.22,0,0,0,.028-.316c-7.252-8.378-16.7-13.071-24.334-15.672a63.43,63.43,0,0,0-13.466-3.113.229.229,0,0,0-.251.2A.226.226,0,0,0,412.575,13.476Z" transform="translate(-291.822 -9.174)" fill="#2a1e17" fill-rule="evenodd"/>
        <path id="Path_3693" data-name="Path 3693" d="M448.618,198.927c-1.275-.911-2.111-1.523-2.111-1.523A125.243,125.243,0,0,0,455.68,186.5S449.14,199.3,448.618,198.927Z" transform="translate(-315.984 -130.146)" fill="#2a1e17" fill-rule="evenodd"/>
        <path id="Path_3694" data-name="Path 3694" d="M182.192,87.812a1.932,1.932,0,0,0,.508.594,1.062,1.062,0,0,0,.631.179c.422,0,.914-.131,1.772-.194.08-.006.163-.009.247-.009a5.365,5.365,0,0,1,2.715.848,5.122,5.122,0,0,1,2.06,2.314,5.807,5.807,0,0,1,.572,1.941.55.55,0,0,1-.087.343.724.724,0,0,1-.246.192,1.441,1.441,0,0,1-.256.086c-.474.128-1.393.292-2.206.5a7.44,7.44,0,0,0-1.1.348,1.87,1.87,0,0,0-.4.222.6.6,0,0,0-.238.342.225.225,0,0,0,.181.264.231.231,0,0,0,.272-.176l.017-.026a.747.747,0,0,1,.224-.156,9.751,9.751,0,0,1,2-.579c.381-.082.747-.156,1.046-.225.15-.034.283-.068.4-.1a1.459,1.459,0,0,0,.285-.107,1.155,1.155,0,0,0,.394-.323.988.988,0,0,0,.172-.6,6.119,6.119,0,0,0-.606-2.109,5.571,5.571,0,0,0-2.239-2.524,5.826,5.826,0,0,0-2.964-.919c-.1,0-.189,0-.282.01-.885.067-1.42.2-1.737.193a.584.584,0,0,1-.364-.1,1.511,1.511,0,0,1-.379-.459.235.235,0,0,0-.317-.077A.221.221,0,0,0,182.192,87.812Z" transform="translate(-128.911 -61.089)" fill="#2a1e17" fill-rule="evenodd"/>
        <path id="Path_3695" data-name="Path 3695" d="M324.526,443.537l-1.61-2.647-5.713,9.258,1.5,1.121Z" transform="translate(-224.478 -307.55)" fill="#f9865f" fill-rule="evenodd"/>
        <path id="Path_3696" data-name="Path 3696" d="M207.619,357.709s-2.96-4.68-1.691-6.972l9.444.982Z" transform="translate(-145.508 -244.68)" fill="#f9865f" fill-rule="evenodd"/>
        <path id="Path_3697" data-name="Path 3697" d="M209.446,355.955l.566,1.264-1.744,6.614a2.226,2.226,0,0,0,.734,2.277l8.637-12.414a2.829,2.829,0,0,0-.439-3.733l-1.93-1.743Z" transform="translate(-147.335 -242.926)" fill-rule="evenodd"/>
        <path id="Path_3698" data-name="Path 3698" d="M185.977,95.754c2.7-.063,6.132-.229,5.447-2.228s-3.256-7-9.083-5.5c0,0-2.056,1.666.514,4.665S185.977,95.754,185.977,95.754Z" transform="translate(-128.488 -61.284)" fill="#2a1e33" fill-rule="evenodd"/>
        <path id="Path_3699" data-name="Path 3699" d="M204.169,269.252s-4.617-13.252-.71-19.071c3.224-4.8,13.759,3.009,15.2,4.061l7.537-13.234a19.109,19.109,0,0,0-6.012-4.694c-4.272-2.322-21.919-9.276-30.213,3.445-3.065,4.7-3.112,24.876,2.767,32.609Z" transform="translate(-132.99 -162.103)" fill="#7595ec" fill-rule="evenodd"/>
        <path id="Path_3700" data-name="Path 3700" d="M237.638,306.245s-.035-.1-.1-.289a43.678,43.678,0,0,1-2.171-12.093,11.8,11.8,0,0,1,1.532-6.495,3.067,3.067,0,0,1,1.293-1.11,4.133,4.133,0,0,1,1.726-.336c2.118,0,4.823,1.176,7.114,2.471a48.093,48.093,0,0,1,4.737,3.093.235.235,0,0,0,.324-.045.221.221,0,0,0-.046-.314A48.525,48.525,0,0,0,247.267,288c-2.326-1.307-5.061-2.527-7.346-2.532a4.6,4.6,0,0,0-1.921.378,3.524,3.524,0,0,0-1.484,1.271,12.208,12.208,0,0,0-1.607,6.74,44.721,44.721,0,0,0,2.292,12.526.234.234,0,0,0,.293.141.224.224,0,0,0,.145-.285" transform="translate(-166.24 -199.168)" fill="#2a1e17" fill-rule="evenodd"/>
        <path id="Path_3701" data-name="Path 3701" d="M277.2,261.021c-3.428,3.508-13.591,20.6-15.877,28.766-3.057,10.926-1.908,19.987,14.895,37.73l8.122-11.5s-5.71-8.43-4.644-16.377c1.542-11.5,9.958-22.644,14.216-29.714Z" transform="translate(-183.991 -182.116)" fill="#7595ec" fill-rule="evenodd"/>
        <path id="Path_3702" data-name="Path 3702" d="M323.272,265.929l13.51,10.308,4.037-5.968Z" transform="translate(-228.773 -185.538)" fill="#2a1e17" fill-rule="evenodd"/>
        <path id="Path_3703" data-name="Path 3703" d="M588.727,230.115a9.212,9.212,0,0,1,4.816,2.341c1.1,1.121.6,1.706.2,2.048s-1.956-.048-3.31-1.219A6.1,6.1,0,0,1,588.727,230.115Z" transform="translate(-416.63 -160.563)" fill="#ff8a66" fill-rule="evenodd"/>
        <path id="Path_3704" data-name="Path 3704" d="M446.507,197.4A125.243,125.243,0,0,0,455.68,186.5s9.776,10.649,10.836,10.992a52.491,52.491,0,0,0,5.767.068c5.03-.051,11.716-.1,13.2.62,2.356,1.145,3.769,1.717,4.358,3.321s.82,2.65-.589,2.748c-1.649.115-2.709-1.947-2.709-1.947a33.423,33.423,0,0,1-4.829,2.061s-12.528,4.727-20.9,2.441C458.523,206.178,446.507,197.4,446.507,197.4Z" transform="translate(-315.984 -130.146)" fill="#ce7c0b" fill-rule="evenodd"/>
        <path id="Path_3705" data-name="Path 3705" d="M183.472,81.491c-1.075.4-1.728.873-1.106,1.882s.9.6,2.7.47a5.748,5.748,0,0,1,5.253,3.293c.9,2.15.623,2.486.139,2.756s-3.94.672-4.078,1.344,1.4,2.656,4.58,2.521l.761-.134s6.687,6.349,7.655,7.29,8.079,5.625,12,6.577c2.978.724,9.011-.209,12.636-.9,1.76-.334,2.953-.61,2.953-.61a31.19,31.19,0,0,1-3.274-12.089s-6.509,1.016-10.833,1.939c0,0-10.093-5.471-15-7.889,0,0-4.286-5.107-6.29-5.78S184.923,80.954,183.472,81.491Z" transform="translate(-128.885 -56.765)" fill="#ce7c0b" fill-rule="evenodd"/>
        <path id="Path_3706" data-name="Path 3706" d="M320.539,137.362c1.76-.334,2.953-.61,2.953-.61s-3.291-4.033-3.843-11.358c0,0-1.488,1.559-1.025,5.707C319.2,136.316,320.539,137.362,320.539,137.362Z" transform="translate(-225.42 -87.534)" fill="#2a1e17" fill-rule="evenodd"/>
        <path id="Path_3707" data-name="Path 3707" d="M292.864,119.713s.091,8.951,2.558,12.685l.884-.344s-11.624,13.221-15.384,21.86c-.615,1.414,24.136,16.784,27.793,16.568,0,0,12.059-17.893,16.183-23.2l4.433,3.339s8.694-8.56,9.161-11.6c0,0-8.4-9.934-15.268-12.843s-13.009-7.891-20.389-7.756A37.422,37.422,0,0,0,292.864,119.713Z" transform="translate(-198.795 -82.673)" fill="#ffeaa0" fill-rule="evenodd"/>
        <path id="Path_3708" data-name="Path 3708" d="M435.819,212.821l-4.433-3.34.707-1.87Z" transform="translate(-305.283 -144.869)" fill="#2a1e17" fill-rule="evenodd"/>
        <path id="Path_3709" data-name="Path 3709" d="M418.328,89.932c-.776,2.347-3.017,9.135-5.517,9.973a8.253,8.253,0,0,1-5.1-.214l-2.663,1.325c-.3.866-2.4,1.613-5.113,1.714-2.009.075-3.233-2.433-2.638-4.249.273-.834,1.293-4.945,1.293-4.945s2.155-7.711,4.138-9.3,3.846-3.169,9.138-1.089C419.966,86.328,418.328,89.932,418.328,89.932Z" transform="translate(-281.05 -57.375)" fill="#ce7c0b" fill-rule="evenodd"/>
        <path id="Path_3710" data-name="Path 3710" d="M405.144,75.459c-.355,1.441-1.9,4.323-2.9,3.8s-1.364-1.845-.652-4.381,1.3-8.3,3.321-9.338,2.9.173,2.9.173-.889-4.208,1.719-4.784c0,0,.889-.4.534,2.478a3.971,3.971,0,0,1,4.268-2.306c3.261.346,4.387,4.784,4.387,4.784a1.63,1.63,0,0,1,1.719-1.21,3.91,3.91,0,0,1,3.2,4.5s3.793-1.154,5.81,1.787,1.779,6.167-3.083,7.436c-5.083,1.326-5.04-4.439-5.81-5.188s-1.6-1.614-4.447-.576-5.81-2.018-5.81-2.018-.475,3.689-.949,4.035-1.423.807-1.187-.922.534-1.556.356-2.017-.98-1.916-2.668-.634C403.959,72.52,405.144,75.459,405.144,75.459Z" transform="translate(-283.931 -42.569)" fill="#2a1e33" fill-rule="evenodd"/>
        <path id="Path_3711" data-name="Path 3711" d="M413.679,97.224a3.292,3.292,0,0,1-1.294-2.461A3.02,3.02,0,0,1,414.93,91.9a.777.777,0,0,1,.62.23,2.186,2.186,0,0,1,.44,1.387,3.616,3.616,0,0,1-.253,1.281.223.223,0,0,0,.137.289.233.233,0,0,0,.3-.133,4.062,4.062,0,0,0,.281-1.437,2.623,2.623,0,0,0-.539-1.665,1.235,1.235,0,0,0-.983-.4,3.464,3.464,0,0,0-3.007,3.317,3.733,3.733,0,0,0,1.458,2.806.236.236,0,0,0,.325-.028A.221.221,0,0,0,413.679,97.224Z" transform="translate(-291.51 -63.861)" fill="#2a1e33" fill-rule="evenodd"/>
        <path id="Path_3712" data-name="Path 3712" d="M319.3,457.368l.566,1.264-1.745,6.615a2.227,2.227,0,0,0,.734,2.276l8.638-12.413a2.828,2.828,0,0,0-.439-3.732l-1.93-1.743Z" transform="translate(-225.078 -313.648)" fill-rule="evenodd"/>
        <path id="Path_3713" data-name="Path 3713" d="M417.046,70.114a4.789,4.789,0,0,0-.608-1.175,4,4,0,0,0-2.193-1.618.232.232,0,0,0-.286.155.224.224,0,0,0,.159.278,3.537,3.537,0,0,1,1.937,1.438,4.734,4.734,0,0,1,.424.744c.044.1.076.177.1.231l.023.062.006.018a.233.233,0,0,0,.289.149A.224.224,0,0,0,417.046,70.114Z" transform="translate(-292.945 -47.031)" fill="#2a1e33" fill-rule="evenodd"/>
        <path id="Path_3714" data-name="Path 3714" d="M279.652,158.34l23.929-32.5a.221.221,0,0,0-.053-.314.235.235,0,0,0-.323.052l-23.929,32.5a.221.221,0,0,0,.053.314A.236.236,0,0,0,279.652,158.34Z" transform="translate(-197.608 -87.6)" fill="#2a1e17" fill-rule="evenodd"/>
        <path id="Path_3715" data-name="Path 3715" d="M393.508,133.089a2.763,2.763,0,0,0-.442.991,5.544,5.544,0,0,0-.173,1.393,4.571,4.571,0,0,0,.735,2.6,3.511,3.511,0,0,0,2.757,1.457c.333.025.657.037.969.037a10.919,10.919,0,0,0,5.682-1.465.221.221,0,0,0,.06-.312.235.235,0,0,0-.321-.058l-.02.013a10.574,10.574,0,0,1-5.4,1.374c-.3,0-.612-.011-.933-.036a3.041,3.041,0,0,1-2.41-1.261,4.139,4.139,0,0,1-.656-2.352,5.135,5.135,0,0,1,.159-1.282,2.363,2.363,0,0,1,.361-.828.22.22,0,0,0-.042-.315A.236.236,0,0,0,393.508,133.089Z" transform="translate(-278.043 -92.84)" fill="#2a1e17" fill-rule="evenodd"/>
        <path id="Path_3716" data-name="Path 3716" d="M213.657,83.835s.17.218.432.567c.393.522.994,1.337,1.534,2.134a11.127,11.127,0,0,1,1.165,2.009.232.232,0,0,0,.292.142.223.223,0,0,0,.146-.284,7.36,7.36,0,0,0-.7-1.32c-.961-1.534-2.5-3.514-2.5-3.517a.236.236,0,0,0-.324-.044A.221.221,0,0,0,213.657,83.835Z" transform="translate(-151.167 -58.302)" fill="#2a1e17" fill-rule="evenodd"/>
        <path id="Path_3717" data-name="Path 3717" d="M564.046,233.94a3.6,3.6,0,0,0,2.165.59,7.744,7.744,0,0,0,3.558-1,1.148,1.148,0,0,0,.281-2,1.8,1.8,0,0,0-1.164-.394,2.439,2.439,0,0,0-.573.071,5.2,5.2,0,0,1-1.219.133,8.576,8.576,0,0,1-1.617-.167c-.214-.042-.388-.084-.508-.115-.06-.015-.107-.028-.138-.037l-.045-.014a.232.232,0,0,0-.29.147.223.223,0,0,0,.151.282,9.328,9.328,0,0,0,2.449.353,5.685,5.685,0,0,0,1.331-.146,1.946,1.946,0,0,1,.46-.058,1.333,1.333,0,0,1,.863.285.711.711,0,0,1-.2,1.261,7.283,7.283,0,0,1-3.34.943,3.817,3.817,0,0,1-1.425-.253,2.428,2.428,0,0,1-.345-.169l-.082-.052-.017-.013,0,0-.043.052.043-.051h0l-.043.052.043-.051a.235.235,0,0,0-.325.031A.221.221,0,0,0,564.046,233.94Z" transform="translate(-399.104 -161.183)" fill="#2a1e17" fill-rule="evenodd"/>
        <path id="Path_3718" data-name="Path 3718" d="M590.136,230.414l.07.082a12,12,0,0,1,.921,1.249,3.621,3.621,0,0,1,.66,1.645v.04a.231.231,0,0,0,.462.017l0-.057a2.7,2.7,0,0,0-.287-1.079,10.788,10.788,0,0,0-1.475-2.188.236.236,0,0,0-.326-.024A.22.22,0,0,0,590.136,230.414Z" transform="translate(-417.588 -160.513)" fill="#2a1e17" fill-rule="evenodd"/>
        <path id="Path_3719" data-name="Path 3719" d="M502.229,224.632l.016-.02a7.19,7.19,0,0,1,1.115-1.084,4.391,4.391,0,0,1,2.312-1,.225.225,0,1,0-.033-.448,4.956,4.956,0,0,0-2.7,1.2,7.428,7.428,0,0,0-1.082,1.081.221.221,0,0,0,.046.314A.235.235,0,0,0,502.229,224.632Z" transform="translate(-355.123 -154.958)" fill="#2a1e17" fill-rule="evenodd"/>
        <path id="Path_3720" data-name="Path 3720" d="M273.586,132.253l.009-.026a5.343,5.343,0,0,1,.9-1.51,4.642,4.642,0,0,1,2.8-1.629.225.225,0,0,0,.187-.261.23.23,0,0,0-.268-.182,5.138,5.138,0,0,0-3.2,1.937,5.579,5.579,0,0,0-.87,1.533.223.223,0,0,0,.149.283A.233.233,0,0,0,273.586,132.253Z" transform="translate(-193.292 -89.799)" fill="#2a1e17" fill-rule="evenodd"/>
        <path id="Path_3721" data-name="Path 3721" d="M271.446,280.27l-3.538,6.58.2.1-.2-.114a74.493,74.493,0,0,0-4.277,8.519c-2.137,5-4.279,11.479-4.28,17.439a19.1,19.1,0,0,0,.83,5.811.232.232,0,0,0,.289.148.223.223,0,0,0,.152-.281,18.677,18.677,0,0,1-.809-5.678c0-5.857,2.119-12.3,4.245-17.267,1.063-2.484,2.125-4.6,2.923-6.1.4-.748.73-1.34.962-1.744.116-.2.208-.358.269-.463s.094-.158.094-.158l3.543-6.59a.221.221,0,0,0-.1-.3A.234.234,0,0,0,271.446,280.27Z" transform="translate(-183.541 -195.456)" fill="#2a1e17" fill-rule="evenodd"/>
        <path id="Path_3722" data-name="Path 3722" d="M336.4,231.4l11.477-19.126-.2-.113.19.128s3.761-5.3,7.714-10.981c1.977-2.839,4-5.771,5.63-8.182.814-1.205,1.528-2.281,2.088-3.149s.965-1.528,1.165-1.918l-.206-.1.2.107,5.308-9.548a.222.222,0,0,0-.093-.3.235.235,0,0,0-.313.091l-5.308,9.547,0,.006c-.184.358-.587,1.017-1.144,1.88-1.951,3.026-5.808,8.6-9.175,13.419-1.684,2.409-3.245,4.628-4.386,6.245-.57.809-1.036,1.466-1.358,1.922l-.5.709-.009.014L336,231.17a.221.221,0,0,0,.083.307A.235.235,0,0,0,336.4,231.4Z" transform="translate(-237.762 -124.347)" fill="#2a1e17" fill-rule="evenodd"/>
        <path id="Path_3723" data-name="Path 3723" d="M284.808,240s5.106,3.62,10.971,7.327c2.933,1.854,6.055,3.73,8.828,5.189a23.37,23.37,0,0,0,6.77,2.689.23.23,0,0,0,.257-.2.226.226,0,0,0-.2-.249,23.087,23.087,0,0,1-6.6-2.638c-4.134-2.174-9.074-5.3-12.977-7.874-1.952-1.289-3.645-2.442-4.85-3.272-.6-.415-1.083-.75-1.412-.98s-.508-.357-.508-.358a.236.236,0,0,0-.323.049A.22.22,0,0,0,284.808,240Z" transform="translate(-201.486 -167.177)" fill="#2a1e17" fill-rule="evenodd"/>
        <path id="Path_3724" data-name="Path 3724" d="M321.011,122.164v.009a49.163,49.163,0,0,0,.321,5.143c.319,2.723.935,5.873,2.216,7.775a.235.235,0,0,0,.32.064.221.221,0,0,0,.066-.311c-1.2-1.766-1.834-4.886-2.143-7.579a48.812,48.812,0,0,1-.318-5.093v0a.231.231,0,0,0-.462-.007Z" transform="translate(-227.173 -85.128)" fill="#2a1e17" fill-rule="evenodd"/>
        <path id="Path_3725" data-name="Path 3725" d="M452.681,181.19a9.286,9.286,0,0,1-1.665,3.3,49.449,49.449,0,0,1-4.707,5.5c-.764.787-1.445,1.456-1.934,1.928-.245.236-.442.423-.578.551s-.209.2-.209.2a.22.22,0,0,0-.009.317.235.235,0,0,0,.327.008s2.137-1.97,4.355-4.411a41.331,41.331,0,0,0,3.137-3.834,9.653,9.653,0,0,0,1.739-3.481.226.226,0,0,0-.19-.258A.23.23,0,0,0,452.681,181.19Z" transform="translate(-313.867 -126.313)" fill="#2a1e17" fill-rule="evenodd"/>
        <path id="Path_3726" data-name="Path 3726" d="M256.464,329.119a1.212,1.212,0,1,1-1.212-1.179A1.2,1.2,0,0,1,256.464,329.119Z" transform="translate(-179.779 -228.782)" fill="#2a1e17" fill-rule="evenodd"/>
        <path id="Path_3727" data-name="Path 3727" d="M644.961,404.585l.229-.032-.6-4.009,3.069,1.984-1.536.326a.227.227,0,0,0-.133.081l-1.215,1.512.182.138.229-.032-.229.032.182.138,1.163-1.448,1.987-.421a.227.227,0,0,0,.178-.178.222.222,0,0,0-.1-.228l-3.953-2.556a.237.237,0,0,0-.252,0,.222.222,0,0,0-.1.222l.669,4.507a.228.228,0,0,0,.169.185.234.234,0,0,0,.242-.079Z" transform="translate(-455.789 -278.932)" fill="#2a1e17" fill-rule="evenodd"/>
        <path id="Path_3728" data-name="Path 3728" d="M180.261,157.5a5.262,5.262,0,0,0-3.365-1.4,3.759,3.759,0,0,0-3.132,1.717,8.926,8.926,0,0,0-1.289,5.144c0,4.414,1.8,11.037,6.808,20.182s13.225,20.807,26.08,35.281c8.682,9.777,16.751,16.6,23.769,20.993s12.984,6.34,17.482,6.342a10.184,10.184,0,0,0,5.648-1.462,7,7,0,0,0,2.947-4.136,23.944,23.944,0,0,0,.894-6.282,15.4,15.4,0,0,0-3.179-9.8,10.86,10.86,0,0,0-2.669-2.426,4.661,4.661,0,0,0-2.278-.82,1.192,1.192,0,0,0-.755.223.85.85,0,0,0-.308.689,2.4,2.4,0,0,0,.384,1.148,8.787,8.787,0,0,0,1.191,1.543c2.781,2.983,6.983,5.286,12.04,6.849a59.112,59.112,0,0,0,17.2,2.383,69.6,69.6,0,0,0,29.184-6.272c4.5-2.126,7.425-4.519,9.224-6.979a12.219,12.219,0,0,0,2.465-7.345,16.128,16.128,0,0,0-2.246-7.818,19.325,19.325,0,0,0-1.694-2.515c-.253-.316-.481-.576-.672-.775a3.394,3.394,0,0,0-.453-.415.236.236,0,0,0-.322.054.22.22,0,0,0,.055.313,3.035,3.035,0,0,1,.381.354,17.8,17.8,0,0,1,2.721,3.985,15.251,15.251,0,0,1,1.767,6.817,11.77,11.77,0,0,1-2.38,7.084c-1.743,2.384-4.6,4.733-9.049,6.835a69.122,69.122,0,0,1-28.982,6.227,58.635,58.635,0,0,1-17.061-2.362c-5-1.545-9.134-3.821-11.838-6.722a8.366,8.366,0,0,1-1.131-1.461,2,2,0,0,1-.325-.929.4.4,0,0,1,.139-.342.734.734,0,0,1,.462-.121,4.244,4.244,0,0,1,2.029.748c2.459,1.531,5.636,5.419,5.635,11.844a23.512,23.512,0,0,1-.878,6.168A6.548,6.548,0,0,1,252,243.926a9.716,9.716,0,0,1-5.39,1.385c-4.361,0-10.263-1.911-17.232-6.27s-15.01-11.159-23.669-20.909c-12.838-14.455-21.036-26.095-26.022-35.2s-6.756-15.674-6.754-19.97a8.511,8.511,0,0,1,1.208-4.891,3.288,3.288,0,0,1,2.75-1.521,4.8,4.8,0,0,1,3.059,1.289.236.236,0,0,0,.326-.02A.221.221,0,0,0,180.261,157.5Z" transform="translate(-122.057 -108.949)" fill="#2a1e17" fill-rule="evenodd"/>
        <path id="Path_3729" data-name="Path 3729" d="M631.43,388.012a1.212,1.212,0,1,1-1.212-1.178A1.2,1.2,0,0,1,631.43,388.012Z" transform="translate(-445.135 -269.853)" fill="#2a1e17" fill-rule="evenodd"/>
        <path id="Path_3730" data-name="Path 3730" d="M572.381,376.822,608.3,357.138a.221.221,0,0,0,.088-.306.235.235,0,0,0-.315-.085l-35.921,19.684a.221.221,0,0,0-.088.306A.234.234,0,0,0,572.381,376.822Z" transform="translate(-404.819 -248.851)" fill="#2a1e17" fill-rule="evenodd"/>
        <path id="Path_3731" data-name="Path 3731" d="M199.423,161.72a1.212,1.212,0,1,1-1.212-1.178A1.2,1.2,0,0,1,199.423,161.72Z" transform="translate(-139.412 -112.045)" fill="#2a1e17" fill-rule="evenodd"/>
        <path id="Path_3732" data-name="Path 3732" d="M303.158,78.238a2.6,2.6,0,1,1-2.6-2.528A2.564,2.564,0,0,1,303.158,78.238Z" transform="translate(-210.859 -52.887)" fill="#ff6d66" fill-rule="evenodd"/>
        <path id="Path_3733" data-name="Path 3733" d="M142.694,20.361a1.111,1.111,0,1,0,1.143,1.111A1.127,1.127,0,0,0,142.694,20.361Z" transform="translate(-100.173 -14.288)" fill="#a0c6f4" fill-rule="evenodd"/>
        <path id="Path_3734" data-name="Path 3734" d="M667.729,470.137a1.143,1.143,0,1,1-1.143-1.112A1.127,1.127,0,0,1,667.729,470.137Z" transform="translate(-470.921 -327.17)" fill="#fad8b0" fill-rule="evenodd"/>
        <path id="Path_3735" data-name="Path 3735" d="M567.973,265.99l-12.286-5.606a1.226,1.226,0,0,1,.028-2.258l22.858-9.778a1.309,1.309,0,0,1,1.017,0l15.7,6.552Z" transform="translate(-392.729 -173.205)" fill="#2a1e33" fill-rule="evenodd"/>
        <path id="Path_3736" data-name="Path 3736" d="M596.89,216.069c.031,4.943.761,18.423.761,18.423L624.969,223.4l-.613-18.758a1.658,1.658,0,0,0-2.346-1.417l-23.521,10.42A2.646,2.646,0,0,0,596.89,216.069Z" transform="translate(-422.407 -141.707)" fill="#c6cbcb" fill-rule="evenodd"/>
        <path id="Path_3737" data-name="Path 3737" d="M599.023,234.242l27.318-11.094a.225.225,0,0,0,.142-.215l-.612-18.758v-.012a2.344,2.344,0,0,0-.276-.856,1.669,1.669,0,0,0-1.535-.886,2.993,2.993,0,0,0-.832.13.224.224,0,0,0-.155.28.233.233,0,0,0,.288.15,2.507,2.507,0,0,1,.7-.111,1.267,1.267,0,0,1,.725.2,1.422,1.422,0,0,1,.519.7,2.016,2.016,0,0,1,.087.311l.016.091,0,.023v0l.23-.019-.231.007.607,18.6-27.17,11.034a.223.223,0,0,0-.125.294A.234.234,0,0,0,599.023,234.242Z" transform="translate(-423.69 -141.249)" fill="#2a1e17" fill-rule="evenodd"/>
        <path id="Path_3738" data-name="Path 3738" d="M644.378,252.137l1.844-4.238a.222.222,0,0,0-.122-.294.233.233,0,0,0-.3.119l-1.844,4.238a.221.221,0,0,0,.123.294A.233.233,0,0,0,644.378,252.137Z" transform="translate(-455.699 -172.747)" fill="#2a1e17" fill-rule="evenodd"/>
        <path id="Path_3739" data-name="Path 3739" d="M650.688,252.137l1.844-4.238a.221.221,0,0,0-.122-.294.233.233,0,0,0-.3.119l-1.845,4.238a.222.222,0,0,0,.123.294A.233.233,0,0,0,650.688,252.137Z" transform="translate(-460.165 -172.747)" fill="#2a1e17" fill-rule="evenodd"/>
        <path id="Path_3740" data-name="Path 3740" d="M160.694,408.863a1.143,1.143,0,1,1-1.143-1.111A1.127,1.127,0,0,1,160.694,408.863Z" transform="translate(-112.102 -284.44)" fill="#ff6d66" fill-rule="evenodd"/>
        <path id="Path_3741" data-name="Path 3741" d="M489.716,426.055a1.589,1.589,0,1,1-1.588-1.543A1.566,1.566,0,0,1,489.716,426.055Z" transform="translate(-344.315 -296.128)" fill="#ff6d66" fill-rule="evenodd"/>
        <path id="Path_3742" data-name="Path 3742" d="M195.7,465.717a34.717,34.717,0,0,0,14.432,3.009.639.639,0,0,1,.646.712l-1,7.694a.641.641,0,0,1-.527.544c-2.023.369-10.176,1.457-16.274-3.572a.619.619,0,0,1-.2-.643l2.016-7.335A.655.655,0,0,1,195.7,465.717Z" transform="translate(-136.409 -324.82)" fill="#fff7dc" fill-rule="evenodd"/>
        <path id="Path_3743" data-name="Path 3743" d="M204.541,472.946s.883,1.207,1.925,2.5c.521.647,1.081,1.317,1.594,1.871a6.517,6.517,0,0,0,1.335,1.2,1.073,1.073,0,0,0,.519.11,6.547,6.547,0,0,0,2.08-.535,50.462,50.462,0,0,0,5.672-2.819.221.221,0,0,0,.08-.308.236.236,0,0,0-.317-.078l-.248.142c-.559.317-1.986,1.11-3.475,1.821-.745.356-1.5.691-2.176.935a5.414,5.414,0,0,1-1.616.393.622.622,0,0,1-.291-.052,6.272,6.272,0,0,1-1.219-1.1c-.752-.813-1.626-1.9-2.309-2.778-.342-.44-.636-.828-.846-1.107s-.331-.446-.332-.447a.235.235,0,0,0-.322-.053.22.22,0,0,0-.054.314" transform="translate(-144.719 -329.657)" fill="#2a1e17" fill-rule="evenodd"/>
        <path id="Path_3744" data-name="Path 3744" d="M232.276,488.936l3.7,3.7a.236.236,0,0,0,.327,0,.22.22,0,0,0,0-.318l-3.7-3.7a.236.236,0,0,0-.327,0A.22.22,0,0,0,232.276,488.936Z" transform="translate(-164.331 -340.789)" fill="#2a1e17" fill-rule="evenodd"/>
        <path id="Path_3745" data-name="Path 3745" d="M204.31,486.207l-4.329,1.144a.224.224,0,0,0-.162.276.232.232,0,0,0,.283.158l4.329-1.144a.224.224,0,0,0,.163-.276A.232.232,0,0,0,204.31,486.207Z" transform="translate(-141.402 -339.146)" fill="#2a1e17" fill-rule="evenodd"/>
        <path id="Path_3746" data-name="Path 3746" d="M576.387,169.124h4.135V165.1h-4.135Z" transform="translate(-407.898 -115.227)" fill="#ffe1c0" fill-rule="evenodd"/>
        <path id="Path_3747" data-name="Path 3747" d="M572.354,344.282l2.458,4.139H569.9Z" transform="translate(-403.304 -240.179)" fill="#a0c6f4" fill-rule="evenodd"/>
        <path id="Path_3748" data-name="Path 3748" d="M237.768,13.661l.231.007.32-9.4V4.257l0-.1a1.01,1.01,0,0,1,.191-.692.912.912,0,0,1,.519-.256A44.277,44.277,0,0,1,248.6,2.1a34.763,34.763,0,0,1,9.6,1.3,1.353,1.353,0,0,1,.774.444.882.882,0,0,1,.134.539c0,.068,0,.14-.005.213h0l-.311,8.957a.765.765,0,0,1-.307.575,1.2,1.2,0,0,1-.749.246,1.407,1.407,0,0,1-.2-.014,64.5,64.5,0,0,0-8.48-.45c-.344,0-.69,0-1.036,0a55.413,55.413,0,0,0-9.136.717,1.147,1.147,0,0,1-.216.022.557.557,0,0,1-.5-.24,1.205,1.205,0,0,1-.171-.68v-.069h0l-.231-.007-.231-.008,0,.085a1.629,1.629,0,0,0,.25.931,1.029,1.029,0,0,0,.882.438,1.646,1.646,0,0,0,.3-.03,54.943,54.943,0,0,1,9.053-.709q.517,0,1.032,0a64,64,0,0,1,8.413.446,1.894,1.894,0,0,0,.264.018,1.675,1.675,0,0,0,1.042-.347,1.212,1.212,0,0,0,.476-.908l.311-8.957h0c0-.072.006-.148.006-.228a1.309,1.309,0,0,0-.216-.794,1.8,1.8,0,0,0-1.023-.62,35.235,35.235,0,0,0-9.728-1.32,44.749,44.749,0,0,0-9.673,1.116,1.368,1.368,0,0,0-.771.4,1.433,1.433,0,0,0-.3.983l0,.118.231-.009-.231-.008-.32,9.4h0Z" transform="translate(-168.099 -1.243)" fill="#2a1e17" fill-rule="evenodd"/>
        <path id="Path_3749" data-name="Path 3749" d="M247.765,23.023l.176.146,4.89-5.566,5.416,5.2.162-.16.072-.214a9.084,9.084,0,0,0-2.353-.209c-3.285,0-8.386.584-8.39.584l.027.223.176.146-.176-.146.027.223s.318-.036.846-.091c1.584-.164,5.064-.49,7.491-.49a8.837,8.837,0,0,1,2.209.187.234.234,0,0,0,.269-.1.22.22,0,0,0-.035-.277l-5.592-5.366a.235.235,0,0,0-.338.014l-5.052,5.749a.22.22,0,0,0-.027.252.232.232,0,0,0,.23.117Z" transform="translate(-175.175 -11.978)" fill="#2a1e17" fill-rule="evenodd"/>
        <path id="Path_3750" data-name="Path 3750" d="M275.784,18.921l3.948-3.072,3.207,2.225.117,3.379-4.909-.229a.225.225,0,1,0-.022.449l5.159.24a.235.235,0,0,0,.173-.064.224.224,0,0,0,.069-.168l-.13-3.734a.224.224,0,0,0-.1-.175l-3.441-2.388a.236.236,0,0,0-.279.008L275.5,18.57a.22.22,0,0,0-.036.316A.236.236,0,0,0,275.784,18.921Z" transform="translate(-194.901 -10.789)" fill="#2a1e17" fill-rule="evenodd"/>
        <path id="Path_3751" data-name="Path 3751" d="M250.489,13.607l-.229.026,0,.056a.5.5,0,0,1-.181.376.812.812,0,0,1-.5.191h-.052a.912.912,0,0,1-.545-.175.584.584,0,0,1-.246-.395l0-.055a.5.5,0,0,1,.181-.377.814.814,0,0,1,.5-.191h.053a.91.91,0,0,1,.544.175.588.588,0,0,1,.246.395l.229-.026.23-.025a1.034,1.034,0,0,0-.423-.7,1.385,1.385,0,0,0-.827-.268l-.078,0a1.277,1.277,0,0,0-.784.308.946.946,0,0,0-.331.708l.006.107a1.035,1.035,0,0,0,.424.7,1.379,1.379,0,0,0,.827.268l.077,0a1.28,1.28,0,0,0,.784-.309.947.947,0,0,0,.331-.708l-.006-.106Z" transform="translate(-175.7 -8.886)" fill="#2a1e17" fill-rule="evenodd"/>
        <path id="Path_3752" data-name="Path 3752" d="M539.152,442.9l-.2.107,3.389,6.084.008.014a.886.886,0,0,1,.18.463.515.515,0,0,1-.219.383,28.381,28.381,0,0,1-12.226,6.789,1.572,1.572,0,0,1-.361.049.509.509,0,0,1-.373-.123,1.263,1.263,0,0,1-.228-.33l-3.228-5.8a.467.467,0,0,1-.059-.229.756.756,0,0,1,.516-.654,50.054,50.054,0,0,0,6.224-3.16,39.794,39.794,0,0,0,5.538-3.764.506.506,0,0,1,.322-.146.418.418,0,0,1,.257.1,1.075,1.075,0,0,1,.259.322l.2-.107.2-.107a1.52,1.52,0,0,0-.373-.456.883.883,0,0,0-.549-.2.967.967,0,0,0-.627.257,39.333,39.333,0,0,1-5.471,3.716,49.645,49.645,0,0,1-6.16,3.13,1.2,1.2,0,0,0-.805,1.07.907.907,0,0,0,.115.443l3.228,5.8a1.634,1.634,0,0,0,.318.445.986.986,0,0,0,.688.244,2.021,2.021,0,0,0,.472-.063,28.835,28.835,0,0,0,12.429-6.9.956.956,0,0,0,.367-.713,1.308,1.308,0,0,0-.253-.7l-.2.121.2-.107-3.388-6.084Z" transform="translate(-371.794 -308.416)" fill="#2a1e17" fill-rule="evenodd"/>
        <path id="Path_3753" data-name="Path 3753" d="M551.393,450.52l-.227-.04-.967,5.24-5.363-1.327-.057.217.049.22a7.1,7.1,0,0,0,1.718-.8c2.084-1.2,4.983-3.333,4.987-3.335l-.139-.179-.227-.04.227.04-.139-.179s-.321.235-.826.593c-.757.538-1.928,1.352-3.042,2.059-.557.353-1.1.679-1.567.929a4.893,4.893,0,0,1-1.09.47.223.223,0,0,0-.008.437l5.6,1.387a.237.237,0,0,0,.182-.029.224.224,0,0,0,.1-.149l1.01-5.478a.222.222,0,0,0-.106-.231.237.237,0,0,0-.26.012Z" transform="translate(-385.366 -314.109)" fill="#2a1e17" fill-rule="evenodd"/>
        <path id="Path_3754" data-name="Path 3754" d="M539.026,464.772l-1.317,3.336-2.812-.248-1.315-2.025,3.147-1.6a.222.222,0,0,0,.1-.3.234.234,0,0,0-.312-.1l-3.369,1.713a.226.226,0,0,0-.116.141.219.219,0,0,0,.028.178l1.51,2.325a.233.233,0,0,0,.175.1l3.1.273a.233.233,0,0,0,.236-.143l1.379-3.494a.223.223,0,0,0-.133-.29A.233.233,0,0,0,539.026,464.772Z" transform="translate(-377.209 -323.534)" fill="#2a1e17" fill-rule="evenodd"/>
        <path id="Path_3755" data-name="Path 3755" d="M570.641,464.08l.185-.135a.285.285,0,0,1-.06-.178.468.468,0,0,1,.235-.376.627.627,0,0,1,.336-.1.414.414,0,0,1,.335.143.285.285,0,0,1,.06.177.469.469,0,0,1-.236.377.626.626,0,0,1-.336.1.413.413,0,0,1-.334-.143l-.37.269a.878.878,0,0,0,.7.323,1.1,1.1,0,0,0,.591-.175.913.913,0,0,0,.443-.752.727.727,0,0,0-.152-.447.879.879,0,0,0-.7-.323,1.1,1.1,0,0,0-.591.175.911.911,0,0,0-.443.751.727.727,0,0,0,.153.447Z" transform="translate(-403.593 -322.857)" fill="#2a1e17" fill-rule="evenodd"/>
        <path id="Path_3756" data-name="Path 3756" d="M515.435,91.711,529.2,101.957a.693.693,0,0,0,.96-.133l2.079-2.739a.649.649,0,0,0-.123-.909l-13.575-10.56a.693.693,0,0,0-.976.128L515.3,90.8A.648.648,0,0,0,515.435,91.711Z" transform="translate(-364.574 -61.089)" fill="#fff" fill-rule="evenodd"/>
        <path id="Path_3757" data-name="Path 3757" d="M514.874,91.193l-.14.178L528.5,101.617a.929.929,0,0,0,1.287-.177l2.079-2.739a.869.869,0,0,0-.164-1.218l-13.574-10.56a.927.927,0,0,0-1.307.172l-2.273,3.054a.865.865,0,0,0-.173.519.876.876,0,0,0,.358.7l.14-.179.14-.178a.432.432,0,0,1-.176-.347.424.424,0,0,1,.085-.256l2.273-3.054a.451.451,0,0,1,.364-.181.457.457,0,0,1,.28.1l13.575,10.56a.431.431,0,0,1,.168.341.425.425,0,0,1-.088.259l-2.079,2.739a.457.457,0,0,1-.634.088L515.015,91.015Z" transform="translate(-364.014 -60.571)" fill="#2a1e17" fill-rule="evenodd"/>
        <path id="Path_3758" data-name="Path 3758" d="M519.566,93.71l3.339,2.278,1.971-2.286-3.34-2.708Z" transform="translate(-367.687 -63.545)" fill="#ff6d66" fill-rule="evenodd"/>
        <path id="Path_3759" data-name="Path 3759" d="M535.29,105.317l3.343,2.579,1.792-2.143L537.06,103.1Z" transform="translate(-378.814 -71.985)" fill="#fad8b0" fill-rule="evenodd"/>
        <path id="Path_3760" data-name="Path 3760" d="M550.575,116.968l3.339,2.278,1.59-1.987-3.163-2.573Z" transform="translate(-389.631 -80.067)" fill="#a0c6f4" fill-rule="evenodd"/>
        <path id="Path_3761" data-name="Path 3761" d="M610.044,49.617l3.138,25.633a1.036,1.036,0,0,0,1.175.884l5.313-.707a1.019,1.019,0,0,0,.9-1.1L617.99,48.565a1.035,1.035,0,0,0-1.187-.9l-5.875.835A1.018,1.018,0,0,0,610.044,49.617Z" transform="translate(-431.711 -33.319)" fill="#fff" fill-rule="evenodd"/>
        <path id="Path_3762" data-name="Path 3762" d="M609.486,49.1l-.229.027,3.137,25.633a1.261,1.261,0,0,0,1.263,1.091,1.247,1.247,0,0,0,.173-.012l5.313-.707a1.249,1.249,0,0,0,1.1-1.224l-.006-.121-2.575-25.762a1.26,1.26,0,0,0-1.265-1.117,1.246,1.246,0,0,0-.186.013l-5.874.835a1.249,1.249,0,0,0-1.089,1.223,1.193,1.193,0,0,0,.009.148h0l.229-.027.229-.027-.006-.094a.8.8,0,0,1,.693-.778l5.875-.836.119-.009a.8.8,0,0,1,.806.712l2.575,25.761,0,.078a.8.8,0,0,1-.7.779l-5.312.708-.111.007a.8.8,0,0,1-.8-.7l-3.137-25.633h0Z" transform="translate(-431.153 -32.801)" fill="#2a1e17" fill-rule="evenodd"/>
        <path id="Path_3763" data-name="Path 3763" d="M615.553,54.289l.994,6,4.685-.339-.509-6.456Z" transform="translate(-435.615 -37.391)" fill="#ff6d66" fill-rule="evenodd"/>
        <path id="Path_3764" data-name="Path 3764" d="M620.113,82.4l.659,6.322,4.334-.376-.6-6.427Z" transform="translate(-438.842 -57.215)" fill="#91ba83" fill-rule="evenodd"/>
        <path id="Path_3765" data-name="Path 3765" d="M622.65,110.589l.995,6,3.941-.425-.473-6.123Z" transform="translate(-440.637 -76.825)" fill="#fad8b0" fill-rule="evenodd"/>
        <path id="Path_3766" data-name="Path 3766" d="M586.525,64.776l8.688,24.829a.834.834,0,0,0,1.065.5l5.442-1.9a.8.8,0,0,0,.51-1l-8.159-25.075a.835.835,0,0,0-1.078-.513l-5.972,2.15A.8.8,0,0,0,586.525,64.776Z" transform="translate(-415.041 -43.019)" fill="#fff" fill-rule="evenodd"/>
        <path id="Path_3767" data-name="Path 3767" d="M585.965,64.258l-.219.072,8.689,24.829a1.058,1.058,0,0,0,1,.7,1.08,1.08,0,0,0,.358-.061l5.442-1.9a1.033,1.033,0,0,0,.7-.969,1.007,1.007,0,0,0-.05-.311l-8.159-25.075a1.056,1.056,0,0,0-1.01-.72,1.085,1.085,0,0,0-.368.064l-5.972,2.15a1.033,1.033,0,0,0-.692.966,1.009,1.009,0,0,0,.057.332h0l.219-.072.219-.073a.554.554,0,0,1-.033-.187.582.582,0,0,1,.39-.545l5.972-2.15a.616.616,0,0,1,.208-.036.6.6,0,0,1,.57.406l8.159,25.075a.563.563,0,0,1,.028.175.582.582,0,0,1-.4.546l-5.442,1.9a.61.61,0,0,1-.2.035.6.6,0,0,1-.565-.394l-8.689-24.829h0Z" transform="translate(-414.481 -42.502)" fill="#2a1e17" fill-rule="evenodd"/>
        <path id="Path_3768" data-name="Path 3768" d="M592.668,69.47l2.255,5.664,4.51-1.279-1.88-6.212Z" transform="translate(-419.419 -47.261)" fill="#a0c6f4" fill-rule="evenodd"/>
        <path id="Path_3769" data-name="Path 3769" d="M603.193,96.434l2,6.05,4.159-1.244-1.958-6.166Z" transform="translate(-426.868 -66.39)" fill="#f9865f" fill-rule="evenodd"/>
        <path id="Path_3770" data-name="Path 3770" d="M611.953,123.48l2.255,5.664,3.765-1.213-1.772-5.893Z" transform="translate(-433.067 -85.194)" fill="#fad8b0" fill-rule="evenodd"/>
        <path id="Path_3771" data-name="Path 3771" d="M250.276,186.51H206.4a2.5,2.5,0,0,1-2.534-2.463v-5.769a2.5,2.5,0,0,1,2.534-2.464h43.875a2.5,2.5,0,0,1,2.534,2.464v5.769A2.5,2.5,0,0,1,250.276,186.51Z" transform="translate(-144.273 -122.695)" fill="#7595ec" fill-rule="evenodd"/>
        <path id="Path_3772" data-name="Path 3772" d="M246.461,187.848H222.542a.814.814,0,1,1,0-1.628h23.919a.814.814,0,1,1,0,1.628Z" transform="translate(-156.896 -129.952)" fill="#fff" fill-rule="evenodd"/>
        <path id="Path_3773" data-name="Path 3773" d="M221.963,198.274h40.663a.225.225,0,1,0,0-.449H221.963a.225.225,0,1,0,0,.449Z" transform="translate(-156.915 -138.045)" fill="#2a1e17" fill-rule="evenodd"/>
        <path id="Path_3774" data-name="Path 3774" d="M146.5,110.064l-.693-.738-2.292,2.035.692.737a.8.8,0,0,0,1.108.049l1.134-1.007A.747.747,0,0,0,146.5,110.064Z" transform="translate(-101.563 -76.329)" fill="#91ba83" fill-rule="evenodd"/>
        <path id="Path_3775" data-name="Path 3775" d="M132.13,95.153l-.171.151,3.263,3.473a.212.212,0,0,1-.014.3l-2.255,2a.226.226,0,0,1-.313-.014L129.377,97.6a.212.212,0,0,1,.014-.3l2.255-2a.226.226,0,0,1,.313.013l.171-.151L132.3,95a.7.7,0,0,0-.966-.042l-2.255,2a.653.653,0,0,0-.043.939l3.263,3.473a.7.7,0,0,0,.966.043l2.255-2a.656.656,0,0,0,.222-.491.649.649,0,0,0-.179-.448L132.3,95Z" transform="translate(-91.19 -66.189)" fill="#2a1e17" fill-rule="evenodd"/>
        <path id="Path_3776" data-name="Path 3776" d="M104.365,160.363h4.1v-3.639h-4.1Z" transform="translate(-73.857 -109.383)" fill="#ff6d66" fill-rule="evenodd"/>
        <path id="Path_3777" data-name="Path 3777" d="M97.638,148.47v2.117H95.417a.225.225,0,1,0,0,.449h2.452a.237.237,0,0,0,.164-.066.223.223,0,0,0,.068-.159V148.47a.231.231,0,0,0-.462,0Z" transform="translate(-67.361 -103.47)" fill="#2a1e17" fill-rule="evenodd"/>
        <path id="Path_3778" data-name="Path 3778" d="M566.368,24.577h4.1v-3.64h-4.1Z" transform="translate(-400.807 -14.69)" fill="#fad8b0" fill-rule="evenodd"/>
        <path id="Path_3779" data-name="Path 3779" d="M559.642,12.682V14.8h-2.22a.225.225,0,1,0,0,.449h2.452a.236.236,0,0,0,.164-.066.223.223,0,0,0,.067-.159V12.682a.231.231,0,0,0-.462,0Z" transform="translate(-394.313 -8.776)" fill="#2a1e17" fill-rule="evenodd"/>
        <path id="Path_3780" data-name="Path 3780" d="M79.581,84.011a58.773,58.773,0,0,0-21.657-4.585c-6.659,0-12.341,1.541-16.372,4.436a14.838,14.838,0,0,0-6.394,12.513c0,6.41,3.356,14.375,11.162,23.555s20.075,19.579,37.943,30.845c6.375,4.014,16.059,5.4,16.074,5.407a.23.23,0,0,0,.263-.189.226.226,0,0,0-.195-.255s-.148-.021-.423-.067c-1.924-.317-10.006-1.826-15.467-5.272-17.84-11.248-30.073-21.623-37.838-30.754S35.617,102.629,35.619,96.375a14.388,14.388,0,0,1,6.207-12.152c3.925-2.82,9.51-4.348,16.1-4.348A58.319,58.319,0,0,1,79.4,84.426a.233.233,0,0,0,.3-.121A.223.223,0,0,0,79.581,84.011Z" transform="translate(-24.88 -55.478)" fill="#2a1e17" fill-rule="evenodd"/>
        <path id="Path_3781" data-name="Path 3781" d="M51.391,96.353a1.212,1.212,0,1,1-1.212-1.178A1.2,1.2,0,0,1,51.391,96.353Z" transform="translate(-34.653 -66.46)" fill="#2a1e17" fill-rule="evenodd"/>
        <path id="Path_3782" data-name="Path 3782" d="M26.173,74.332l.16.162,1.2-1.121,2.821,1.569,1.35,4.049-4.124-1.678-1.192-3.06-.216.08.16.162-.16-.162-.216.079,1.227,3.151a.228.228,0,0,0,.127.128l4.68,1.9a.236.236,0,0,0,.246-.042.22.22,0,0,0,.063-.235l-1.533-4.6a.226.226,0,0,0-.1-.126l-3.049-1.7a.235.235,0,0,0-.274.033l-1.326,1.238a.22.22,0,0,0-.056.242Z" transform="translate(-18.359 -50.906)" fill="#2a1e17" fill-rule="evenodd"/>
        <path id="Path_3783" data-name="Path 3783" d="M25.7,71.192l-.16-.162L24.394,72.1l-.448-.528.95-.885.636.659.169-.154-.16-.162.16.162.169-.154-.8-.825a.236.236,0,0,0-.329-.009l-1.273,1.187a.22.22,0,0,0-.018.305l.743.876a.236.236,0,0,0,.339.019l1.326-1.237a.221.221,0,0,0,.009-.316Z" transform="translate(-16.56 -49.004)" fill="#2a1e17" fill-rule="evenodd"/>
        <path id="Path_3784" data-name="Path 3784" d="M39.186,86.246,36.143,83a.236.236,0,0,0-.326-.015.22.22,0,0,0-.015.317l3.043,3.25a.236.236,0,0,0,.327.015A.22.22,0,0,0,39.186,86.246Z" transform="translate(-25.293 -57.916)" fill="#2a1e17" fill-rule="evenodd"/>
        <path id="Path_3785" data-name="Path 3785" d="M72.111,363.235l3.3,16.548a.68.68,0,0,0,.809.521l3.425-.707a.662.662,0,0,0,.529-.759L77.234,362.18a.679.679,0,0,0-.817-.533l-3.785.817A.663.663,0,0,0,72.111,363.235Z" transform="translate(-51.022 -252.277)" fill="#fff" fill-rule="evenodd"/>
        <path id="Path_3786" data-name="Path 3786" d="M71.551,362.716l-.226.043,3.3,16.548a.9.9,0,0,0,.894.717.94.94,0,0,0,.189-.019l3.426-.707a.892.892,0,0,0,.722-.866.88.88,0,0,0-.013-.151L76.9,361.623a.9.9,0,0,0-.9-.736.929.929,0,0,0-.2.021l-3.785.817a.892.892,0,0,0-.714.865.847.847,0,0,0,.017.169l.226-.043.227-.043-.008-.084a.44.44,0,0,1,.352-.426l3.785-.817.1-.011a.447.447,0,0,1,.442.363l2.943,16.658.006.075a.44.44,0,0,1-.356.426l-3.425.707-.094.009a.446.446,0,0,1-.44-.353l-3.3-16.548Z" transform="translate(-50.463 -251.758)" fill="#2a1e17" fill-rule="evenodd"/>
        <path id="Path_3787" data-name="Path 3787" d="M75.817,366.221l.942,3.859,3.034-.439-.649-4.181Z" transform="translate(-53.654 -254.948)" fill="#ff6d66" fill-rule="evenodd"/>
        <path id="Path_3788" data-name="Path 3788" d="M80.181,384.406l.74,4.087,2.8-.447-.7-4.157Z" transform="translate(-56.743 -267.799)" fill="#fad8b0" fill-rule="evenodd"/>
        <path id="Path_3789" data-name="Path 3789" d="M83.277,402.642l.942,3.859,2.546-.46-.609-3.966Z" transform="translate(-58.933 -280.481)" fill="#a0c6f4" fill-rule="evenodd"/>
        <path id="Path_3790" data-name="Path 3790" d="M395.159,495.081l.06.217,13.753-3.579.378,1.044-13.65,3.445-.317-1.183-.224.057.06.217-.06-.217-.224.057.376,1.4a.231.231,0,0,0,.282.16l14.117-3.562a.231.231,0,0,0,.146-.112.22.22,0,0,0,.014-.18l-.532-1.471a.233.233,0,0,0-.278-.143l-13.96,3.633a.225.225,0,0,0-.164.274Z" transform="translate(-279.482 -342.65)" fill="#2a1e17" fill-rule="evenodd"/>
        <path id="Path_3791" data-name="Path 3791" d="M388.311,497.249l.4,1.232a.232.232,0,0,0,.29.146.223.223,0,0,0,.15-.282l-.4-1.232a.232.232,0,0,0-.29-.146A.223.223,0,0,0,388.311,497.249Z" transform="translate(-274.792 -346.648)" fill="#2a1e17" fill-rule="evenodd"/>
        <path id="Path_3792" data-name="Path 3792" d="M387.262,499.143l1.178-.393a.224.224,0,0,0,.143-.286.233.233,0,0,0-.294-.139l-1.177.393a.223.223,0,0,0-.144.285A.233.233,0,0,0,387.262,499.143Z" transform="translate(-273.841 -347.594)" fill="#2a1e17" fill-rule="evenodd"/>
        <path id="Path_3793" data-name="Path 3793" d="M385.995,512.8l.76,2.324a.232.232,0,0,0,.29.147.224.224,0,0,0,.15-.282l-.76-2.325a.232.232,0,0,0-.29-.146A.224.224,0,0,0,385.995,512.8Z" transform="translate(-273.153 -357.491)" fill="#2a1e17" fill-rule="evenodd"/>
        <path id="Path_3794" data-name="Path 3794" d="M384.071,516.32l2.1-.648a.223.223,0,0,0,.15-.282.233.233,0,0,0-.29-.146l-2.1.648a.223.223,0,0,0-.15.282A.232.232,0,0,0,384.071,516.32Z" transform="translate(-271.586 -359.394)" fill="#2a1e17" fill-rule="evenodd"/>
        <path id="Path_3795" data-name="Path 3795" d="M375.081,500.12l.991,3.078a.232.232,0,0,0,.289.147.223.223,0,0,0,.151-.281l-.99-3.078a.233.233,0,0,0-.29-.147A.224.224,0,0,0,375.081,500.12Z" transform="translate(-265.43 -348.651)" fill="#2a1e17" fill-rule="evenodd"/>
        <path id="Path_3796" data-name="Path 3796" d="M372,504.5l2.94-.912a.223.223,0,0,0,.15-.282.232.232,0,0,0-.29-.146l-2.939.912a.223.223,0,0,0-.15.282A.233.233,0,0,0,372,504.5Z" transform="translate(-263.046 -350.966)" fill="#2a1e17" fill-rule="evenodd"/>
        <path id="Path_3797" data-name="Path 3797" d="M25.754,5.294l.064-.137-8.7-3.82.26-.7,8.591,3.847-.352.745.141.063.064-.137-.064.137.141.063.416-.882a.149.149,0,0,0-.076-.2L17.351.3l-.125,0L17.14.383l-.366.983a.15.15,0,0,0,.082.189L25.69,5.431a.157.157,0,0,0,.2-.074Z" transform="translate(-11.864 -0.295)" fill="#2a1e17" fill-rule="evenodd"/>
        <path id="Path_3798" data-name="Path 3798" d="M47.888,20.562l.329-.806a.149.149,0,0,0-.087-.2.156.156,0,0,0-.2.084l-.329.806a.149.149,0,0,0,.087.2A.157.157,0,0,0,47.888,20.562Z" transform="translate(-33.678 -13.723)" fill="#2a1e17" fill-rule="evenodd"/>
        <path id="Path_3799" data-name="Path 3799" d="M47.8,20.732l-.783-.282a.156.156,0,0,0-.2.089.149.149,0,0,0,.091.194l.783.282a.157.157,0,0,0,.2-.089A.15.15,0,0,0,47.8,20.732Z" transform="translate(-33.126 -14.343)" fill="#2a1e17" fill-rule="evenodd"/>
        <path id="Path_3800" data-name="Path 3800" d="M56.123,11.769l.621-1.521a.149.149,0,0,0-.087-.2.156.156,0,0,0-.2.084l-.621,1.52a.15.15,0,0,0,.087.2A.156.156,0,0,0,56.123,11.769Z" transform="translate(-39.505 -7.093)" fill="#2a1e17" fill-rule="evenodd"/>
        <path id="Path_3801" data-name="Path 3801" d="M56.065,12.21l-1.372-.529a.156.156,0,0,0-.2.084.15.15,0,0,0,.087.2l1.372.53a.157.157,0,0,0,.2-.084A.15.15,0,0,0,56.065,12.21Z" transform="translate(-38.555 -8.227)" fill="#2a1e17" fill-rule="evenodd"/>
        <path id="Path_3802" data-name="Path 3802" d="M56.055,21.58l.83-2.007a.149.149,0,0,0-.086-.2.156.156,0,0,0-.2.084l-.83,2.007a.149.149,0,0,0,.086.2A.157.157,0,0,0,56.055,21.58Z" transform="translate(-39.458 -13.594)" fill="#2a1e17" fill-rule="evenodd"/>
        <path id="Path_3803" data-name="Path 3803" d="M55.922,22.359,54,21.619a.156.156,0,0,0-.2.084.149.149,0,0,0,.087.2l1.925.74a.156.156,0,0,0,.2-.084A.149.149,0,0,0,55.922,22.359Z" transform="translate(-38.063 -15.158)" fill="#2a1e17" fill-rule="evenodd"/>
        <path id="Path_3804" data-name="Path 3804" d="M135.49,212.365c-6.227-4.359-12.345-11.132-9.661-18.089,0,0,4.294-2.783,11.092.7l6.8,3.479Z" transform="translate(-88.588 -134.835)" fill="#fad8b0" fill-rule="evenodd"/>
        <path id="Path_3805" data-name="Path 3805" d="M109.167,251.022c-2.8-1.288-14.765-7.342-16.893-17.688-1.839-8.939,5.192-20.99,8.715-26.314-.227,7.068,7.074,13.049,10.6,15.514a38.061,38.061,0,0,0,9.811,5.04Z" transform="translate(-65.087 -144.457)" fill="#fff" fill-rule="evenodd"/>
        <path id="Path_3806" data-name="Path 3806" d="M100.65,196.7S87.411,214.1,89.916,226.272s17.891,18.437,17.891,18.437l12.881-24.7a38.2,38.2,0,0,1-10.376-5.218C104.084,210.434,97.966,203.661,100.65,196.7Zm-1.875,5.224c.764,4.7,4.451,9.566,10.727,13.959a37.922,37.922,0,0,0,9.25,4.856l-11.574,22.191c-3.526-1.706-13.96-7.485-15.9-16.926C89.66,218.159,95.135,207.749,98.775,201.928Z" transform="translate(-63.409 -137.263)" fill="#fad8b0" fill-rule="evenodd"/>
        <path id="Path_3807" data-name="Path 3807" d="M114.7,229.608a13.417,13.417,0,0,0,1.305,4.035,15.291,15.291,0,0,0,6.773,6.869.234.234,0,0,0,.313-.092.222.222,0,0,0-.095-.3,14.837,14.837,0,0,1-6.574-6.667,14.552,14.552,0,0,1-1.035-2.769c-.091-.35-.148-.633-.182-.826-.017-.1-.029-.171-.035-.221s-.009-.072-.01-.072a.229.229,0,0,0-.254-.2A.226.226,0,0,0,114.7,229.608Z" transform="translate(-81.17 -160.036)" fill="#2a1e17" fill-rule="evenodd"/>
        <path id="Path_3808" data-name="Path 3808" d="M155.213,273.483l7.187,3.743a.234.234,0,0,0,.313-.092.222.222,0,0,0-.095-.3l-7.187-3.743a.234.234,0,0,0-.313.092A.222.222,0,0,0,155.213,273.483Z" transform="translate(-109.755 -190.512)" fill="#2a1e17" fill-rule="evenodd"/>
        <path id="Path_3809" data-name="Path 3809" d="M118.232,262.659c.014.031,2.359,5.074,9.87,8.347a.234.234,0,0,0,.305-.113.222.222,0,0,0-.116-.3,22.106,22.106,0,0,1-7.59-5.278,15.4,15.4,0,0,1-1.585-2.041c-.164-.254-.28-.457-.355-.6-.037-.069-.065-.122-.083-.157l-.019-.039-.006-.011a.233.233,0,0,0-.305-.112A.222.222,0,0,0,118.232,262.659Z" transform="translate(-83.656 -183.037)" fill="#2a1e17" fill-rule="evenodd"/>
        <path id="Path_3810" data-name="Path 3810" d="M98.017,265.05a11.934,11.934,0,0,0,.589,2.9,7.06,7.06,0,0,0,3.389,4.28.235.235,0,0,0,.31-.1.223.223,0,0,0-.1-.3,6.618,6.618,0,0,1-3.156-4.017,11.983,11.983,0,0,1-.473-1.956c-.039-.255-.063-.462-.077-.605-.006-.071-.011-.127-.014-.164l0-.054a.231.231,0,0,0-.462.021Z" transform="translate(-69.364 -184.762)" fill="#2a1e17" fill-rule="evenodd"/>
        <path id="Path_3811" data-name="Path 3811" d="M126.094,204.827c0,.007-.009.1-.009.272,0,1.353.56,7.6,9.9,15.388a.235.235,0,0,0,.326-.024.22.22,0,0,0-.025-.317c-9.245-7.719-9.73-13.813-9.734-15.047,0-.078,0-.137,0-.176l0-.042v-.011a.226.226,0,0,0-.208-.245A.229.229,0,0,0,126.094,204.827Z" transform="translate(-89.228 -142.787)" fill="#2a1e17" fill-rule="evenodd"/>
        <path id="Path_3812" data-name="Path 3812" d="M139.534,209.186h.006c.016,0,.059,0,.13,0,.663,0,3.7.176,7.923,3.2a.235.235,0,0,0,.323-.048.221.221,0,0,0-.049-.314c-4.306-3.085-7.449-3.292-8.2-3.291-.107,0-.165,0-.171,0a.227.227,0,0,0-.213.241.23.23,0,0,0,.249.207" transform="translate(-98.569 -145.653)" fill="#2a1e17" fill-rule="evenodd"/>
        <path id="Path_3813" data-name="Path 3813" d="M85.532,279.954c-.018.274-.031.606-.031.988a19.655,19.655,0,0,0,2.953,10.152c2.521,4.165,7.132,8.67,15.451,12.232a.233.233,0,0,0,.3-.115.222.222,0,0,0-.118-.3c-8.246-3.532-12.769-7.971-15.239-12.049a19.215,19.215,0,0,1-2.89-9.924c0-.372.013-.694.03-.96a.231.231,0,0,0-.461-.028Z" transform="translate(-60.508 -195.172)" fill="#2a1e17" fill-rule="evenodd"/>
        <path id="Path_3814" data-name="Path 3814" d="M461.571,258.248l-7.644,14.894s5.185,1.855,1.131,7.633c0,0,9.583,3.864,15.854-6.171S461.571,258.248,461.571,258.248Z" transform="translate(-321.235 -180.182)" fill="#91ba83" fill-rule="evenodd"/>
        <path id="Path_3815" data-name="Path 3815" d="M390.83,345.062c-3.868,0-7.951-1.536-12.142-4.567l14.3-23.03,8.5,5.207.054.022a13.484,13.484,0,0,0,4.645.783h0a13.081,13.081,0,0,0,7.5-2.3l-10.453,17.386c-.024.034-4.525,6.5-12.41,6.5Z" transform="translate(-267.99 -221.478)" fill="#fff" fill-rule="evenodd"/>
        <path id="Path_3816" data-name="Path 3816" d="M415.449,312.293c-3.543,5.669-8.142,6.9-11.474,6.9a12.833,12.833,0,0,1-4.379-.731l-9.053-5.542L375.554,337.06c5.019,3.761,9.4,5.069,13.059,5.069,8.374,0,13.008-6.838,13.008-6.838Zm-24.45,2.5,7.858,4.811.1.061.108.044a14.277,14.277,0,0,0,4.91.833,13.973,13.973,0,0,0,5.594-1.14l-9.121,15.17c-.3.421-4.532,6.208-11.834,6.208-3.562,0-7.332-1.369-11.222-4.073Z" transform="translate(-265.772 -217.871)" fill="#96bd89" fill-rule="evenodd"/>
        <path id="Path_3817" data-name="Path 3817" d="M453.29,307.157l.027.009a5.3,5.3,0,0,1,1.486.888,3.269,3.269,0,0,1,1.239,2.524,6.381,6.381,0,0,1-1.725,3.862.221.221,0,0,0,.039.315.236.236,0,0,0,.324-.038,6.81,6.81,0,0,0,1.824-4.139,3.767,3.767,0,0,0-1.538-2.979,5.657,5.657,0,0,0-1.522-.866.232.232,0,0,0-.295.137A.223.223,0,0,0,453.29,307.157Z" transform="translate(-320.675 -213.984)" fill="#2a1e17" fill-rule="evenodd"/>
        <path id="Path_3818" data-name="Path 3818" d="M425.5,312.309a52.526,52.526,0,0,0,4.417,3.452,30.343,30.343,0,0,0,3.962,2.38,9.269,9.269,0,0,0,3.8,1.1h.046a18.519,18.519,0,0,0,6.741-1.179,11.64,11.64,0,0,0,5.772-4.961.221.221,0,0,0-.084-.307.235.235,0,0,0-.316.081,11.176,11.176,0,0,1-5.549,4.772,18.056,18.056,0,0,1-6.567,1.144h-.041a8.839,8.839,0,0,1-3.593-1.05,35.288,35.288,0,0,1-5.619-3.6c-.788-.6-1.453-1.142-1.92-1.533-.234-.2-.418-.353-.543-.462s-.192-.167-.192-.168a.236.236,0,0,0-.327.014A.221.221,0,0,0,425.5,312.309Z" transform="translate(-301.068 -217.61)" fill="#2a1e17" fill-rule="evenodd"/>
        <path id="Path_3819" data-name="Path 3819" d="M428.766,341.874a15.467,15.467,0,0,0,9.019,3.474,10.305,10.305,0,0,0,2.483-.3.224.224,0,0,0,.166-.273.231.231,0,0,0-.281-.162,9.816,9.816,0,0,1-2.368.286,13.348,13.348,0,0,1-6.163-1.681,16.916,16.916,0,0,1-1.871-1.158c-.22-.158-.391-.289-.507-.38-.057-.046-.1-.081-.13-.106l-.042-.035a.236.236,0,0,0-.326.019A.22.22,0,0,0,428.766,341.874Z" transform="translate(-303.375 -238.226)" fill="#2a1e17" fill-rule="evenodd"/>
        <path id="Path_3820" data-name="Path 3820" d="M447.935,364.61a6.283,6.283,0,0,0,3.479.984,7.8,7.8,0,0,0,3.47-.853.221.221,0,0,0,.1-.3.234.234,0,0,0-.311-.1,7.32,7.32,0,0,1-3.261.8,6.262,6.262,0,0,1-2.351-.452,5.182,5.182,0,0,1-.639-.309c-.073-.042-.127-.076-.163-.1l-.039-.027-.011-.007a.235.235,0,0,0-.324.045A.221.221,0,0,0,447.935,364.61Z" transform="translate(-316.929 -254.073)" fill="#2a1e17" fill-rule="evenodd"/>
        <path id="Path_3821" data-name="Path 3821" d="M403.9,373.959a15.094,15.094,0,0,0,9.942,3.594,18.334,18.334,0,0,0,6.921-1.422.222.222,0,0,0,.125-.293.234.234,0,0,0-.3-.121,17.868,17.868,0,0,1-6.744,1.387,15.169,15.169,0,0,1-7.079-1.737,13.853,13.853,0,0,1-1.893-1.192c-.215-.162-.377-.3-.486-.39-.054-.047-.095-.083-.121-.107l-.039-.036a.235.235,0,0,0-.327,0A.22.22,0,0,0,403.9,373.959Z" transform="translate(-285.781 -260.607)" fill="#2a1e17" fill-rule="evenodd"/>
        <path id="Path_3822" data-name="Path 3822" d="M415.94,353.875s.663.461,1.533,1a16.78,16.78,0,0,0,2.8,1.447.233.233,0,0,0,.3-.134.223.223,0,0,0-.138-.288,16.466,16.466,0,0,1-2.715-1.405c-.429-.264-.808-.509-1.079-.689s-.433-.292-.433-.292a.235.235,0,0,0-.322.052A.219.219,0,0,0,415.94,353.875Z" transform="translate(-294.284 -246.584)" fill="#2a1e17" fill-rule="evenodd"/>
        <path id="Path_3823" data-name="Path 3823" d="M483.937,272.227l.012,0a9.162,9.162,0,0,1,3.079,1.96,11.043,11.043,0,0,1,3.347,7.274.23.23,0,0,0,.251.2.226.226,0,0,0,.209-.244,11.451,11.451,0,0,0-3.636-7.694,9.43,9.43,0,0,0-3.12-1.93.232.232,0,0,0-.291.144A.223.223,0,0,0,483.937,272.227Z" transform="translate(-342.36 -189.625)" fill="#2a1e17" fill-rule="evenodd"/>
        <path id="Path_3824" data-name="Path 3824" d="M489.412,303l.007.01a5.579,5.579,0,0,1,.753,2.815,6.688,6.688,0,0,1-2.594,5.05.22.22,0,0,0-.015.317.236.236,0,0,0,.327.014,7.135,7.135,0,0,0,2.744-5.381,5.962,5.962,0,0,0-.834-3.068.235.235,0,0,0-.32-.067A.221.221,0,0,0,489.412,303Z" transform="translate(-344.996 -211.148)" fill="#2a1e17" fill-rule="evenodd"/>
        <path id="Path_3825" data-name="Path 3825" d="M376.712,392.74c.02.011,5.931,4.952,13.088,4.96,4.185,0,8.788-1.72,12.782-7.084a.22.22,0,0,0-.052-.314.236.236,0,0,0-.322.05c-3.93,5.264-8.354,6.894-12.407,6.9a19.9,19.9,0,0,1-9-2.426,25.853,25.853,0,0,1-2.77-1.671c-.328-.227-.583-.417-.755-.549l-.2-.153-.064-.053a.236.236,0,0,0-.326.025.22.22,0,0,0,.025.317" transform="translate(-266.535 -272.241)" fill="#2a1e17" fill-rule="evenodd"/>
        <path id="Path_3826" data-name="Path 3826" d="M11.55,242.592H15a.225.225,0,1,0,0-.449H11.55a.225.225,0,1,0,0,.449Z" transform="translate(-8.01 -168.951)" fill="#ff6d66" fill-rule="evenodd"/>
        <path id="Path_3827" data-name="Path 3827" d="M668.793,109.334h3.449a.225.225,0,1,0,0-.449h-3.449a.225.225,0,1,0,0,.449Z" transform="translate(-473.128 -76.022)" fill="#ff6d66" fill-rule="evenodd"/>
        <path id="Path_3828" data-name="Path 3828" d="M352.952,33.316H356.4v-.449h-3.449Z" transform="translate(-249.777 -23.01)" fill="#fad8b0" fill-rule="evenodd"/>
        <path id="Path_3829" data-name="Path 3829" d="M691.737,166.8l3.395.593.082-.442-3.395-.593" transform="translate(-489.529 -116.103)" fill="#fad8b0" fill-rule="evenodd"/>
        <path id="Path_3830" data-name="Path 3830" d="M227.855,443.25H231.3a.225.225,0,1,0,0-.449h-3.449a.225.225,0,1,0,0,.449Z" transform="translate(-161.085 -308.882)" fill="#a0c6f4" fill-rule="evenodd"/>
        <path id="Path_3831" data-name="Path 3831" d="M715.673,302.871a1.143,1.143,0,1,1-1.142-1.111A1.127,1.127,0,0,1,715.673,302.871Z" transform="translate(-504.85 -210.525)" fill="#91ba83" fill-rule="evenodd"/>
      </g>
    </g>
  </g>
</svg>
