<svg xmlns="http://www.w3.org/2000/svg" width="24.73" height="25.808" viewBox="0 0 24.73 25.808">
  <g id="Invoicing_Icon" data-name="Invoicing  Icon" transform="translate(0.85 1.986)">
    <path id="Path_3841" data-name="Path 3841" d="M23.167,27.808H8.028A2.831,2.831,0,0,1,5,25.227V2L8.785,4.581,11.813,2,15.6,4.581,19.383,2,22.41,4.581,26.2,2V25.227A2.831,2.831,0,0,1,23.167,27.808Z" transform="translate(-2.315 -3.986)" fill="#e6f1fb"/>
    <path id="Path_629" data-name="Path 629" d="M20.37,23.834H7.562A2.4,2.4,0,0,1,5,21.651V2L8.2,4.183,10.764,2l3.2,2.183L17.168,2,19.73,4.183,22.932,2V21.651A2.4,2.4,0,0,1,20.37,23.834Z" transform="translate(-5 -2)" fill="none" stroke="#0955e3" stroke-linecap="round" stroke-linejoin="round" stroke-width="1.7"/>
    <path id="Path_630" data-name="Path 630" d="M9,6h5.379" transform="translate(-2.724 11.467)" fill="none" stroke="#0955e3" stroke-linecap="round" stroke-linejoin="round" stroke-width="1.7"/>
    <path id="Path_631" data-name="Path 631" d="M9,10h5.379" transform="translate(-2.724 3.1)" fill="none" stroke="#0955e3" stroke-linecap="round" stroke-linejoin="round" stroke-width="1.7"/>
    <path id="Path_632" data-name="Path 632" d="M9,14h.9" transform="translate(-3.758 -5.266)" fill="none" stroke="#0955e3" stroke-linecap="round" stroke-linejoin="round" stroke-width="1.7"/>
  </g>
</svg>
