<svg xmlns="http://www.w3.org/2000/svg" width="25.514" height="28.456" viewBox="0 0 25.514 28.456">
  <g id="Invoicing_Icon" data-name="Invoicing  Icon" transform="translate(0.85 0.85)">
    <path id="Path_3845" data-name="Path 3845" d="M22.97,27.528H8a2.8,2.8,0,0,1-3-2.553V2L8.744,4.553l3-2.553,3.744,2.553L19.226,2l3,2.553L25.965,2V24.975A2.8,2.8,0,0,1,22.97,27.528Z" transform="translate(-1.301 0.078)" fill="#e6f1fb"/>
    <path id="Path_629" data-name="Path 629" d="M22.97,27.528H7.995A2.8,2.8,0,0,1,5,24.975V2L8.744,4.553,11.739,2l3.744,2.553L19.226,2l2.995,2.553L25.965,2V24.975A2.8,2.8,0,0,1,22.97,27.528Z" transform="translate(-5 -2)" fill="none" stroke="#0b51d5" stroke-linecap="round" stroke-linejoin="round" stroke-width="1.7"/>
    <path id="Path_630" data-name="Path 630" d="M9,6h6.289" transform="translate(-1.662 14.423)" fill="none" stroke="#ff6900" stroke-linecap="round" stroke-linejoin="round" stroke-width="1.7"/>
    <path id="Path_631" data-name="Path 631" d="M9,10h6.289" transform="translate(-1.662 5.317)" fill="none" stroke="#ff6900" stroke-linecap="round" stroke-linejoin="round" stroke-width="1.7"/>
    <path id="Path_632" data-name="Path 632" d="M9,14h1.048" transform="translate(-2.871 -3.789)" fill="none" stroke="#ff6900" stroke-linecap="round" stroke-linejoin="round" stroke-width="1.7"/>
  </g>
</svg>
