<svg xmlns="http://www.w3.org/2000/svg" width="18.644" height="27.864" viewBox="0 0 18.644 27.864">
  <g id="Point_of_Sale_Icon" data-name="Point of Sale Icon" transform="translate(0.25 0.259)">
    <rect id="Rectangle_482" data-name="Rectangle 482" width="16.273" height="23.981" rx="3" transform="translate(2.121 3.625)" fill="#e6f1fb"/>
    <path id="Path_653" data-name="Path 653" d="M132.36,5.026h-.446V.392a.392.392,0,0,0-.669-.277l-.561.561-.561-.561a.392.392,0,0,0-.554,0l-.561.561-.561-.561a.392.392,0,0,0-.554,0l-.561.561-.561-.561a.392.392,0,0,0-.554,0l-.561.561L125.1.115a.392.392,0,0,0-.554,0l-.561.561-.561-.561a.392.392,0,0,0-.669.277v3.35a.392.392,0,1,0,.784,0v-2.4l.169.169a.392.392,0,0,0,.554,0l.561-.561.561.561a.392.392,0,0,0,.554,0L126.5.946l.561.561a.392.392,0,0,0,.554,0l.561-.561.561.561a.392.392,0,0,0,.554,0l.561-.561.561.561a.392.392,0,0,0,.554,0l.169-.169V5.026h-8.821a2.069,2.069,0,0,0-2.067,2.067V24.682a2.069,2.069,0,0,0,2.067,2.067H132.36a2.069,2.069,0,0,0,2.067-2.067V7.093a2.069,2.069,0,0,0-2.067-2.067Zm0,20.94H122.309a1.285,1.285,0,0,1-1.283-1.283V15.023h9.24a.392.392,0,0,0,0-.784h-9.24V7.093a1.285,1.285,0,0,1,1.283-1.283H132.36a1.285,1.285,0,0,1,1.283,1.283v7.146h-1.7a.392.392,0,0,0,0,.784h1.7v9.659A1.285,1.285,0,0,1,132.36,25.965Z" transform="translate(-120.242 0)" fill="#0b51d5" stroke="#0b51d5" stroke-width="0.5"/>
    <path id="Path_654" data-name="Path 654" d="M177.5,148.87v-4.188a.392.392,0,0,0-.392-.392h-8.376a.392.392,0,0,0-.392.392v4.188a.392.392,0,0,0,.392.392h8.376A.392.392,0,0,0,177.5,148.87Zm-.784-.392h-7.592v-3.4h7.592Z" transform="translate(-165.826 -136.752)" fill="#ff6900" stroke="#ff6900" stroke-width="0.5"/>
    <path id="Path_664" data-name="Path 664" d="M213,64.913a.392.392,0,0,0,0-.784h-4.188a.392.392,0,0,0,0,.784Z" transform="translate(-203.812 -60.779)" fill="#0b51d5" stroke="#0b51d5" stroke-width="0.5"/>
    <path id="Path_665" data-name="Path 665" d="M208.811,185.155H213a.392.392,0,1,0,0-.784h-4.188a.392.392,0,1,0,0,.784Z" transform="translate(-203.812 -174.739)" fill="#ff6900" stroke="#ff6900" stroke-width="0.5"/>
  </g>
</svg>
