<svg xmlns="http://www.w3.org/2000/svg" width="14.192" height="26.327" viewBox="0 0 14.192 26.327">
  <g id="Point_of_Sale_Icon" data-name="Point of Sale Icon" transform="translate(0.25 0.259)">
    <path id="Path_653" data-name="Path 653" d="M131.938,4.851h-.43V.378a.378.378,0,0,0-.646-.267l-.541.541-.541-.541a.378.378,0,0,0-.535,0L128.7.652l-.541-.541a.378.378,0,0,0-.535,0l-.541.541-.541-.541a.378.378,0,0,0-.535,0l-.541.541L124.93.111a.378.378,0,0,0-.535,0l-.541.541-.541-.541a.378.378,0,0,0-.646.267V3.612a.378.378,0,1,0,.756,0V1.291l.163.163a.378.378,0,0,0,.535,0l.541-.541.541.541a.378.378,0,0,0,.535,0l.541-.541.541.541a.378.378,0,0,0,.535,0L127.9.913l.541.541a.378.378,0,0,0,.535,0l.541-.541.541.541a.378.378,0,0,0,.535,0l.163-.163V4.851h-8.515a2,2,0,0,0-2,2V23.824a2,2,0,0,0,2,2h9.7a2,2,0,0,0,2-2V6.846a2,2,0,0,0-2-2Zm0,20.211h-9.7A1.24,1.24,0,0,1,121,23.824V14.5h8.919a.378.378,0,0,0,0-.756H121v-6.9a1.24,1.24,0,0,1,1.239-1.239h9.7a1.24,1.24,0,0,1,1.239,1.239v6.9h-1.643a.378.378,0,0,0,0,.756h1.643v9.323A1.24,1.24,0,0,1,131.938,25.062Z" transform="translate(-120.242 0)" fill="#a3afbc" stroke="#a3afbc" stroke-width="0.5"/>
    <path id="Path_654" data-name="Path 654" d="M177.18,148.71v-4.042a.378.378,0,0,0-.378-.378h-8.085a.378.378,0,0,0-.378.378v4.042a.378.378,0,0,0,.378.378H176.8A.378.378,0,0,0,177.18,148.71Zm-.756-.378H169.1v-3.286h7.328Z" transform="translate(-165.914 -137.014)" fill="#a3afbc" stroke="#a3afbc" stroke-width="0.5"/>
    <path id="Path_664" data-name="Path 664" d="M212.839,64.885a.378.378,0,1,0,0-.756H208.8a.378.378,0,0,0,0,.756Z" transform="translate(-203.973 -60.895)" fill="#a3afbc" stroke="#a3afbc" stroke-width="0.5"/>
    <path id="Path_665" data-name="Path 665" d="M208.8,185.127h4.042a.378.378,0,1,0,0-.756H208.8a.378.378,0,1,0,0,.756Z" transform="translate(-203.973 -175.074)" fill="#a3afbc" stroke="#a3afbc" stroke-width="0.5"/>
  </g>
</svg>
