<svg xmlns="http://www.w3.org/2000/svg" width="22.803" height="22.803" viewBox="0 0 22.803 22.803">
  <path id="Icon_weather-time-2" data-name="Icon weather-time-2" d="M4.488,15.25A11.18,11.18,0,0,1,6.027,9.519a11.392,11.392,0,0,1,4.162-4.162,11.38,11.38,0,0,1,10.136-.628,11.5,11.5,0,0,1,3.635,2.43A11.164,11.164,0,0,1,26.39,10.8,11.323,11.323,0,0,1,20.324,25.73a11.364,11.364,0,0,1-8.87,0,11.22,11.22,0,0,1-6.075-6.055A10.973,10.973,0,0,1,4.488,15.25ZM7,15.25a8.605,8.605,0,0,0,2.623,6.258A8.552,8.552,0,0,0,15.9,24.13a8.608,8.608,0,0,0,4.445-1.195,8.983,8.983,0,0,0,3.25-3.24,8.82,8.82,0,0,0,0-8.9,8.933,8.933,0,0,0-3.25-3.25,8.866,8.866,0,0,0-8.89,0,9.118,9.118,0,0,0-3.26,3.25A8.574,8.574,0,0,0,7,15.25Zm8.019,0V8.506a.84.84,0,1,1,1.681,0v5.275l2.815-1.59a.846.846,0,0,1,1.225.962.815.815,0,0,1-.395.516l-3.929,2.2a.845.845,0,0,1-1.164-.02A.793.793,0,0,1,15.019,15.25Z" transform="translate(-4.488 -3.828)" fill="#0b51d5"/>
</svg>
