<svg xmlns="http://www.w3.org/2000/svg" width="19.951" height="22.001" viewBox="0 0 19.951 22.001">
  <g id="Icon_feather-share-2" data-name="Icon feather-share-2" transform="translate(-3.75 -2.25)">
    <path id="Path_3861" data-name="Path 3861" d="M28.65,6.075A3.075,3.075,0,1,1,25.575,3,3.075,3.075,0,0,1,28.65,6.075Z" transform="translate(-5.699 0)" fill="none" stroke="#000" stroke-linecap="round" stroke-linejoin="round" stroke-width="1.5"/>
    <path id="Path_3862" data-name="Path 3862" d="M10.65,16.575A3.075,3.075,0,1,1,7.575,13.5,3.075,3.075,0,0,1,10.65,16.575Z" transform="translate(0 -3.325)" fill="none" stroke="#000" stroke-linecap="round" stroke-linejoin="round" stroke-width="1.5"/>
    <path id="Path_3863" data-name="Path 3863" d="M28.65,27.075A3.075,3.075,0,1,1,25.575,24,3.075,3.075,0,0,1,28.65,27.075Z" transform="translate(-5.699 -6.649)" fill="none" stroke="#000" stroke-linecap="round" stroke-linejoin="round" stroke-width="1.5"/>
    <path id="Path_3864" data-name="Path 3864" d="M12.885,20.265l7,4.08" transform="translate(-2.655 -5.466)" fill="none" stroke="#000" stroke-linecap="round" stroke-linejoin="round" stroke-width="1.5"/>
    <path id="Path_3865" data-name="Path 3865" d="M19.876,9.765l-6.991,4.08" transform="translate(-2.655 -2.142)" fill="none" stroke="#000" stroke-linecap="round" stroke-linejoin="round" stroke-width="1.5"/>
  </g>
</svg>
